<svg width="40" height="40" viewBox="0 0 40 40" fill="none" xmlns="http://www.w3.org/2000/svg">
<mask id="mask0" mask-type="alpha" maskUnits="userSpaceOnUse" x="0" y="-1" width="40" height="41">
<rect y="-0.00012207" width="40" height="40" fill="url(#paint0_linear)"/>
</mask>
<g mask="url(#mask0)">
<path d="M36.0938 3.43787H32.3698V2.34412C32.3698 1.05177 31.3184 0.000366211 30.026 0.000366211C28.7337 0.000366211 27.6823 1.05177 27.6823 2.34412V3.43787H14.5573V2.34412C14.5573 1.05177 13.5059 0.000366211 12.2135 0.000366211C10.9212 0.000366211 9.86977 1.05177 9.86977 2.34412V3.46677C9.80336 3.44841 9.73375 3.43787 9.66148 3.43787H6.54867C4.39477 3.43787 2.64242 5.19021 2.64242 7.34412V20.6514C2.64242 21.0829 2.99227 21.4326 3.42367 21.4326C3.85508 21.4326 4.20492 21.0829 4.20492 20.6514V11.4847H32.3698C32.8012 11.4847 33.151 11.135 33.151 10.7035C33.151 10.272 32.8012 9.92224 32.3698 9.92224H4.20492V7.34412C4.20492 6.05177 5.25633 5.00037 6.54867 5.00037H9.66148C9.73375 5.00037 9.80336 4.98974 9.86977 4.97146V5.97693C9.86977 7.26927 10.9212 8.32068 12.2135 8.32068C13.5059 8.32068 14.5573 7.26927 14.5573 5.97693V5.00037H27.6823V5.97693C27.6823 7.26927 28.7337 8.32068 30.026 8.32068C31.3184 8.32068 32.3698 7.26927 32.3698 5.97693V5.00037H36.0938C37.3861 5.00037 38.4375 6.05177 38.4375 7.34412V37.0311C38.4375 37.8068 37.8065 38.4379 37.0308 38.4379C36.2551 38.4379 35.6241 37.8068 35.6241 37.0311V35.0101C35.6241 34.5786 35.2742 34.2289 34.8428 34.2289H25.7552C25.3238 34.2289 24.974 34.5786 24.974 35.0101C24.974 35.4416 25.3238 35.7914 25.7552 35.7914H34.0616V37.0311C34.0616 37.5398 34.1903 38.0189 34.4166 38.4379H2.96875C2.19336 38.4379 1.5625 37.807 1.5625 37.0316V35.7914H19.0488C19.4802 35.7914 19.8301 35.4416 19.8301 35.0101C19.8301 34.5786 19.4802 34.2289 19.0488 34.2289H11.2429C12.608 33.0532 13.4749 31.3141 13.4749 29.3754C13.4749 25.8429 10.6011 22.9691 7.06867 22.9691C3.53625 22.9691 0.662422 25.8429 0.662422 29.3754C0.662422 31.3141 1.5293 33.0532 2.89445 34.2289H0.78125C0.349844 34.2289 0 34.5786 0 35.0101V37.0316C0 38.6686 1.3318 40.0004 2.96875 40.0004H37.0308C38.668 40.0004 40 38.6684 40 37.0311V7.34412C40 5.19021 38.2477 3.43787 36.0938 3.43787ZM12.9948 5.97693C12.9948 6.40771 12.6443 6.75818 12.2135 6.75818C11.7827 6.75818 11.4323 6.40771 11.4323 5.97693V2.34412C11.4323 1.91333 11.7827 1.56287 12.2135 1.56287C12.6443 1.56287 12.9948 1.91333 12.9948 2.34412V5.97693ZM30.8073 5.97693C30.8073 6.40771 30.4568 6.75818 30.026 6.75818C29.5952 6.75818 29.2448 6.40771 29.2448 5.97693V2.34412C29.2448 1.91333 29.5952 1.56287 30.026 1.56287C30.4568 1.56287 30.8073 1.91333 30.8073 2.34412V5.97693ZM2.22492 29.3754C2.22492 26.7045 4.39781 24.5316 7.06867 24.5316C9.73953 24.5316 11.9124 26.7045 11.9124 29.3754C11.9124 32.0462 9.73953 34.2191 7.06867 34.2191C4.39781 34.2191 2.22492 32.0462 2.22492 29.3754Z" fill="url(#paint1_linear)"/>
<path d="M36.5874 10.1514C36.4422 10.0061 36.2406 9.92249 36.0352 9.92249C35.8296 9.92249 35.6281 10.0061 35.4828 10.1514C35.3375 10.2967 35.2539 10.4983 35.2539 10.7037C35.2539 10.9092 35.3374 11.1108 35.4828 11.2561C35.6282 11.4014 35.8296 11.485 36.0352 11.485C36.2406 11.485 36.4422 11.4014 36.5874 11.2561C36.7327 11.1108 36.8164 10.9092 36.8164 10.7037C36.8164 10.4983 36.7328 10.2967 36.5874 10.1514Z" fill="url(#paint2_linear)"/>
<path d="M23.333 34.4564C23.1878 34.3111 22.9862 34.2283 22.7808 34.2283C22.5753 34.2283 22.3737 34.3111 22.2284 34.4564C22.0831 34.6025 21.9995 34.8033 21.9995 35.0087C21.9995 35.215 22.083 35.4158 22.2284 35.5619C22.3737 35.7072 22.5753 35.79 22.7808 35.79C22.9862 35.79 23.1878 35.7072 23.333 35.5619C23.4783 35.4158 23.562 35.2142 23.562 35.0087C23.562 34.8033 23.4784 34.6025 23.333 34.4564Z" fill="url(#paint3_linear)"/>
<path d="M17.6758 23.75C16.0388 23.75 14.707 25.0818 14.707 26.7188C14.707 28.3557 16.0388 29.6875 17.6758 29.6875C19.3127 29.6875 20.6445 28.3557 20.6445 26.7188C20.6445 25.0818 19.3127 23.75 17.6758 23.75ZM17.6758 28.125C16.9004 28.125 16.2695 27.4941 16.2695 26.7188C16.2695 25.9434 16.9004 25.3125 17.6758 25.3125C18.4512 25.3125 19.082 25.9434 19.082 26.7188C19.082 27.4941 18.4512 28.125 17.6758 28.125Z" fill="url(#paint4_linear)"/>
<path d="M24.9658 23.75C23.3289 23.75 21.9971 25.0818 21.9971 26.7188C21.9971 28.3557 23.3289 29.6875 24.9658 29.6875C26.6028 29.6875 27.9346 28.3557 27.9346 26.7188C27.9346 25.0818 26.6028 23.75 24.9658 23.75ZM24.9658 28.125C24.1904 28.125 23.5596 27.4941 23.5596 26.7188C23.5596 25.9434 24.1904 25.3125 24.9658 25.3125C25.7412 25.3125 26.3721 25.9434 26.3721 26.7188C26.3721 27.4941 25.7412 28.125 24.9658 28.125Z" fill="url(#paint5_linear)"/>
<path d="M32.2583 23.75C30.6213 23.75 29.2896 25.0818 29.2896 26.7188C29.2896 28.3557 30.6213 29.6875 32.2583 29.6875C33.8953 29.6875 35.2271 28.3557 35.2271 26.7188C35.2271 25.0818 33.8953 23.75 32.2583 23.75ZM32.2583 28.125C31.4829 28.125 30.8521 27.4941 30.8521 26.7188C30.8521 25.9434 31.4829 25.3125 32.2583 25.3125C33.0337 25.3125 33.6646 25.9434 33.6646 26.7188C33.6646 27.4941 33.0337 28.125 32.2583 28.125Z" fill="url(#paint6_linear)"/>
<path d="M10.3833 15.6243C8.74635 15.6243 7.41455 16.9561 7.41455 18.593C7.41455 20.23 8.74635 21.5618 10.3833 21.5618C12.0203 21.5618 13.3521 20.23 13.3521 18.593C13.3521 16.9561 12.0203 15.6243 10.3833 15.6243ZM10.3833 19.9993C9.60791 19.9993 8.97705 19.3684 8.97705 18.593C8.97705 17.8176 9.60791 17.1868 10.3833 17.1868C11.1587 17.1868 11.7896 17.8176 11.7896 18.593C11.7896 19.3684 11.1587 19.9993 10.3833 19.9993Z" fill="url(#paint7_linear)"/>
<path d="M24.9658 15.6243C23.3289 15.6243 21.9971 16.9561 21.9971 18.593C21.9971 20.23 23.3289 21.5618 24.9658 21.5618C26.6028 21.5618 27.9346 20.23 27.9346 18.593C27.9346 16.9561 26.6028 15.6243 24.9658 15.6243ZM24.9658 19.9993C24.1904 19.9993 23.5596 19.3684 23.5596 18.593C23.5596 17.8176 24.1904 17.1868 24.9658 17.1868C25.7412 17.1868 26.3721 17.8176 26.3721 18.593C26.3721 19.3684 25.7412 19.9993 24.9658 19.9993Z" fill="url(#paint8_linear)"/>
<path d="M32.2583 15.6243C30.6213 15.6243 29.2896 16.9561 29.2896 18.593C29.2896 20.23 30.6213 21.5618 32.2583 21.5618C33.8953 21.5618 35.2271 20.23 35.2271 18.593C35.2271 16.9561 33.8953 15.6243 32.2583 15.6243ZM32.2583 19.9993C31.4829 19.9993 30.8521 19.3684 30.8521 18.593C30.8521 17.8176 31.4829 17.1868 32.2583 17.1868C33.0337 17.1868 33.6646 17.8176 33.6646 18.593C33.6646 19.3684 33.0337 19.9993 32.2583 19.9993Z" fill="url(#paint9_linear)"/>
<path d="M17.6758 15.6243C16.0388 15.6243 14.707 16.9561 14.707 18.593C14.707 20.23 16.0388 21.5618 17.6758 21.5618C19.3127 21.5618 20.6445 20.23 20.6445 18.593C20.6445 16.9561 19.3127 15.6243 17.6758 15.6243ZM17.6758 19.9993C16.9004 19.9993 16.2695 19.3684 16.2695 18.593C16.2695 17.8176 16.9004 17.1868 17.6758 17.1868C18.4512 17.1868 19.082 17.8176 19.082 18.593C19.082 19.3684 18.4512 19.9993 17.6758 19.9993Z" fill="url(#paint10_linear)"/>
<path d="M9.85135 27.471C9.54619 27.1659 9.05166 27.1659 8.74643 27.471L6.20221 30.0153L5.33275 29.1458C5.0276 28.8408 4.53307 28.8408 4.22783 29.1458C3.92275 29.4509 3.92275 29.9456 4.22783 30.2508L5.64978 31.6726C5.79635 31.819 5.99502 31.9014 6.20221 31.9014C6.40939 31.9014 6.60807 31.819 6.75463 31.6726L9.85135 28.5758C10.1564 28.2708 10.1564 27.7761 9.85135 27.471Z" fill="url(#paint11_linear)"/>
</g>
<defs>
<linearGradient id="paint0_linear" x1="-69.4215" y1="-143.478" x2="-139.379" y2="-71.3609" gradientUnits="userSpaceOnUse">
<stop stop-color="#009CBD"/>
<stop offset="1" stop-color="#00D788"/>
</linearGradient>
<linearGradient id="paint1_linear" x1="-69.4215" y1="-143.478" x2="-139.379" y2="-71.3604" gradientUnits="userSpaceOnUse">
<stop stop-color="#009CBD"/>
<stop offset="1" stop-color="#00D788"/>
</linearGradient>
<linearGradient id="paint2_linear" x1="32.5421" y1="4.31787" x2="29.8094" y2="7.13495" gradientUnits="userSpaceOnUse">
<stop stop-color="#009CBD"/>
<stop offset="1" stop-color="#00D788"/>
</linearGradient>
<linearGradient id="paint3_linear" x1="19.2877" y1="28.6265" x2="16.5564" y2="31.4435" gradientUnits="userSpaceOnUse">
<stop stop-color="#009CBD"/>
<stop offset="1" stop-color="#00D788"/>
</linearGradient>
<linearGradient id="paint4_linear" x1="4.40228" y1="2.45245" x2="-5.9821" y2="13.1574" gradientUnits="userSpaceOnUse">
<stop stop-color="#009CBD"/>
<stop offset="1" stop-color="#00D788"/>
</linearGradient>
<linearGradient id="paint5_linear" x1="11.6923" y1="2.45245" x2="1.30794" y2="13.1574" gradientUnits="userSpaceOnUse">
<stop stop-color="#009CBD"/>
<stop offset="1" stop-color="#00D788"/>
</linearGradient>
<linearGradient id="paint6_linear" x1="18.9848" y1="2.45245" x2="8.60042" y2="13.1574" gradientUnits="userSpaceOnUse">
<stop stop-color="#009CBD"/>
<stop offset="1" stop-color="#00D788"/>
</linearGradient>
<linearGradient id="paint7_linear" x1="-2.8902" y1="-5.67329" x2="-13.2746" y2="5.03165" gradientUnits="userSpaceOnUse">
<stop stop-color="#009CBD"/>
<stop offset="1" stop-color="#00D788"/>
</linearGradient>
<linearGradient id="paint8_linear" x1="11.6923" y1="-5.67329" x2="1.30794" y2="5.03165" gradientUnits="userSpaceOnUse">
<stop stop-color="#009CBD"/>
<stop offset="1" stop-color="#00D788"/>
</linearGradient>
<linearGradient id="paint9_linear" x1="18.9848" y1="-5.67329" x2="8.60042" y2="5.03165" gradientUnits="userSpaceOnUse">
<stop stop-color="#009CBD"/>
<stop offset="1" stop-color="#00D788"/>
</linearGradient>
<linearGradient id="paint10_linear" x1="4.40228" y1="-5.67329" x2="-5.9821" y2="5.03165" gradientUnits="userSpaceOnUse">
<stop stop-color="#009CBD"/>
<stop offset="1" stop-color="#00D788"/>
</linearGradient>
<linearGradient id="paint11_linear" x1="-6.55501" y1="10.5298" x2="-14.3612" y2="21.0329" gradientUnits="userSpaceOnUse">
<stop stop-color="#009CBD"/>
<stop offset="1" stop-color="#00D788"/>
</linearGradient>
</defs>
</svg>
