<svg width="30" height="40" viewBox="0 0 30 40" fill="none" xmlns="http://www.w3.org/2000/svg">
<path d="M28.3063 0.526414C27.819 0.109382 27.1758 -0.0725714 26.5422 0.0264132L2.15102 3.84454C2.06196 3.85845 1.9786 3.88767 1.90282 3.9283C0.807267 4.23009 0 5.23455 0 6.42471V37.4105C0 38.8383 1.16164 40 2.58954 40H23.0814C24.29 40 25.2733 39.0167 25.2733 37.808V36.1807L27.2258 35.8699C28.2961 35.6994 29.0731 34.7891 29.0731 33.7052V2.19196C29.0732 1.55056 28.7937 0.943446 28.3063 0.526414ZM23.7108 34.8473V36.4295V37.8081C23.7108 38.1552 23.4285 38.4376 23.0814 38.4376H11.0959H2.58954C2.02321 38.4376 1.5625 37.9769 1.5625 37.4105V6.42478C1.5625 5.85846 2.02321 5.39775 2.58954 5.39775H3.05305H23.0814C23.4284 5.39775 23.7108 5.6801 23.7108 6.02728V34.8473ZM27.5108 33.7054C27.5107 34.0166 27.2875 34.278 26.9801 34.3269L25.2733 34.5987V6.02721C25.2733 4.81853 24.29 3.83517 23.0814 3.83517H12.3144L26.7839 1.57017C27.0329 1.53079 27.2082 1.64337 27.2904 1.71376C27.3727 1.78407 27.5107 1.93985 27.5107 2.19196V33.7054H27.5108Z" fill="white"/>
<path d="M20.8446 12.3488C20.8065 12.2489 20.7659 12.1478 20.7238 12.0484C20.5554 11.6512 20.0969 11.4657 19.6995 11.634C19.3023 11.8024 19.1168 12.2609 19.2852 12.6581C19.3199 12.74 19.3533 12.8231 19.3845 12.9052C20.3139 15.3443 19.8531 18.1042 18.1821 20.1076L12.6353 26.7581L7.08842 20.1076C4.67889 17.2186 4.86779 13.0341 7.52788 10.374C9.57515 8.32672 12.635 7.69899 15.3235 8.77516C15.7241 8.93547 16.1788 8.74078 16.3391 8.34016C16.4995 7.93961 16.3047 7.48492 15.9041 7.32453C12.6345 6.01601 8.91304 6.77922 6.42311 9.26914C4.86873 10.8235 3.95803 12.8891 3.85889 15.0851C3.75967 17.2811 4.48053 19.4203 5.8885 21.1085L12.0353 28.4784C12.1837 28.6564 12.4035 28.7593 12.6353 28.7593C12.8671 28.7593 13.0868 28.6564 13.2353 28.4784L19.3821 21.1086C21.4144 18.6717 21.9749 15.3152 20.8446 12.3488Z" fill="white"/>
<path d="M17.5881 30.4458H7.68335C7.25187 30.4458 6.9021 30.7956 6.9021 31.2271C6.9021 31.6585 7.25187 32.0083 7.68335 32.0083H17.5881C18.0195 32.0083 18.3693 31.6585 18.3693 31.2271C18.3693 30.7956 18.0195 30.4458 17.5881 30.4458Z" fill="white"/>
<path d="M21.6355 34.7949C21.6261 34.745 21.6105 34.6957 21.591 34.6489C21.5714 34.6013 21.5472 34.5559 21.5191 34.5138C21.491 34.4708 21.4582 34.4309 21.4222 34.395C21.3863 34.3591 21.3464 34.3262 21.3035 34.2981C21.2613 34.2701 21.216 34.2458 21.1683 34.2263C21.1214 34.2067 21.0722 34.1911 21.0222 34.1818C20.9214 34.1614 20.8183 34.1614 20.7167 34.1818C20.6675 34.1911 20.6183 34.2067 20.5707 34.2263C20.5238 34.2458 20.4785 34.2701 20.4363 34.2981C20.3933 34.3262 20.3535 34.3591 20.3175 34.395C20.2816 34.4309 20.2488 34.4708 20.2199 34.5138C20.1917 34.5559 20.1675 34.6013 20.148 34.6489C20.1285 34.6958 20.1136 34.745 20.1035 34.795C20.0933 34.845 20.0886 34.8966 20.0886 34.9473C20.0886 34.998 20.0933 35.0497 20.1035 35.0997C20.1136 35.1497 20.1285 35.1989 20.148 35.2466C20.1675 35.2934 20.1917 35.3388 20.2199 35.3809C20.2243 35.3876 20.2296 35.3937 20.2342 35.4002C20.2597 35.4356 20.2872 35.4693 20.3175 35.4996C20.3535 35.5355 20.3933 35.5684 20.4363 35.5973C20.4785 35.6254 20.5238 35.6488 20.5707 35.6684C20.6183 35.6879 20.6675 35.7035 20.7167 35.7137C20.7675 35.7238 20.8191 35.7285 20.8699 35.7285C20.9207 35.7285 20.9722 35.7238 21.0222 35.7137C21.0722 35.7036 21.1214 35.6879 21.1683 35.6684C21.216 35.6488 21.2613 35.6254 21.3035 35.5973C21.3464 35.5684 21.3863 35.5355 21.4222 35.4996C21.4582 35.4637 21.491 35.4238 21.5191 35.3809C21.5472 35.3387 21.5714 35.2934 21.591 35.2465C21.5999 35.2248 21.6075 35.2027 21.6145 35.1804C21.6228 35.1538 21.63 35.1269 21.6355 35.0996C21.6457 35.0495 21.6511 34.998 21.6511 34.9473C21.6511 34.8965 21.6457 34.8448 21.6355 34.7949Z" fill="white"/>
<path d="M17.7251 34.1665H4.40112C3.96964 34.1665 3.61987 34.5163 3.61987 34.9478C3.61987 35.3792 3.96964 35.729 4.40112 35.729H17.7251C18.1566 35.729 18.5064 35.3792 18.5064 34.9478C18.5064 34.5163 18.1566 34.1665 17.7251 34.1665Z" fill="white"/>
<path d="M18.3956 15.7572C18.3956 15.7529 18.3953 15.7485 18.3953 15.7442C18.3869 12.5823 15.8181 10.0115 12.6568 9.99981C12.6512 9.99958 12.6456 9.99935 12.6399 9.99935C12.6384 9.99935 12.6369 9.99927 12.6353 9.99927C9.45914 9.99927 6.875 12.5833 6.875 15.7595C6.875 15.762 6.87516 15.7645 6.87516 15.767C6.87523 15.7731 6.87539 15.7791 6.87562 15.7851C6.88961 18.9495 9.46766 21.5198 12.6353 21.5198C15.8115 21.5198 18.3956 18.9358 18.3956 15.7595C18.3956 15.7587 18.3956 15.7579 18.3956 15.7572ZM8.4725 15.2276C8.68383 13.5648 9.87094 12.203 11.4406 11.736C11.022 13.0456 10.8138 14.4084 10.8159 15.7709C10.022 15.6733 9.23735 15.4909 8.4725 15.2276ZM8.59836 16.907C9.35828 17.1264 10.1329 17.2755 10.9142 17.354C11.0147 18.1762 11.1923 18.9905 11.4478 19.7851C10.0734 19.379 8.99125 18.2871 8.59836 16.907ZM13.1538 19.9241C12.8402 19.1108 12.6218 18.2691 12.4985 17.416C13.3257 17.398 14.1545 17.302 14.9748 17.1257L16.7135 16.7522C16.3062 18.4256 14.8936 19.7087 13.1538 19.9241ZM14.6466 15.598C13.8953 15.7594 13.1364 15.8433 12.3791 15.854C12.3661 14.4083 12.6218 12.9609 13.1463 11.594C15.0163 11.8221 16.5105 13.2835 16.7869 15.1382L14.6466 15.598Z" fill="white"/>
<path d="M19.0646 9.66935C19.0544 9.62013 19.0396 9.57091 19.02 9.52325C19.0005 9.47638 18.9763 9.43107 18.9482 9.38888C18.92 9.34591 18.8872 9.30599 18.8513 9.27005C18.8154 9.23411 18.7747 9.2013 18.7325 9.17239C18.6896 9.14435 18.6443 9.12005 18.5974 9.10052C18.5505 9.08099 18.5013 9.06622 18.4513 9.05606C18.3505 9.03567 18.2466 9.03567 18.1458 9.05606C18.0958 9.06622 18.0466 9.08099 17.9997 9.10052C17.9529 9.12005 17.9075 9.14435 17.8646 9.17239C17.8224 9.2013 17.7825 9.23411 17.7458 9.27005C17.7099 9.30599 17.6779 9.34591 17.6489 9.38888C17.6208 9.43107 17.5966 9.47638 17.5771 9.52325C17.5575 9.57091 17.5427 9.62013 17.5325 9.66935C17.5224 9.72013 17.5177 9.77091 17.5177 9.82247C17.5177 9.87325 17.5224 9.92489 17.5325 9.97482C17.5427 10.0247 17.5575 10.074 17.5771 10.1209C17.5966 10.1685 17.6208 10.2138 17.6489 10.256C17.6779 10.299 17.7099 10.3389 17.7458 10.3748C17.7825 10.4108 17.8224 10.4436 17.8646 10.4717C17.9075 10.4997 17.9529 10.524 17.9997 10.5436C18.0466 10.5631 18.0958 10.5779 18.1458 10.588C18.1966 10.5982 18.2482 10.6036 18.299 10.6036C18.3497 10.6036 18.4013 10.5982 18.4513 10.588C18.5013 10.5779 18.5505 10.5631 18.5974 10.5436C18.6443 10.524 18.6896 10.4997 18.7325 10.4717C18.7747 10.4436 18.8154 10.4108 18.8513 10.3748C18.8872 10.3389 18.92 10.299 18.9482 10.256C18.9763 10.2138 19.0005 10.1685 19.02 10.1209C19.0396 10.074 19.0544 10.0248 19.0646 9.97482C19.0747 9.92482 19.0802 9.87325 19.0802 9.82247C19.0802 9.77091 19.0747 9.72013 19.0646 9.66935Z" fill="white"/>
</svg>
