<svg width="40" height="40" viewBox="0 0 40 40" fill="none" xmlns="http://www.w3.org/2000/svg">
<path d="M27.3029 21.3095C26.935 21.3095 26.637 21.6077 26.637 21.9754V37.9576C26.637 38.3254 26.3388 38.6235 25.9711 38.6235H1.99774C1.62993 38.6235 1.33186 38.3254 1.33186 37.9576V1.99774C1.33186 1.62993 1.63001 1.33186 1.99774 1.33186H25.971C26.3388 1.33186 26.6369 1.63001 26.6369 1.99774V5.99331C26.6369 6.36113 26.935 6.6592 27.3028 6.6592C27.6705 6.6592 27.9687 6.36105 27.9687 5.99331V1.99774C27.9687 0.894384 27.0742 0 25.9709 0H1.99774C0.894463 0 0 0.894463 0 1.99774V37.9576C0 39.061 0.894463 39.9554 1.99774 39.9554H25.971C27.0744 39.9554 27.9687 39.0609 27.9687 37.9576V21.9755C27.9688 21.6077 27.6707 21.3095 27.3029 21.3095Z" fill="white"/>
<path d="M39.0252 2.26304C37.7289 0.966806 35.6287 0.962205 34.3268 2.25273L34.3281 2.25209L29.9437 6.63586L7.01717 29.5637C7.0105 29.5697 7.00852 29.5784 7.00249 29.5843C6.94981 29.6391 6.90705 29.7027 6.87595 29.7721L6.87063 29.7834L4.05046 36.3641C3.96224 36.5698 3.98334 36.8061 4.10655 36.993C4.22977 37.1799 4.43859 37.2924 4.66248 37.2924C4.75269 37.2926 4.84202 37.2743 4.92485 37.2385L11.5049 34.4183L11.5162 34.413C11.5858 34.3822 11.6494 34.3394 11.704 34.2865C11.71 34.2804 11.7187 34.2785 11.7246 34.2718L34.6517 11.346L39.0355 6.96163C40.326 5.6596 40.3214 3.55935 39.0252 2.26304ZM5.92777 35.3612L7.70979 31.2031L10.0858 33.5792L5.92777 35.3612ZM11.2551 32.8593L8.42963 30.0338L30.4151 8.04904L33.24 10.8739L11.2551 32.8593ZM34.1816 9.93222L31.3567 7.10737L32.4442 6.01924L35.2697 8.84473L34.1816 9.93222ZM38.0952 6.02258L38.0919 6.02194L36.208 7.90584L33.3858 5.07765L35.2697 3.19709C35.7745 2.69234 36.5101 2.49526 37.1995 2.67996C37.889 2.86474 38.4275 3.40321 38.6123 4.09275C38.797 4.7822 38.5999 5.51783 38.0952 6.02258Z" fill="white"/>
<path d="M21.9752 5.99341H5.99304C5.62522 5.99341 5.32715 6.29156 5.32715 6.6593C5.32715 7.02703 5.6253 7.32518 5.99304 7.32518H21.9752C22.343 7.32518 22.6411 7.02703 22.6411 6.6593C22.6411 6.29156 22.343 5.99341 21.9752 5.99341Z" fill="white"/>
<path d="M22.6411 10.6547C22.6411 10.2868 22.343 9.98877 21.9752 9.98877H5.99304C5.62522 9.98877 5.32715 10.2869 5.32715 10.6547C5.32715 11.0224 5.6253 11.3205 5.99304 11.3205H21.9752C22.343 11.3206 22.6411 11.0225 22.6411 10.6547Z" fill="white"/>
<path d="M5.99304 13.9841C5.62522 13.9841 5.32715 14.2823 5.32715 14.65C5.32715 15.0178 5.6253 15.3159 5.99304 15.3159H17.9797C18.3475 15.3159 18.6456 15.0178 18.6456 14.65C18.6456 14.2823 18.3474 13.9841 17.9797 13.9841H5.99304Z" fill="white"/>
</svg>
