<svg width="40" height="40" viewBox="0 0 40 40" fill="none" xmlns="http://www.w3.org/2000/svg">
<path d="M28.6664 37.3323H10C9.63204 37.3323 9.33337 37.6309 9.33337 37.9989V39.3322C9.33337 39.7002 9.63204 39.9989 10 39.9989C10.368 39.9989 10.6666 39.7002 10.6666 39.3322V38.6656H28.6664C29.0343 38.6656 29.333 38.3669 29.333 37.999C29.333 37.631 29.0344 37.3323 28.6664 37.3323Z" fill="white"/>
<path d="M14.6653 16.6671C14.6653 17.035 14.964 17.3337 15.3319 17.3337H17.9986C18.3666 17.3337 18.6652 17.035 18.6652 16.6671V12.6671C18.6652 12.2992 18.3666 12.0005 17.9986 12.0005H15.332C14.964 12.0005 14.6654 12.2992 14.6654 12.6671V16.6671H14.6653ZM15.9986 13.3338H17.332V16.0004H15.9986V13.3338Z" fill="white"/>
<path d="M8.66651 7.99927H0.666631C0.298667 7.99927 0 8.29793 0 8.6659V21.9991C0 22.367 0.298667 22.6657 0.666631 22.6657C1.03459 22.6657 1.33326 22.367 1.33326 21.9991V9.33261H8.66651C9.03447 9.33261 9.33314 9.03394 9.33314 8.66598C9.33314 8.29801 9.03455 7.99927 8.66651 7.99927Z" fill="white"/>
<path d="M31.999 32.6653C31.999 33.0333 32.2977 33.332 32.6657 33.332H35.3323C35.7002 33.332 35.9989 33.0333 35.9989 32.6653V28.6654C35.9989 28.2974 35.7002 27.9988 35.3323 27.9988H32.6657C32.2977 27.9988 31.999 28.2974 31.999 28.6654V32.6653ZM33.3324 29.3321H34.6657V31.9987H33.3324V29.3321Z" fill="white"/>
<path d="M3.33331 24C0.0379682 24 0 32.5799 0 32.6665C0 34.2765 1.14733 35.6225 2.6666 35.9325V39.3331C2.6666 39.7011 2.96527 39.9998 3.33323 39.9998C3.70119 39.9998 3.99986 39.7011 3.99986 39.3331V35.9325C5.51914 35.6225 6.66646 34.2765 6.66646 32.6665C6.66654 32.5799 6.62857 24 3.33331 24ZM3.33331 34.6665C2.23067 34.6665 1.33334 33.7691 1.33334 32.6665C1.33334 29.3452 2.22536 25.3333 3.33331 25.3333C4.44126 25.3333 5.33328 29.3452 5.33328 32.6665C5.33328 33.7691 4.43595 34.6665 3.33331 34.6665Z" fill="white"/>
<path d="M7.33477 19.9998H4.6681C4.30013 19.9998 4.00146 20.2984 4.00146 20.6664V21.9997C4.00146 22.3677 4.30013 22.6664 4.6681 22.6664C5.03606 22.6664 5.33473 22.3677 5.33473 21.9997V21.3331H6.66807V24.6664C6.66807 25.0344 6.96673 25.333 7.3347 25.333C7.70266 25.333 8.00133 25.0344 8.00133 24.6664V20.6665C8.00141 20.2984 7.70274 19.9998 7.33477 19.9998Z" fill="white"/>
<path d="M32.6657 17.3337H35.3323C35.7002 17.3337 35.9989 17.035 35.9989 16.6671V12.6671C35.9989 12.2992 35.7002 12.0005 35.3323 12.0005H32.6657C32.2977 12.0005 31.999 12.2992 31.999 12.6671V16.6671C31.999 17.035 32.2977 17.3337 32.6657 17.3337ZM33.3324 13.3338H34.6657V16.0004H33.3324V13.3338Z" fill="white"/>
<path d="M7.33477 12.0005H4.6681C4.30013 12.0005 4.00146 12.2992 4.00146 12.6671V16.6671C4.00146 17.035 4.30013 17.3337 4.6681 17.3337H7.3347C7.70266 17.3337 8.00133 17.035 8.00133 16.6671V12.6671C8.00141 12.2992 7.70274 12.0005 7.33477 12.0005ZM6.66807 16.0004H5.3348V13.3338H6.66814V16.0004H6.66807Z" fill="white"/>
<path d="M21.3328 16.6671C21.3328 17.035 21.6314 17.3337 21.9994 17.3337H24.666C25.034 17.3337 25.3326 17.035 25.3326 16.6671V12.6671C25.3326 12.2992 25.034 12.0005 24.666 12.0005H21.9994C21.6314 12.0005 21.3328 12.2992 21.3328 12.6671V16.6671ZM22.666 13.3338H23.9994V16.0004H22.666V13.3338Z" fill="white"/>
<path d="M39.3325 7.99927H31.3326C30.9647 7.99927 30.666 8.29793 30.666 8.6659C30.666 9.03386 30.9647 9.33253 31.3326 9.33253H38.6659V36.1215C38.4566 36.0468 38.2346 35.9988 37.9993 35.9988C37.884 35.9988 37.7693 36.0088 37.6566 36.0288C37.1966 35.2002 36.3213 34.6655 35.3327 34.6655C34.344 34.6655 33.4687 35.2002 33.0087 36.0288C32.8961 36.0088 32.7814 35.9988 32.6661 35.9988C31.5634 35.9988 30.6661 36.8962 30.6661 37.9988C30.6661 39.1015 31.5634 39.9988 32.6661 39.9988H37.9992C39.1018 39.9988 39.9992 39.1015 39.9992 37.9988V8.6659C39.9992 8.29793 39.7005 7.99927 39.3325 7.99927ZM37.9992 38.6654H32.6659C32.2986 38.6654 31.9993 38.3662 31.9993 37.9988C31.9993 37.6315 32.2986 37.3322 32.6659 37.3322C32.7939 37.3322 32.9152 37.3688 33.0272 37.4409C33.2099 37.5582 33.4379 37.5795 33.6393 37.4982C33.8406 37.4169 33.9892 37.2422 34.0379 37.0309C34.1786 36.4235 34.7113 35.9988 35.3326 35.9988C35.9539 35.9988 36.4866 36.4235 36.6273 37.0309C36.6759 37.2422 36.8246 37.4169 37.0259 37.4982C37.2266 37.5795 37.4552 37.5582 37.6379 37.4409C38.0719 37.1609 38.6659 37.5035 38.6659 37.9988C38.6658 38.3662 38.3665 38.6654 37.9992 38.6654Z" fill="white"/>
<path d="M21.9994 9.33345H24.666C25.034 9.33345 25.3326 9.03478 25.3326 8.66681V4.66687C25.3326 4.29891 25.034 4.00024 24.666 4.00024H21.9994C21.6314 4.00024 21.3328 4.29891 21.3328 4.66687V8.66681C21.3328 9.03478 21.6314 9.33345 21.9994 9.33345ZM22.666 5.33351H23.9994V8.00011H22.666V5.33351Z" fill="white"/>
<path d="M21.3328 24.6663C21.3328 25.0343 21.6314 25.333 21.9994 25.333H24.666C25.034 25.333 25.3326 25.0343 25.3326 24.6663V20.6664C25.3326 20.2984 25.034 19.9998 24.666 19.9998H21.9994C21.6314 19.9998 21.3328 20.2984 21.3328 20.6664V24.6663ZM22.666 21.3331H23.9994V23.9997H22.666V21.3331Z" fill="white"/>
<path d="M15.3319 9.33345H17.9985C18.3665 9.33345 18.6651 9.03478 18.6651 8.66681V4.66687C18.6651 4.29891 18.3665 4.00024 17.9985 4.00024H15.3319C14.964 4.00024 14.6653 4.29891 14.6653 4.66687V8.66681C14.6652 9.03478 14.9639 9.33345 15.3319 9.33345ZM15.9985 5.33351H17.3319V8.00011H15.9985V5.33351Z" fill="white"/>
<path d="M19.5266 32.1926C19.4066 32.3192 19.3333 32.4926 19.3333 32.666C19.3333 32.8393 19.4066 33.0126 19.5266 33.1393C19.6532 33.2593 19.8266 33.3327 20 33.3327C20.1733 33.3327 20.3466 33.2593 20.4733 33.1393C20.5933 33.0127 20.6667 32.8393 20.6667 32.666C20.6667 32.4926 20.5933 32.3193 20.4733 32.1926C20.22 31.9459 19.78 31.9459 19.5266 32.1926Z" fill="white"/>
<path d="M14.6653 24.6663C14.6653 25.0343 14.964 25.333 15.3319 25.333H17.9986C18.3666 25.333 18.6652 25.0343 18.6652 24.6663V20.6664C18.6652 20.2984 18.3666 19.9998 17.9986 19.9998H15.332C14.964 19.9998 14.6654 20.2984 14.6654 20.6664V24.6663H14.6653ZM15.9986 21.3331H17.332V23.9997H15.9986V21.3331Z" fill="white"/>
<path d="M13.3323 28.6654C13.3323 29.0334 13.6309 29.332 13.9989 29.332H15.9989V35.3319C15.9989 35.6999 16.2975 35.9986 16.6655 35.9986C17.0335 35.9986 17.3321 35.6999 17.3321 35.3319V29.332H22.6654V35.3319C22.6654 35.6999 22.9641 35.9986 23.332 35.9986C23.7 35.9986 23.9987 35.6999 23.9987 35.3319V29.332H25.9986C26.3666 29.332 26.6653 29.0334 26.6653 28.6654C26.6653 28.2974 26.3666 27.9988 25.9986 27.9988H13.9989C13.6309 27.9988 13.3323 28.2974 13.3323 28.6654Z" fill="white"/>
<path d="M31.999 24.6663C31.999 25.0343 32.2977 25.333 32.6657 25.333H35.3323C35.7002 25.333 35.9989 25.0343 35.9989 24.6663V20.6664C35.9989 20.2984 35.7002 19.9998 35.3323 19.9998H32.6657C32.2977 19.9998 31.999 20.2984 31.999 20.6664V24.6663ZM33.3324 21.3331H34.6657V23.9997H33.3324V21.3331Z" fill="white"/>
<path d="M28.6659 0H11.3329C10.9649 0 10.6663 0.298667 10.6663 0.666631V35.3327C10.6663 35.7007 10.9649 35.9994 11.3329 35.9994C11.7009 35.9994 11.9995 35.7007 11.9995 35.3327V1.33326H27.9993V35.3327C27.9993 35.7007 28.2979 35.9994 28.6659 35.9994C29.0339 35.9994 29.3325 35.7007 29.3325 35.3327V0.666631C29.3326 0.298667 29.034 0 28.6659 0Z" fill="white"/>
</svg>
