<svg width="40" height="28" viewBox="0 0 40 28" fill="none" xmlns="http://www.w3.org/2000/svg">
<path d="M32.7021 19.9389C31.7247 19.9389 30.7962 20.3217 30.0957 21.014C29.3952 21.7145 29.0043 22.6268 29.0043 23.6042C29.0043 24.5815 29.3871 25.4938 30.0957 26.1943C30.8043 26.8866 31.7247 27.2694 32.7021 27.2694C34.7058 27.2694 36.3348 25.6241 36.3348 23.6042C36.3348 21.5842 34.7058 19.9389 32.7021 19.9389ZM32.7021 25.6404C31.5781 25.6404 30.6333 24.7119 30.6333 23.6042C30.6333 22.4964 31.5781 21.5679 32.7021 21.5679C33.8098 21.5679 34.7058 22.4801 34.7058 23.6042C34.7058 24.7282 33.8098 25.6404 32.7021 25.6404ZM33.6469 7.72958C33.5003 7.59112 33.3048 7.51782 33.1012 7.51782H28.9228C28.4749 7.51782 28.1083 7.88434 28.1083 8.33231V15.0112C28.1083 15.4592 28.4749 15.8257 28.9228 15.8257H35.5528C36.0008 15.8257 36.3673 15.4592 36.3673 15.0112V10.5396C36.3673 10.3115 36.2696 10.0916 36.0986 9.93688L33.6469 7.72958ZM34.7383 14.1967H29.7373V9.13867H32.7835L34.7383 10.898V14.1967ZM12.8121 19.9389C11.8347 19.9389 10.9061 20.3217 10.2057 21.014C9.50519 21.7145 9.11423 22.6268 9.11423 23.6042C9.11423 24.5815 9.49705 25.4938 10.2057 26.1943C10.9143 26.8866 11.8347 27.2694 12.8121 27.2694C14.8157 27.2694 16.4447 25.6241 16.4447 23.6042C16.4447 21.5842 14.8157 19.9389 12.8121 19.9389ZM12.8121 25.6404C11.688 25.6404 10.7432 24.7119 10.7432 23.6042C10.7432 22.4964 11.688 21.5679 12.8121 21.5679C13.9198 21.5679 14.8157 22.4801 14.8157 23.6042C14.8157 24.7282 13.9198 25.6404 12.8121 25.6404ZM7.37935 20.9407H5.74221V18.7742C5.74221 18.3262 5.37569 17.9597 4.92771 17.9597C4.47974 17.9597 4.11322 18.3262 4.11322 18.7742V21.7552C4.11322 22.2032 4.47974 22.5697 4.92771 22.5697H7.37935C7.82733 22.5697 8.19385 22.2032 8.19385 21.7552C8.19385 21.3073 7.82733 20.9407 7.37935 20.9407ZM11.5089 16.5017C11.5089 16.0538 11.1423 15.6872 10.6944 15.6872H0.814498C0.366524 15.6872 0 16.0538 0 16.5017C0 16.9497 0.366524 17.3162 0.814498 17.3162H10.6944C11.1423 17.3162 11.5089 16.9578 11.5089 16.5017ZM2.46793 13.5614L12.3478 13.6184C12.7958 13.6184 13.1623 13.26 13.1704 12.8121C13.1786 12.3559 12.8121 11.9894 12.3641 11.9894L2.48422 11.9324C2.47607 11.9324 2.47607 11.9324 2.47607 11.9324C2.0281 11.9324 1.66158 12.2908 1.66158 12.7387C1.65343 13.1949 2.01996 13.5614 2.46793 13.5614ZM4.12951 9.86357H14.0094C14.4573 9.86357 14.8239 9.49704 14.8239 9.04907C14.8239 8.6011 14.4573 8.23457 14.0094 8.23457H4.12951C3.68153 8.23457 3.31501 8.6011 3.31501 9.04907C3.31501 9.49704 3.68153 9.86357 4.12951 9.86357ZM39.6986 8.764L33.8668 3.93402C33.7202 3.81185 33.541 3.74669 33.3456 3.74669H26.4875V0.814498C26.4875 0.366524 26.121 0 25.673 0H4.92771C4.47974 0 4.11322 0.366524 4.11322 0.814498V6.77662C4.11322 7.2246 4.47974 7.59112 4.92771 7.59112C5.37569 7.59112 5.74221 7.2246 5.74221 6.77662V1.629H24.8666V20.9407H18.1877C17.7398 20.9407 17.3732 21.3073 17.3732 21.7552C17.3732 22.2032 17.7398 22.5697 18.1877 22.5697H28.1328C28.5807 22.5697 28.9473 22.2032 28.9473 21.7552C28.9473 21.3073 28.5807 20.9407 28.1328 20.9407H26.4956V5.37569H33.0605L38.371 9.77398L38.314 20.9244H37.4669C37.0189 20.9244 36.6524 21.291 36.6524 21.7389C36.6524 22.1869 37.0189 22.5534 37.4669 22.5534H39.1203C39.5683 22.5534 39.9348 22.1951 39.9348 21.7471L40 9.3993C39.9919 9.15495 39.886 8.91875 39.6986 8.764Z" fill="white"/>
</svg>
