<?xml version="1.0" encoding="utf-8"?>
<!-- Generator: Adobe Illustrator 22.1.0, SVG Export Plug-In . SVG Version: 6.00 Build 0)  -->
<svg version="1.1" id="Capa_1" xmlns="http://www.w3.org/2000/svg" xmlns:xlink="http://www.w3.org/1999/xlink" x="0px" y="0px"
	 viewBox="0 0 500 500" style="enable-background:new 0 0 500 500;" xml:space="preserve">
<g>
	<path d="M338.6,467c0,0,39.4,0,39.4-39.5V72.5C378,33,338.6,33,338.6,33H161.4c0,0-39.4,0-39.4,39.5v355.1
		c0,39.5,39.4,39.5,39.4,39.5H338.6z M250,450.6c-10.9,0-19.7-8.8-19.7-19.7c0-10.9,8.8-19.7,19.7-19.7c10.9,0,19.7,8.8,19.7,19.7
		C269.7,441.7,260.9,450.6,250,450.6z M200.8,57c0-2.4,2-4.4,4.4-4.4h89.8c2.4,0,4.4,2,4.4,4.4v1.2c0,2.5-2,4.4-4.4,4.4h-89.8
		c-2.4,0-4.4-2-4.4-4.4V57z M141.7,82.2h216.7v315.1H141.7V82.2z"/>
</g>
</svg>
