<svg width="12" height="17" viewBox="0 0 12 17" fill="none" xmlns="http://www.w3.org/2000/svg">
<path d="M6.00075 7.22515C7.94498 7.22515 9.5208 5.60754 9.5208 3.61242C9.5208 1.61731 7.94468 0 6.00075 0C4.05681 0 2.48009 1.61761 2.48009 3.61273C2.48009 5.60785 4.05681 7.22515 6.00075 7.22515ZM7.4939 7.47139H4.507C2.02181 7.47139 0 9.54675 0 12.0974V15.8463L0.00928542 15.905L0.260889 15.9858C2.63255 16.7464 4.69301 17 6.38894 17C9.70142 17 11.6214 16.0307 11.7397 15.9689L11.9748 15.8469H12V12.0974C12.0009 9.54675 9.97908 7.47139 7.4939 7.47139Z" fill="white"/>
</svg>
