<svg width="40" height="40" viewBox="0 0 40 40" fill="none" xmlns="http://www.w3.org/2000/svg">
<mask id="mask0" mask-type="alpha" maskUnits="userSpaceOnUse" x="0" y="-1" width="40" height="41">
<rect y="-0.00012207" width="40" height="40" fill="url(#paint0_linear)"/>
</mask>
<g mask="url(#mask0)">
<path d="M27.3029 21.3089C26.935 21.3089 26.637 21.6071 26.637 21.9748V37.957C26.637 38.3248 26.3388 38.6229 25.9711 38.6229H1.99774C1.62993 38.6229 1.33186 38.3248 1.33186 37.957V1.99713C1.33186 1.62932 1.63001 1.33125 1.99774 1.33125H25.971C26.3388 1.33125 26.6369 1.6294 26.6369 1.99713V5.9927C26.6369 6.36052 26.935 6.65859 27.3028 6.65859C27.6705 6.65859 27.9687 6.36044 27.9687 5.9927V1.99713C27.9687 0.893773 27.0742 -0.000610352 25.9709 -0.000610352H1.99774C0.894463 -0.000610352 0 0.893853 0 1.99713V37.957C0 39.0604 0.894463 39.9548 1.99774 39.9548H25.971C27.0744 39.9548 27.9687 39.0603 27.9687 37.957V21.9749C27.9688 21.6071 27.6707 21.3089 27.3029 21.3089Z" fill="url(#paint1_linear)"/>
<path d="M39.0252 2.26292C37.7289 0.966684 35.6287 0.962083 34.3268 2.2526L34.3281 2.25197L29.9437 6.63574L7.01717 29.5636C7.0105 29.5696 7.00852 29.5782 7.00249 29.5842C6.94981 29.639 6.90705 29.7026 6.87595 29.772L6.87063 29.7833L4.05046 36.364C3.96224 36.5697 3.98334 36.806 4.10655 36.9929C4.22977 37.1798 4.43859 37.2922 4.66248 37.2923C4.75269 37.2925 4.84202 37.2742 4.92485 37.2384L11.5049 34.4182L11.5162 34.4129C11.5858 34.3821 11.6494 34.3393 11.704 34.2863C11.71 34.2803 11.7187 34.2783 11.7246 34.2717L34.6517 11.3459L39.0355 6.96151C40.326 5.65948 40.3214 3.55923 39.0252 2.26292ZM5.92777 35.3611L7.70979 31.203L10.0858 33.579L5.92777 35.3611ZM11.2551 32.8592L8.42963 30.0337L30.4151 8.04892L33.24 10.8738L11.2551 32.8592ZM34.1816 9.9321L31.3567 7.10725L32.4442 6.01912L35.2697 8.84461L34.1816 9.9321ZM38.0952 6.02245L38.0919 6.02182L36.208 7.90571L33.3858 5.07753L35.2697 3.19697C35.7745 2.69222 36.5101 2.49514 37.1995 2.67984C37.889 2.86462 38.4275 3.40309 38.6123 4.09262C38.797 4.78208 38.5999 5.5177 38.0952 6.02245Z" fill="url(#paint2_linear)"/>
<path d="M21.9762 5.99353H5.99401C5.6262 5.99353 5.32812 6.29168 5.32812 6.65942C5.32812 7.02715 5.62628 7.32531 5.99401 7.32531H21.9762C22.344 7.32531 22.6421 7.02715 22.6421 6.65942C22.6421 6.29168 22.3439 5.99353 21.9762 5.99353Z" fill="url(#paint3_linear)"/>
<path d="M22.6421 10.6545C22.6421 10.2867 22.3439 9.98865 21.9762 9.98865H5.99401C5.6262 9.98865 5.32812 10.2868 5.32812 10.6545C5.32812 11.0223 5.62628 11.3204 5.99401 11.3204H21.9762C22.3439 11.3205 22.6421 11.0223 22.6421 10.6545Z" fill="url(#paint4_linear)"/>
<path d="M5.99401 13.9838C5.6262 13.9838 5.32812 14.2819 5.32812 14.6497C5.32812 15.0174 5.62628 15.3155 5.99401 15.3155H17.9806C18.3485 15.3155 18.6465 15.0174 18.6465 14.6497C18.6465 14.2819 18.3484 13.9838 17.9806 13.9838H5.99401Z" fill="url(#paint5_linear)"/>
</g>
<defs>
<linearGradient id="paint0_linear" x1="-69.4215" y1="-143.478" x2="-139.379" y2="-71.3609" gradientUnits="userSpaceOnUse">
<stop stop-color="#009CBD"/>
<stop offset="1" stop-color="#00D788"/>
</linearGradient>
<linearGradient id="paint1_linear" x1="-48.5408" y1="-143.319" x2="-114.89" y2="-95.4407" gradientUnits="userSpaceOnUse">
<stop stop-color="#009CBD"/>
<stop offset="1" stop-color="#00D788"/>
</linearGradient>
<linearGradient id="paint2_linear" x1="-58.4894" y1="-127.859" x2="-121.46" y2="-62.9466" gradientUnits="userSpaceOnUse">
<stop stop-color="#009CBD"/>
<stop offset="1" stop-color="#00D788"/>
</linearGradient>
<linearGradient id="paint3_linear" x1="-24.7209" y1="1.21651" x2="-25.0667" y2="5.85127" gradientUnits="userSpaceOnUse">
<stop stop-color="#009CBD"/>
<stop offset="1" stop-color="#00D788"/>
</linearGradient>
<linearGradient id="paint4_linear" x1="-24.7209" y1="5.21162" x2="-25.0667" y2="9.84639" gradientUnits="userSpaceOnUse">
<stop stop-color="#009CBD"/>
<stop offset="1" stop-color="#00D788"/>
</linearGradient>
<linearGradient id="paint5_linear" x1="-17.7865" y1="9.20674" x2="-18.2343" y2="13.8239" gradientUnits="userSpaceOnUse">
<stop stop-color="#009CBD"/>
<stop offset="1" stop-color="#00D788"/>
</linearGradient>
</defs>
</svg>
