<svg width="40" height="40" viewBox="0 0 40 40" fill="none" xmlns="http://www.w3.org/2000/svg">
<mask id="mask0" mask-type="alpha" maskUnits="userSpaceOnUse" x="0" y="-1" width="40" height="41">
<rect y="-0.00012207" width="40" height="40" fill="url(#paint0_linear)"/>
</mask>
<g mask="url(#mask0)">
<mask id="mask1" mask-type="alpha" maskUnits="userSpaceOnUse" x="0" y="-1" width="40" height="41">
<rect y="-0.00012207" width="40" height="40" fill="url(#paint1_linear)"/>
</mask>
<g mask="url(#mask1)">
<path d="M14.3248 16.0936C13.8976 16.0936 13.5497 16.4373 13.5436 16.8639V16.8749C13.5436 17.3061 13.8936 17.6561 14.3248 17.6561C14.756 17.6561 15.1061 17.3061 15.1061 16.8749C15.1061 16.8709 15.1061 16.8679 15.1061 16.8639C15.1 16.4373 14.7521 16.0936 14.3248 16.0936Z" fill="url(#paint2_linear)"/>
<path d="M14.3242 -0.00012207C9.27722 -0.00012207 4.16797 1.34174 4.16797 3.90613V28.2811C4.16797 30.8455 9.27722 32.1874 14.3242 32.1874C14.4765 32.1874 14.6276 32.1859 14.7771 32.1837C16.1531 36.7992 20.407 39.9999 25.2617 39.9999C31.2926 39.9999 36.1992 35.0933 36.1992 29.0624C36.1992 23.0315 31.2926 18.1249 25.2617 18.1249C24.9996 18.1249 24.7365 18.1353 24.4738 18.1539C24.4744 17.6409 24.4777 9.89825 24.478 8.89178C24.4789 8.87042 24.4805 8.84906 24.4805 8.828C24.4805 8.81274 24.4789 8.7981 24.4783 8.78314L24.4805 3.90643V3.90613C24.4805 1.34174 19.3712 -0.00012207 14.3242 -0.00012207ZM14.8543 25.6978C14.6749 25.7012 14.4976 25.703 14.3242 25.703C11.902 25.703 9.6355 25.392 7.94238 24.8278C6.19281 24.2446 5.73047 23.6122 5.73047 23.3593V20.6203C7.62775 21.7577 10.9893 22.3436 14.3242 22.3436C15.1332 22.3436 15.9377 22.3094 16.7162 22.2432C15.8953 23.2732 15.2599 24.4478 14.8543 25.6978ZM18.5417 20.4344C17.253 20.6606 15.8004 20.7811 14.3242 20.7811C11.902 20.7811 9.6355 20.4702 7.94238 19.9059C6.19281 19.3227 5.73047 18.6904 5.73047 18.4374V15.9395C6.16687 16.1995 6.63318 16.4077 7.112 16.5828C8.38641 17.0607 10.7204 17.4788 11.2047 17.4788C11.5963 17.4788 11.9341 17.1852 11.9799 16.7873C12.0296 16.3585 11.722 15.9709 11.2935 15.9215C11.0436 15.8806 8.28906 15.6047 6.60968 14.6443C5.94073 14.2644 5.85895 14.0355 5.73901 13.8185C5.71857 13.7081 5.7381 13.9269 5.73047 11.0109C7.62775 12.1483 10.9893 12.7343 14.3242 12.7343C16.8776 12.7343 19.2974 12.4022 21.1376 11.7995C21.8767 11.5575 22.466 11.2929 22.9225 11.0201C22.9207 13.8869 22.9219 13.7941 22.9207 13.8018C22.8893 13.9482 22.7654 14.0905 22.6586 14.1954C22.6506 14.1985 21.4357 15.4567 17.3644 15.9203L17.3549 15.9215C16.9261 15.9709 16.6188 16.3585 16.6683 16.7873C16.7144 17.1852 17.0519 17.4788 17.4434 17.4788C18.38 17.4788 21.4446 16.8187 22.9201 15.9432L22.9189 18.3788C21.332 18.7273 19.829 19.4301 18.5417 20.4344ZM22.9204 13.806C22.9204 13.8054 22.9207 13.8048 22.9207 13.8042C22.9201 13.8066 22.9204 13.806 22.9204 13.806ZM22.9235 8.85486C22.8966 9.11823 22.387 9.74628 20.6511 10.3148C18.9638 10.8675 16.7168 11.1718 14.3242 11.1718C11.902 11.1718 9.6355 10.8608 7.94238 10.2965C6.19281 9.71332 5.73047 9.08099 5.73047 8.828V6.08905C7.62775 7.22644 10.9893 7.81238 14.3242 7.81238C17.6586 7.81238 21.0274 7.22644 22.9247 6.08966L22.9235 8.85486ZM7.94238 2.43762C9.6355 1.87335 11.902 1.56238 14.3242 1.56238C16.7464 1.56238 19.0129 1.87335 20.7061 2.43762C22.4556 3.02081 22.918 3.65314 22.918 3.90613C22.918 4.15912 22.4556 4.79144 20.7061 5.37463C19.0129 5.9389 16.7464 6.24988 14.3242 6.24988C11.902 6.24988 9.6355 5.9389 7.94238 5.37463C6.19281 4.79144 5.73047 4.15912 5.73047 3.90613C5.73047 3.65314 6.19281 3.02081 7.94238 2.43762ZM7.94238 29.7496C6.19281 29.1664 5.73047 28.5341 5.73047 28.2811V25.5422C7.62775 26.6796 10.9893 27.2655 14.3242 27.2655C14.373 27.2655 14.4228 27.2649 14.4719 27.2649C14.3743 27.8563 14.3242 28.4578 14.3242 29.0624C14.3242 29.5867 14.3615 30.1091 14.4353 30.6243C14.3981 30.6246 14.3615 30.6249 14.3242 30.6249C11.902 30.6249 9.6355 30.3139 7.94238 29.7496ZM34.6367 29.0624C34.6367 34.2318 30.4311 38.4374 25.2617 38.4374C20.8834 38.4374 17.1297 35.4647 16.1333 31.2084C16.1327 31.2062 16.1324 31.2044 16.1321 31.2023C16.1318 31.2014 16.1315 31.2001 16.1312 31.1989C15.9691 30.504 15.8867 29.7853 15.8867 29.0624C15.8867 28.2527 15.9896 27.4504 16.1925 26.6777C17.238 22.6903 20.8766 19.6874 25.2617 19.6874C30.4311 19.6874 34.6367 23.893 34.6367 29.0624Z" fill="url(#paint3_linear)"/>
<path d="M22.9182 27.4999C22.9182 28.7923 23.9695 29.8436 25.2619 29.8436C25.6928 29.8436 26.0432 30.194 26.0432 30.6249C26.0432 31.0558 25.6928 31.4061 25.2619 31.4061C24.9281 31.4061 24.5677 31.1962 24.2475 30.8153C23.9698 30.4848 23.477 30.4421 23.1468 30.7198C22.8163 30.9975 22.7738 31.4904 23.0516 31.8206C23.469 32.3174 23.9604 32.6638 24.4807 32.838V33.7499C24.4807 34.1814 24.8304 34.5311 25.2619 34.5311C25.6935 34.5311 26.0432 34.1814 26.0432 33.7499V32.8344C26.9526 32.5118 27.6057 31.6432 27.6057 30.6249C27.6057 29.3325 26.5544 28.2811 25.2619 28.2811C24.831 28.2811 24.4807 27.9308 24.4807 27.4999C24.4807 27.069 24.831 26.7186 25.2619 26.7186C25.5387 26.7186 25.8308 26.8599 26.107 27.127C26.417 27.4269 26.9117 27.4187 27.2117 27.1089C27.5117 26.7986 27.5035 26.3042 27.1934 26.0042C26.797 25.6203 26.4002 25.4033 26.0432 25.2849V24.3749C26.0432 23.9434 25.6935 23.5936 25.2619 23.5936C24.8304 23.5936 24.4807 23.9434 24.4807 24.3749V25.2904C23.5713 25.613 22.9182 26.4815 22.9182 27.4999Z" fill="url(#paint4_linear)"/>
</g>
</g>
<defs>
<linearGradient id="paint0_linear" x1="-69.4215" y1="-143.478" x2="-139.379" y2="-71.3609" gradientUnits="userSpaceOnUse">
<stop stop-color="#009CBD"/>
<stop offset="1" stop-color="#00D788"/>
</linearGradient>
<linearGradient id="paint1_linear" x1="-69.4215" y1="-143.478" x2="-139.379" y2="-71.3609" gradientUnits="userSpaceOnUse">
<stop stop-color="#009CBD"/>
<stop offset="1" stop-color="#00D788"/>
</linearGradient>
<linearGradient id="paint2_linear" x1="10.8318" y1="10.489" x2="8.09907" y2="13.3061" gradientUnits="userSpaceOnUse">
<stop stop-color="#009CBD"/>
<stop offset="1" stop-color="#00D788"/>
</linearGradient>
<linearGradient id="paint3_linear" x1="-51.4235" y1="-143.478" x2="-120.146" y2="-86.7477" gradientUnits="userSpaceOnUse">
<stop stop-color="#009CBD"/>
<stop offset="1" stop-color="#00D788"/>
</linearGradient>
<linearGradient id="paint4_linear" x1="14.646" y1="-15.6387" x2="0.396266" y2="-9.27597" gradientUnits="userSpaceOnUse">
<stop stop-color="#009CBD"/>
<stop offset="1" stop-color="#00D788"/>
</linearGradient>
</defs>
</svg>
