<svg width="15" height="13" viewBox="0 0 15 13" fill="none" xmlns="http://www.w3.org/2000/svg">
<path fill-rule="evenodd" clip-rule="evenodd" d="M7.99026 10.1881C7.41416 10.7673 6.84427 11.3362 6.2793 11.9103C6.08177 12.111 5.85956 12.2219 5.57623 12.2061C5.38326 12.1954 5.27494 12.1069 5.21581 11.9172C4.78345 10.5298 4.34403 9.14473 3.91362 7.75672C3.87168 7.62157 3.80852 7.55664 3.67699 7.51509C2.65751 7.19306 1.64007 6.86405 0.623932 6.531C0.47348 6.48169 0.321148 6.4183 0.19061 6.32882C-0.036584 6.17314 -0.0690074 5.9256 0.138464 5.74637C0.330165 5.58074 0.557435 5.44206 0.79027 5.34692C2.07846 4.82064 3.3732 4.31142 4.66561 3.79612C7.77453 2.55657 10.8835 1.31714 13.9923 0.0770008C14.5882 -0.160744 15.0513 0.168975 14.9954 0.832853C14.9587 1.27048 14.8484 1.7024 14.7599 2.13445C14.071 5.49725 13.3794 8.85946 12.6887 12.2219C12.6873 12.2283 12.6869 12.235 12.6855 12.2414C12.5166 13.0106 11.9756 13.2209 11.3587 12.752C10.2879 11.938 9.21977 11.1203 8.15034 10.3044C8.09977 10.2658 8.04747 10.2296 7.99026 10.1881ZM5.22208 11C5.23881 10.9202 5.25042 10.8834 5.25382 10.8458C5.32212 10.0816 5.39351 9.31766 5.45399 8.55275C5.46745 8.38299 5.5162 8.25763 5.64263 8.13976C7.27378 6.61904 8.89988 5.09246 10.5273 3.56741C10.9902 3.1336 11.455 2.70194 11.9135 2.26308C11.9616 2.217 11.972 2.12846 12 2.05963C11.9292 2.0388 11.8498 1.98599 11.7893 2.0035C11.6496 2.04397 11.5088 2.1017 11.3862 2.18175C8.9666 3.76245 6.55011 5.34824 4.13042 6.92878C4.00731 7.00919 3.97218 7.07537 4.02154 7.22942C4.40469 8.42482 4.77672 9.62407 5.15277 10.8219C5.1675 10.8689 5.18829 10.9137 5.22208 11Z" fill="white"/>
</svg>
