<svg width="17" height="13" viewBox="0 0 17 13" fill="none" xmlns="http://www.w3.org/2000/svg">
<path fill-rule="evenodd" clip-rule="evenodd" d="M0.117676 11.5253C1.57048 12.4572 3.29528 13 5.14968 13C11.1881 13 14.4897 7.99825 14.4897 3.66112C14.4897 3.51894 14.4865 3.37838 14.4801 3.23781C15.1217 2.77469 15.6785 2.197 16.1177 1.53887C15.5297 1.8005 14.8969 1.976 14.2329 2.054C14.9105 1.65019 15.4297 1.00506 15.6761 0.239688C15.0417 0.615063 14.3385 0.888063 13.5913 1.03513C12.9929 0.398125 12.1393 0 11.1953 0C9.38248 0 7.91208 1.46819 7.91208 3.28006C7.91208 3.53844 7.94168 3.78788 7.99768 4.02838C5.26968 3.89188 2.84968 2.58538 1.23208 0.599625C0.949676 1.0855 0.787276 1.64775 0.787276 2.24981C0.787276 3.38812 1.36648 4.39319 2.24728 4.98144C1.70888 4.966 1.20328 4.81731 0.760076 4.57113C0.760076 4.58494 0.760076 4.59875 0.760076 4.61256C0.760076 6.20181 1.89288 7.52944 3.39288 7.83088C3.11848 7.90644 2.82808 7.94544 2.52888 7.94544C2.31688 7.94544 2.11128 7.92594 1.91128 7.88694C2.32808 9.19181 3.54088 10.1408 4.97688 10.166C3.85368 11.0468 2.44008 11.57 0.900876 11.57C0.636076 11.57 0.375276 11.557 0.117676 11.5253Z" fill="white"/>
</svg>
