<svg width="40" height="40" viewBox="0 0 40 40" fill="none" xmlns="http://www.w3.org/2000/svg">
<mask id="mask0" mask-type="alpha" maskUnits="userSpaceOnUse" x="0" y="-1" width="40" height="41">
<rect y="-0.00012207" width="40" height="40" fill="url(#paint0_linear)"/>
</mask>
<g mask="url(#mask0)">
<mask id="mask1" mask-type="alpha" maskUnits="userSpaceOnUse" x="0" y="-1" width="40" height="41">
<rect y="-0.00012207" width="40" height="40" fill="url(#paint1_linear)"/>
</mask>
<g mask="url(#mask1)">
<mask id="mask2" mask-type="alpha" maskUnits="userSpaceOnUse" x="0" y="-1" width="40" height="41">
<rect y="-0.00012207" width="40" height="40" fill="url(#paint2_linear)"/>
</mask>
<g mask="url(#mask2)">
<path d="M23.1169 11.8719C22.6857 11.8719 22.3359 12.222 22.3359 12.6532C22.3359 13.0841 22.6857 13.4341 23.1169 13.4341C23.5481 13.4341 23.8978 13.0841 23.8978 12.6532C23.8978 12.222 23.5481 11.8719 23.1169 11.8719Z" fill="url(#paint3_linear)"/>
<path d="M18.3842 27.1305C18.6891 26.825 18.6891 26.3307 18.3842 26.0252C18.0791 25.7206 17.5847 25.7206 17.2792 26.0252C16.9746 26.3307 16.9746 26.825 17.2792 27.1305C17.5847 27.4351 18.0791 27.4351 18.3842 27.1305Z" fill="url(#paint4_linear)"/>
<path d="M8.99621 39.7692C9.29895 40.0743 9.79181 40.0777 10.0985 39.7756L13.8851 36.0451C14.5284 35.4018 14.7241 34.4493 14.4412 33.6214L15.2557 32.8359C15.6942 32.4123 16.2716 32.1788 16.882 32.1788H27.265C29.107 32.1788 30.8481 31.4714 32.1679 30.1869C32.2223 30.1341 31.7556 30.6838 39.2514 21.725C40.3631 20.4097 40.1968 18.4346 38.8803 17.3216C37.572 16.219 35.6122 16.3774 34.4973 17.6701L29.8886 22.4071C29.3066 21.6908 28.4192 21.2444 27.4603 21.2444H18.7509C17.5115 20.7259 16.1965 20.4634 14.8397 20.4634C11.08 20.4634 7.79535 22.1992 6.03234 25.4573C5.28985 25.3166 4.50677 25.5412 3.94341 26.1046L0.227891 29.8311C-0.0754543 30.1354 -0.0760646 30.6276 0.22667 30.9325L8.99621 39.7692ZM14.8394 22.0253C16.0357 22.0253 17.1923 22.2661 18.2778 22.7409C18.3767 22.7843 18.4832 22.8065 18.591 22.8065H27.4603C28.3072 22.8065 29.0225 23.4972 29.0225 24.3684C29.0225 25.23 28.3218 25.9306 27.4603 25.9306H21.0879C20.6567 25.9306 20.307 26.2804 20.307 26.7116C20.307 27.1431 20.6567 27.4925 21.0879 27.4925H27.4603C29.183 27.4925 30.5844 26.0912 30.5844 24.3684C30.5844 24.2311 30.5746 24.095 30.5569 23.9601C35.0152 19.3773 35.6439 18.7334 35.6707 18.7013C36.2274 18.0443 37.2156 17.961 37.8729 18.5152C38.5309 19.0715 38.6142 20.059 38.056 20.7198L31.0507 29.0944C30.0277 30.0765 28.6847 30.6169 27.265 30.6169H16.882C15.8645 30.6169 14.9014 31.006 14.1708 31.7119L13.507 32.3525L7.38824 26.234C8.8183 23.5512 11.5017 22.0253 14.8394 22.0253ZM5.04876 27.2084C5.30633 26.9508 5.70184 26.9045 6.01586 27.0985C6.13519 27.1712 12.8155 33.868 12.8567 33.9232C13.0853 34.2311 13.0526 34.6684 12.785 34.9364L9.55682 38.1166L1.88256 30.3838L5.04876 27.2084Z" fill="url(#paint5_linear)"/>
<path d="M12.1836 16.5578H30.9284C32.2206 16.5578 33.2716 15.5068 33.2716 14.2147C33.2716 12.246 33.2716 3.75873 33.2716 2.34302C33.2716 1.0509 32.2206 -0.00012207 30.9284 -0.00012207H12.1836C10.8915 -0.00012207 9.84045 1.0509 9.84045 2.34302V14.2147C9.84045 15.5068 10.8915 16.5578 12.1836 16.5578ZM31.7094 6.24805H11.4027V4.68616H31.7094V6.24805ZM30.9284 14.9959H12.1836C11.753 14.9959 11.4027 14.6453 11.4027 14.2147V7.81025H31.7094V14.2147C31.7094 14.6453 31.359 14.9959 30.9284 14.9959ZM12.1836 1.56207H30.9284C31.359 1.56207 31.7094 1.91242 31.7094 2.34302V3.12397H11.4027V2.34302C11.4027 1.91242 11.753 1.56207 12.1836 1.56207Z" fill="url(#paint6_linear)"/>
<path d="M29.366 11.8719H26.2419C25.8107 11.8719 25.4609 12.2217 25.4609 12.6532C25.4609 13.0844 25.8107 13.4341 26.2419 13.4341H29.366C29.7975 13.4341 30.1472 13.0844 30.1472 12.6532C30.1472 12.2217 29.7975 11.8719 29.366 11.8719Z" fill="url(#paint7_linear)"/>
</g>
</g>
</g>
<defs>
<linearGradient id="paint0_linear" x1="-69.4215" y1="-143.478" x2="-139.379" y2="-71.3609" gradientUnits="userSpaceOnUse">
<stop stop-color="#009CBD"/>
<stop offset="1" stop-color="#00D788"/>
</linearGradient>
<linearGradient id="paint1_linear" x1="-69.4215" y1="-143.478" x2="-139.379" y2="-71.3609" gradientUnits="userSpaceOnUse">
<stop stop-color="#009CBD"/>
<stop offset="1" stop-color="#00D788"/>
</linearGradient>
<linearGradient id="paint2_linear" x1="-69.4215" y1="-143.478" x2="-139.379" y2="-71.3609" gradientUnits="userSpaceOnUse">
<stop stop-color="#009CBD"/>
<stop offset="1" stop-color="#00D788"/>
</linearGradient>
<linearGradient id="paint3_linear" x1="19.6252" y1="6.26842" x2="16.893" y2="9.08442" gradientUnits="userSpaceOnUse">
<stop stop-color="#009CBD"/>
<stop offset="1" stop-color="#00D788"/>
</linearGradient>
<linearGradient id="paint4_linear" x1="14.3397" y1="20.1932" x2="11.6075" y2="23.0096" gradientUnits="userSpaceOnUse">
<stop stop-color="#009CBD"/>
<stop offset="1" stop-color="#00D788"/>
</linearGradient>
<linearGradient id="paint5_linear" x1="-69.3999" y1="-67.3921" x2="-104.585" y2="-5.44325" gradientUnits="userSpaceOnUse">
<stop stop-color="#009CBD"/>
<stop offset="1" stop-color="#00D788"/>
</linearGradient>
<linearGradient id="paint6_linear" x1="-30.8251" y1="-59.3928" x2="-57.848" y2="-19.9723" gradientUnits="userSpaceOnUse">
<stop stop-color="#009CBD"/>
<stop offset="1" stop-color="#00D788"/>
</linearGradient>
<linearGradient id="paint7_linear" x1="17.3277" y1="6.26842" x2="15.7272" y2="11.2178" gradientUnits="userSpaceOnUse">
<stop stop-color="#009CBD"/>
<stop offset="1" stop-color="#00D788"/>
</linearGradient>
</defs>
</svg>
