<svg width="17" height="9" viewBox="0 0 17 9" fill="none" xmlns="http://www.w3.org/2000/svg">
<path fill-rule="evenodd" clip-rule="evenodd" d="M7.94603 8.96215H8.90249C8.90249 8.96215 9.19117 8.93096 9.33863 8.77443C9.47478 8.63016 9.47026 8.35999 9.47026 8.35999C9.47026 8.35999 9.45162 7.09494 10.0471 6.90833C10.6341 6.72451 11.3883 8.13104 12.1871 8.67193C12.7916 9.08136 13.2509 8.99168 13.2509 8.99168L15.3875 8.96215C15.3875 8.96215 16.505 8.89419 15.9751 8.02799C15.9316 7.95725 15.666 7.38683 14.3864 6.21537C13.0464 4.98932 13.226 5.18762 14.8401 3.0664C15.8225 1.77517 16.2157 0.986401 16.0926 0.648832C15.9756 0.326861 15.2531 0.412088 15.2531 0.412088L12.8469 0.426571C12.8469 0.426571 12.6684 0.402619 12.5362 0.480605C12.4074 0.55692 12.3244 0.735174 12.3244 0.735174C12.3244 0.735174 11.943 1.73451 11.4357 2.58456C10.3646 4.37824 9.93577 4.47294 9.76064 4.36153C9.35331 4.10195 9.455 3.3193 9.455 2.76281C9.455 1.02428 9.72279 0.299565 8.93469 0.111842C8.67312 0.0500099 8.48047 0.00878863 7.81157 0.0021041C6.95342 -0.0068086 6.2269 0.00433228 5.81562 0.203197C5.54162 0.335216 5.33033 0.629893 5.45913 0.646604C5.61788 0.667771 5.97832 0.742415 6.16927 0.998655C6.41559 1.32954 6.40711 2.07208 6.40711 2.07208C6.40711 2.07208 6.54892 4.1181 6.07606 4.37267C5.75178 4.54647 5.30716 4.19107 4.35184 2.56339C3.86259 1.73005 3.49312 0.808704 3.49312 0.808704C3.49312 0.808704 3.42193 0.636577 3.29482 0.544108C3.14059 0.432699 2.92535 0.397048 2.92535 0.397048L0.639005 0.412088C0.639005 0.412088 0.296082 0.421558 0.170098 0.568618C0.0576739 0.699523 0.161059 0.970246 0.161059 0.970246C0.161059 0.970246 1.95081 5.09906 3.97728 7.17961C5.83595 9.08749 7.94603 8.96215 7.94603 8.96215Z" fill="white"/>
</svg>
