<?xml version="1.0" encoding="iso-8859-1"?>
<!-- Generator: Adobe Illustrator 16.0.0, SVG Export Plug-In . SVG Version: 6.00 Build 0)  -->
<!DOCTYPE svg PUBLIC "-//W3C//DTD SVG 1.1//EN" "http://www.w3.org/Graphics/SVG/1.1/DTD/svg11.dtd">
<svg version="1.1" id="Capa_1" xmlns="http://www.w3.org/2000/svg" xmlns:xlink="http://www.w3.org/1999/xlink" x="0px" y="0px"
	 width="426.129px" height="426.129px" viewBox="0 0 426.129 426.129" style="enable-background:new 0 0 426.129 426.129;"
	 xml:space="preserve">
<g>
	<g>
		<path d="M359.29,410.721l-20.248-47.565l1.541-0.656c2.441-1.039,4.369-3.004,5.361-5.465c0.991-2.461,0.965-5.213-0.074-7.654
			l-76.389-179.477c5.095-0.461,9.086-4.744,9.086-9.959v-14.352c0-2.879-1.218-5.473-3.163-7.297
			c5.488-10.221,8.374-21.697,8.374-33.436c0-30.752-20.06-58.008-49.146-67.332V10c0-5.523-4.479-10-10-10h-23.134
			c-5.522,0-10,4.477-10,10v27.527c-29.087,9.326-49.146,36.582-49.146,67.332c0,11.736,2.885,23.215,8.374,33.434
			c-1.947,1.826-3.164,4.42-3.164,7.299v14.352c0,5.215,3.991,9.498,9.086,9.959L80.259,349.38c-1.039,2.44-1.065,5.192-0.075,7.653
			c0.992,2.461,2.921,4.428,5.361,5.465l1.542,0.654L66.839,410.72c-2.163,5.082,0.203,10.953,5.284,13.117l3.505,1.492
			c1.251,0.533,2.583,0.799,3.917,0.799c1.269,0,2.538-0.24,3.735-0.725c2.462-0.99,4.428-2.918,5.466-5.359l20.246-47.567
			l1.542,0.655c2.441,1.041,5.194,1.064,7.655,0.076c2.46-0.99,4.426-2.918,5.465-5.359l84.236-197.906h10.347l84.235,197.906
			c1.039,2.441,3.006,4.369,5.467,5.361c2.461,0.99,5.215,0.965,7.653-0.076l1.543-0.657l20.245,47.567
			c1.037,2.441,3.003,4.369,5.465,5.359c2.461,0.992,5.216,0.965,7.652-0.074l3.506-1.492
			C359.088,421.674,361.452,415.803,359.29,410.721z M240.645,104.859c0,6.26-2.104,12.273-5.958,17.119h-43.243
			c-3.854-4.846-5.959-10.861-5.959-17.119c0-15.207,12.372-27.578,27.58-27.578S240.645,89.652,240.645,104.859z"/>
	</g>
</g>
<g>
</g>
<g>
</g>
<g>
</g>
<g>
</g>
<g>
</g>
<g>
</g>
<g>
</g>
<g>
</g>
<g>
</g>
<g>
</g>
<g>
</g>
<g>
</g>
<g>
</g>
<g>
</g>
<g>
</g>
</svg>
