<?xml version="1.0" encoding="utf-8"?>
<!-- Generator: Adobe Illustrator 23.0.1, SVG Export Plug-In . SVG Version: 6.00 Build 0)  -->
<svg version="1.1" id="Layer_1" xmlns="http://www.w3.org/2000/svg" xmlns:xlink="http://www.w3.org/1999/xlink" x="0px" y="0px"
	 viewBox="0 0 394.3 512" style="enable-background:new 0 0 394.3 512;" xml:space="preserve">
<g>
	<g>
		<path d="M217.9,491.3V20.7c0-11.4-9.3-20.7-20.7-20.7c-11.4,0-20.7,9.3-20.7,20.7v470.6c0,11.4,9.3,20.7,20.7,20.7
			C208.6,512,217.9,502.7,217.9,491.3z"/>
	</g>
</g>
<g>
	<g>
		<path d="M197.2,49.9L359,211.8c8.1,8.1,21.2,8.1,29.2,0c8.1-8.1,8.1-21.2,0-29.2L211.8,6.1c-8.1-8.1-21.2-8.1-29.2,0L6.1,182.5
			c-4,4-6.1,9.3-6.1,14.6s2,10.6,6.1,14.6c8.1,8.1,21.2,8.1,29.2,0L197.2,49.9z"/>
	</g>
</g>
</svg>
