<?xml version="1.0" encoding="utf-8"?>
<!-- Generator: Adobe Illustrator 16.0.0, SVG Export Plug-In . SVG Version: 6.00 Build 0)  -->
<!DOCTYPE svg PUBLIC "-//W3C//DTD SVG 1.1//EN" "http://www.w3.org/Graphics/SVG/1.1/DTD/svg11.dtd">
<svg version="1.1" id="Layer_1" xmlns="http://www.w3.org/2000/svg" xmlns:xlink="http://www.w3.org/1999/xlink" x="0px" y="0px"
	 width="24px" height="24px" viewBox="0 0 24 24" enable-background="new 0 0 24 24" xml:space="preserve">
<g>
	<g>
		<path fill="#010101" d="M6.611,8.844c0.688,2.01,1.98,3.538,3.822,3.538c1.775,0,3.088-1.506,3.797-3.513
			c1.434-1.445,1.096-2.525,0.766-3.041C15.773,2.102,13.395,0,10.299,0C4.75,0,5.717,6.08,5.717,6.08
			c0.006,0.001,0.014,0.001,0.02,0.002C5.482,6.654,5.408,7.616,6.611,8.844z M8.928,4.33L8.523,5.839
			c1.98-0.604,2.246-0.936,2.559-1.163c0.324-0.235,0.598-0.474,0.82-0.691c0.102,0.184,0.23,0.352,0.379,0.504
			c0.146,0.154,0.363-1.397,0.363-1.397s0.547,0.942,0.623,1.247c0.055,0.216,0.4,1.09,0.586,1.17c-0.068,2.885-1.363,5.9-3.42,5.9
			c-1.914,0-3.168-2.615-3.389-5.305C7.57,6.072,8.928,4.33,8.928,4.33z M19.975,16.108l-1.979,1.043l-1.791,0.944l0.34-1.997
			l0.38-2.236l-1.626-1.58l-0.081-0.079l-1.44-0.53l-0.369,0.9l0.779,0.287l-2.842,9.375l-0.357-6.295H9.881l-0.354,6.18
			l-2.811-9.273l0.748-0.273l-0.373-0.899l-2.758,1.015l-0.035,0.015c-0.035,0.017-2.664,1.267-3.814,4.295
			C0.25,17.616,0.078,18.307,0,19.076C2.475,22.08,6.227,23.998,10.426,24h0.02c0.227,0,0.451-0.006,0.676-0.018h0.014
			c3.918-0.201,7.395-2.068,9.734-4.908c-0.078-0.77-0.25-1.461-0.486-2.077C20.263,16.68,20.123,16.387,19.975,16.108z
			 M16.707,20.161c-1.154,0.463-2.34,0.545-3.023,0.545c-0.23,0-0.402-0.011-0.5-0.017v-0.58c0.031,0.002,1.994,0.232,3.523-0.555
			V20.161z M9.645,13.881c0,0-0.336,0.863-0.334,0.867l0.533,0.758h1.178l0.535-0.758c-0.004-0.014-0.334-0.867-0.334-0.867
			C11.184,13.887,9.684,13.887,9.645,13.881z M24,11.554l-2.767-0.397l-1.24-2.507l-1.233,2.509l-2.765,0.407l2.004,1.946
			l-0.469,2.755l2.472-1.303l2.476,1.296l-0.477-2.753L24,11.554z"/>
	</g>
</g>
</svg>
