<?xml version="1.0" encoding="utf-8"?>
<!-- Generator: Adobe Illustrator 22.1.0, SVG Export Plug-In . SVG Version: 6.00 Build 0)  -->
<svg version="1.1" id="Layer_1" xmlns="http://www.w3.org/2000/svg" xmlns:xlink="http://www.w3.org/1999/xlink" x="0px" y="0px"
	 viewBox="0 0 600 600" style="enable-background:new 0 0 600 600;" xml:space="preserve">
<g>
	<g>
		<path d="M535.3,279.3H64.7c-11.4,0-20.7,9.3-20.7,20.7c0,11.4,9.3,20.7,20.7,20.7h470.6c11.4,0,20.7-9.3,20.7-20.7
			C556,288.6,546.7,279.3,535.3,279.3z"/>
	</g>
</g>
<g>
	<g>
		<path d="M549.9,285.4L373.5,108.9c-8.1-8.1-21.2-8.1-29.2,0c-8.1,8.1-8.1,21.2,0,29.2L506.1,300L344.2,461.9
			c-8.1,8.1-8.1,21.2,0,29.2c4,4,9.3,6.1,14.6,6.1s10.6-2,14.6-6.1l176.5-176.5C558,306.5,558,293.5,549.9,285.4z"/>
	</g>
</g>
</svg>
