<?xml version="1.0" encoding="utf-8"?>
<!-- Generator: Adobe Illustrator 22.1.0, SVG Export Plug-In . SVG Version: 6.00 Build 0)  -->
<svg version="1.1" id="Слой_1" xmlns="http://www.w3.org/2000/svg" xmlns:xlink="http://www.w3.org/1999/xlink" x="0px" y="0px"
	 viewBox="0 0 500 500" style="enable-background:new 0 0 500 500;" xml:space="preserve">
<style type="text/css">
	.st0{opacity:0.5;enable-background:new    ;}
</style>
<g>
	<path d="M97.2,436.6c-20.4,0-37-16.6-37-37v-310c0-5.5,4.4-9.9,9.9-9.9h315.5c5.5,0,9.9,4.4,9.9,9.9v347.1H97.2V436.6z M80,399.7
		c0,9.5,7.7,17.2,17.2,17.2h282.6l-1.2-2.8c-1.9-4.6-2.9-9.4-2.9-14.4V99.4H80V399.7z"/>
	<path d="M109.6,228.9c-5.5,0-9.9-4.4-9.9-9.9v-79.3c0-5.5,4.4-9.9,9.9-9.9h236.6c5.5,0,9.9,4.4,9.9,9.9V219c0,5.5-4.4,9.9-9.9,9.9
		H109.6z M119.5,209.2h216.8v-59.5H119.5V209.2z"/>
	<path d="M109.6,384.9c-5.5,0-9.9-4.4-9.9-9.9V271.7c0-5.5,4.4-9.9,9.9-9.9h103.3c5.5,0,9.9,4.4,9.9,9.9V375c0,5.5-4.4,9.9-9.9,9.9
		H109.6z M119.5,365.2H203v-83.6h-83.6L119.5,365.2L119.5,365.2z"/>
	<path d="M246.2,281.6c-5.5,0-9.9-4.4-9.9-9.9s4.4-9.9,9.9-9.9h99.9c5.5,0,9.9,4.4,9.9,9.9s-4.4,9.9-9.9,9.9H246.2z"/>
	<path d="M246.2,384.9c-5.5,0-9.9-4.4-9.9-9.9s4.4-9.9,9.9-9.9h99.9c5.5,0,9.9,4.4,9.9,9.9s-4.4,9.9-9.9,9.9H246.2z"/>
	<path d="M246.2,333.3c-5.5,0-9.9-4.4-9.9-9.9s4.4-9.9,9.9-9.9h99.9c5.5,0,9.9,4.4,9.9,9.9s-4.4,9.9-9.9,9.9H246.2z"/>
	<path class="st0" d="M389.6,436.6v-26c3.2,3.8,7.9,6.2,13.2,6.2c9.5,0,17.2-7.7,17.2-17.2V150.9h-30.4v-19.8h40.3
		c5.5,0,9.9,4.4,9.9,9.9v258.6c0,20.4-16.6,37-37,37L389.6,436.6L389.6,436.6z"/>
</g>
</svg>
