<?xml version="1.0" encoding="utf-8"?>
<!-- Generator: Adobe Illustrator 22.1.0, SVG Export Plug-In . SVG Version: 6.00 Build 0)  -->
<svg version="1.1" id="Слой_1" xmlns="http://www.w3.org/2000/svg" xmlns:xlink="http://www.w3.org/1999/xlink" x="0px" y="0px"
	 viewBox="0 0 500 500" style="enable-background:new 0 0 500 500;" xml:space="preserve">
<style type="text/css">
	.st0{opacity:0.5;enable-background:new    ;}
	.st1{fill:none;stroke:#000000;stroke-width:5;stroke-miterlimit:10;}
</style>
<g>
	<path d="M150.4,170.2c2,0,4.1-0.8,5.6-2.3s2.3-3.5,2.3-5.6c0-2-0.8-4.1-2.3-5.6c-2.9-2.9-8.2-2.9-11.1,0c-1.5,1.5-2.3,3.5-2.3,5.6
		c0,2,0.8,4.1,2.3,5.6C146.3,169.4,148.3,170.2,150.4,170.2L150.4,170.2z"/>
	<path d="M180,170.2c2,0,4.1-0.8,5.5-2.3c1.5-1.5,2.3-3.5,2.3-5.6c0-2-0.8-4.1-2.3-5.6c-2.9-2.9-8.1-2.9-11.1,0
		c-1.5,1.5-2.3,3.5-2.3,5.6c0,2,0.8,4.1,2.3,5.6C175.8,169.4,177.9,170.2,180,170.2L180,170.2z"/>
	<path d="M209.5,170.2c2,0,4.1-0.8,5.6-2.3s2.3-3.5,2.3-5.6c0-2-0.8-4.1-2.3-5.6c-2.9-2.9-8.2-2.9-11.1,0c-1.5,1.5-2.3,3.5-2.3,5.6
		c0,2,0.8,4.1,2.3,5.6C205.4,169.4,207.5,170.2,209.5,170.2L209.5,170.2z"/>
	<path d="M265.6,243.3H145.3c-3.8,0-6.8-3-6.8-6.8l0,0c0-3.8,3-6.8,6.8-6.8h120.3c3.8,0,6.8,3,6.8,6.8l0,0
		C272.4,240.3,269.3,243.3,265.6,243.3z"/>
	<path d="M360.7,271.5H145.3c-3.8,0-6.8-3-6.8-6.8l0,0c0-3.8,3-6.8,6.8-6.8h215.4c3.8,0,6.8,3,6.8,6.8l0,0
		C367.5,268.5,364.4,271.5,360.7,271.5z"/>
	<path class="st0" d="M360.7,305.4H145.3c-3.8,0-6.8-3-6.8-6.8l0,0c0-3.8,3-6.8,6.8-6.8h215.4c3.8,0,6.8,3,6.8,6.8l0,0
		C367.5,302.3,364.4,305.4,360.7,305.4z"/>
	<path class="st0" d="M360.7,333.6H145.3c-3.8,0-6.8-3-6.8-6.8l0,0c0-3.8,3-6.8,6.8-6.8h215.4c3.8,0,6.8,3,6.8,6.8l0,0
		C367.5,330.6,364.4,333.6,360.7,333.6z"/>
	<path d="M27,281.2h29.6c3.3,0,6-2.7,6-6v-4c0-3.3-2.7-6-6-6H27c-3.3,0-6,2.7-6,6v4C21,278.5,23.7,281.2,27,281.2z"/>
	<path d="M441,281.2h29.6c3.3,0,6-2.7,6-6v-4c0-3.3-2.7-6-6-6H441c-3.3,0-6,2.7-6,6v4C435,278.5,437.7,281.2,441,281.2z"/>
	<line class="st1" x1="70.6" y1="278.8" x2="426.2" y2="278.8"/>
	<path d="M112.6,199.8h280.3v81.4h15.6V146.1c-1.2-11.3-10.4-20.3-21.8-21.1H118.9c-12.2,0.8-21.9,11-21.9,23.5v132.6h15.7
		L112.6,199.8L112.6,199.8z M112.6,148.5c0-4.3,3.5-7.9,7.9-7.9H385c4.3,0,7.9,3.6,7.9,7.9v35.6H112.6V148.5z"/>
	<path class="st0" d="M120.5,385.4H385c12.1,0,22.2-9.2,23.4-21.1v-75.1h-15.6v72.7c0.1,4.3-3.5,7.9-7.9,7.9H120.5
		c-4.3,0-7.9-3.5-7.9-7.9v-72.6H96.9V362C96.9,374.8,107.5,385.4,120.5,385.4z"/>
</g>
</svg>
