<?xml version="1.0" encoding="utf-8"?>
<!-- Generator: Adobe Illustrator 22.1.0, SVG Export Plug-In . SVG Version: 6.00 Build 0)  -->
<svg version="1.1" id="Capa_1" xmlns="http://www.w3.org/2000/svg" xmlns:xlink="http://www.w3.org/1999/xlink" x="0px" y="0px"
	 viewBox="-43 147 500 500" style="enable-background:new -43 147 500 500;" xml:space="preserve">
<style type="text/css">
	.st0{opacity:0.5;}
</style>
<path d="M300.8,372.7v-25c0-6.9-5.6-12.5-12.5-12.5h-18.8v-12.5h18.8c6.9,0,12.5-5.6,12.5-12.5v-25c0-6.9-5.6-12.5-12.5-12.5h-18.8
	v-12.5h18.8c6.9,0,12.5-5.6,12.5-12.5v-25c0-6.9-5.6-12.5-12.5-12.5H125.5c-6.9,0-12.5,5.6-12.5,12.5v25c0,6.9,5.6,12.5,12.5,12.5
	h18.8v12.5h-18.8c-6.9,0-12.5,5.6-12.5,12.5v25c0,6.9,5.6,12.5,12.5,12.5h18.8v12.5h-18.8c-6.9,0-12.5,5.6-12.5,12.5v25
	c0,6.9,5.6,12.5,12.5,12.5h162.7C295.1,385.2,300.8,379.6,300.8,372.7z M125.5,222.5h162.7l0,25H125.5V222.5z M156.8,260.1H257v12.5
	H156.8V260.1z M125.5,285.1h162.7l0,25H125.5V285.1z M156.8,322.6H257v12.5H156.8V322.6z M125.5,347.7h162.7l0,25H125.5V347.7z"/>
<path d="M244.4,516.6h-35l-13.3-13.3c-3.5-3.5-8.3-5.5-13.3-5.5h-13.6c-10.4,0-18.8,8.4-18.8,18.8v62.6c0,10.4,8.4,18.8,18.8,18.8
	h75.1c10.4,0,18.8-8.4,18.8-18.8v-43.8C263.2,525.1,254.8,516.6,244.4,516.6z M244.4,585.5h-75.1c-3.4,0-6.3-2.8-6.3-6.3v-62.6
	c0-3.5,2.8-6.3,6.3-6.3h13.6c1.7,0,3.2,0.7,4.4,1.8l16.9,16.9h40.1c3.4,0,6.3,2.8,6.3,6.3v6.3h-75.1v12.5h75.1v25
	C250.7,582.7,247.9,585.5,244.4,585.5z"/>
<path d="M118.5,516.6h-35l-13.3-13.3c-3.5-3.5-8.3-5.5-13.3-5.5H43.4c-10.4,0-18.8,8.4-18.8,18.8v62.6c0,10.4,8.4,18.8,18.8,18.8
	h75.1c10.4,0,18.8-8.4,18.8-18.8v-43.8C137.3,525.1,128.8,516.6,118.5,516.6z M118.5,585.5H43.4c-3.4,0-6.3-2.8-6.3-6.3v-62.6
	c0-3.5,2.8-6.3,6.3-6.3H57c1.7,0,3.2,0.7,4.4,1.8l16.9,16.9h40.1c3.4,0,6.3,2.8,6.3,6.3v6.3H49.7v12.5h75.1v25
	C124.8,582.7,121.9,585.5,118.5,585.5z"/>
<path d="M369.6,516.6h-35l-13.3-13.3c-3.5-3.5-8.3-5.5-13.3-5.5h-13.6c-10.4,0-18.8,8.4-18.8,18.8v62.6c0,10.4,8.4,18.8,18.8,18.8
	h75.1c10.4,0,18.8-8.4,18.8-18.8v-43.8C388.4,525.1,380,516.6,369.6,516.6z M369.6,585.5h-75.1c-3.4,0-6.3-2.8-6.3-6.3v-62.6
	c0-3.5,2.8-6.3,6.3-6.3h13.6c1.7,0,3.2,0.7,4.4,1.8l16.9,16.9h40.1c3.4,0,6.3,2.8,6.3,6.3v6.3h-75.1v12.5h75.1v25
	C375.9,582.7,373,585.5,369.6,585.5z"/>
<path class="st0" d="M200.6,382.9v72.3c-7.3,2.6-12.5,9.5-12.5,17.6c0,10.4,8.4,18.8,18.8,18.8s18.8-8.4,18.8-18.8
	c0-8.1-5.3-15-12.5-17.6v-72.3H200.6z M206.9,479.1c-3.4,0-6.3-2.8-6.3-6.3s2.8-6.3,6.3-6.3c3.4,0,6.3,2.8,6.3,6.3
	S210.3,479.1,206.9,479.1z"/>
<path class="st0" d="M325.8,322.6v138.8c-7.3,2.6-12.5,9.5-12.5,17.6c0,10.4,8.4,18.8,18.8,18.8s18.8-8.4,18.8-18.8
	c0-8.1-5.3-15-12.5-17.6V322.6c0-17.3-14-31.3-31.3-31.3h-6.3v12.5h6.3C317.4,303.9,325.8,312.3,325.8,322.6z M332.1,485.4
	c-3.4,0-6.3-2.8-6.3-6.3s2.8-6.3,6.3-6.3s6.3,2.8,6.3,6.3S335.5,485.4,332.1,485.4z"/>
<path class="st0" d="M81.7,497.9c10.4,0,18.8-8.4,18.8-18.8c0-8.1-5.3-15-12.5-17.6V322.6c0-10.4,8.4-18.8,18.8-18.8h6.3v-12.5h-6.3
	c-17.3,0-31.3,14-31.3,31.3v138.8c-7.3,2.6-12.5,9.5-12.5,17.6C63,489.4,71.4,497.9,81.7,497.9z M81.7,472.8c3.4,0,6.3,2.8,6.3,6.3
	s-2.8,6.3-6.3,6.3c-3.4,0-6.3-2.8-6.3-6.3S78.3,472.8,81.7,472.8z"/>
</svg>
