<?xml version="1.0" encoding="utf-8"?>
<!-- Generator: Adobe Illustrator 22.1.0, SVG Export Plug-In . SVG Version: 6.00 Build 0)  -->
<svg version="1.1" id="Слой_1" xmlns="http://www.w3.org/2000/svg" xmlns:xlink="http://www.w3.org/1999/xlink" x="0px" y="0px"
	 viewBox="0 0 500 500" style="enable-background:new 0 0 500 500;" xml:space="preserve">
<path d="M409.6,202.7C405.7,135.6,350.1,82.1,282,82.1h-64c-34.1,0-66.2,13.3-90.5,37.5c-22.4,22.5-35.3,51.8-37.1,83.1
	c-12.7,7.3-23,18.7-28.3,33c-10.5,28-0.5,58.9,26.6,82.4l1.4,1.2V418h319.9v-98.7l1.4-1.2c27.1-23.6,37.1-54.4,26.6-82.4
	C432.6,221.4,422.3,210,409.6,202.7z M150.1,142.2c18.2-18.1,42.3-28.1,67.9-28.1h64c47.5,0,87,34.6,94.6,80H123.4
	C126.6,174.6,135.9,156.6,150.1,142.2z M254.1,308.1L250,313l-4.1-4.9l0,0l-9.9-11.8l-5.2-6.2h0L186,236.3v-10.2h128v10.2
	l-44.8,53.8h0l-5.2,6.2L254.1,308.1L254.1,308.1z M92.1,246.9c4.7-12.5,16.7-20.8,30-20.8h32v21.8l35.2,42.2h-83.7
	C91.7,276.3,86.9,260.8,92.1,246.9z M378,386H122v-64h93.8l34.1,41l34.1-41H378V386z M394.5,290.1h-83.7l35.2-42.2v-21.8h32
	c13.3,0,25.3,8.4,30,20.8C413.1,260.8,408.3,276.3,394.5,290.1z"/>
</svg>
