<?xml version="1.0" encoding="utf-8"?>
<!-- Generator: Adobe Illustrator 22.1.0, SVG Export Plug-In . SVG Version: 6.00 Build 0)  -->
<svg version="1.1" id="Capa_1" xmlns="http://www.w3.org/2000/svg" xmlns:xlink="http://www.w3.org/1999/xlink" x="0px" y="0px"
	 viewBox="0 0 500 500" style="enable-background:new 0 0 500 500;" xml:space="preserve">
<g>
	<g id="call-end">
		<path d="M213.6,290.6c18.6,26.6,41.1,48,65.2,68.3l51.5-36.1c6.6-4.7,14-4.8,21.9-0.5c20,10.8,40.4,18.8,63,22.8
			c5.7,1,9.6,3.2,13.1,8.1s4.2,9.5,3.2,15.1L419.1,439c-2.2,4-4.3,8-9.3,11.5c-5,3.5-9.5,4.2-15.1,3.2
			c-83.1-16.1-161.9-65-214.3-139.8S109,148.3,122.3,64.7c1-5.7,3.2-9.6,8.1-13.1c5-3.5,9.5-4.2,15.1-3.2l70.7,12.5
			c5.7,1,9.6,3.2,13.1,8.1s4.2,9.5,3.2,15.1c-2.3,21.4-3.5,44.6-0.2,67c0.2,7.3-1.3,15.8-8,20.4l-51.5,36.1
			C182.5,235.6,195,264,213.6,290.6z"/>
	</g>
</g>
</svg>
