<?xml version="1.0" encoding="utf-8"?>
<!-- Generator: Adobe Illustrator 22.1.0, SVG Export Plug-In . SVG Version: 6.00 Build 0)  -->
<svg version="1.1" id="Слой_1" xmlns="http://www.w3.org/2000/svg" xmlns:xlink="http://www.w3.org/1999/xlink" x="0px" y="0px"
	 viewBox="0 0 500 500" style="enable-background:new 0 0 500 500;" xml:space="preserve">
<path d="M410,250h-72.3c-13.3-37.7-41.8-68.7-79.7-84.7V90h32V58H114v32h32v75.3C92.9,187.6,58,239.6,58,298
	c0,79.4,64.6,144,144,144c62.6,0,115.8-40.2,135.6-96H410v32h32V218h-32V250z M313.2,310.8c-0.2,1.7-0.5,3.3-0.8,4.9
	c-0.4,2.5-0.8,5-1.4,7.4C299.6,372.8,255.1,410,202,410c-61.8,0-112-50.2-112-112c0-48.5,30.9-91.3,77-106.4l11-3.6V90h48v98l11,3.6
	c36.9,12.1,64.1,42.1,73.4,78.4c1.1,4.3,1.9,8.6,2.5,13c0.1,0.7,0.2,1.4,0.2,2.1c0.5,4.3,0.8,8.6,0.8,12.9
	C314,302.3,313.7,306.6,313.2,310.8z M410,314h-64.9c0-0.3,0-0.5,0-0.8c0.5-5,0.8-10.1,0.8-15.2c0-4.9-0.3-9.7-0.8-14.5
	c0-0.5,0-1-0.1-1.5H410V314z"/>
<path d="M154,298v-16h-32v16c0,44.1,35.9,80,80,80h16v-32h-16C175.5,346,154,324.5,154,298z"/>
</svg>
