<?xml version="1.0" encoding="utf-8"?>
<!-- Generator: Adobe Illustrator 22.1.0, SVG Export Plug-In . SVG Version: 6.00 Build 0)  -->
<svg version="1.1" id="Слой_1" xmlns="http://www.w3.org/2000/svg" xmlns:xlink="http://www.w3.org/1999/xlink" x="0px" y="0px"
	 viewBox="0 0 500 500" style="enable-background:new 0 0 500 500;" xml:space="preserve">
<path d="M383.8,170.3C372.5,106.6,316.9,58,250,58s-122.5,48.6-133.8,112.3C83.6,173.2,58,200.7,58,234c0,32.6,24.5,59.5,56,63.4
	v8.6c0,75,61,136,136,136s136-61,136-136v-8.6c31.5-4,56-30.9,56-63.4C442,200.7,416.4,173.2,383.8,170.3z M114,218v47
	c-13.8-3.6-24-16.1-24-31s10.2-27.4,24-31V218z M250,90c23.7,0,45.5,8,63,21.4c-16.5,17-38.8,26.6-63,26.6s-46.5-9.6-63-26.6
	C204.5,98,226.3,90,250,90z M354,298v8c0,57.3-46.7,104-104,104s-104-46.7-104-104v-28.6c12.3,8,27.3,12.6,44,12.6
	c25,0,46.3-10.3,60-26.8c13.7,16.5,35,26.8,60,26.8c16.7,0,31.7-4.6,44-12.6V298z M149.3,234h81.4c-6.4,14.5-21.6,24-40.7,24
	S155.7,248.5,149.3,234z M269.3,234h81.4c-6.4,14.5-21.6,24-40.7,24S275.7,248.5,269.3,234z M354,202H146v-8
	c0-22.2,7-42.7,18.9-59.6c22.4,22.7,52.6,35.6,85.1,35.6s62.7-12.9,85.1-35.6C347,151.3,354,171.8,354,194V202z M386,265v-62
	c13.8,3.6,24,16.1,24,31S399.8,261.4,386,265z"/>
<path d="M267,339c-9.4,9.4-24.6,9.4-33.9,0l-11.3-11.3l-22.6,22.6l11.3,11.3c10.9,10.9,25.3,16.4,39.6,16.4s28.7-5.5,39.6-16.4
	l11.3-11.3l-22.6-22.6L267,339z"/>
</svg>
