<?xml version="1.0" encoding="utf-8"?>
<!-- Generator: Adobe Illustrator 22.1.0, SVG Export Plug-In . SVG Version: 6.00 Build 0)  -->
<svg version="1.1" id="Слой_1" xmlns="http://www.w3.org/2000/svg" xmlns:xlink="http://www.w3.org/1999/xlink" x="0px" y="0px"
	 viewBox="0 0 500 500" style="enable-background:new 0 0 500 500;" xml:space="preserve">
<path d="M378,162V58H122v104c-35.3,0-64,28.7-64,64s28.7,64,64,64h2.3c3.3,17.8,10.3,34.5,20.6,49.2C112,354.6,90,387.9,90,426v16
	h32v-16c0-29,19.1-53.8,46.3-61.5c0.3,0.2,0.5,0.4,0.8,0.6c0.7,0.6,1.5,1.1,2.2,1.7c1.8,1.4,3.6,2.8,5.5,4.1
	c0.9,0.6,1.8,1.2,2.7,1.8c1.9,1.3,3.8,2.4,5.8,3.6c0.8,0.5,1.7,1,2.5,1.5c2.8,1.6,5.6,3,8.6,4.4C213.2,390,231.2,394,250,394
	s36.8-4,53.6-11.8c2.9-1.4,5.8-2.8,8.6-4.4c0.9-0.5,1.7-1,2.6-1.5c1.9-1.1,3.8-2.3,5.7-3.5c0.9-0.6,1.9-1.2,2.8-1.9
	c1.8-1.3,3.6-2.6,5.3-4c0.8-0.6,1.6-1.2,2.4-1.8c0.3-0.2,0.5-0.4,0.8-0.6C358.9,372.2,378,397,378,426v16h32v-16
	c0-38.1-22-71.4-55-86.8c10.4-14.7,17.3-31.4,20.7-49.2h2.3c35.3,0,64-28.7,64-64S413.3,162,378,162z M346,90v72h-34.1
	c-7.1-27.6-32.1-48-61.9-48s-54.8,20.4-61.9,48H154V90H346z M250,146c17.6,0,32,14.4,32,32s-14.4,32-32,32s-32-14.4-32-32
	S232.4,146,250,146z M90,226c0-17.6,14.4-32,32-32v64C104.4,258,90,243.6,90,226z M290.1,353.2c-25.1,11.7-55.1,11.7-80.3,0
	c-9.6-4.5-18.4-10.4-26-17.7l0,0C164.6,317.3,154,292.6,154,266v-72h34.1c7.1,27.6,32.1,48,61.9,48s54.8-20.4,61.9-48H346v72
	c0,26.6-10.6,51.3-29.9,69.5C308.5,342.8,299.8,348.7,290.1,353.2z M378,258v-64c17.6,0,32,14.4,32,32S395.6,258,378,258z"/>
</svg>
