<?xml version="1.0" encoding="utf-8"?>
<!-- Generator: Adobe Illustrator 22.1.0, SVG Export Plug-In . SVG Version: 6.00 Build 0)  -->
<svg version="1.1" id="Слой_1" xmlns="http://www.w3.org/2000/svg" xmlns:xlink="http://www.w3.org/1999/xlink" x="0px" y="0px"
	 viewBox="0 0 500 500" style="enable-background:new 0 0 500 500;" xml:space="preserve">
<path d="M234,219.4L211.4,242l38.6,38.6L352.6,178L330,155.4l-80,80L234,219.4z"/>
<path d="M410,147.4L320.6,58H90v384h320V147.4z M378,410H122V90h185.4l70.6,70.6V410z"/>
<path d="M314,250c0,35.3-28.7,64-64,64s-64-28.7-64-64s28.7-64,64-64h16v-32h-16c-52.9,0-96,43.1-96,96s43.1,96,96,96s96-43.1,96-96
	v-16h-32V250z"/>
</svg>
