<?xml version="1.0" encoding="utf-8"?>
<!-- Generator: Adobe Illustrator 22.1.0, SVG Export Plug-In . SVG Version: 6.00 Build 0)  -->
<svg version="1.1" id="Слой_1" xmlns="http://www.w3.org/2000/svg" xmlns:xlink="http://www.w3.org/1999/xlink" x="0px" y="0px"
	 viewBox="0 0 500 500" style="enable-background:new 0 0 500 500;" xml:space="preserve">
<path d="M130,392.6l40,40L384.6,218l-16-16l41.4-41.4l16,16l22.6-22.6l-16-16L410,115.4L384.6,90L362,67.4l-16-16L323.4,74l16,16
	L298,131.4l-16-16L67.4,330l40,40l-56,56L74,448.6L130,392.6z M362,112.6l25.4,25.4L346,179.4L320.6,154L362,112.6z M282,160.6
	l16,16l25.4,25.4l16,16L218,339.4L160.6,282L282,160.6z M112.6,330l25.4-25.4l57.4,57.4L170,387.4L152.6,370L130,347.4L112.6,330z"
	/>
</svg>
