<svg xmlns="http://www.w3.org/2000/svg" viewBox="0 0 198.42 294.04"><defs><style>.cls-1{fill:#fff;}</style></defs><title>Ресурс 1</title><g id="Слой_2" data-name="Слой 2"><g id="Layer_1" data-name="Layer 1"><path class="cls-1" d="M90.33,197.92l-13.85-.33c-5.74-.07-12.42-.24-19.58-.27l-22.45-.12L12,197.32a14.61,14.61,0,0,1-5-.5,5.35,5.35,0,0,1-3.44-2.68,6.94,6.94,0,0,1-.4-4.28c.12-.7.38-1.48.52-2.07a6.45,6.45,0,0,1,1-1.81,6.55,6.55,0,0,1,6.62-2,6,6,0,0,1,4.27,3.54,6.86,6.86,0,0,1,.29,3.75l-.23,1h0l.3-1a6.68,6.68,0,0,0-.05-3.88,6.46,6.46,0,0,0-4.42-4.08,8.29,8.29,0,0,0-3.86-.18,6.58,6.58,0,0,0-3.74,2.22,7.42,7.42,0,0,0-1.18,1.95c-.27.84-.5,1.51-.69,2.32a8.26,8.26,0,0,0,.36,5.07,6.74,6.74,0,0,0,4.16,3.51,15.37,15.37,0,0,0,5.44.66l22.45.11,22.45-.12c7.16,0,13.84-.2,19.58-.27l13.85-.33,1.9-.07-.49-.23Z"/><path class="cls-1" d="M13.06,192.43l-2.2.17,2.2.18c1.39.07,3.39.24,5.78.33s5.19.23,8.19.28,6.18.09,9.38.11,6.38,0,9.38-.11,5.78-.2,8.18-.28l2.87-.15a3.94,3.94,0,0,1-.25-.73L54,192.1c-2.4-.08-5.19-.24-8.18-.29s-6.19-.09-9.38-.1-6.39,0-9.38.1-5.79.21-8.19.29c-1.15,0-2.21.1-3.16.16h0Z"/><path class="cls-1" d="M196.38,189.64c-.18-.81-.41-1.48-.68-2.32a7.42,7.42,0,0,0-1.18-1.95,6.57,6.57,0,0,0-3.75-2.22,8.24,8.24,0,0,0-3.85.18,6.49,6.49,0,0,0-4.43,4.08,6.86,6.86,0,0,0-.05,3.88l.3,1h0l-.23-1a6.84,6.84,0,0,1,.28-3.75A6,6,0,0,1,187.1,184a6.54,6.54,0,0,1,6.61,2,6.21,6.21,0,0,1,1,1.81c.14.59.4,1.37.53,2.07a7.09,7.09,0,0,1-.4,4.28,5.34,5.34,0,0,1-3.45,2.68,14.58,14.58,0,0,1-5,.5L164,197.2l-22.45.12c-7.16,0-13.85.2-19.58.27l-13.85.33-1.73.06-.44.22,2.17.07,13.85.33c5.73.07,12.42.24,19.58.27L164,199l22.44-.11a15.4,15.4,0,0,0,5.45-.66,6.77,6.77,0,0,0,4.16-3.51A8.18,8.18,0,0,0,196.38,189.64Z"/><path class="cls-1" d="M144.46,193.11c2.39.08,5.19.23,8.18.28s6.19.09,9.38.11,6.39,0,9.38-.11,5.79-.2,8.18-.28,4.39-.26,5.79-.33l2.19-.18-2.19-.17-2.6-.17h0c-.95-.06-2-.12-3.17-.16-2.39-.08-5.19-.23-8.18-.29s-6.19-.09-9.38-.1-6.38,0-9.38.1-5.79.21-8.18.29c-1.43.06-2.69.13-3.79.2a4.1,4.1,0,0,1-.2.59C141.61,193,143,193,144.46,193.11Z"/><path class="cls-1" d="M116,193.11l3.07-1.54-.73.21-.23,0a.85.85,0,0,1-.23-1.67,75.32,75.32,0,0,0,7.7-2.79c.1-.29.26-.74.45-1.33l-10.91,5.34c-5.34,2.63-10.7,5.21-16,7.88l-14.77-7c-4.37-2.07-8.75-4.15-13.14-6.17.18.56.33,1,.43,1.27a75.32,75.32,0,0,0,7.7,2.79.85.85,0,0,1-.23,1.67h0L83.54,194l8.2,4,.49.23,6.46,3.16a1.08,1.08,0,0,0,.93,0c2.11-1,4.21-2.1,6.31-3.15l.44-.22Z"/><path class="cls-1" d="M80.19,183.56l6.13,3.25C90.41,189,94.56,191,98.72,193a1,1,0,0,0,.87,0c3.91-2,7.82-3.94,11.66-6.06l5.76-3.17c1.89-1.11,3.8-2.17,5.67-3.34-2.06.78-4.06,1.67-6.1,2.5l-6,2.67c-3.86,1.73-7.65,3.57-11.44,5.42-4-1.92-8.06-3.82-12.15-5.6l-6.37-2.75c-2.15-.85-4.28-1.76-6.46-2.55C76.14,181.32,78.18,182.41,80.19,183.56Z"/><path class="cls-1" d="M98.65,185.94a1,1,0,0,0,.87,0c7.13-3.58,14.18-7.3,21-11.52-7.32,2.8-14.41,6.11-21.42,9.54-7.45-3.56-15-7-22.75-9.83C83.57,178.49,91.07,182.3,98.65,185.94Z"/><path class="cls-1" d="M99.39,179.35A167.25,167.25,0,0,0,116,170a169.34,169.34,0,0,0-17,7.37,165.91,165.91,0,0,0-18.08-7.59,168.39,168.39,0,0,0,17.66,9.58A1,1,0,0,0,99.39,179.35Z"/><polygon class="cls-1" points="27.42 218.54 25.93 218.54 14.72 230.32 14.72 218.54 12 218.54 12 239.46 14.72 239.46 14.72 232.11 18.1 228.5 26.05 239.46 29.16 239.46 19.83 226.64 27.42 218.54"/><polygon class="cls-1" points="36.36 218.54 33.64 218.54 33.64 239.46 47.15 239.46 47.15 237.82 36.36 237.82 36.36 218.54"/><path class="cls-1" d="M69.59,236.07a11.73,11.73,0,0,0,1.57-2.3,12.69,12.69,0,0,0,.92-2.43A9.45,9.45,0,0,0,72.4,229a10.51,10.51,0,0,0-.69-3.57,11,11,0,0,0-2.12-3.51A11.67,11.67,0,0,0,66,219.24a12,12,0,0,0-5.19-1.05,11.37,11.37,0,0,0-5.08,1,10.82,10.82,0,0,0-3.49,2.65,10.38,10.38,0,0,0-2,3.5,11.39,11.39,0,0,0-.64,3.62,11.06,11.06,0,0,0,.64,3.57,10.52,10.52,0,0,0,2,3.51,10.9,10.9,0,0,0,3.49,2.68,11.37,11.37,0,0,0,5.08,1.06,12.41,12.41,0,0,0,3.63-.49A11.9,11.9,0,0,0,67.33,238,10.62,10.62,0,0,0,69.59,236.07Zm-5.43,1.73a8,8,0,0,1-3.33.7,7.84,7.84,0,0,1-3.32-.7,8.06,8.06,0,0,1-2.64-2,9.08,9.08,0,0,1-1.76-3,11.67,11.67,0,0,1,0-7.68,9.28,9.28,0,0,1,1.76-3,8.06,8.06,0,0,1,2.64-2,7.84,7.84,0,0,1,3.32-.7,8,8,0,0,1,3.33.7,8.39,8.39,0,0,1,2.75,2,9.35,9.35,0,0,1,1.87,3,11,11,0,0,1,0,7.68,9.14,9.14,0,0,1-1.87,3A8.39,8.39,0,0,1,64.16,237.8Z"/><path class="cls-1" d="M87.85,238.48a10,10,0,0,1-4.13-.81,8.92,8.92,0,0,1-3-2.15,9.28,9.28,0,0,1-1.81-3.11,11.36,11.36,0,0,1-.61-3.68A10.38,10.38,0,0,1,79,225a8.5,8.5,0,0,1,1.8-2.91,8.27,8.27,0,0,1,2.77-1.91A8.65,8.65,0,0,1,87,219.5a8.51,8.51,0,0,1,4.23,1.07,5.52,5.52,0,0,1,1.34,1.1,3.74,3.74,0,0,1,.73,1.24h2.21A7.71,7.71,0,0,0,94.37,221a6.58,6.58,0,0,0-1.75-1.5,9,9,0,0,0-2.44-1,13,13,0,0,0-3.2-.35,14.5,14.5,0,0,0-4.74.74,10.56,10.56,0,0,0-3.66,2.14,9.57,9.57,0,0,0-2.36,3.34,11,11,0,0,0-.84,4.38,12.56,12.56,0,0,0,.68,4.08,9.74,9.74,0,0,0,2.07,3.53,10.26,10.26,0,0,0,3.59,2.48,13,13,0,0,0,5.2.94,14.84,14.84,0,0,0,3.42-.36,13.71,13.71,0,0,0,2.63-.88,9.24,9.24,0,0,0,1.87-1.12A9.41,9.41,0,0,0,96,236.41l-.89-.8A10.23,10.23,0,0,1,87.85,238.48Z"/><polygon class="cls-1" points="100.16 218.54 100.16 239.46 102.87 239.46 102.87 229.06 115.39 229.06 115.39 239.46 118.12 239.46 118.12 218.54 115.39 218.54 115.39 227.69 102.87 227.69 102.87 218.54 100.16 218.54"/><polygon class="cls-1" points="140.71 218.54 139.21 218.54 128.01 230.32 128.01 218.54 125.29 218.54 125.29 239.46 128.01 239.46 128.01 232.11 131.38 228.5 139.33 239.46 142.44 239.46 133.12 226.64 140.71 218.54"/><path class="cls-1" d="M162.62,238a10.62,10.62,0,0,0,2.26-1.93,11.31,11.31,0,0,0,1.57-2.3,12.11,12.11,0,0,0,.93-2.43,9.92,9.92,0,0,0,.31-2.34,10.51,10.51,0,0,0-.69-3.57,10.85,10.85,0,0,0-2.12-3.51,11.67,11.67,0,0,0-3.63-2.68,11.88,11.88,0,0,0-5.18-1.05,11.31,11.31,0,0,0-5.08,1,10.76,10.76,0,0,0-3.5,2.65,10.38,10.38,0,0,0-2,3.5,11.39,11.39,0,0,0-.64,3.62,11.06,11.06,0,0,0,.64,3.57,10.52,10.52,0,0,0,2,3.51,10.83,10.83,0,0,0,3.5,2.68,11.31,11.31,0,0,0,5.08,1.06,12.5,12.5,0,0,0,3.63-.49A11.82,11.82,0,0,0,162.62,238Zm-6.5.5a7.77,7.77,0,0,1-3.31-.7,8,8,0,0,1-2.65-2,9.25,9.25,0,0,1-1.76-3,11.84,11.84,0,0,1,0-7.68,9.47,9.47,0,0,1,1.76-3,8,8,0,0,1,2.65-2,7.77,7.77,0,0,1,3.31-.7,8.07,8.07,0,0,1,3.34.7,8.6,8.6,0,0,1,2.75,2,9.5,9.5,0,0,1,1.86,3,11,11,0,0,1,0,7.68,9.28,9.28,0,0,1-1.86,3,8.6,8.6,0,0,1-2.75,2A8.07,8.07,0,0,1,156.12,238.5Z"/><polygon class="cls-1" points="180.6 235.76 180.48 235.76 173.31 218.54 170.08 218.54 178.84 239.46 180.63 239.46 189.12 218.54 187.56 218.54 180.6 235.76"/><path class="cls-1" d="M41.55,261.6a6.11,6.11,0,0,1-1,2L36.32,258a5.25,5.25,0,0,0,2.11-1.57,3.05,3.05,0,0,0,.35-3,3.2,3.2,0,0,0-.68-1,3.06,3.06,0,0,0-1-.62,3.55,3.55,0,0,0-1.24-.21,3.42,3.42,0,0,0-1.46.29,3,3,0,0,0-1,.74,2.62,2.62,0,0,0-.58,1,3.61,3.61,0,0,0-.18,1.1,3.21,3.21,0,0,0,.48,1.69c.32.54.71,1.12,1.17,1.77a12.47,12.47,0,0,0-1.58.88,6.72,6.72,0,0,0-1.27,1.07,4.6,4.6,0,0,0-.86,1.27,3.49,3.49,0,0,0-.31,1.49,3.77,3.77,0,0,0,.34,1.52,3.92,3.92,0,0,0,1,1.33,4.87,4.87,0,0,0,1.66.94,6.73,6.73,0,0,0,2.3.36,7.67,7.67,0,0,0,1.91-.28,7.3,7.3,0,0,0,2.33-1.24l1,1.28h2.26l-1.94-2.45.56-.68a7.51,7.51,0,0,0,.77-1.16,11.19,11.19,0,0,0,.73-1.62,8.42,8.42,0,0,0,.43-2.07H42A10.73,10.73,0,0,1,41.55,261.6Zm-7.36-7.31a2,2,0,0,1,.1-.63,1.42,1.42,0,0,1,.31-.58,1.51,1.51,0,0,1,.54-.42,1.86,1.86,0,0,1,.81-.16,1.57,1.57,0,0,1,.85.21,1.65,1.65,0,0,1,.53.52,2.08,2.08,0,0,1,.27.65,2.5,2.5,0,0,1,.09.62,2.64,2.64,0,0,1-.18,1,3.28,3.28,0,0,1-.46.8,4,4,0,0,1-.62.62,3.62,3.62,0,0,1-.61.41c-.46-.56-.84-1.09-1.16-1.56A2.69,2.69,0,0,1,34.19,254.29Zm4.17,11.13a5.34,5.34,0,0,1-.93.31,4.35,4.35,0,0,1-.8.14l-.52,0a4.46,4.46,0,0,1-1.42-.24,4.36,4.36,0,0,1-1.3-.72,3.62,3.62,0,0,1-1-1.14,3.2,3.2,0,0,1-.36-1.55,2.87,2.87,0,0,1,.58-1.75,6.5,6.5,0,0,1,2.15-1.6l4.48,5.91A4,4,0,0,1,38.36,265.42Z"/><path class="cls-1" d="M62.76,253.17a4.56,4.56,0,0,0-1.53-1,5.87,5.87,0,0,0-2.15-.36h-5v14.94H56v-6.23a10.18,10.18,0,0,0,1.2.24,8.82,8.82,0,0,0,1.41.1,6.83,6.83,0,0,0,2.31-.36,5,5,0,0,0,1.67-1,4,4,0,0,0,1-1.45,4.46,4.46,0,0,0,.35-1.76,5,5,0,0,0-.3-1.72A3.84,3.84,0,0,0,62.76,253.17Zm-1.09,4.49A3.18,3.18,0,0,1,61,258.8a3.42,3.42,0,0,1-1.13.83,3.91,3.91,0,0,1-1.65.32,11.26,11.26,0,0,1-1.21-.06,3.48,3.48,0,0,1-1-.22v-6.89h2.25a3.55,3.55,0,0,1,1.57.32,3.26,3.26,0,0,1,1.14.84,3.79,3.79,0,0,1,.67,1.17,4,4,0,0,1,.22,1.3A3.93,3.93,0,0,1,61.67,257.66Z"/><path class="cls-1" d="M71.56,251.84l-6.31,14.94h1l1.88-4.4h7.36l2,4.4h2.07l-7-14.94Zm-3,9.58,3.07-7.19h.09L75,261.42Z"/><path class="cls-1" d="M94.49,266a2.15,2.15,0,0,1-.79-.13,2.18,2.18,0,0,1-.64-.37,3.7,3.7,0,0,1-.58-.6c-.18-.23-.37-.5-.57-.8-.59-.87-1-1.56-1.37-2.08s-.59-.92-.78-1.2a4.18,4.18,0,0,0-.47-.62,1.43,1.43,0,0,0-.44-.32l-.21-.11v-.08a4.6,4.6,0,0,0,1.76-.45,3.93,3.93,0,0,0,1.19-1,3.82,3.82,0,0,0,.68-1.25,4.43,4.43,0,0,0,.21-1.32,4.08,4.08,0,0,0-.22-1.26,3.49,3.49,0,0,0-.77-1.26,4.22,4.22,0,0,0-1.48-1,6.25,6.25,0,0,0-2.37-.39H82.79v14.94h1.94v-6.6h1a3.92,3.92,0,0,1,1,.11,1.88,1.88,0,0,1,.72.36,3.6,3.6,0,0,1,.6.67l.66,1,1.7,2.49c.21.33.42.63.62.9a4.43,4.43,0,0,0,.66.7,2.88,2.88,0,0,0,1.92.63,7.64,7.64,0,0,0,.77,0,1.52,1.52,0,0,0,.59-.22V266l-.21,0Zm-7.55-6.81H84.73v-6.44H86.9a4.18,4.18,0,0,1,1.46.23,3.68,3.68,0,0,1,1.13.65,2.88,2.88,0,0,1,.72,1,3.3,3.3,0,0,1,0,2.42,3.15,3.15,0,0,1-.68,1.06,3.27,3.27,0,0,1-1.1.78A3.6,3.6,0,0,1,86.94,259.22Z"/><polygon class="cls-1" points="95.98 253.01 101.7 253.01 101.7 266.78 103.64 266.78 103.64 253.01 109.36 253.01 109.36 251.84 95.98 251.84 95.98 253.01"/><polygon class="cls-1" points="124.39 263.26 124.31 263.26 112.46 251.58 112.35 251.58 112.35 266.78 113.33 266.78 113.33 255.36 113.42 255.36 125.27 267.04 125.37 267.04 125.37 251.84 124.39 251.84 124.39 263.26"/><polygon class="cls-1" points="130.5 266.78 140.14 266.78 140.14 265.61 132.44 265.61 132.44 259.35 139.05 259.35 139.05 258.37 132.44 258.37 132.44 253.01 140.14 253.01 140.14 251.84 130.5 251.84 130.5 266.78"/><path class="cls-1" d="M155,266a2.15,2.15,0,0,1-.79-.13,2.18,2.18,0,0,1-.64-.37,3.29,3.29,0,0,1-.57-.6,9.85,9.85,0,0,1-.58-.8c-.59-.87-1.05-1.56-1.37-2.08s-.58-.92-.78-1.2a3.59,3.59,0,0,0-.47-.62,1.38,1.38,0,0,0-.43-.32l-.22-.11v-.08a4.55,4.55,0,0,0,1.76-.45,3.85,3.85,0,0,0,1.2-1,3.8,3.8,0,0,0,.67-1.25,3.81,3.81,0,0,0,0-2.58,3.49,3.49,0,0,0-.77-1.26,4.22,4.22,0,0,0-1.48-1,6.25,6.25,0,0,0-2.37-.39h-4.84v14.94h1.94v-6.6h.94a4,4,0,0,1,1,.11,1.91,1.91,0,0,1,.71.36,3,3,0,0,1,.6.67c.19.27.41.6.67,1l1.69,2.49c.21.33.42.63.62.9a4.48,4.48,0,0,0,.67.7,3.21,3.21,0,0,0,.81.46,3.3,3.3,0,0,0,1.1.17,7.47,7.47,0,0,0,.77,0,1.62,1.62,0,0,0,.6-.22V266l-.22,0Zm-7.55-6.81h-2.2v-6.44h2.16a4.28,4.28,0,0,1,1.47.23,3.62,3.62,0,0,1,1.12.65,2.64,2.64,0,0,1,.72,1,3.21,3.21,0,0,1,.25,1.25,3.25,3.25,0,0,1-.23,1.17,3.12,3.12,0,0,1-.67,1.06,3.32,3.32,0,0,1-1.11.78A3.57,3.57,0,0,1,147.49,259.22Z"/><path class="cls-1" d="M165.7,259.21a13.19,13.19,0,0,0-2.16-.95c-.78-.25-1.5-.52-2.17-.81a6.49,6.49,0,0,1-1.65-1,1.8,1.8,0,0,1-.67-1.47,2.09,2.09,0,0,1,.23-1,2.22,2.22,0,0,1,.66-.78,3.4,3.4,0,0,1,1.08-.53,4.76,4.76,0,0,1,1.48-.21,4.52,4.52,0,0,1,2.36.59A2.39,2.39,0,0,1,166,255h1.46a3.41,3.41,0,0,0-.58-1.43,4.24,4.24,0,0,0-1.13-1.06,5.26,5.26,0,0,0-1.55-.66,7.18,7.18,0,0,0-1.81-.23,6.71,6.71,0,0,0-1.87.26,4.91,4.91,0,0,0-1.56.75,3.47,3.47,0,0,0-1.07,1.24,3.59,3.59,0,0,0-.4,1.7,3.05,3.05,0,0,0,.65,2,5.15,5.15,0,0,0,1.61,1.28,13.37,13.37,0,0,0,2.1.88,16.69,16.69,0,0,1,2.1.82,5.24,5.24,0,0,1,1.61,1.12,2.42,2.42,0,0,1,.64,1.77,2.22,2.22,0,0,1-1,2,5.09,5.09,0,0,1-2.7.64,5.43,5.43,0,0,1-2.16-.36,3.25,3.25,0,0,1-1.23-.84,2.69,2.69,0,0,1-.58-1,4,4,0,0,1-.17-.89H156.9a3.64,3.64,0,0,0,.48,1.67,4,4,0,0,0,1.2,1.27,5.82,5.82,0,0,0,1.78.81,8.39,8.39,0,0,0,2.25.29,7.71,7.71,0,0,0,2.23-.3,5.13,5.13,0,0,0,1.7-.86,3.8,3.8,0,0,0,1.09-1.34,3.91,3.91,0,0,0,.39-1.75,3.37,3.37,0,0,0-.67-2.17A5.66,5.66,0,0,0,165.7,259.21Z"/><path class="cls-1" d="M39.64,31.29a5.24,5.24,0,0,0-1.83-1.15A4,4,0,0,0,35.74,30a5.72,5.72,0,0,0-2.34,1.1l-3,2.16a.3.3,0,0,0-.09.46l7.13,9.75a.34.34,0,0,0,.22.15.53.53,0,0,0,.3-.13l2.91-2.12a5.9,5.9,0,0,0,1.77-1.92,4,4,0,0,0,.46-2,5.4,5.4,0,0,0-.56-2.11,13.52,13.52,0,0,0-1.29-2.14A11.62,11.62,0,0,0,39.64,31.29Zm1.86,6.9a2.61,2.61,0,0,1-.56,1.25,5.49,5.49,0,0,1-1,.91l-1.92,1.4-5.9-8.07,2-1.48a4.69,4.69,0,0,1,1.19-.63,2.53,2.53,0,0,1,1.37-.07,4,4,0,0,1,1.57.78,9.35,9.35,0,0,1,1.78,1.94,7.76,7.76,0,0,1,1.24,2.27A3.59,3.59,0,0,1,41.5,38.19Z"/><path class="cls-1" d="M47.77,36.67l5.84-3.34a.44.44,0,0,0,.18-.18s0-.14,0-.25l-.37-.63a.28.28,0,0,0-.42-.14l-4.87,2.79-2.27-4,4.25-2.43a.28.28,0,0,0,.13-.43l-.37-.65a.28.28,0,0,0-.44-.1l-4.25,2.43-2-3.54,4.74-2.71a.29.29,0,0,0,.13-.45l-.36-.64a.29.29,0,0,0-.44-.1l-5.74,3.28a.29.29,0,0,0-.13.45l6,10.51C47.42,36.75,47.57,36.78,47.77,36.67Z"/><path class="cls-1" d="M58.71,30.92l.75-.34a.27.27,0,0,0,.15-.42l-4.5-10.09,3-1.31a.3.3,0,0,0,.18-.44l-.3-.67a.27.27,0,0,0-.42-.15l-7.26,3.24a.28.28,0,0,0-.18.41l.3.68a.3.3,0,0,0,.45.15l2.93-1.3,4.5,10.08A.3.3,0,0,0,58.71,30.92Z"/><path class="cls-1" d="M68.55,25.82a2.87,2.87,0,0,1-2.43-.12,3.62,3.62,0,0,1-1.47-2.12l-2.39-7.46c0-.14-.1-.22-.17-.24a.36.36,0,0,0-.25,0l-.79.25a.49.49,0,0,0-.22.14.38.38,0,0,0,0,.29L63.23,24a7.46,7.46,0,0,0,.44,1.12,4.18,4.18,0,0,0,.6.94q1.62,2.07,4.71,1.07a5.43,5.43,0,0,0,2.24-1.32,3.7,3.7,0,0,0,1-2.34,4.1,4.1,0,0,0-.08-1.11,9.06,9.06,0,0,0-.3-1.13L69.48,13.8c0-.13-.1-.22-.16-.24a.33.33,0,0,0-.24,0l-.8.26a.51.51,0,0,0-.23.15.35.35,0,0,0,0,.29l2.4,7.46a3.46,3.46,0,0,1,0,2.64A3,3,0,0,1,68.55,25.82Z"/><path class="cls-1" d="M81.81,16.64A4.12,4.12,0,0,0,82,15.55a4.35,4.35,0,0,0-.08-1.09,4.12,4.12,0,0,0-.63-1.56,3,3,0,0,0-1-1A3.47,3.47,0,0,0,79,11.56a5,5,0,0,0-1.39.08l-3.85.76c-.21,0-.3.17-.26.37l2.37,11.87a.28.28,0,0,0,.38.25l.81-.16c.22,0,.3-.17.26-.4l-1-4.92,2.46-.49,3.41,4.53a.45.45,0,0,0,.21.17.58.58,0,0,0,.26,0l1.07-.21a.19.19,0,0,0,.16-.13.27.27,0,0,0-.05-.22l-3.61-4.63a3.62,3.62,0,0,0,1-.8A3.17,3.17,0,0,0,81.81,16.64ZM80.42,16a1.88,1.88,0,0,1-.45.85,2.17,2.17,0,0,1-.75.51,4.46,4.46,0,0,1-.84.25l-2.31.46-.92-4.59,2.36-.47a4.88,4.88,0,0,1,.93-.09,2.15,2.15,0,0,1,.85.17,1.66,1.66,0,0,1,.69.55,2.54,2.54,0,0,1,.43,1.05A2.89,2.89,0,0,1,80.42,16Z"/><path class="cls-1" d="M92.05,22.48l3.59-.1a5.76,5.76,0,0,0,2.55-.57,4,4,0,0,0,1.54-1.42,5.38,5.38,0,0,0,.74-2.06,12.54,12.54,0,0,0,.15-2.49,11.93,11.93,0,0,0-.3-2.47,5.39,5.39,0,0,0-.86-2,4,4,0,0,0-1.62-1.31,5.86,5.86,0,0,0-2.55-.41l-3.66.1c-.23,0-.34.11-.34.32l.34,12.08a.34.34,0,0,0,.1.24A.5.5,0,0,0,92.05,22.48ZM95.31,11a4.6,4.6,0,0,1,1.34.16,2.35,2.35,0,0,1,1.17.72,4,4,0,0,1,.84,1.53A9.31,9.31,0,0,1,99,16.05a7.9,7.9,0,0,1-.26,2.57,3.72,3.72,0,0,1-.84,1.49,2.66,2.66,0,0,1-1.17.71,5.4,5.4,0,0,1-1.31.2l-2.37.07-.28-10Z"/><path class="cls-1" d="M105.07,22.52a.29.29,0,0,0,.34-.3l.71-12c0-.14,0-.23-.07-.28a.32.32,0,0,0-.23-.08L105,9.76a.39.39,0,0,0-.26.05.34.34,0,0,0-.11.27l-.7,12c0,.22.09.34.32.35Z"/><path class="cls-1" d="M111.51,14.81a5.13,5.13,0,0,1,.69-1.59,2.72,2.72,0,0,1,1.15-1,3.19,3.19,0,0,1,1.79-.17c.56.09,1.12.2,1.67.34s1,.27,1.47.4a.29.29,0,0,0,.26,0,.42.42,0,0,0,.11-.16l.21-.51a.38.38,0,0,0,0-.25.46.46,0,0,0-.21-.21,4.93,4.93,0,0,0-.83-.37c-.32-.11-.62-.21-.93-.29a8,8,0,0,0-.88-.21l-.69-.12a5,5,0,0,0-2.56.19,4.18,4.18,0,0,0-1.69,1.26,6.55,6.55,0,0,0-1,2,15.25,15.25,0,0,0-.54,2.4,11.63,11.63,0,0,0-.13,2.65A5.18,5.18,0,0,0,110,21.3a4,4,0,0,0,1.38,1.51,5.62,5.62,0,0,0,2.31.79,11.71,11.71,0,0,0,1.7.13,11.52,11.52,0,0,0,1.69-.11.78.78,0,0,0,.44-.19.71.71,0,0,0,.18-.4l.79-5.42a.38.38,0,0,0,0-.22.33.33,0,0,0-.27-.15l-2.91-.43c-.21,0-.34.05-.37.25l-.1.73a.29.29,0,0,0,.29.37l1.73.25-.57,3.88a4,4,0,0,1-.55.06H115l-.67,0-.58-.07a3.2,3.2,0,0,1-1.66-.67,3,3,0,0,1-.86-1.25,4.86,4.86,0,0,1-.27-1.66,12.35,12.35,0,0,1,.14-1.88A18.53,18.53,0,0,1,111.51,14.81Z"/><path class="cls-1" d="M131.58,14.5a.36.36,0,0,0-.25,0,.34.34,0,0,0-.15.25L128.62,24l-.06,0L128,22.16,125.15,13a1.78,1.78,0,0,0-.12-.27.43.43,0,0,0-.27-.16L124,12.4a.27.27,0,0,0-.38.19l-3.23,11.69c-.06.21,0,.34.25.4l.77.22a.3.3,0,0,0,.41-.23l2.58-9.37.06,0,.58,2.05,2.83,9a.81.81,0,0,0,.12.28.49.49,0,0,0,.28.15l.7.2a.28.28,0,0,0,.38-.22l3.22-11.64a.45.45,0,0,0,0-.29.36.36,0,0,0-.21-.13Z"/><path class="cls-1" d="M132.63,28.36l.79.3a.3.3,0,0,0,.42-.19l4.24-11.3a.34.34,0,0,0,0-.29.46.46,0,0,0-.2-.15l-.79-.29a.45.45,0,0,0-.27,0c-.07,0-.13.1-.18.23l-4.24,11.29A.3.3,0,0,0,132.63,28.36Z"/><path class="cls-1" d="M146.69,20.35a5.32,5.32,0,0,0-1.83-.55,4.37,4.37,0,0,0-1.56.15,4.18,4.18,0,0,0-1.29.67,6.64,6.64,0,0,0-1,1,9.06,9.06,0,0,0-.81,1.17c-.24.4-.45.78-.62,1.14s-.43.94-.63,1.42a9.07,9.07,0,0,0-.47,1.48,7,7,0,0,0-.18,1.48,3.76,3.76,0,0,0,.27,1.41,4,4,0,0,0,.86,1.28A5.67,5.67,0,0,0,141,32.1a5.1,5.1,0,0,0,2.71.62,4.16,4.16,0,0,0,2.05-.8,6,6,0,0,0,1.52-1.67,20.86,20.86,0,0,0,1.14-2,16.14,16.14,0,0,0,.85-2.14,5.65,5.65,0,0,0,.27-2.12,3.9,3.9,0,0,0-.73-2A5.26,5.26,0,0,0,146.69,20.35Zm1.12,5.31a12.9,12.9,0,0,1-.81,2.07,14.27,14.27,0,0,1-1.09,1.9,4.39,4.39,0,0,1-1.21,1.22,2.59,2.59,0,0,1-1.41.45,3.65,3.65,0,0,1-1.7-.42,3.34,3.34,0,0,1-1.33-1.06,2.71,2.71,0,0,1-.46-1.39,5.08,5.08,0,0,1,.25-1.7,13,13,0,0,1,.79-2,14,14,0,0,1,1.08-1.88,5.12,5.12,0,0,1,1.21-1.24,2.75,2.75,0,0,1,1.38-.49,3.2,3.2,0,0,1,1.6.37,3.65,3.65,0,0,1,1.38,1.05,2.65,2.65,0,0,1,.53,1.37A4.5,4.5,0,0,1,147.81,25.66Z"/><path class="cls-1" d="M159.31,27.89a5.15,5.15,0,0,0-1.06-.91l-3.31-2.1a.28.28,0,0,0-.44.09L148,35.18a.3.3,0,0,0,.1.46l.7.44a.3.3,0,0,0,.46-.12L152,31.73l2.12,1.35-.66,5.63a.41.41,0,0,0,0,.26.51.51,0,0,0,.18.18l.93.58a.17.17,0,0,0,.2,0,.29.29,0,0,0,.12-.2l.59-5.84a3.45,3.45,0,0,0,1.26.11,3.12,3.12,0,0,0,1.1-.32,3.75,3.75,0,0,0,.91-.64,4.53,4.53,0,0,0,.69-.84,4,4,0,0,0,.63-1.56,3,3,0,0,0-.1-1.39A3.37,3.37,0,0,0,159.31,27.89Zm-1.17,3.27a3,3,0,0,1-.89,1,2.12,2.12,0,0,1-.92.3,2.21,2.21,0,0,1-.88-.15,4.47,4.47,0,0,1-.79-.39l-2-1.27,2.51-4,2,1.29a4.14,4.14,0,0,1,.73.58,2.18,2.18,0,0,1,.5.72,1.67,1.67,0,0,1,.12.87A2.62,2.62,0,0,1,158.14,31.16Z"/><path class="cls-1" d="M157,41.61l.67.51a.29.29,0,0,0,.46-.07l7.25-9.64a.37.37,0,0,0,.1-.28.4.4,0,0,0-.16-.2l-.67-.5a.45.45,0,0,0-.25-.11.36.36,0,0,0-.23.18l-7.25,9.64A.29.29,0,0,0,157,41.61Z"/><path class="cls-1" d="M170.61,102.51a41.91,41.91,0,0,0-6.33-4.07,1.45,1.45,0,0,1-.77-.81.82.82,0,0,1,.24-.69,1,1,0,0,1,.3-.26,1.67,1.67,0,0,0,.8-1.11,2.7,2.7,0,0,0-.64-2.51,6.89,6.89,0,0,0-1.31-1.33,3.82,3.82,0,0,1-1.25-1.42,1.39,1.39,0,0,1-.09-.31,1.14,1.14,0,0,1,.28-.22,2.7,2.7,0,0,0,1.23-1.48c.44-1.41-.58-2.6-1.48-3.66-1.21-1.43-1.52-2-1-2.7a5,5,0,0,1,1.27-.52,3.58,3.58,0,0,0,1.47-.71c.65-.69.2-1.61-.36-2.77-1-2-1.66-3.71-.51-5.07.84-1,2.67-.79,3.78.25a8.23,8.23,0,0,1,2,3.34,5.23,5.23,0,0,0,.63,1.3,1.35,1.35,0,0,0,1.18.73,2.48,2.48,0,0,0,1.49-.73,2.44,2.44,0,0,1,1.2-.67c.08,0,.32,0,.72.37a6.22,6.22,0,0,1,1.69,6.11,2.15,2.15,0,0,0,0,1.37c.35.72,1.2.87,2,1s1.52.27,1.81.71a2,2,0,0,1,0,1.4,7.66,7.66,0,0,1-1.91,3.68,3.21,3.21,0,0,0-1,2.55,1.57,1.57,0,0,0,.42.72,8,8,0,0,1,1.25-1.1s0-.31.67-1.07a9.4,9.4,0,0,0,2.26-4.38,3.45,3.45,0,0,0-.27-2.74,4.17,4.17,0,0,0-3-1.45,5.85,5.85,0,0,0-.7-.1c0-.09,0-.2.05-.33a7.91,7.91,0,0,0-2.22-7.64,2.72,2.72,0,0,0-1.87-.81,3.73,3.73,0,0,0-2.26,1l-.29.24a8.85,8.85,0,0,1-.36-.82,10,10,0,0,0-2.46-4c-1.81-1.68-4.82-1.82-6.26-.09-1.95,2.32-.55,5.19.28,6.91.14.29.32.66.43.92-.17.07-.37.13-.53.18a4.15,4.15,0,0,0-2.1,1.12c-1.43,1.9,0,3.6,1.07,4.84.64.75,1.31,1.53,1.15,2-.07.24-.23.35-.54.56a1.86,1.86,0,0,0-.84,2.57A5.45,5.45,0,0,0,161.79,93a5.6,5.6,0,0,1,1.06,1.06c.4.57.45.66.27,1.15a2.63,2.63,0,0,0-.69.6,2.48,2.48,0,0,0-.59,2.12,3,3,0,0,0,1.66,2,40,40,0,0,1,6.54,4.29A3.16,3.16,0,0,1,170.61,102.51Z"/><path class="cls-1" d="M174.59,101.3a.23.23,0,0,0,0-.07l-.1.08Z"/><path class="cls-1" d="M172.15,110.77a4.57,4.57,0,0,0-.53-1.11c-.19-.32-.35-.61-.5-.91,0,.41,0,.76,0,1.1a8.85,8.85,0,0,1,.79,1A1.15,1.15,0,0,0,172.15,110.77Z"/><path class="cls-1" d="M169.44,86.3a36.18,36.18,0,0,0-2.1-4.57.85.85,0,0,0-1.49.83,34.22,34.22,0,0,1,1.56,3.3L169,87.24Z"/><path class="cls-1" d="M171.87,95.34a51.87,51.87,0,0,0-1.6-6.66l-.13.3a.86.86,0,0,1-.59.49l-.2,0a.87.87,0,0,1-.55-.2l-.2-.17a50.1,50.1,0,0,1,1.52,6.24l1.07.86Z"/><path class="cls-1" d="M172,98a.85.85,0,0,1-.58.32h-.1a.91.91,0,0,1-.54-.19l-.28-.23c.2,1.5.35,2.93.44,4.29a3.18,3.18,0,0,1,1.69-.74c-.09-1.19-.23-2.46-.41-3.76Z"/><path class="cls-1" d="M171.33,98.29h.1A.85.85,0,0,0,172,98l.22-.3,3.39-4.39a.86.86,0,0,0-1.36-1l-2.39,3.11-.68.88-1.07-.86-1.84-1.48a.86.86,0,0,0-1.08,1.33l3.31,2.66.28.23A.91.91,0,0,0,171.33,98.29Z"/><path class="cls-1" d="M169.35,89.49l.2,0a.86.86,0,0,0,.59-.49l.13-.3L171.45,86a.85.85,0,1,0-1.56-.68l-.45,1-.41.94-1.62-1.38-.59-.5a.87.87,0,0,0-1.21.1.86.86,0,0,0,.1,1.2l2.89,2.46.2.17A.87.87,0,0,0,169.35,89.49Z"/><path class="cls-1" d="M172.15,110.77a1.15,1.15,0,0,1-.28.11,7.84,7.84,0,0,1,.77,1.53,1.76,1.76,0,0,0,1.07-1,3.22,3.22,0,0,0-.62-2.67,7.67,7.67,0,0,1-1.34-3.93,1.93,1.93,0,0,1,.27-1.38c.35-.39,1.17-.41,1.89-.42s1.69,0,2.15-.69a2.24,2.24,0,0,0,.23-1.36,6.21,6.21,0,0,1,2.6-5.78,1.3,1.3,0,0,1,.67-.26c.4,0,.79.43,1.17.84a2.22,2.22,0,0,0,1.56,1,1.3,1.3,0,0,0,1-.47,5.19,5.19,0,0,0,.89-1.27,8.36,8.36,0,0,1,2.53-3,3.63,3.63,0,0,1,2-.61,2.05,2.05,0,0,1,1.83.94c.92,1.52,0,3.13-1.29,4.93-.73,1.07-1.31,1.9-.78,2.69a3.5,3.5,0,0,0,1.35.92,5.51,5.51,0,0,1,1.17.7c.41.76,0,1.3-1.4,2.52-1.05.9-2.24,1.93-2,3.4a2.64,2.64,0,0,0,1,1.64l.24.22a.82.82,0,0,1-.14.34,3.9,3.9,0,0,1-1.44,1.21,6.79,6.79,0,0,0-1.57,1.18,2.63,2.63,0,0,0-1,2.31,1.65,1.65,0,0,0,.62,1.22,1.08,1.08,0,0,1,.25.3.77.77,0,0,1,.13.73,1.34,1.34,0,0,1-.88.68,41.7,41.7,0,0,0-7.3,3.31c-.05.25-.11.5-.16.74a3.23,3.23,0,0,1,.26,1.18,41.55,41.55,0,0,1,7.66-3.58,4.64,4.64,0,0,1,1.71-1.16,2.27,2.27,0,0,0,.31-.57,2.49,2.49,0,0,0-.26-2.2,6.16,6.16,0,0,0-.65-.83c0-.37,0-.45.56-1a5.87,5.87,0,0,1,1.15-.83,5.32,5.32,0,0,0,2-1.82,1.86,1.86,0,0,0-.44-2.67c-.28-.25-.41-.38-.45-.63-.08-.54.7-1.21,1.45-1.86,1.23-1.06,2.91-2.51,1.8-4.62a4.31,4.31,0,0,0-1.9-1.41l-.51-.26c.14-.24.38-.58.57-.86,1.08-1.57,2.9-4.2,1.34-6.79a3.75,3.75,0,0,0-3.29-1.76,5.34,5.34,0,0,0-2.92.9,10.21,10.21,0,0,0-3,3.55c-.16.26-.31.53-.47.75l-.26-.27a3.38,3.38,0,0,0-2.43-1.39,2.87,2.87,0,0,0-1.62.55l-.14.11a8,8,0,0,0-1.25,1.1,8.23,8.23,0,0,0-2,6v.23a.13.13,0,0,1,0,0,.35.35,0,0,1-.11,0l-.6,0a11.49,11.49,0,0,0-1.24.09,3.18,3.18,0,0,0-1.69.74c-.06,0-.14.09-.2.15s-.09.14-.14.2a3.16,3.16,0,0,0-.57,1.74,6,6,0,0,0,0,.73,8.85,8.85,0,0,0,1.07,3.77c.15.3.31.59.5.91A4.57,4.57,0,0,1,172.15,110.77Z"/><path class="cls-1" d="M173.07,117.38c-.06.4-.13.78-.19,1.08s-.08.37-.1.52a9,9,0,0,0,1,.26,9.94,9.94,0,0,1,1.43.39c-.45-.49-.94-1-1.46-1.55Z"/><path class="cls-1" d="M176.33,127.64q0-.47.12-1a8.39,8.39,0,0,1-.62,1A.78.78,0,0,0,176.33,127.64Z"/><path class="cls-1" d="M178.72,115.84l-.31.18a.82.82,0,0,1-.43.12.84.84,0,0,1-.75-.45l-.18-.32c-.47,1.59-.85,3.11-1.17,4.55a3.11,3.11,0,0,1,1.29,1.13,2.21,2.21,0,0,1,.16.35c0-.24.11-.49.16-.74C177.82,119.15,178.23,117.52,178.72,115.84Z"/><path class="cls-1" d="M183.62,104.45a31.46,31.46,0,0,1,2-3,.85.85,0,1,0-1.35-1,35.5,35.5,0,0,0-2.76,4.18l.26,1Z"/><path class="cls-1" d="M179.5,113.42a48.34,48.34,0,0,1,2.45-5.94l-.23.14a.89.89,0,0,1-.45.12.85.85,0,0,1-.31-.06.83.83,0,0,1-.51-.57l-.08-.32a49.8,49.8,0,0,0-2.6,6.34l.54,1Z"/><path class="cls-1" d="M182.71,112.54a.87.87,0,0,0-1.17-.31l-2,1.19-1.19.69-.54-1-1.9-3.44a.85.85,0,1,0-1.49.82l2.67,4.86.18.32a.84.84,0,0,0,.75.45.82.82,0,0,0,.43-.12l.31-.18,3.68-2.13A.87.87,0,0,0,182.71,112.54Z"/><path class="cls-1" d="M181,107.68a.85.85,0,0,0,.31.06.89.89,0,0,0,.45-.12l.23-.14,3.23-2a.85.85,0,1,0-.9-1.45l-.66.41-1.81,1.11-.26-1-.29-1.08a.85.85,0,0,0-1.65.43l.76,2.88.08.32A.83.83,0,0,0,181,107.68Z"/><path class="cls-1" d="M169.54,169.63a1.67,1.67,0,0,1,.29-.06,1,1,0,0,1,.67.29,5.53,5.53,0,0,1,.39,1.29,3.41,3.41,0,0,0,.55,1.52c.32.36,1.29.46,2.77-.09a9.6,9.6,0,0,1,3.12-.77,2.51,2.51,0,0,1,1.89.74,1.87,1.87,0,0,1,.53,1.42,3.37,3.37,0,0,1-1.14,2.26,8.23,8.23,0,0,1-3.46,1.69,4.54,4.54,0,0,0-1.33.48,1.41,1.41,0,0,0-.8.88,2.21,2.21,0,0,0,.53,1.77c.66,1,.74,1.32.11,1.88a5.37,5.37,0,0,1-3.72,1.45,9.28,9.28,0,0,1-2.41-.38,2.44,2.44,0,0,0-1.35-.11c-.75.28-1,1.1-1.2,1.89-.5,1.82-.92,2.07-2.22,1.62a7.57,7.57,0,0,1-3.43-2.23,3.29,3.29,0,0,0-2.2-1.26c-1,0-1.5.88-1.86,1.52-.57,1-.83,1.24-1.65.94a6.6,6.6,0,0,1-1.7-2l-.34.08a7.19,7.19,0,0,0,.15,1,10.88,10.88,0,0,1,.23,1.71A3.11,3.11,0,0,0,153,188a3.37,3.37,0,0,0,1.15.22,3,3,0,0,0,2.57-1.94l.36-.65s.29,0,1,.76A9.45,9.45,0,0,0,162.2,189a4.54,4.54,0,0,0,1.46.27c2.12,0,2.65-1.91,3-3,.06-.22.14-.53.16-.67l.31.08a10.57,10.57,0,0,0,2.84.44,7.14,7.14,0,0,0,4.86-1.88c1.8-1.61.71-3.29.19-4.1l-.19-.3a7.33,7.33,0,0,1,.81-.25,9.9,9.9,0,0,0,4.13-2.05,5.09,5.09,0,0,0,1.72-3.48,3.58,3.58,0,0,0-1-2.67,4.18,4.18,0,0,0-3.11-1.26,10.87,10.87,0,0,0-3.71.88c-.3.11-.68.25-.94.32a4.87,4.87,0,0,1-.12-.52,4.18,4.18,0,0,0-.9-2.17,2.68,2.68,0,0,0-1.45-.67A2.68,2.68,0,0,1,169.54,169.63Z"/><path class="cls-1" d="M160.7,171.2a6.3,6.3,0,0,1,1-.81l-.71-.1-.49-.08a14.19,14.19,0,0,1-2.35,2.64,4.41,4.41,0,0,0,1.13-.48A6.88,6.88,0,0,0,160.7,171.2Z"/><path class="cls-1" d="M164,171.7c1.11.47,2.33-.15,3.43-.88a7.73,7.73,0,0,1-1,.08,27.42,27.42,0,0,1-3.62-.34A2.47,2.47,0,0,0,164,171.7Z"/><path class="cls-1" d="M162.69,178.57a.83.83,0,0,1-.43-.63.86.86,0,0,1,.25-.73l.19-.19q-1.39.3-2.79.51a4.36,4.36,0,0,1-.26,1.07c-.11.28-.26.51-.38.76,1.23-.16,2.47-.36,3.72-.62Z"/><path class="cls-1" d="M165.43,178.14a34.8,34.8,0,0,0,4.63-1.62.85.85,0,1,0-.67-1.56,32.13,32.13,0,0,1-3.33,1.19l-1.53,1.48Z"/><path class="cls-1" d="M158.54,183.76a.86.86,0,0,0,.58-1.48l-1.09-1a7.53,7.53,0,0,1-1.26,1.16l1.19,1.11A.85.85,0,0,0,158.54,183.76Z"/><path class="cls-1" d="M162.26,177.94a.83.83,0,0,0,.43.63l.3.17,2.55,1.41a.85.85,0,0,0,1.16-.33.85.85,0,0,0-.34-1.16l-.93-.52-.9-.51,1.53-1.48.51-.49a.85.85,0,0,0,0-1.21.84.84,0,0,0-1.2,0L162.7,177l-.19.19A.86.86,0,0,0,162.26,177.94Z"/><path class="cls-1" d="M183.35,122c-.13.29-.3.65-.44.89l-.46-.29a4.29,4.29,0,0,0-2.14-.93h0c-2.36.07-2.78,2.23-3.09,3.81-.18.95-.38,1.94-.87,2.13h0a.78.78,0,0,1-.5,0,15.4,15.4,0,0,1-1.38,1.74c-1,1.07-.91,1.42-.91,1.42s.4.31.7.46v-.06a3.76,3.76,0,0,1,.33-1.82,1.64,1.64,0,0,1,.18-.27l.33.09a2.9,2.9,0,0,0,1.9,0c1.36-.54,1.66-2,1.92-3.39.35-1.81.61-2.41,1.44-2.44a5.26,5.26,0,0,1,1.17.65,3.32,3.32,0,0,0,1.55.71c.89,0,1.31-.88,1.83-2,.92-1.92,1.82-3.51,3.58-3.51h0a1.83,1.83,0,0,1,1.36.64,3.33,3.33,0,0,1,.76,2.42,8.23,8.23,0,0,1-1.31,3.63,4.82,4.82,0,0,0-.61,1.27,1.38,1.38,0,0,0,0,1.19,2.14,2.14,0,0,0,1.61.89c1.17.26,1.45.44,1.39,1.28a6.1,6.1,0,0,1-3.66,5c-.54.3-.87.49-1,.85-.34.73.06,1.47.46,2.2s.73,1.33.57,1.82a2,2,0,0,1-1,.89,7.3,7.3,0,0,1-3.55.79h-.7a2.91,2.91,0,0,0-2.38.8,1.74,1.74,0,0,0-.3,1.29,2.78,2.78,0,0,1,2.06,2,5.26,5.26,0,0,0-.23-1.54c-.07-.26-.18-.66-.19-.72s.2-.16,1.24-.15h.5a9,9,0,0,0,4.27-.95,3.39,3.39,0,0,0,1.94-1.91,4,4,0,0,0-.69-3.17,5.42,5.42,0,0,0-.35-.59l.27-.15a7.78,7.78,0,0,0,4.52-6.41c.18-2.41-1.77-2.86-2.71-3.07l-.35-.08c.09-.19.25-.47.41-.75a10,10,0,0,0,1.54-4.35,5.08,5.08,0,0,0-1.2-3.69,3.62,3.62,0,0,0-2.69-1.21,3.86,3.86,0,0,0-1.45.29,4.64,4.64,0,0,0-1.71,1.16A12,12,0,0,0,183.35,122Z"/><path class="cls-1" d="M182.46,132.87a35.34,35.34,0,0,0,2.21-4.39.85.85,0,0,0-1.58-.65,34.56,34.56,0,0,1-1.55,3.18l-.07,2.13Z"/><path class="cls-1" d="M180.8,135.09a.83.83,0,0,1-.22,0,.86.86,0,0,1-.53-.19.82.82,0,0,1-.33-.69V134l-.45.67a6.28,6.28,0,0,1,.59,2.11c.43-.58.84-1.16,1.25-1.76Z"/><path class="cls-1" d="M181.7,141.08a.84.84,0,0,0-.87-.84l-1.34,0a14.63,14.63,0,0,1-.63,1.72l2,0A.86.86,0,0,0,181.7,141.08Z"/><path class="cls-1" d="M180.05,134.93a.86.86,0,0,0,.53.19.83.83,0,0,0,.22,0l.32-.09,2.82-.76a.86.86,0,0,0-.45-1.65l-1,.28-1,.27.07-2.13,0-.71a.86.86,0,0,0-1.71-.06l-.12,3.74v.26A.82.82,0,0,0,180.05,134.93Z"/><path class="cls-1" d="M162.83,139.69A47.56,47.56,0,0,0,157,135.8a1.78,1.78,0,0,1-1-1.15,1.15,1.15,0,0,1,.36-1,1.31,1.31,0,0,1,.42-.33,1.86,1.86,0,0,0,.94-1.21,3.12,3.12,0,0,0-.64-2.93,8.4,8.4,0,0,0-1.51-1.63,4.92,4.92,0,0,1-1.49-1.85c-.19-.54-.19-.54.33-.86a3.08,3.08,0,0,0,1.49-1.64c.56-1.61-.59-3.06-1.6-4.35-1.36-1.73-1.88-2.59-1.1-3.55a6.14,6.14,0,0,1,1.66-.63,4,4,0,0,0,1.74-.74c.72-.72.27-1.75-.36-3.18-.85-1.92-2-4.56-.35-6.37a2.43,2.43,0,0,1,1.9-.82,4.37,4.37,0,0,1,2.95,1.29,10.4,10.4,0,0,1,2.37,4.21,5.93,5.93,0,0,0,.68,1.58,1.46,1.46,0,0,0,1.31.85,3,3,0,0,0,1.67-.78c.82-.61,1.66-1.17,2.57-.26,2.8,2.79,2.16,6,1.82,7.66a2.62,2.62,0,0,0,0,1.56c.36.81,1.29,1,2.28,1.22s1.91.4,2.28,1a2.39,2.39,0,0,1,0,1.85,9.53,9.53,0,0,1-2.54,4.45c-1.06,1.18-1.47,2.08-1.31,2.89a2,2,0,0,0,1.06,1.35,4.61,4.61,0,0,1,2-.6h.3l.21,0a9.18,9.18,0,0,0-1-.51l-.24-.12c-.3-.15-.67-.35-.7-.46s0-.35.91-1.42a15.4,15.4,0,0,0,1.38-1.74,8.39,8.39,0,0,0,.62-1,11.4,11.4,0,0,0,.92-2.35,5.63,5.63,0,0,0,.22-1.66,3.23,3.23,0,0,0-.26-1.18,2.21,2.21,0,0,0-.16-.35,3.11,3.11,0,0,0-1.29-1.13,4.37,4.37,0,0,0-.67-.29,9.94,9.94,0,0,0-1.43-.39,9,9,0,0,1-1-.26c0-.15.06-.35.1-.52s.13-.68.19-1.08a9.52,9.52,0,0,0-.43-5,7.84,7.84,0,0,0-.77-1.53,8.85,8.85,0,0,0-.79-1,6.66,6.66,0,0,0-.49-.59,3.14,3.14,0,0,0-2.22-1,4.37,4.37,0,0,0-2.57,1.12l-.54.38a5.88,5.88,0,0,1-.5-1.21,12.05,12.05,0,0,0-2.77-4.85,6.07,6.07,0,0,0-4.16-1.8,4.18,4.18,0,0,0-3.17,1.38c-2.39,2.64-.86,6.12.06,8.21.19.44.44,1,.54,1.34-.23.08-.58.18-.83.25a5,5,0,0,0-2.51,1.19c-1.73,2.13-.11,4.19,1.08,5.69.81,1,1.58,2,1.32,2.73-.12.34-.35.5-.76.74a2.1,2.1,0,0,0-1.06,2.87,6.4,6.4,0,0,0,2,2.56,7,7,0,0,1,1.26,1.36c.47.74.57.91.41,1.44l-.18.24a3.15,3.15,0,0,0-1.6,3.07,3.48,3.48,0,0,0,1.83,2.35,46.39,46.39,0,0,1,6.15,4.19A6.43,6.43,0,0,1,162.83,139.69Z"/><path class="cls-1" d="M163.91,121.61a44.79,44.79,0,0,0-2.47-6,.86.86,0,0,0-1.15-.38.85.85,0,0,0-.37,1.15,43.11,43.11,0,0,1,2,4.81l1.53,1.4Z"/><path class="cls-1" d="M166.34,132.67a62.23,62.23,0,0,0-1.71-8.62l-.14.3a.88.88,0,0,1-.61.47l-.16,0a.83.83,0,0,1-.58-.23l-.19-.18a62.89,62.89,0,0,1,1.63,8.2l1,.9Z"/><path class="cls-1" d="M166.37,135.29a.86.86,0,0,1-.59.31h-.07a.81.81,0,0,1-.55-.21l-.29-.24c.09,1,.17,1.89.23,2.81a1.55,1.55,0,0,1,.23-.06h.22a3.4,3.4,0,0,1,1.31.34c-.06-1-.14-2.12-.25-3.22Z"/><path class="cls-1" d="M165.71,135.6h.07a.86.86,0,0,0,.59-.31l.24-.28,4.36-5.23a.85.85,0,1,0-1.31-1.09l-3.32,4-.72.86-1-.9-2.53-2.2a.86.86,0,0,0-1.21.09.85.85,0,0,0,.09,1.2l3.94,3.43.29.24A.81.81,0,0,0,165.71,135.6Z"/><path class="cls-1" d="M163.72,124.84l.16,0a.88.88,0,0,0,.61-.47l.14-.3,1.59-3.32a.85.85,0,0,0-1.53-.74l-.78,1.62-.46,1-1.53-1.4L160.67,120a.85.85,0,1,0-1.16,1.25l3.44,3.16.19.18A.83.83,0,0,0,163.72,124.84Z"/><path class="cls-1" d="M155.25,161.79a43.64,43.64,0,0,0-1.16-4.79,1.82,1.82,0,0,1,.09-1.51,1.3,1.3,0,0,1,1.08-.47,1.52,1.52,0,0,1,.39.06,2.14,2.14,0,0,0,1.52-.22,3.09,3.09,0,0,0,1.55-2.56,8.29,8.29,0,0,0,.05-2.22,4.86,4.86,0,0,1,.21-2.37c.3-.64.48-.46.83-.39a3.46,3.46,0,0,0,2.2-.15c1.52-.77,1.7-2.62,1.86-4.24.22-2.2.44-3.18,1.68-3.34a6.16,6.16,0,0,1,1.62.7,4.07,4.07,0,0,0,1.76.67c1,0,1.42-1.07,1.95-2.54.72-2,1.71-4.68,4.34-4.86,1.91,0,3,2.16,3,3.72A10.38,10.38,0,0,1,177,142a5.86,5.86,0,0,0-.6,1.61,1.52,1.52,0,0,0,.17,1.29,2.5,2.5,0,0,0,1.94.82c1.42.19,2,.38,2,1.6.1,3.95-2.55,5.79-4,6.79-.6.42-1,.67-1.11,1.08-.3.83.23,1.62.8,2.46s1.09,1.62.93,2.32a2.4,2.4,0,0,1-1.27,1.34,9.55,9.55,0,0,1-4.91,1.46c-1.59.11-2.5.48-2.95,1.18a2.78,2.78,0,0,0,.12,2.58c.47,1.27.64,1.87-.53,2.54a2.64,2.64,0,0,1-1.22.17,37.88,37.88,0,0,1-5.07-.58,8.94,8.94,0,0,1-.86,1.6l.49.08.71.1,1.11.17a27.42,27.42,0,0,0,3.62.34,7.73,7.73,0,0,0,1-.08,3,3,0,0,0,1-.32,3.63,3.63,0,0,0,1-.87,2.68,2.68,0,0,0,.67-1.69,5.67,5.67,0,0,0-.44-2.06,2.77,2.77,0,0,1-.28-1.06s.22-.3,1.63-.4a11.23,11.23,0,0,0,5.66-1.68,4,4,0,0,0,2.07-2.45c.32-1.42-.55-2.71-1.19-3.65a7.5,7.5,0,0,1-.54-.88c.11-.09.28-.2.42-.3,1.56-1.09,4.82-3.36,4.71-8.23a4.48,4.48,0,0,0-.12-.95,2.78,2.78,0,0,0-2.06-2,8,8,0,0,0-1.33-.27c-.2,0-.48-.06-.66-.1a5.89,5.89,0,0,1,.48-1.22c.09-.2.2-.44.3-.68a14.63,14.63,0,0,0,.63-1.72,9.89,9.89,0,0,0,.43-3,3.87,3.87,0,0,0,0-.49,6.28,6.28,0,0,0-.59-2.11,4.6,4.6,0,0,0-3.85-2.77l-.21,0h-.3a4.61,4.61,0,0,0-2,.6c-2.08,1.14-3,3.68-3.65,5.36-.17.45-.38,1-.54,1.34-.23-.1-.54-.27-.77-.39s-.74-.39-1.11-.55a3.4,3.4,0,0,0-1.31-.34h-.22a1.55,1.55,0,0,0-.23.06,3,3,0,0,0-2.27,1.73,6.43,6.43,0,0,0-.5,1.79c-.07.44-.12.87-.16,1.28-.13,1.3-.25,2.54-.93,2.88a1.59,1.59,0,0,1-1.06,0,3.61,3.61,0,0,0-.83-.12,2.16,2.16,0,0,0-1.92,1.45,6.24,6.24,0,0,0-.36,3.21,7.16,7.16,0,0,1,0,1.85c-.16.86-.22,1-.69,1.31l-.3,0a3.2,3.2,0,0,0-1.06-.08,2.84,2.84,0,0,0-2.22,1.2,3.46,3.46,0,0,0-.3,3,44.19,44.19,0,0,1,1.22,5.22A7.55,7.55,0,0,1,155.25,161.79Z"/><path class="cls-1" d="M163,161.18a61.34,61.34,0,0,0,4.72-7.39l-.3.11a.8.8,0,0,1-.3.06.86.86,0,0,1-.47-.14.9.9,0,0,1-.39-.66v-.27a63.24,63.24,0,0,1-4.5,7.05l.13,1.37Z"/><path class="cls-1" d="M161.19,163.1h-.1c-.07,0-.13-.06-.2-.08a4,4,0,0,1,.3.49c.13-.15.25-.3.37-.46Z"/><path class="cls-1" d="M160.21,162a2.11,2.11,0,0,1-.19.23l.23.17v0Z"/><path class="cls-1" d="M168.88,151.52a42.7,42.7,0,0,0,2.38-6.05.85.85,0,1,0-1.63-.5,41.86,41.86,0,0,1-1.87,4.85l.13,2.08Z"/><path class="cls-1" d="M161.19,163.1l.37,0,6.77-.75a.87.87,0,0,0,.75-.95.83.83,0,0,0-.94-.75l-5.15.57-1.12.13-.13-1.37-.31-3.34a.83.83,0,0,0-.92-.77.86.86,0,0,0-.78.92l.48,5.21,0,.37v0a4.06,4.06,0,0,1,.64.67c.07,0,.13.08.2.08Z"/><path class="cls-1" d="M166.64,153.82a.86.86,0,0,0,.47.14.8.8,0,0,0,.3-.06l.3-.11,3.45-1.3a.85.85,0,0,0,.5-1.1.88.88,0,0,0-1.1-.5l-1.68.63-1,.38-.13-2.08-.11-1.69a.88.88,0,0,0-.9-.8.85.85,0,0,0-.8.91l.29,4.65v.27A.9.9,0,0,0,166.64,153.82Z"/><path class="cls-1" d="M127.74,186.43a50.42,50.42,0,0,0,2.17-9.87c0-.3.37-1.85,1.72-1.41a1.84,1.84,0,0,1,.47.25,1.74,1.74,0,0,0,1.48.39,3.05,3.05,0,0,0,2.43-1.74,8.2,8.2,0,0,0,.92-2,4.86,4.86,0,0,1,1.11-2.1c.33-.29.47-.3.47-.3a2,2,0,0,1,.45.27,3.24,3.24,0,0,0,2.09.73c1.7-.12,2.59-1.74,3.37-3.18,1-1.75,1.59-2.76,2.85-2.4a5.75,5.75,0,0,1,1.22,1.27c.58.72.93,1.13,1.36,1.3a1.39,1.39,0,0,0,.46.09c.77,0,1.39-.66,2.33-1.66,1.42-1.52,3.49-3.61,5.72-2.83a2.44,2.44,0,0,1,1.47,1.36,4.35,4.35,0,0,1,0,3.29,10.3,10.3,0,0,1-2.94,3.82,6.34,6.34,0,0,0-1.18,1.26,1.57,1.57,0,0,0-.36,1.25c.15.74.82,1.13,1.47,1.52,1.23.72,1.69,1.13,1.24,2.26-1.46,3.67-4.63,4.33-6.32,4.68a2.63,2.63,0,0,0-1.46.57c-.6.64-.42,1.58-.22,2.57a3.61,3.61,0,0,1-.05,2.51,2.43,2.43,0,0,1-1.69.73,9.79,9.79,0,0,1-5.09-.58c-3.82-1.32-4,1.13-4.08,2.34-.07,1.37-.15,2-1.48,2.14l0,.84v-.84c-1,0-3.59-1.6-5.66-2.9-1.27-.78-2.44-1.51-3.45-2-.76.34-1.49.65-2.19.94a23.21,23.21,0,0,1,4.73,2.54c3.07,1.91,5.18,3.16,6.57,3.16h.25a3,3,0,0,0,2.6-1.74,4.1,4.1,0,0,0,.2-.59,7.34,7.34,0,0,0,.18-1.43,3.26,3.26,0,0,1,.16-1.09s.34-.18,1.66.28a11.37,11.37,0,0,0,5.87.67,4,4,0,0,0,2.86-1.44,3.38,3.38,0,0,0,.56-2.12,10.88,10.88,0,0,0-.23-1.71,7.19,7.19,0,0,1-.15-1l.34-.08.16,0a11.64,11.64,0,0,0,4.69-1.91,7.53,7.53,0,0,0,1.26-1.16,9,9,0,0,0,1.24-1.9c.12-.25.27-.48.38-.76a4.36,4.36,0,0,0,.26-1.07c.19-1.86-1.33-2.78-2.23-3.3-.17-.1-.4-.24-.56-.35A6.42,6.42,0,0,1,158,173l.1-.1a14.19,14.19,0,0,0,2.35-2.64,8.94,8.94,0,0,0,.86-1.6l.07-.11a6.11,6.11,0,0,0,0-4.64c-.06-.12-.13-.22-.2-.34a4,4,0,0,0-.3-.49,4.06,4.06,0,0,0-.64-.67l-.23-.17a4.48,4.48,0,0,0-1.1-.6,5,5,0,0,0-1.61-.27,4.94,4.94,0,0,0-2.06.47,7.55,7.55,0,0,0-1.57.93,18.56,18.56,0,0,0-2.29,2.15c-.35.37-.8.85-1,1-.17-.18-.4-.47-.57-.69a5.06,5.06,0,0,0-2.08-1.84,3.79,3.79,0,0,0-1-.14c-2,0-3,1.79-3.85,3.37-.63,1.15-1.22,2.24-2.06,2.29a1.57,1.57,0,0,1-.91-.4,2.27,2.27,0,0,0-3,.15,6.19,6.19,0,0,0-1.58,2.8,7.05,7.05,0,0,1-.76,1.7c-.49.72-.62.88-1.16.94l.09.84-.39-.92a3.14,3.14,0,0,0-.93-.49c-2-.66-3.72.63-4,2.85a48.35,48.35,0,0,1-2.14,9.64c-.19.59-.35,1-.45,1.33C126.3,187.07,127,186.76,127.74,186.43Z"/><path class="cls-1" d="M135.37,183.57l1.09.32a62.85,62.85,0,0,0,7.24-4.95h-.33a.85.85,0,0,1-.76-1.14l.09-.26a59.66,59.66,0,0,1-6.91,4.73Z"/><path class="cls-1" d="M144.6,177.27l1.06,0a43.54,43.54,0,0,0,4.57-4.64.86.86,0,0,0-.1-1.2.88.88,0,0,0-1.21.1,40,40,0,0,1-3.63,3.74Z"/><path class="cls-1" d="M128.51,188c1.85-.83,3.84-1.81,5.89-2.94l-.35-.1a.89.89,0,0,1-.51-.42.84.84,0,0,1-.06-.66l.12-.36c-2,1.11-4,2.09-5.86,2.91-.74.33-1.44.64-2.12.92a75.32,75.32,0,0,1-7.7,2.79.85.85,0,0,0,.23,1.67l.23,0,.73-.21c1.21-.37,3.83-1.22,7.21-2.63C127,188.65,127.75,188.34,128.51,188Z"/><path class="cls-1" d="M141.18,187.05a.85.85,0,0,0,.24-1.67l-5-1.49-1.09-.32.42-1.31,1-3.19a.85.85,0,1,0-1.62-.53l-1.6,5-.12.36a.84.84,0,0,0,.06.66.89.89,0,0,0,.51.42l.35.1,6.53,1.95A.73.73,0,0,0,141.18,187.05Z"/><path class="cls-1" d="M142.61,177.79a.85.85,0,0,0,.76,1.14h.33l3.68.16h0a.86.86,0,0,0,0-1.71l-1.8-.08-1.06,0,.69-2,.57-1.6a.85.85,0,1,0-1.61-.57l-1.55,4.39Z"/><path class="cls-1" d="M22.7,101.34h.14l-.14-.11Z"/><path class="cls-1" d="M20.73,95a1.48,1.48,0,0,0,.42-.72,3.21,3.21,0,0,0-1-2.55,7.66,7.66,0,0,1-1.91-3.68,2,2,0,0,1,0-1.4c.29-.44,1.1-.58,1.82-.71s1.66-.29,2-1a2.22,2.22,0,0,0,0-1.37,6.19,6.19,0,0,1,1.68-6.11c.4-.37.64-.37.72-.37a2.44,2.44,0,0,1,1.2.67,2.48,2.48,0,0,0,1.49.73,1.26,1.26,0,0,0,1.12-.64,5.36,5.36,0,0,0,.69-1.4,8.27,8.27,0,0,1,2-3.33c1.11-1,2.94-1.26,3.79-.24,1.14,1.35.44,3.1-.51,5.06-.57,1.16-1,2.08-.37,2.77a3.58,3.58,0,0,0,1.47.71,5.27,5.27,0,0,1,1.27.51c.52.7.2,1.28-1,2.71-.9,1-1.91,2.25-1.48,3.66a2.74,2.74,0,0,0,1.23,1.48l.26.17a.65.65,0,0,1-.07.36,3.8,3.8,0,0,1-1.24,1.42A7.1,7.1,0,0,0,33,93.11a2.63,2.63,0,0,0-.61,2.46,1.7,1.7,0,0,0,.8,1.11,1.11,1.11,0,0,1,.3.25.83.83,0,0,1,.24.69,1.4,1.4,0,0,1-.77.82,41,41,0,0,0-6.32,4.08,3.18,3.18,0,0,1,.56,1.73A40,40,0,0,1,33.78,100a3,3,0,0,0,1.66-2,2.48,2.48,0,0,0-.59-2.12,6.11,6.11,0,0,0-.77-.72c-.1-.37,0-.46.39-1.09a5.71,5.71,0,0,1,1-1,5.47,5.47,0,0,0,1.74-2.11,1.86,1.86,0,0,0-.85-2.57c-.31-.21-.46-.32-.54-.56-.16-.52.51-1.3,1.15-2,1-1.24,2.5-2.94,1.08-4.84A4.23,4.23,0,0,0,36,79.79l-.53-.17c.11-.26.29-.63.43-.93.84-1.72,2.24-4.59.29-6.91-1.45-1.73-4.46-1.59-6.27.09a10.12,10.12,0,0,0-2.46,4c-.11.28-.23.57-.35.81l-.3-.23a3.7,3.7,0,0,0-2.26-1,2.7,2.7,0,0,0-1.87.82,7.88,7.88,0,0,0-2.22,7.63c0,.11,0,.2,0,.29-.2.05-.49.1-.7.14a4.13,4.13,0,0,0-2.94,1.45,3.41,3.41,0,0,0-.28,2.74,9.4,9.4,0,0,0,2.26,4.38,3.89,3.89,0,0,1,.69,1l0,0A8.76,8.76,0,0,1,20.73,95Z"/><path class="cls-1" d="M25.16,110.82l.24.08a8.58,8.58,0,0,1,.8-1.05c0-.34,0-.69,0-1.1-.15.29-.31.59-.5.9C25.12,110.54,25.16,110.81,25.16,110.82Z"/><path class="cls-1" d="M26.49,98.1a.89.89,0,0,1-.54.19h-.1a.85.85,0,0,1-.58-.32l-.22-.3c-.18,1.3-.32,2.57-.41,3.76a3.18,3.18,0,0,1,1.69.74c.1-1.36.24-2.79.44-4.29Z"/><path class="cls-1" d="M29.87,85.87a33.3,33.3,0,0,1,1.56-3.31.85.85,0,0,0-1.49-.83,36.18,36.18,0,0,0-2.1,4.57l.41.94Z"/><path class="cls-1" d="M27.16,95.36a50.54,50.54,0,0,1,1.52-6.24l-.2.17a.85.85,0,0,1-.55.2l-.19,0a.82.82,0,0,1-.59-.49l-.13-.3a50.69,50.69,0,0,0-1.61,6.66l.69.88Z"/><path class="cls-1" d="M25.85,98.28H26a.89.89,0,0,0,.54-.19l.28-.23,3.31-2.66a.86.86,0,0,0,.13-1.2.85.85,0,0,0-1.2-.13l-1.85,1.48-1.06.86-.69-.88L23,92.23a.86.86,0,0,0-1.36,1l3.39,4.39.22.3A.85.85,0,0,0,25.85,98.28Z"/><path class="cls-1" d="M27.74,89.47l.19,0a.85.85,0,0,0,.55-.2l.2-.17,2.89-2.46a.85.85,0,1,0-1.1-1.3l-.6.51-1.62,1.37-.41-.94-.44-1a.86.86,0,0,0-1.13-.44A.85.85,0,0,0,25.83,86L27,88.68l.13.3A.82.82,0,0,0,27.74,89.47Z"/><path class="cls-1" d="M19.69,122.58A3.45,3.45,0,0,1,20,121.4c-.05-.24-.11-.49-.16-.74a41.7,41.7,0,0,0-7.3-3.31,1.37,1.37,0,0,1-.88-.69.75.75,0,0,1,.12-.71,1.21,1.21,0,0,1,.26-.31,1.64,1.64,0,0,0,.62-1.21,2.74,2.74,0,0,0-1-2.39,7.09,7.09,0,0,0-1.5-1.11,3.86,3.86,0,0,1-1.45-1.21,1.1,1.1,0,0,1-.14-.3,1.17,1.17,0,0,1,.25-.25,2.73,2.73,0,0,0,1-1.65c.21-1.47-1-2.5-2-3.4-1.42-1.22-1.82-1.76-1.42-2.5a5.42,5.42,0,0,1,1.18-.72A3.5,3.5,0,0,0,8.84,100c.53-.79-.05-1.62-.78-2.69-1.25-1.8-2.2-3.41-1.29-4.93a2.06,2.06,0,0,1,1.84-.94,3.69,3.69,0,0,1,2,.6,8.45,8.45,0,0,1,2.53,3,4.77,4.77,0,0,0,.81,1.19,1.42,1.42,0,0,0,1.09.56,2.22,2.22,0,0,0,1.56-1c.56-.6,1-1.11,1.84-.58A6.21,6.21,0,0,1,21,101a2.24,2.24,0,0,0,.23,1.36c.46.66,1.32.67,2.15.69s1.54,0,1.9.42a2,2,0,0,1,.26,1.38,7.76,7.76,0,0,1-1.33,3.93,3.19,3.19,0,0,0-.63,2.67,1.76,1.76,0,0,0,1.07,1,7.92,7.92,0,0,1,.76-1.51l-.24-.08s0-.28.5-1.17c.19-.31.35-.61.5-.9A8.85,8.85,0,0,0,27.23,105a6,6,0,0,0,0-.73,3.18,3.18,0,0,0-.56-1.73,1.59,1.59,0,0,0-.15-.21,1.3,1.3,0,0,0-.2-.15,3.18,3.18,0,0,0-1.69-.74,11.31,11.31,0,0,0-1.24-.09h-.7V101a8.23,8.23,0,0,0-2-6,7.81,7.81,0,0,0-1.27-1.12l-.12-.09a2.87,2.87,0,0,0-1.62-.55,3.38,3.38,0,0,0-2.43,1.39l-.25.28c-.13-.17-.3-.47-.48-.76a10.11,10.11,0,0,0-3-3.55,5.31,5.31,0,0,0-2.91-.9,3.76,3.76,0,0,0-3.3,1.76c-1.56,2.59.26,5.22,1.34,6.79.19.27.43.61.57.86l-.51.26a4.26,4.26,0,0,0-1.9,1.42c-1.11,2.1.57,3.55,1.8,4.61.75.65,1.53,1.32,1.45,1.86,0,.25-.17.38-.45.63a1.86,1.86,0,0,0-.44,2.67,5.32,5.32,0,0,0,2,1.82,5.64,5.64,0,0,1,1.21.89c.48.51.54.59.43,1.09a3,3,0,0,0-.59.71,2.47,2.47,0,0,0-.25,2.18,2.19,2.19,0,0,0,.35.61A4.74,4.74,0,0,1,12,119,40.64,40.64,0,0,1,19.69,122.58Z"/><path class="cls-1" d="M22.07,119.63a9.94,9.94,0,0,1,1.43-.39,8.45,8.45,0,0,0,1-.26c0-.15-.06-.35-.1-.52s-.13-.68-.19-1.08l-.68.7C23,118.63,22.52,119.14,22.07,119.63Z"/><path class="cls-1" d="M21,127.64a.75.75,0,0,0,.49,0,8.39,8.39,0,0,1-.62-1C20.88,127,20.92,127.32,21,127.64Z"/><path class="cls-1" d="M19.52,113.13a52.91,52.91,0,0,0-2.6-6.34l-.09.32a.82.82,0,0,1-.5.57.91.91,0,0,1-.32.06.89.89,0,0,1-.45-.12l-.23-.14a50,50,0,0,1,2.46,5.94l1.19.69Z"/><path class="cls-1" d="M15.74,104.56A36.89,36.89,0,0,0,13,100.38a.84.84,0,0,0-1.19-.16.85.85,0,0,0-.16,1.2,29.72,29.72,0,0,1,2,3l1.82,1.11Z"/><path class="cls-1" d="M21.4,119.92c-.31-1.44-.7-3-1.17-4.55l-.18.32a.91.91,0,0,1-.52.42.85.85,0,0,1-.23,0,.79.79,0,0,1-.42-.12l-.32-.18c.5,1.68.9,3.31,1.23,4.82.05.25.11.5.16.74a2.21,2.21,0,0,1,.16-.35A3.11,3.11,0,0,1,21.4,119.92Z"/><path class="cls-1" d="M22.57,109.35a.86.86,0,0,0-1.16.34l-1.89,3.44-.54,1-1.19-.69-2-1.19a.86.86,0,1,0-.86,1.48l3.68,2.13.32.18a.79.79,0,0,0,.42.12.85.85,0,0,0,.23,0,.91.91,0,0,0,.52-.42l.18-.32,2.68-4.86A.87.87,0,0,0,22.57,109.35Z"/><path class="cls-1" d="M16,107.74a.91.91,0,0,0,.32-.06.82.82,0,0,0,.5-.57l.09-.32.75-2.88a.85.85,0,1,0-1.65-.43l-.28,1.08-.26,1-1.82-1.11L13,104a.85.85,0,0,0-1.17.28.84.84,0,0,0,.28,1.17l3.22,2,.23.14A.89.89,0,0,0,16,107.74Z"/><path class="cls-1" d="M33.25,171.7a2.47,2.47,0,0,0,1.23-1.14,29.26,29.26,0,0,1-3.61.34,7.76,7.76,0,0,1-1.05-.08C30.92,171.55,32.15,172.17,33.25,171.7Z"/><path class="cls-1" d="M45.55,185.46a7.19,7.19,0,0,0,.15-1l-.34-.08a6.61,6.61,0,0,1-1.69,2,1.62,1.62,0,0,1-.58.13c-.44,0-.66-.33-1.08-1.07s-.84-1.52-1.86-1.52a3.29,3.29,0,0,0-2.2,1.26,7.6,7.6,0,0,1-3.42,2.23c-1.32.45-1.73.2-2.23-1.62-.22-.79-.44-1.61-1.19-1.89a1.4,1.4,0,0,0-.4-.07,4.24,4.24,0,0,0-1,.18,9.28,9.28,0,0,1-2.41.38,5.37,5.37,0,0,1-3.72-1.45c-.63-.56-.55-.88.11-1.89a2.18,2.18,0,0,0,.53-1.76,1.27,1.27,0,0,0-.69-.82,4.81,4.81,0,0,0-1.43-.54,8.26,8.26,0,0,1-3.47-1.69A3.37,3.37,0,0,1,17.53,174a1.87,1.87,0,0,1,.53-1.42,2.52,2.52,0,0,1,1.9-.74,9.6,9.6,0,0,1,3.11.77,6,6,0,0,0,1.81.49,1.22,1.22,0,0,0,1-.4,3.41,3.41,0,0,0,.55-1.52,5.56,5.56,0,0,1,.38-1.27,1,1,0,0,1,.68-.31,1.67,1.67,0,0,1,.29.06,2.74,2.74,0,0,1-.67-1.69,2.68,2.68,0,0,0-1.45.67,4.18,4.18,0,0,0-.89,2.17c0,.16-.09.37-.12.53-.27-.08-.64-.22-.94-.33A10.87,10.87,0,0,0,20,170.1a4.15,4.15,0,0,0-3.11,1.26,3.51,3.51,0,0,0-1,2.67,5.08,5.08,0,0,0,1.71,3.48,9.9,9.9,0,0,0,4.13,2.05,7.71,7.71,0,0,1,.81.26l-.19.29c-.52.81-1.61,2.49.19,4.09a7.1,7.1,0,0,0,4.86,1.89,10.72,10.72,0,0,0,2.85-.44l.27-.07c.06.18.14.46.19.66.32,1.14.85,3,3,3a4.64,4.64,0,0,0,1.47-.27,9.33,9.33,0,0,0,4.08-2.65,3.79,3.79,0,0,1,.92-.76,3,3,0,0,1,.43.65,3,3,0,0,0,2.57,1.94,3.37,3.37,0,0,0,1.15-.22,3,3,0,0,0,1.09-.81A10.91,10.91,0,0,1,45.55,185.46Z"/><path class="cls-1" d="M36.3,170.29l-.71.1a6.3,6.3,0,0,1,1,.81,7,7,0,0,0,1.49,1.2,4.28,4.28,0,0,0,1.06.45,14.18,14.18,0,0,1-2.34-2.64Z"/><path class="cls-1" d="M34.77,177.21a.86.86,0,0,1-.18,1.36l-.3.17c1.25.26,2.49.46,3.72.62-.12-.25-.26-.48-.37-.76a4,4,0,0,1-.27-1.07q-1.4-.21-2.79-.51Z"/><path class="cls-1" d="M31.22,176.15A32.13,32.13,0,0,1,27.89,175a.85.85,0,1,0-.67,1.56,35.3,35.3,0,0,0,4.63,1.62l.91-.51Z"/><path class="cls-1" d="M38.12,183.49a.86.86,0,0,0,.62.27.89.89,0,0,0,.59-.23l1.18-1.11a7.53,7.53,0,0,1-1.26-1.16l-1.09,1A.85.85,0,0,0,38.12,183.49Z"/><path class="cls-1" d="M35,177.94a.83.83,0,0,0-.25-.73l-.19-.19-2.68-2.59a.86.86,0,1,0-1.19,1.23l.51.49,1.54,1.48-.91.51-.93.52a.85.85,0,0,0-.33,1.16.84.84,0,0,0,.74.44.91.91,0,0,0,.42-.11l2.54-1.41.3-.17A.83.83,0,0,0,35,177.94Z"/><path class="cls-1" d="M17.22,144.25a1.79,1.79,0,0,0-.31-1.29,2.9,2.9,0,0,0-2.38-.8h-.69a7.28,7.28,0,0,1-3.55-.79,2,2,0,0,1-1-.89c-.16-.49.23-1.2.57-1.82s.81-1.47.46-2.2c-.17-.36-.5-.55-1-.85a6.1,6.1,0,0,1-3.66-5.05c-.06-.83.23-1,1.39-1.27a2.14,2.14,0,0,0,1.61-.89,1.29,1.29,0,0,0,.08-1.08A5.25,5.25,0,0,0,8,126a8.23,8.23,0,0,1-1.31-3.64,3.32,3.32,0,0,1,.76-2.41,1.87,1.87,0,0,1,1.43-.64c1.69,0,2.59,1.59,3.51,3.5.53,1.12.94,2,1.9,2h0a3.47,3.47,0,0,0,1.47-.71,6.21,6.21,0,0,1,1.15-.65c.85,0,1.11.63,1.46,2.43.26,1.35.56,2.86,1.92,3.4a2.93,2.93,0,0,0,1.91,0,1.8,1.8,0,0,0,.29-.11,1.13,1.13,0,0,1,.22.29,3.91,3.91,0,0,1,.32,1.82v.06a2.06,2.06,0,0,0,.7-.46s.05-.35-.91-1.41a16.4,16.4,0,0,1-1.38-1.75.75.75,0,0,1-.49,0h0c-.49-.19-.69-1.18-.87-2.13-.31-1.58-.73-3.74-3.13-3.82a4.34,4.34,0,0,0-2.1.94l-.45.3c-.14-.24-.31-.61-.45-.9A11.45,11.45,0,0,0,12,119a4.74,4.74,0,0,0-1.64-1.12,4.41,4.41,0,0,0-1.59-.32h0a3.57,3.57,0,0,0-2.59,1.21A5.08,5.08,0,0,0,5,122.45a10,10,0,0,0,1.54,4.35,6.11,6.11,0,0,1,.4.75l-.34.08c-.93.21-2.89.65-2.71,3.07a7.82,7.82,0,0,0,4.52,6.41l.24.12c-.08.19-.22.43-.32.62A4.08,4.08,0,0,0,7.62,141a3.42,3.42,0,0,0,1.94,1.91,9.08,9.08,0,0,0,4.28.95h.69a3.55,3.55,0,0,1,1,.1,3.1,3.1,0,0,1-.15.77,5.26,5.26,0,0,0-.23,1.54A2.77,2.77,0,0,1,17.22,144.25Z"/><path class="cls-1" d="M15.75,131a32.25,32.25,0,0,1-1.56-3.18.85.85,0,0,0-1.57.65,35.28,35.28,0,0,0,2.2,4.39l1,.27Z"/><path class="cls-1" d="M17.56,134.24a.81.81,0,0,1-.33.69.85.85,0,0,1-.52.19.91.91,0,0,1-.23,0l-.31-.09c.4.6.82,1.18,1.24,1.76a6.28,6.28,0,0,1,.59-2.11l-.45-.68Z"/><path class="cls-1" d="M16.44,140.24a.84.84,0,0,0-.85.84.85.85,0,0,0,.83.87l2,0a14.63,14.63,0,0,1-.63-1.72l-1.34,0Z"/><path class="cls-1" d="M16.71,135.12a.85.85,0,0,0,.52-.19.81.81,0,0,0,.33-.69V134l-.12-3.73a.86.86,0,0,0-1.71.06l0,.71.07,2.13-1-.27-1-.28a.85.85,0,0,0-1,.6.86.86,0,0,0,.6,1.05l2.83.76.31.09A.91.91,0,0,0,16.71,135.12Z"/><path class="cls-1" d="M24.64,112.41a9.62,9.62,0,0,0-.43,5c.06.4.13.78.19,1.08s.08.37.1.52a8.45,8.45,0,0,1-1,.26,9.94,9.94,0,0,0-1.43.39,4.37,4.37,0,0,0-.67.29,3.11,3.11,0,0,0-1.29,1.13,2.21,2.21,0,0,0-.16.35,3.45,3.45,0,0,0-.26,1.18,5.63,5.63,0,0,0,.22,1.66,12,12,0,0,0,.92,2.35,8.39,8.39,0,0,0,.62,1,16.4,16.4,0,0,0,1.38,1.75c1,1.06.91,1.41.91,1.41a2.06,2.06,0,0,1-.7.46l-.24.12a10.33,10.33,0,0,0-.95.51l.21,0h.31a4.6,4.6,0,0,1,2,.6,2,2,0,0,0,1.06-1.35c.16-.81-.24-1.71-1.31-2.89a9.48,9.48,0,0,1-2.54-4.45,2.39,2.39,0,0,1,0-1.85c.37-.62,1.39-.83,2.28-1s1.92-.41,2.28-1.22a2.62,2.62,0,0,0-.05-1.56c-.34-1.7-1-4.87,1.82-7.66a1.52,1.52,0,0,1,1-.53,3.13,3.13,0,0,1,1.56.79,3,3,0,0,0,1.68.78,1.39,1.39,0,0,0,1.24-.75,6.65,6.65,0,0,0,.75-1.68,10.48,10.48,0,0,1,2.36-4.21c1.37-1.38,3.71-1.73,4.86-.47,1.64,1.81.49,4.45-.36,6.37-.63,1.43-1.08,2.46-.35,3.18a4,4,0,0,0,1.73.74,6.14,6.14,0,0,1,1.66.63c.78,1,.27,1.82-1.1,3.55-1,1.29-2.15,2.74-1.59,4.35a3.07,3.07,0,0,0,1.48,1.64c.52.32.52.32.34.86a5.06,5.06,0,0,1-1.5,1.85,8.56,8.56,0,0,0-1.55,1.7,3,3,0,0,0-.6,2.86,1.9,1.9,0,0,0,.95,1.21,1.41,1.41,0,0,1,.41.33,1.18,1.18,0,0,1,.37,1,1.8,1.8,0,0,1-1,1.15,48.74,48.74,0,0,0-5.81,3.89,6.92,6.92,0,0,1,.51,1.79,46.53,46.53,0,0,1,6.14-4.19,3.48,3.48,0,0,0,1.83-2.35,2.82,2.82,0,0,0-.76-2.4,3,3,0,0,0-.83-.67l-.19-.24c-.16-.52-.06-.7.45-1.5a7,7,0,0,1,1.22-1.3,6.31,6.31,0,0,0,2-2.56,2.1,2.1,0,0,0-1.06-2.87c-.4-.24-.64-.4-.76-.75-.25-.71.51-1.69,1.33-2.72,1.18-1.5,2.8-3.56,1.08-5.69a5.08,5.08,0,0,0-2.52-1.19l-.82-.24a12.36,12.36,0,0,1,.53-1.35c.92-2.09,2.45-5.57.06-8.21a4.17,4.17,0,0,0-3.17-1.38,6.09,6.09,0,0,0-4.16,1.8,12.05,12.05,0,0,0-2.77,4.85,7.25,7.25,0,0,1-.49,1.21c-.16-.1-.39-.26-.55-.38a4.37,4.37,0,0,0-2.57-1.12,3.14,3.14,0,0,0-2.22,1c-.19.19-.32.39-.49.59a8.58,8.58,0,0,0-.8,1.05A7.92,7.92,0,0,0,24.64,112.41Z"/><path class="cls-1" d="M32.7,132.63a61.64,61.64,0,0,1,1.64-8.2l-.2.18a.83.83,0,0,1-.58.23l-.16,0a.85.85,0,0,1-.6-.47l-.15-.3a63.91,63.91,0,0,0-1.71,8.61l.73.87Z"/><path class="cls-1" d="M32.13,135.39a.85.85,0,0,1-.56.21H31.5a.86.86,0,0,1-.59-.31l-.24-.28c-.1,1.1-.19,2.17-.25,3.22a3.44,3.44,0,0,1,1.31-.34H32a1.55,1.55,0,0,1,.23.06c.06-.92.14-1.85.23-2.81Z"/><path class="cls-1" d="M35.36,121.16a42,42,0,0,1,2-4.8.86.86,0,1,0-1.53-.77,44.79,44.79,0,0,0-2.47,6l.47,1Z"/><path class="cls-1" d="M31.5,135.6h.07a.85.85,0,0,0,.56-.21l.28-.24,4-3.43a.85.85,0,0,0-1.12-1.29l-2.54,2.2-1,.9-.73-.87-3.32-4a.85.85,0,0,0-1.31,1.09L30.67,135l.24.28A.86.86,0,0,0,31.5,135.6Z"/><path class="cls-1" d="M33.4,124.82l.16,0a.83.83,0,0,0,.58-.23l.2-.18,3.43-3.16A.85.85,0,1,0,36.61,120l-1.25,1.14-1.52,1.41-.47-1L32.6,120a.86.86,0,0,0-1.15-.39.84.84,0,0,0-.39,1.13l1.59,3.32.15.3A.85.85,0,0,0,33.4,124.82Z"/><path class="cls-1" d="M27.74,169.63a3.77,3.77,0,0,0,1.05.87,3,3,0,0,0,1,.32,7.76,7.76,0,0,0,1.05.08,29.26,29.26,0,0,0,3.61-.34l1.11-.17.71-.1.49-.08a9.3,9.3,0,0,1-.86-1.6,37.75,37.75,0,0,1-5.06.58,2.71,2.71,0,0,1-1.23-.17c-1.16-.67-1-1.27-.52-2.55a2.78,2.78,0,0,0,.11-2.57c-.45-.7-1.36-1.07-2.95-1.18a9.55,9.55,0,0,1-4.91-1.46,2.4,2.4,0,0,1-1.27-1.34c-.16-.7.42-1.57.94-2.32s1.1-1.63.8-2.46c-.15-.41-.52-.66-1.12-1.08-1.42-1-4.07-2.84-4-6.79,0-1.22.61-1.41,2-1.6a2.53,2.53,0,0,0,1.95-.82,1.39,1.39,0,0,0,.18-1.17,6.12,6.12,0,0,0-.61-1.73,10.35,10.35,0,0,1-1.21-4.68c0-1.55,1.07-3.7,3.17-3.7h0c2.44.17,3.43,2.87,4.15,4.85.54,1.47.92,2.53,2,2.54a4.06,4.06,0,0,0,1.74-.67,6.16,6.16,0,0,1,1.62-.7c1.24.16,1.47,1.14,1.68,3.34.16,1.62.34,3.47,1.86,4.23a3.43,3.43,0,0,0,2.21.16c.34-.08.53-.25.83.39a5,5,0,0,1,.2,2.37,8.56,8.56,0,0,0,.06,2.3,3,3,0,0,0,1.55,2.48,2.12,2.12,0,0,0,1.51.22,1.61,1.61,0,0,1,.53-.05,1.17,1.17,0,0,1,.94.46,1.82,1.82,0,0,1,.09,1.51A46,46,0,0,0,42,161.79a7.3,7.3,0,0,1,1.57.93,44.19,44.19,0,0,1,1.22-5.22,3.46,3.46,0,0,0-.3-3,2.84,2.84,0,0,0-2.22-1.2,3.3,3.3,0,0,0-1.06.08l-.29,0c-.48-.26-.53-.45-.72-1.39a7.41,7.41,0,0,1,0-1.77,6.34,6.34,0,0,0-.35-3.21,2.19,2.19,0,0,0-1.92-1.45,3.61,3.61,0,0,0-.83.12,1.56,1.56,0,0,1-1.07,0c-.68-.34-.8-1.58-.93-2.88,0-.4-.08-.84-.15-1.28a6.92,6.92,0,0,0-.51-1.79A3,3,0,0,0,32.18,138a1.55,1.55,0,0,0-.23-.06h-.22a3.44,3.44,0,0,0-1.31.34c-.36.16-.74.35-1.11.55l-.76.4a12.46,12.46,0,0,1-.55-1.35c-.61-1.68-1.56-4.22-3.65-5.36a4.6,4.6,0,0,0-2-.6h-.31l-.21,0A4.6,4.6,0,0,0,18,134.65a6.28,6.28,0,0,0-.59,2.11c0,.16-.05.32-.05.49a9.89,9.89,0,0,0,.43,3,14.63,14.63,0,0,0,.63,1.72l.3.68a6.82,6.82,0,0,1,.48,1.22c-.18,0-.46.07-.66.1a7.75,7.75,0,0,0-1.32.27,2.77,2.77,0,0,0-2.07,2,4.39,4.39,0,0,0-.12.95c-.11,4.87,3.15,7.14,4.71,8.23l.43.3a9.39,9.39,0,0,1-.55.88c-.63.94-1.51,2.23-1.19,3.65a4,4,0,0,0,2.07,2.45,11.23,11.23,0,0,0,5.66,1.68c1.42.1,1.63.4,1.63.4a2.91,2.91,0,0,1-.27,1.06,5.46,5.46,0,0,0-.45,2.06A2.74,2.74,0,0,0,27.74,169.63Z"/><path class="cls-1" d="M36.09,163.1l-.37,0c.12.16.25.31.37.46.1-.17.19-.33.3-.49-.07,0-.13.08-.2.08Z"/><path class="cls-1" d="M29.53,149.82A40.18,40.18,0,0,1,27.65,145a.85.85,0,1,0-1.63.5,43.93,43.93,0,0,0,2.38,6.05l1,.38Z"/><path class="cls-1" d="M35.54,159.94a61.45,61.45,0,0,1-4.5-7.05v.27a.87.87,0,0,1-.39.66.86.86,0,0,1-.46.14.77.77,0,0,1-.3-.06l-.31-.11a62.6,62.6,0,0,0,4.72,7.39l1.13.13Z"/><path class="cls-1" d="M37,162.33v0l.23-.17a2.11,2.11,0,0,1-.19-.23Z"/><path class="cls-1" d="M37.07,162l.48-5.21a.85.85,0,0,0-1.7-.15l-.31,3.34-.12,1.37-1.13-.13-5.14-.57a.83.83,0,0,0-.95.75.87.87,0,0,0,.76.95l6.76.75.37,0h.1c.07,0,.13-.06.2-.08a4.06,4.06,0,0,1,.64-.67v0Z"/><path class="cls-1" d="M30.18,154a.86.86,0,0,0,.46-.14.87.87,0,0,0,.39-.66v-.27l.3-4.65a.86.86,0,0,0-.8-.91.93.93,0,0,0-.91.8l-.1,1.69-.14,2.08-1-.38-1.68-.63a.88.88,0,0,0-1.1.5.85.85,0,0,0,.5,1.1l3.45,1.3.31.11A.77.77,0,0,0,30.18,154Z"/><path class="cls-1" d="M59.41,194.63h.26c1.38,0,3.49-1.25,6.56-3.16A23.21,23.21,0,0,1,71,188.94c-.7-.29-1.43-.6-2.18-.94-1,.52-2.18,1.25-3.46,2-2.07,1.3-4.65,2.9-5.65,2.9h-.05c-1.34-.16-1.42-.77-1.48-2.14,0-1-.13-2.75-2.12-2.75a6.06,6.06,0,0,0-2,.41A9.84,9.84,0,0,1,49,189a2.39,2.39,0,0,1-1.69-.74c-.42-.58-.22-1.6-.05-2.5s.38-1.93-.22-2.57a2.59,2.59,0,0,0-1.45-.57c-1.7-.35-4.86-1-6.33-4.68-.45-1.13,0-1.54,1.24-2.26.65-.39,1.33-.78,1.47-1.52a1.42,1.42,0,0,0-.29-1.15,6.55,6.55,0,0,0-1.25-1.36,10.4,10.4,0,0,1-2.94-3.82,4.35,4.35,0,0,1,0-3.29,2.46,2.46,0,0,1,1.47-1.36c2.22-.78,4.31,1.31,5.73,2.83.93,1,1.55,1.66,2.33,1.66a1.39,1.39,0,0,0,.45-.09c.43-.17.78-.58,1.36-1.3A5.75,5.75,0,0,1,50,165c1.26-.36,1.9.66,2.85,2.4.79,1.44,1.68,3.06,3.56,3.18a3.09,3.09,0,0,0,1.9-.73,2,2,0,0,1,.45-.27s.14,0,.47.3a4.86,4.86,0,0,1,1.11,2.1,8.27,8.27,0,0,0,1,2.09,3,3,0,0,0,2.4,1.68,1.72,1.72,0,0,0,1.47-.39,1.84,1.84,0,0,1,.47-.25c1.35-.44,1.69,1.11,1.73,1.41a50.53,50.53,0,0,0,2.16,9.87c.74.33,1.44.64,2.12.92-.1-.28-.25-.71-.43-1.27a49.26,49.26,0,0,1-2.16-9.71c-.24-2.21-2-3.5-3.95-2.84a3.23,3.23,0,0,0-.94.49l-.3.08c-.54-.06-.66-.22-1.2-1a7.21,7.21,0,0,1-.72-1.63,6.19,6.19,0,0,0-1.58-2.8,2.27,2.27,0,0,0-3.05-.15,2,2,0,0,1-1,.4c-.77,0-1.36-1.14-2-2.29-.86-1.58-1.84-3.37-3.85-3.37a3.65,3.65,0,0,0-1,.14,5,5,0,0,0-2.08,1.84c-.17.21-.4.5-.55.67a12.45,12.45,0,0,1-1-1,18.56,18.56,0,0,0-2.29-2.15,7.3,7.3,0,0,0-1.57-.93,4.8,4.8,0,0,0-3.66-.2,4.37,4.37,0,0,0-1.11.6l-.23.17a4.06,4.06,0,0,0-.64.67c-.11.16-.2.32-.3.49s-.14.22-.2.34a6.06,6.06,0,0,0,0,4.64l.06.11a9.3,9.3,0,0,0,.86,1.6,14.18,14.18,0,0,0,2.34,2.64l.11.1a7.29,7.29,0,0,1,.92.93c-.16.11-.39.25-.56.35-.89.52-2.42,1.44-2.23,3.3a4,4,0,0,0,.27,1.07c.11.28.25.51.37.76a9,9,0,0,0,1.24,1.9,7.53,7.53,0,0,0,1.26,1.16,11.64,11.64,0,0,0,4.69,1.91l.16,0,.34.08a7.19,7.19,0,0,1-.15,1,10.91,10.91,0,0,0-.22,1.71,3.37,3.37,0,0,0,.55,2.12,4,4,0,0,0,2.86,1.44,11.37,11.37,0,0,0,5.87-.67c1.41-.48,1.66-.28,1.66-.28a3.26,3.26,0,0,1,.16,1.09,8.15,8.15,0,0,0,.16,1.36,3.94,3.94,0,0,0,.25.73A3,3,0,0,0,59.41,194.63Z"/><path class="cls-1" d="M52.68,177.27l-.69-2a41.33,41.33,0,0,1-3.63-3.74.86.86,0,0,0-1.31,1.1,44.52,44.52,0,0,0,4.57,4.64Z"/><path class="cls-1" d="M61.49,182.26a60.53,60.53,0,0,1-6.91-4.73l.1.26a.86.86,0,0,1-.1.76.84.84,0,0,1-.67.38h-.33a62.09,62.09,0,0,0,7.25,4.95l1.08-.32Z"/><path class="cls-1" d="M69.54,186.43c-1.83-.82-3.81-1.8-5.86-2.91l.12.36a.84.84,0,0,1-.06.66.86.86,0,0,1-.51.42l-.35.1c2.05,1.13,4.05,2.11,5.9,2.94.75.34,1.48.65,2.18.94a73.8,73.8,0,0,0,8,2.84,1.08,1.08,0,0,0,.19,0h0a.85.85,0,0,0,.23-1.67,75.32,75.32,0,0,1-7.7-2.79C71,187.07,70.28,186.76,69.54,186.43Z"/><path class="cls-1" d="M62.08,178.54A.84.84,0,0,0,61,178a.86.86,0,0,0-.55,1.08l1,3.19.42,1.31-1.08.32-5,1.49a.85.85,0,0,0-.57,1.06.85.85,0,0,0,.82.61.67.67,0,0,0,.24,0l6.53-1.95.35-.1a.86.86,0,0,0,.51-.42.84.84,0,0,0,.06-.66l-.12-.36Z"/><path class="cls-1" d="M54.58,178.55a.86.86,0,0,0,.1-.76l-.1-.26L53,173.14a.85.85,0,1,0-1.61.57l.57,1.6.69,2-1.06,0-1.79.08a.86.86,0,0,0,0,1.71h0l3.68-.16h.33A.84.84,0,0,0,54.58,178.55Z"/><path class="cls-1" d="M26.88,25.06l3.83-2.48,4.34-2.82c1.56-1,3.29-1.8,5-2.77s3.58-2,5.52-2.92l6.14-2.63,3.2-1.37C56,9.66,57.18,9.33,58.32,9l7-2.31c2.41-.63,4.9-1.16,7.4-1.75L76.47,4l3.87-.53c2.6-.33,5.21-.76,7.84-1l8-.34,2-.1,1,0,1,0,4,.16a73.85,73.85,0,0,1,7.93.51l7.69,1c2.52.46,5,1.06,7.43,1.57,1.22.28,2.44.49,3.62.82l3.48,1.06c2.29.72,4.58,1.29,6.73,2.09,4.23,1.75,8.37,3.09,11.89,5L158,16.76c1.64.81,3.08,1.78,4.49,2.59a75.66,75.66,0,0,1,7.14,4.5l6,4.24-5.8-4.55a74.47,74.47,0,0,0-7-4.82c-1.39-.87-2.8-1.91-4.41-2.8l-5.12-2.71c-3.5-2-7.65-3.5-11.89-5.38-2.15-.86-4.45-1.5-6.75-2.29l-3.52-1.13c-1.19-.35-2.43-.57-3.66-.87-2.47-.54-5-1.16-7.53-1.65L112.16.82a75.88,75.88,0,0,0-8-.58l-4-.19-1,0L98.12,0l-2,.09L88,.54c-2.67.28-5.32.74-8,1.1l-3.93.58-3.82.92c-2.53.63-5,1.19-7.49,1.85l-7,2.43c-1.14.42-2.29.78-3.39,1.22l-3.21,1.47L45,12.92c-1.93,1-3.73,2.11-5.49,3.1s-3.47,1.9-5,2.93l-4.27,3-3.74,2.66c-1.13.86-2.08,1.74-3,2.49L18,32l5.83-4.52C24.73,26.72,25.72,25.87,26.88,25.06Z"/><path class="cls-1" d="M69.28,41.14,67,43.24l2.51-1.81a28.91,28.91,0,0,1,3-1.82c1.13-.73,2.59-1.25,4.07-2s3.25-1.21,5-1.88c1.86-.44,3.76-1.08,5.81-1.43l3.1-.58c1-.16,2.13-.23,3.21-.38,2.15-.32,4.37-.28,6.58-.39s4.49,0,6.61.26l3.2.33c1.05.11,2.08.35,3.11.51,2.05.31,4,.88,5.83,1.31s3.54,1.11,5.08,1.73,3,1.18,4.14,1.88,2.28,1.15,3.06,1.72l2.57,1.71-2.35-2a34.15,34.15,0,0,0-2.92-2,33.11,33.11,0,0,0-4.05-2.26c-1.54-.73-3.26-1.4-5.09-2.09a47.4,47.4,0,0,0-5.93-1.64,49.29,49.29,0,0,0-6.52-1.05c-1.13-.17-2.23-.17-3.35-.23s-2.19-.14-3.41-.09a66.15,66.15,0,0,0-6.78.47c-1.11.15-2.22.26-3.3.46L87,32.6a57.48,57.48,0,0,0-5.89,1.77c-1.78.8-3.54,1.4-5,2.24a30.69,30.69,0,0,0-4,2.38A27.19,27.19,0,0,0,69.28,41.14Z"/><path class="cls-1" d="M126.83,46.54c1.11.66,2.14,1.13,2.87,1.69l2.37,1.7L129.8,48.1A32.46,32.46,0,0,0,127,46.22a35.29,35.29,0,0,0-3.84-2.06c-1.46-.66-3.08-1.27-4.81-1.89a48.26,48.26,0,0,0-5.58-1.47,53.07,53.07,0,0,0-6.11-.93c-2.11-.23-4.19-.27-6.36-.31-2.13.12-4.27.11-6.36.44-1,.15-2.08.24-3.09.42l-3,.62c-2,.36-3.79,1.09-5.55,1.59-1.68.73-3.34,1.27-4.75,2a29.73,29.73,0,0,0-3.79,2.17,25.36,25.36,0,0,0-2.72,2l-2.2,1.91,2.31-1.78A25.36,25.36,0,0,1,74,47.14a39.75,39.75,0,0,1,3.83-2c1.41-.71,3.07-1.19,4.75-1.86,1.75-.44,3.56-1.08,5.5-1.43l3-.58c1-.16,2-.24,3-.37a61.7,61.7,0,0,1,6.26-.37c2.07,0,4.25,0,6.29.23a52.2,52.2,0,0,1,6,.86c2,.3,3.77.88,5.53,1.31s3.34,1.1,4.8,1.72S125.74,45.85,126.83,46.54Z"/><path class="cls-1" d="M114.51,50.36l-2.93-.91c-1.06-.24-2.2-.43-3.37-.64l-1.79-.31c-.61-.07-1.22-.08-1.84-.13l-3.77-.23L97,48.38c-.63,0-1.25,0-1.85.13l-1.79.31c-1.17.2-2.3.39-3.36.64l-2.94.91a12.43,12.43,0,0,0-2.41.89l-1.8.85-1.57.73,1.62-.61,1.86-.7a17.68,17.68,0,0,1,2.46-.73L90.18,50c1-.2,2.18-.32,3.33-.52l1.76-.28c.6-.06,1.21-.06,1.82-.1l3.72-.17,3.73.17c.62,0,1.24,0,1.83.1l1.75.28c1.15.2,2.28.32,3.33.52l2.93.77a17.12,17.12,0,0,1,2.45.73l1.85.7,1.62.61-1.56-.74-1.8-.85A13.16,13.16,0,0,0,114.51,50.36Z"/><path class="cls-1" d="M169.21,50.78a31.33,31.33,0,0,1-4.92,1,18.68,18.68,0,0,1-5-.17,15.47,15.47,0,0,1-4.51-1.51,43.75,43.75,0,0,1-7-5.05,26.58,26.58,0,0,0-5.41-3.5,16.41,16.41,0,0,0-1.66-.68l-.58-.21h0a1,1,0,1,0-.62,1.88l.59.2a13.13,13.13,0,0,1,1.58.58,25.13,25.13,0,0,1,5.12,3.08,45,45,0,0,0,7.44,4.93,16.74,16.74,0,0,0,4.91,1.46,19.56,19.56,0,0,0,5.24,0,30.75,30.75,0,0,0,5.07-1.22l4.72-1.5a21.32,21.32,0,0,1,4.48-.84,19.88,19.88,0,0,1,4.13.12l1.81.24c.58.11,1.11.26,1.62.38,1,.24,1.9.45,2.62.67l2.27.66-2.24-.74c-.71-.25-1.59-.49-2.6-.77-.51-.14-1-.3-1.62-.44L182.79,49a19.8,19.8,0,0,0-4.15-.27,21.8,21.8,0,0,0-4.64.69Z"/><path class="cls-1" d="M14.13,50c.51-.12,1-.27,1.61-.38l1.82-.24a19.88,19.88,0,0,1,4.13-.12,21.44,21.44,0,0,1,4.48.84l4.72,1.5A30.75,30.75,0,0,0,36,52.77a19.56,19.56,0,0,0,5.24,0,16.74,16.74,0,0,0,4.91-1.46,45,45,0,0,0,7.44-4.93,25.13,25.13,0,0,1,5.12-3.08,13.13,13.13,0,0,1,1.58-.58l.58-.2h0a1,1,0,1,0-.69-1.86l-.58.21a15.51,15.51,0,0,0-1.66.68,26.58,26.58,0,0,0-5.41,3.5,43.75,43.75,0,0,1-7,5.05A15.47,15.47,0,0,1,41,51.61a18.68,18.68,0,0,1-5,.17,31.1,31.1,0,0,1-4.92-1l-4.79-1.34a21.8,21.8,0,0,0-4.64-.69,19.94,19.94,0,0,0-4.16.27l-1.83.31c-.58.14-1.11.3-1.62.44-1,.28-1.89.52-2.6.77l-2.24.74,2.27-.66C12.22,50.4,13.11,50.19,14.13,50Z"/><path class="cls-1" d="M141.75,156.34c1.06.1,1.88.14,2.44.14,2,0,3-.69,3-2.09,0-1-1-1.55-3.13-1.74a11.76,11.76,0,0,1-6.81-2.9,15.8,15.8,0,0,1-4.57-6.24A107.2,107.2,0,0,1,129,130.74q-2.91-12.27-5.18-17.16a19.86,19.86,0,0,0-7.65-8.3q-5.39-3.42-13.41-3.42l-4.68.14,13.72-15.14a110.18,110.18,0,0,1,11.72-11.1,45.76,45.76,0,0,1,9.71-6.32,27.15,27.15,0,0,1,8-2.19c1.91-.23,2.87-1,2.87-2.16,0-1.39-1-2.09-3-2.09-1.21,0-3.59.1-7.12.32q-5.58.38-8.16.38a116.93,116.93,0,0,1-15.42-.77c-1-.09-1.77-.14-2.37-.14-1.77,0-2.65.7-2.65,2.09q0,1.74,2.79,2.31c4.32.88,6.49,2.51,6.49,4.88a7.33,7.33,0,0,1-1.58,3.7q-1.56,2.3-11.54,13.74a154.52,154.52,0,0,1-17.65,17.72Q84,78.74,84.19,75a9.78,9.78,0,0,1,1.53-5.61c.93-1.2,3-2,6.07-2.23,1.82-.18,2.72-.93,2.72-2.23S93.63,63,91.86,63q-1.81,0-5.16.12-11.45.57-13.88.58-4,0-10.19-.56-5-.42-7.53-.42c-2.33,0-3.49.72-3.49,2.16,0,1.21.74,1.86,2.23,2q4.39.41,5.83,1.22t2.61,3.77a31.65,31.65,0,0,1,1.57,9.24q.39,6.27.38,21.48T63.85,130q-.37,12.42-1.05,15.67a8.35,8.35,0,0,1-2.16,4.6,8.77,8.77,0,0,1-4.85,1.78,11.65,11.65,0,0,0-3.55.7,1.57,1.57,0,0,0-.77,1.53,2.07,2.07,0,0,0,2.37,2.31c.84,0,2.19-.1,4-.29a131.47,131.47,0,0,1,14.37-.9A160.71,160.71,0,0,1,89,156.2c1.81.19,3.18.28,4.12.28,1.95,0,2.93-.81,2.93-2.43,0-.94-1.1-1.54-3.28-1.82-4.14-.51-6.68-1.8-7.61-3.85s-1.39-7.23-1.39-15.53l.14-18q6.61-6.33,11.58-6.32,4.11,0,7.43,4.08t5.2,15.87q2.5,16,3.73,20.16a30,30,0,0,0,3.59,7.88,114.68,114.68,0,0,1,13.75-.83A111.31,111.31,0,0,1,141.75,156.34Z"/><path class="cls-1" d="M141.37,160.6c1.24.11,2.18.16,2.82.16,5,0,7.26-3.2,7.26-6.37,0-1.26-.51-5.41-7.09-6a7.56,7.56,0,0,1-4.36-1.9,11.6,11.6,0,0,1-3.36-4.58,102.46,102.46,0,0,1-3.5-12.15c-2-8.55-3.81-14.42-5.46-18a24.16,24.16,0,0,0-9.23-10.11,26.8,26.8,0,0,0-10.9-3.78l7.38-8.13a104.72,104.72,0,0,1,11.26-10.68,42,42,0,0,1,8.74-5.73,23.43,23.43,0,0,1,6.84-1.86c4.88-.59,6.62-3.69,6.62-6.4,0-3.17-2.25-6.36-7.27-6.36-1.3,0-3.79.11-7.41.33s-6.21.37-7.87.37a114.16,114.16,0,0,1-15-.75c-1.14-.11-2.07-.16-2.77-.16-4.78,0-6.92,3.2-6.92,6.36,0,1.23.45,5.34,6.2,6.49a10.52,10.52,0,0,1,2.89.93,9.19,9.19,0,0,1-.64,1.06c-.54.79-2.71,3.57-11.24,13.34-3.57,4.1-7,7.74-10.11,10.84.07-12.85.15-20.39.22-22.43a8.34,8.34,0,0,1,.51-3h0a7.62,7.62,0,0,1,3.27-.74c4.83-.49,6.55-3.79,6.55-6.48,0-3.06-2.14-6.15-6.92-6.15-1.24,0-3,0-5.37.13-9.28.47-12.56.57-13.67.57-2.54,0-5.85-.19-9.83-.55-3.51-.29-6.09-.43-7.9-.43-7.53,0-7.75,5.78-7.75,6.43a6.06,6.06,0,0,0,6.1,6.2,20.89,20.89,0,0,1,4,.66,7,7,0,0,1,.87,1.66,29.09,29.09,0,0,1,1.27,7.93c.25,4.06.37,11.2.37,21.23s-.13,19.17-.38,27.35c-.33,10.86-.78,14.07-1,14.94a5,5,0,0,1-.84,2.29,4.79,4.79,0,0,1-2.41.7c-3.2.32-4.38.77-5.17,1.2a5.77,5.77,0,0,0-3,5.28,6.25,6.25,0,0,0,6.64,6.57c1,0,2.44-.09,4.52-.3a127.77,127.77,0,0,1,13.9-.88,155.47,155.47,0,0,1,16.31.74c2,.21,3.49.31,4.55.31,5,0,7.2-3.38,7.2-6.71,0-1.56-.69-5.25-7-6.05-3-.38-4.11-1.15-4.25-1.39s-1-2.56-1-13.72l.12-16.19c2.92-2.55,5.52-3.94,7.33-3.94,1.4,0,2.75.81,4.11,2.49.79,1,2.77,4.25,4.3,13.85,1.72,10.93,3,17.7,3.85,20.7a34.86,34.86,0,0,0,4.1,9,4.17,4.17,0,0,0,4.11,1.92A110.76,110.76,0,0,1,141.37,160.6Zm-25.69-2a2.16,2.16,0,0,1-2-1,32.53,32.53,0,0,1-3.85-8.44c-.84-2.91-2.08-9.59-3.79-20.43-1.48-9.26-3.4-13.19-4.75-14.86-1.8-2.21-3.68-3.29-5.77-3.29-2.48,0-5.54,1.61-9.1,4.8a1,1,0,0,0-.36.79l-.13,16.67c0,10.4.76,13.62,1.21,14.61.58,1.29,2.68,2.22,5.92,2.62s5.15,1.79,5.15,3.94-1.33,4.57-5.06,4.57c-1,0-2.4-.09-4.32-.29a157,157,0,0,0-16.54-.75,128.92,128.92,0,0,0-14.12.89c-2,.19-3.36.29-4.3.29a4.15,4.15,0,0,1-4.51-4.44,3.65,3.65,0,0,1,1.89-3.41c.56-.31,1.53-.66,4.39-.95a6.49,6.49,0,0,0,3.6-1.24c.37-.33,1-1.22,1.5-3.44.29-1.41.7-5.21,1-15.3.26-8.21.39-17.43.39-27.42S62,85.3,61.72,81.2a30.52,30.52,0,0,0-1.42-8.59c-.8-2-1.46-2.55-1.79-2.75A16.69,16.69,0,0,0,53.6,69a4,4,0,0,1-4.13-4.08c0-1,.41-4.29,5.62-4.29,1.75,0,4.27.13,7.71.42,4,.37,7.42.55,10,.55,1.14,0,4.45-.1,13.76-.57,2.31-.08,4.06-.13,5.28-.13,3.53,0,4.79,2.08,4.79,4,0,.92-.34,3.92-4.63,4.36-3.2.28-4.23,1-4.61,1.42-.44.57-1,1.8-1.09,4.37-.08,2.2-.16,10.62-.24,25a1.07,1.07,0,0,0,1.81.78c3.68-3.5,7.74-7.79,12.06-12.74,6.46-7.41,10.4-12.09,11.4-13.55a6,6,0,0,0,1.2-2.56c0-1.52-3-2.36-4.79-2.73-3.91-.78-4.5-3.08-4.5-4.39,0-2,1.26-4.22,4.79-4.22.65,0,1.51,0,2.52.13a115.5,115.5,0,0,0,15.27.77c1.71,0,4.41-.13,8-.37s6-.33,7.27-.33c3.78,0,5.13,2.19,5.13,4.23,0,1.12-.46,3.76-4.72,4.28a25.12,25.12,0,0,0-7.45,2,43.16,43.16,0,0,0-9.23,6,108.88,108.88,0,0,0-11.5,10.89L104.55,98a1.05,1.05,0,0,0-.2,1.11,1.07,1.07,0,0,0,.92.67,25.42,25.42,0,0,1,12,3.67,22,22,0,0,1,8.43,9.2c1.59,3.42,3.34,9.17,5.33,17.57a103.39,103.39,0,0,0,3.59,12.46,13.76,13.76,0,0,0,4,5.41,9.59,9.59,0,0,0,5.57,2.4c4.46.4,5.13,2.6,5.13,3.87,0,2.05-1.35,4.23-5.13,4.23-.6,0-1.48-.05-2.6-.15A113.44,113.44,0,0,0,115.68,158.6Z"/><path class="cls-1" d="M1.72,290.05.59,292.69H0l3.79-9h.64l4.18,9H7.36l-1.23-2.64Zm2.14-4.89H3.8L2,289.48H5.87Z"/><path class="cls-1" d="M18.12,292.09h1.26v2H18.29v-1.35H10.46V294H9.37v-2h1.21l3.21-8.36h.78Zm-4.2-7h-.05l-2.69,7h5.71Z"/><path class="cls-1" d="M21.3,283.73h3.21a3.17,3.17,0,0,1,1.16.19,2.68,2.68,0,0,1,.81.51,2.08,2.08,0,0,1,.47.68,2,2,0,0,1,.15.73,1.78,1.78,0,0,1-.18.78,2.29,2.29,0,0,1-.48.64,2.38,2.38,0,0,1-.7.44,2,2,0,0,1-.84.18v.05c.18,0,.43,0,.74.09a2.62,2.62,0,0,1,.89.31,2.16,2.16,0,0,1,.76.66,2,2,0,0,1,.32,1.17,2.65,2.65,0,0,1-.16.91,2.13,2.13,0,0,1-.52.81,2.57,2.57,0,0,1-.95.59,4.14,4.14,0,0,1-1.45.22H21.3Zm2.7,3.92a2.09,2.09,0,0,0,.72-.13,2.18,2.18,0,0,0,.61-.36,1.56,1.56,0,0,0,.4-.55,1.62,1.62,0,0,0,.15-.69,1.7,1.7,0,0,0-.1-.59,1.48,1.48,0,0,0-.33-.53,1.65,1.65,0,0,0-.57-.37,2.4,2.4,0,0,0-.85-.14H22.46v3.36Zm.33,4.48a2.43,2.43,0,0,0,.77-.12,1.92,1.92,0,0,0,.64-.37,1.83,1.83,0,0,0,.43-.59,1.8,1.8,0,0,0,.16-.79,2.08,2.08,0,0,0-.15-.78,1.73,1.73,0,0,0-.45-.65,2.12,2.12,0,0,0-.76-.46,3.27,3.27,0,0,0-1.1-.16H22.46v3.92Z"/><path class="cls-1" d="M28.89,286.66a4.48,4.48,0,0,1,.86-1.51,4.7,4.7,0,0,1,1.5-1.13,4.87,4.87,0,0,1,2.18-.45,5,5,0,0,1,3.78,1.6,4.8,4.8,0,0,1,.9,1.51,4.41,4.41,0,0,1,.3,1.53,4.08,4.08,0,0,1-.14,1,4.7,4.7,0,0,1-.39,1,4.93,4.93,0,0,1-.67,1A4.81,4.81,0,0,1,35,292.63a5.32,5.32,0,0,1-1.55.22,4.87,4.87,0,0,1-2.18-.46,4.59,4.59,0,0,1-1.5-1.14,4.68,4.68,0,0,1-.86-1.51,4.6,4.6,0,0,1-.28-1.53A4.71,4.71,0,0,1,28.89,286.66Zm1.25,3.19a3.83,3.83,0,0,0,.76,1.29A3.44,3.44,0,0,0,32,292a3.38,3.38,0,0,0,1.42.3,3.46,3.46,0,0,0,1.43-.3,3.64,3.64,0,0,0,1.18-.84,3.91,3.91,0,0,0,.8-1.29,4.35,4.35,0,0,0,.29-1.64,4.4,4.4,0,0,0-.29-1.65,4,4,0,0,0-.8-1.28,3.64,3.64,0,0,0-1.18-.84,3.46,3.46,0,0,0-1.43-.3,3.38,3.38,0,0,0-1.42.3,3.44,3.44,0,0,0-1.13.84,3.88,3.88,0,0,0-.76,1.28,4.84,4.84,0,0,0-.27,1.65A4.78,4.78,0,0,0,30.14,289.85Z"/><path class="cls-1" d="M40.58,283.73h1.17v5l4.8-5h.64l-3.25,3.47,4,5.49H46.6L43.2,288l-1.45,1.55v3.15H40.58Z"/><path class="cls-1" d="M50.42,290.05l-1.13,2.64H48.7l3.79-9h.64l4.18,9H56.07l-1.23-2.64Zm2.14-4.89h-.05l-1.85,4.32h3.91Z"/><path class="cls-1" d="M61.38,292.69v-8.26H58v-.7h8v.7H62.55v8.26Z"/><path class="cls-1" d="M75.85,291.38a3.64,3.64,0,0,1-.48.45,4.23,4.23,0,0,1-.8.48,5.74,5.74,0,0,1-1.13.38,6.46,6.46,0,0,1-1.46.16,5.55,5.55,0,0,1-2.23-.41,4.35,4.35,0,0,1-1.54-1.06,4.19,4.19,0,0,1-.89-1.51,5.49,5.49,0,0,1-.29-1.75,4.74,4.74,0,0,1,.36-1.88,4,4,0,0,1,1-1.43,4.62,4.62,0,0,1,1.57-.92,6.22,6.22,0,0,1,2-.32,5.21,5.21,0,0,1,1.37.16,3.84,3.84,0,0,1,1,.42,2.76,2.76,0,0,1,.75.64,3.37,3.37,0,0,1,.49.81h-1a1.39,1.39,0,0,0-.31-.53,2.13,2.13,0,0,0-.58-.47,3.44,3.44,0,0,0-.8-.34,3.94,3.94,0,0,0-1-.12,3.88,3.88,0,0,0-1.49.29,3.52,3.52,0,0,0-1.18.82,3.73,3.73,0,0,0-.78,1.25,4.5,4.5,0,0,0-.27,1.59,4.64,4.64,0,0,0,.26,1.58,3.84,3.84,0,0,0,.77,1.33,3.79,3.79,0,0,0,1.28.92,4.3,4.3,0,0,0,1.77.35,4.36,4.36,0,0,0,3.1-1.23Z"/><path class="cls-1" d="M77.77,283.73h1.17v3.92h2a4.38,4.38,0,0,1,1.44.21,2.89,2.89,0,0,1,1,.54,2,2,0,0,1,.56.77A2.45,2.45,0,0,1,84,290a3,3,0,0,1-.16.93,2.47,2.47,0,0,1-.53.85,2.72,2.72,0,0,1-1,.63,4.26,4.26,0,0,1-1.54.24h-3Zm3,8.4a1.92,1.92,0,0,0,.81-.16,1.83,1.83,0,0,0,.63-.42,2,2,0,0,0,.41-.62,1.86,1.86,0,0,0,.15-.75,2.1,2.1,0,0,0-.16-.79,1.87,1.87,0,0,0-.45-.62,1.84,1.84,0,0,0-.69-.41,2.54,2.54,0,0,0-.88-.15H78.94v3.92Z"/><path class="cls-1" d="M86.34,283.73h1.17v5l4.8-5H93L89.7,287.2l4,5.49H92.36L89,288l-1.45,1.55v3.15H86.34Z"/><path class="cls-1" d="M101.4,283.73v.7H96.78v3.22h4v.61h-4V292h4.62v.7H95.62v-9Z"/><path class="cls-1" d="M107.19,286.66a4.48,4.48,0,0,1,.86-1.51,4.7,4.7,0,0,1,1.5-1.13,4.87,4.87,0,0,1,2.18-.45A5,5,0,0,1,114,284a4.8,4.8,0,0,1,1.55,1.14,4.65,4.65,0,0,1,.91,1.51,4.41,4.41,0,0,1,.3,1.53,4.08,4.08,0,0,1-.14,1,5.26,5.26,0,0,1-.39,1,4.59,4.59,0,0,1-.68,1,4.52,4.52,0,0,1-1,.82,4.84,4.84,0,0,1-1.26.57,5.32,5.32,0,0,1-1.55.22,4.87,4.87,0,0,1-2.18-.46,4.59,4.59,0,0,1-1.5-1.14,4.68,4.68,0,0,1-.86-1.51,4.6,4.6,0,0,1-.28-1.53A4.71,4.71,0,0,1,107.19,286.66Zm1.25,3.19a3.83,3.83,0,0,0,.76,1.29,3.44,3.44,0,0,0,1.13.84,3.38,3.38,0,0,0,1.42.3,3.49,3.49,0,0,0,1.43-.3,3.64,3.64,0,0,0,1.18-.84,3.91,3.91,0,0,0,.8-1.29,4.56,4.56,0,0,0,.29-1.64,4.61,4.61,0,0,0-.29-1.65,4,4,0,0,0-.8-1.28,3.64,3.64,0,0,0-1.18-.84,3.49,3.49,0,0,0-1.43-.3,3.38,3.38,0,0,0-1.42.3,3.44,3.44,0,0,0-1.13.84,3.88,3.88,0,0,0-.76,1.28,4.84,4.84,0,0,0-.27,1.65A4.78,4.78,0,0,0,108.44,289.85Z"/><path class="cls-1" d="M120.05,287.65h1.78a5.15,5.15,0,0,1,1.65.22,2.76,2.76,0,0,1,1,.58,1.88,1.88,0,0,1,.52.81,2.83,2.83,0,0,1,.15.9,2.77,2.77,0,0,1-.15.89,2,2,0,0,1-.52.82,2.65,2.65,0,0,1-1,.59,5.14,5.14,0,0,1-1.66.23h-3v-9h5.47v.7h-4.3Zm1.76,4.5a2.48,2.48,0,0,0,.77-.12,2.3,2.3,0,0,0,.67-.37,1.92,1.92,0,0,0,.46-.59,1.83,1.83,0,0,0,.18-.82,2.21,2.21,0,0,0-.15-.82,1.81,1.81,0,0,0-.43-.64,1.88,1.88,0,0,0-.68-.43,2.48,2.48,0,0,0-.89-.15h-1.69v3.94Z"/><path class="cls-1" d="M127,286.8h-.46v-3.3h1.22Z"/><path class="cls-1" d="M133.5,283.57a6.1,6.1,0,0,1,2.32.43,3.68,3.68,0,0,1,1.72,1.34l-.65.63a4.46,4.46,0,0,0-.58-.72,4.21,4.21,0,0,0-.74-.58,3.31,3.31,0,0,0-.9-.39,4.06,4.06,0,0,0-2.59.16,3.33,3.33,0,0,0-1.76,1.93,3.7,3.7,0,0,0-.22,1.22v.06h4.27v.57H130.1v.07a4.71,4.71,0,0,0,.25,1.49,4,4,0,0,0,.69,1.28,3.48,3.48,0,0,0,1.12.89,3.31,3.31,0,0,0,1.5.33,3.51,3.51,0,0,0,1.05-.14,3.32,3.32,0,0,0,.88-.39,3.73,3.73,0,0,0,.73-.58,5,5,0,0,0,.57-.72l.65.63a3.56,3.56,0,0,1-.76.79,4.42,4.42,0,0,1-1,.55,5.06,5.06,0,0,1-1.09.32,6.31,6.31,0,0,1-1.15.11,5.11,5.11,0,0,1-1.52-.22,4.77,4.77,0,0,1-1.2-.58,4.06,4.06,0,0,1-.91-.84,5.58,5.58,0,0,1-.64-1,4.65,4.65,0,0,1-.36-1.07,5,5,0,0,1-.12-1.05,4.85,4.85,0,0,1,.37-1.93,3.89,3.89,0,0,1,1-1.41,4.12,4.12,0,0,1,1.48-.86A5.49,5.49,0,0,1,133.5,283.57Z"/><path class="cls-1" d="M147.44,292.09h1.26v2h-1.09v-1.35h-7.82V294H138.7v-2h1.2l3.22-8.36h.78Zm-4.2-7h-.05l-2.69,7h5.71Z"/><path class="cls-1" d="M151.78,292.69h-1.16v-9h1.16v3.92h5.37v-3.92h1.17v9h-1.17v-4.45h-5.37Z"/><path class="cls-1" d="M162,290.05l-1.12,2.64h-.59l3.79-9h.64l4.17,9H167.6l-1.23-2.64Zm2.14-4.89H164l-1.84,4.32h3.9Z"/><path class="cls-1" d="M171.93,292.69h-1.17v-9h1.17v3.92h5.36v-3.92h1.17v9h-1.17v-4.45h-5.36Z"/><path class="cls-1" d="M182.7,292.69h-1.17v-9h1.17v3.92h5.37v-3.92h1.16v9h-1.16v-4.45H182.7Z"/><path class="cls-1" d="M198.42,283.73v9h-1.16v-3.95h-.56a2.47,2.47,0,0,0-.6.06,1.1,1.1,0,0,0-.43.22,1.7,1.7,0,0,0-.36.39c-.12.17-.25.37-.4.61l-1,1.49c-.13.2-.25.38-.37.54a2.67,2.67,0,0,1-.4.42,2.12,2.12,0,0,1-.49.27,1.82,1.82,0,0,1-.66.11,2.86,2.86,0,0,1-.46,0,1,1,0,0,1-.36-.13v-.47l.13,0h.13a1.37,1.37,0,0,0,.47-.07,1.29,1.29,0,0,0,.39-.23,2.85,2.85,0,0,0,.34-.35l.34-.49c.36-.52.63-.93.83-1.25s.35-.55.46-.72a3,3,0,0,1,.29-.37.83.83,0,0,1,.26-.19l.13-.07v-.05a2.44,2.44,0,0,1-1.06-.27,2.17,2.17,0,0,1-1.12-1.32,2.47,2.47,0,0,1-.13-.79,2.4,2.4,0,0,1,.14-.75,1.93,1.93,0,0,1,.46-.77,2.51,2.51,0,0,1,.89-.59,3.83,3.83,0,0,1,1.42-.23Zm-1.16.56H196a2.71,2.71,0,0,0-.88.14,2,2,0,0,0-.67.39,1.7,1.7,0,0,0-.43.6,1.86,1.86,0,0,0-.15.75,1.93,1.93,0,0,0,.13.7,1.89,1.89,0,0,0,.41.64,2.07,2.07,0,0,0,1.57.65h1.32Z"/></g></g></svg>