<?xml version="1.0" encoding="utf-8"?>
<!-- Generator: Adobe Illustrator 23.0.1, SVG Export Plug-In . SVG Version: 6.00 Build 0)  -->
<svg version="1.1" id="SvgjsSvg1351058" xmlns:svgjs="http://svgjs.com/svgjs"
	 xmlns="http://www.w3.org/2000/svg" xmlns:xlink="http://www.w3.org/1999/xlink" x="0px" y="0px" viewBox="0 0 3440 429.6"
	 style="enable-background:new 0 0 3440 429.6;" xml:space="preserve">
<style type="text/css">
	.st0{fill:#FFFFFF;}
</style>
<g>
	<path class="st0" d="M1832.1,296.9h-336l22-125h-46.8l-30.3,171.8h46.8h336l-6.9,39.1h-382.8l-3.5,20c-2.6,14.8,7.3,26.7,22,26.7
		h356h46.8l45.4-257.7h-46.8L1832.1,296.9z"/>
	<path class="st0" d="M2419.4,198.5l-3.5,20h429.6l8.2-46.8h-402.8C2436,171.8,2422,183.8,2419.4,198.5z"/>
	<path class="st0" d="M2383.3,402.8c-2.6,14.8,7.3,26.7,22,26.7h402.8l8.2-46.8h-429.6L2383.3,402.8z"/>
	<polygon class="st0" points="2397.2,324.1 2826.8,324.1 2835,277.3 2405.5,277.3 	"/>
	<polygon class="st0" points="3194.3,300.8 3440,172 3439.6,171 3348.5,171 3152.3,273.8 2992.3,171 2901.2,171 2900.4,172 
		3100.7,300.8 3095.3,303.6 2855,429.5 2948.7,429.5 3137.4,330.6 3142.7,327.8 3147.1,330.6 3300.9,429.5 3394.6,429.5 
		3198.6,303.6 	"/>
	<polygon class="st0" points="2296.3,365.9 1994.5,171.8 1947.7,171.8 1942.9,198.8 1942.9,198.8 1902.2,429.5 1949,429.5 
		1985,225.8 2286.8,419.9 2301.9,429.5 2331.9,429.5 2338.3,392.9 2377.3,171.8 2330.5,171.8 	"/>
	<path class="st0" d="M713,0H98.2C83.4,0,69.3,12,66.7,26.7L0.4,402.8c-2.6,14.8,7.3,26.7,22,26.7h389.4l-38.5-46.8H50.7l59.2-336
		h574.8l-59.2,336H505.3l-70.7-85.9h-65.8h-0.3l70.7,85.9l38.5,46.8h0.3h65.8h93.5c14.8,0,28.8-12,31.4-26.7l66.3-376.1
		C737.7,12,727.8,0,713,0z"/>
	<path class="st0" d="M1386,125.2l-13.4-16.3l0-0.1L1360,93.7l-12.5-15.2h-0.1l-3-3.7l0-0.1l-23-27.8l-15.6-18.9l-18.1-22
		c-3.1-3.8-7.8-5.9-13.2-5.9h-57.9H813.3c-14.8,0-28.8,12-31.4,26.7l-66.3,376.1c-2.6,14.8,7.3,26.7,22,26.7h614.9
		c14.8,0,28.8-12,31.4-26.7l29-164.7l0,0l10.2-57.9c0.9-5.3-0.3-10.4-3.4-14.2L1386,125.2z M1340.6,382.8H765.9l59.2-336h430.2
		l119.1,144.6L1340.6,382.8z"/>
</g>
</svg>
