<svg width="14" height="8" viewBox="0 0 14 8" fill="none" xmlns="http://www.w3.org/2000/svg">
<path d="M9.65147 1.17718C9.65147 1.25451 9.68275 1.33185 9.745 1.39076L12.3986 3.90203L1.03919 3.90203C0.862664 3.90203 0.719977 4.03707 0.719977 4.20412C0.719977 4.37118 0.862664 4.50621 1.03919 4.50621L12.3986 4.50621L9.75809 7.0051C9.63328 7.12322 9.63328 7.31414 9.75809 7.43226C9.8829 7.55038 10.0846 7.55038 10.2095 7.43226L13.3945 4.418C13.4242 4.39021 13.4475 4.35668 13.4638 4.31922C13.496 4.24551 13.496 4.16243 13.4638 4.08842C13.4475 4.05126 13.4239 4.01773 13.3945 3.98994L10.1964 0.963601C10.0716 0.845484 9.86981 0.845484 9.745 0.963601C9.68244 1.02251 9.65147 1.09984 9.65147 1.17718Z" fill="#2D476C"/>
</svg>
