<svg width="32" height="16" viewBox="0 0 32 16" fill="none" xmlns="http://www.w3.org/2000/svg">
<path d="M22.3847 0.727503C22.3847 0.913689 22.4631 1.09988 22.6191 1.2417L29.2697 7.28765L0.800028 7.28765C0.357613 7.28765 1.90735e-06 7.61275 1.90735e-06 8.01494C1.90735e-06 8.41713 0.357613 8.74223 0.800028 8.74223L29.2697 8.74223L22.6519 14.7584C22.3391 15.0427 22.3391 15.5024 22.6519 15.7868C22.9647 16.0711 23.4703 16.0711 23.7831 15.7868L31.7658 8.52986C31.8402 8.46295 31.8986 8.38222 31.9394 8.29204C32.0202 8.11458 32.0202 7.91457 31.9394 7.73639C31.8986 7.64693 31.8394 7.5662 31.7658 7.49929L23.7503 0.213309C23.4375 -0.0710609 22.9319 -0.0710609 22.6191 0.213309C22.4623 0.355131 22.3847 0.541317 22.3847 0.727503Z" fill="#2D476C"/>
</svg>
