<svg width="19" height="19" viewBox="0 0 19 19" fill="none" xmlns="http://www.w3.org/2000/svg">
<path fill-rule="evenodd" clip-rule="evenodd" d="M18.1946 7.70608V3.99303C18.1946 2.05106 16.6191 0.47464 14.679 0.47464H3.52341C1.58601 0.47464 0.010498 2.05106 0.010498 3.99303V15.1578C0.010498 17.0961 1.58601 18.6725 3.52341 18.6725H14.679C16.6191 18.6725 18.1946 17.0961 18.1946 15.1578V7.70608ZM14.6789 16.8987H3.52333C2.56011 16.8987 1.78149 16.1201 1.78149 15.1578V7.70607H4.49477C4.26173 8.28181 4.13014 8.9142 4.13014 9.57219C4.13014 12.3156 6.35906 14.55 9.10066 14.55C11.8459 14.55 14.0748 12.3156 14.0748 9.57219C14.0748 8.9142 13.9405 8.28181 13.7075 7.70607H16.4207V15.1578C16.4207 16.1201 15.6412 16.8987 14.6789 16.8987ZM13.0066 2.58018L15.6888 2.57013H16.0909V5.65443L13.0185 5.66357L13.0066 2.58018ZM9.10076 12.7753C7.33699 12.7753 5.90039 11.3405 5.90039 9.57219C5.90313 8.87582 6.12612 8.23246 6.5072 7.70607C7.08842 6.8973 8.03519 6.37183 9.10076 6.37183C10.17 6.37183 11.1167 6.90004 11.698 7.70607C12.0754 8.23246 12.302 8.87582 12.302 9.57219C12.302 11.3405 10.8645 12.7753 9.10076 12.7753Z" fill="#C9E8D1"/>
</svg>
