<svg width="18" height="16" viewBox="0 0 18 16" fill="none" xmlns="http://www.w3.org/2000/svg">
<path d="M15.1596 0.719129C12.7609 0.642566 11.1377 1.95885 10.2877 4.66948C10.7255 4.49312 11.1508 4.40412 11.5657 4.40412C12.4404 4.40412 12.8275 4.88434 12.7242 5.84732C12.6729 6.43047 12.2865 7.27898 11.5657 8.39254C10.8421 9.50794 10.3016 10.0647 9.9425 10.0647C9.47633 10.0647 9.05199 9.20298 8.66456 7.48171C8.53463 6.97477 8.30228 5.68391 7.9696 3.60588C7.65771 1.68117 6.83355 0.781879 5.49342 0.90828C4.92652 0.959257 4.07728 1.46714 2.94387 2.42832C2.11698 3.1631 1.27917 3.89808 0.427612 4.63232L1.23894 5.65703C2.01328 5.12482 2.46626 4.85997 2.59206 4.85997C3.18584 4.85997 3.74035 5.77115 4.25635 7.59328C4.71888 9.26675 5.18534 10.938 5.65011 12.609C6.34234 14.4325 7.1957 15.3445 8.1995 15.3445C9.82308 15.3445 11.811 13.8508 14.1553 10.8621C16.4233 8.00093 17.5942 5.7467 17.6732 4.09893C17.7773 1.89681 16.9395 0.769125 15.1596 0.719129Z" fill="#C9E8D1"/>
</svg>
