<svg width="19" height="22" viewBox="0 0 19 22" fill="none" xmlns="http://www.w3.org/2000/svg">
<path fill-rule="evenodd" clip-rule="evenodd" d="M5.53921 0L4.71457 3.16965L3.85611 0H2.5835C2.83948 0.747843 3.10461 1.49934 3.35968 2.24901C3.74732 3.37626 3.98867 4.22467 4.0993 4.80338V8.0736H5.30791V4.80338L6.76246 0H5.53921ZM9.99331 4.01804C9.99331 3.37625 9.88268 2.9045 9.65412 2.60098C9.35334 2.18957 8.92822 1.98387 8.38334 1.98387C7.83937 1.98387 7.41425 2.18957 7.11256 2.60098C6.88034 2.90633 6.77246 3.37625 6.77246 4.01804V6.12535C6.77246 6.7644 6.88034 7.23889 7.11256 7.54058C7.41425 7.95107 7.83937 8.15678 8.38334 8.15678C8.92822 8.15678 9.35334 7.95107 9.65412 7.54058C9.88268 7.23889 9.99331 6.7644 9.99331 6.12535V4.01804ZM14.0242 2.05702H12.9344V6.65562C12.6931 6.99663 12.4645 7.16576 12.2451 7.16576C12.0997 7.16576 12.0138 7.07982 11.9891 6.90977C11.9763 6.87503 11.9763 6.74247 11.9763 6.48648V2.05702H10.8893V6.81378C10.8893 7.2389 10.9268 7.52688 10.9853 7.70973C11.0959 8.01325 11.3373 8.15679 11.6892 8.15679C12.0869 8.15679 12.4992 7.91543 12.9344 7.41717V8.07359H14.0242V2.05702ZM17.7278 10.7066C17.5093 9.75669 16.7322 9.05731 15.7969 8.95126C13.5836 8.70533 11.3437 8.7035 9.11206 8.70533C6.88225 8.7035 4.64146 8.70533 2.42719 8.95126C1.49375 9.05731 0.716654 9.75669 0.499981 10.7066C0.188227 12.0587 0.18457 13.5343 0.18457 14.9267C0.18457 16.3172 0.18457 17.7946 0.494495 19.145C0.713911 20.0948 1.48918 20.7942 2.42444 20.9003C4.6378 21.1471 6.87859 21.148 9.10932 21.1471C11.341 21.148 13.5799 21.1471 15.7942 20.9003C16.7295 20.7942 17.5047 20.0948 17.7232 19.145C18.035 17.7946 18.035 16.3172 18.035 14.9267C18.035 13.5343 18.0377 12.0587 17.7278 10.7066ZM16.4304 18.0561C16.1315 18.4894 15.6899 18.7025 15.1258 18.7025C14.5618 18.7025 14.1312 18.4995 13.8194 18.0918C13.5908 17.7946 13.4747 17.3247 13.4747 16.693V14.6067C13.4747 13.9704 13.578 13.506 13.8066 13.2033C14.1184 12.7956 14.5471 12.5926 15.0984 12.5926C15.6406 12.5926 16.0702 12.7956 16.371 13.2033C16.5978 13.506 16.7047 13.9704 16.7047 14.6067V15.8391H14.5471V16.8959C14.5471 17.4463 14.7291 17.7206 15.0984 17.7206C15.3654 17.7206 15.519 17.577 15.5811 17.2891C15.5912 17.2305 15.6049 16.9901 15.6049 16.5586H16.7047V16.7149C16.7047 17.0642 16.6919 17.3019 16.6828 17.4106C16.6462 17.6493 16.5612 17.8659 16.4304 18.0561ZM14.549 14.9413H15.6277V14.3919C15.6277 13.8397 15.4467 13.5645 15.0893 13.5645C14.7291 13.5645 14.549 13.8397 14.549 14.3919V14.9413ZM11.6636 18.7025C11.2796 18.7025 10.9084 18.4885 10.5473 18.0433V18.6211H9.46851V10.6298H10.5473V13.239C10.8956 12.8102 11.2668 12.5926 11.6636 12.5926C12.0914 12.5926 12.3813 12.8194 12.5248 13.2664C12.597 13.506 12.6336 13.8991 12.6336 14.4632V16.8338C12.6336 17.3832 12.597 17.78 12.5248 18.0323C12.3813 18.4748 12.0914 18.7025 11.6636 18.7025ZM11.5548 14.3772C11.5548 13.8397 11.3967 13.5645 11.0868 13.5645C10.9085 13.5645 10.7284 13.6495 10.5474 13.8269V17.4555C10.7284 17.6365 10.9085 17.7206 11.0868 17.7206C11.3976 17.7206 11.5548 17.4555 11.5548 16.9188V14.3772ZM7.45636 17.9702C7.02759 18.462 6.62075 18.7025 6.22398 18.7025C5.87657 18.7025 5.63704 18.5599 5.52825 18.2591C5.46882 18.079 5.43225 17.7947 5.43225 17.3741V12.6667H6.51105V17.0496C6.51105 17.3019 6.51105 17.4335 6.5211 17.4683C6.54853 17.6365 6.6299 17.7206 6.77343 17.7206C6.99102 17.7206 7.21683 17.5542 7.45636 17.2159V12.6667H8.53699V18.6211H7.45636V17.9702ZM3.98412 18.6211H2.78373V11.7534H1.51477V10.6298H5.27593V11.7534H3.98412V18.6211ZM8.3833 7.16575C8.03132 7.16575 7.86218 6.88782 7.86218 6.32922V3.79954C7.86218 3.24369 8.03132 2.96484 8.3833 2.96484C8.73345 2.96484 8.90258 3.24369 8.90258 3.79954V6.32922C8.90258 6.88782 8.73345 7.16575 8.3833 7.16575Z" fill="#C9E8D1"/>
</svg>
