<?xml version="1.0" encoding="utf-8"?>
<!-- Generator: Adobe Illustrator 22.1.0, SVG Export Plug-In . SVG Version: 6.00 Build 0)  -->
<svg version="1.1" id="Capa_1" xmlns="http://www.w3.org/2000/svg" xmlns:xlink="http://www.w3.org/1999/xlink" x="0px" y="0px"
	 viewBox="0 0 500 500" style="enable-background:new 0 0 500 500;" xml:space="preserve">
<style type="text/css">
	.st0{fill:#FFFFFF;}
</style>
<path class="st0" d="M263,36.3c4.5-6.5,11.9-10.4,19.8-10.3H490V10H282.8c-13.1,0-25.4,6.4-32.9,17.2l-42.7,61.6
	c-12.5,18.1-8,43,10.1,55.5c0.9,0.6,1.9,1.3,2.9,1.8c7.9,4.5,17,6.1,26,4.6c-0.5,4.2-0.3,8.5,0.6,12.7l-6.9,14.7L218.2,168
	c-4-1.9-8.8-0.1-10.6,3.9l-13.6,29c-1.9,4-0.1,8.8,3.9,10.6l0,0l21.2,9.9l-44.6,79.2c-8-0.8-16.2,0.4-23.6,3.5l-4-24.4
	c-0.7-4.3-4.7-7.3-9.1-6.6h-0.1l-23.8,3.9l-0.9-5.5l22.8-50.3c1.8-4,0-8.8-4-10.6c-1.4-0.7-3-0.9-4.6-0.6l-16.6,2.7
	c-5.7-14.9-19.8-25-35.8-25.7l-2.7-16.6L56.3,173l2.7,16.6c-15,5.7-25.1,19.8-25.7,35.8l-16.6,2.7c-4.4,0.7-7.3,4.8-6.6,9.2
	c0.3,1.6,1,3,2,4.2l37.7,40.4l0.9,5.5L27,291.3c-4.3,0.7-7.3,4.8-6.6,9.2l5.2,31.6c0.6,3.9,4,6.7,7.9,6.7c0.4,0,0.9,0,1.3-0.1
	l23.1-3.8l7.8,90.6c-17.5,9.4-27.4,28.7-24.8,48.5H10v16h480v-16H148.4l29.5-4.8c4.4-0.7,7.3-4.8,6.6-9.2l0,0l-1.3-7.9
	c-3.4-20.2-19.1-36.1-39.3-39.5l-16.1-66.1L242.4,400c4,1.9,8.8,0.1,10.6-3.9l3.4-7.2c8.8-18.5,4.6-40.6-10.2-54.7l32.1-85.2
	l21.2,9.8c1.1,0.5,2.2,0.7,3.4,0.7c0.9,0,1.9-0.2,2.7-0.5c2-0.7,3.6-2.2,4.5-4.1l13.5-29c1.9-4,0.1-8.8-3.9-10.6l0,0L298,205.2
	l6.9-14.7c1-0.5,1.9-1.2,2.8-1.8c4.6,17.4,20.4,29.4,38.4,29.3h144v-16H346c-6.8,0-13.2-2.9-17.8-7.9c-4.6-5-6.8-11.8-6.1-18.5
	c1.7-12.6,12.6-21.9,25.3-21.6H378c22.1,0,40-17.9,40-40s-17.9-40-40-40h-80c-2.7,0-5.2,1.3-6.7,3.6l-31.5,47.3
	c-0.2,0.3-0.4,0.5-0.6,0.8c-1.3,1.2-2.5,2.5-3.7,3.9c-7.6,6.6-18.6,7.8-27.4,2.8c-11.4-6.6-15.4-21.1-8.8-32.6
	c0.3-0.6,0.7-1.2,1.1-1.7L263,36.3z M69.4,203.2c10-1.7,20,3.2,24.9,12.1l-30.6,5l-14.1,2.3C51.4,212.7,59.3,204.9,69.4,203.2z
	 M34,241.5l40.5-6.7l31.6-5.2l0,0l8.9-1.5L97.4,267c-0.7,1.4-0.9,3-0.6,4.6l1.3,7.9l-20.3,3.3l-11.3,1.8l-1.3-7.9
	c-0.3-1.6-1-3-2-4.2L34,241.5z M130.6,428.3c17.4-2.8,33.9,9,36.8,26.4L56.9,472.8c-2.9-17.5,9-33.9,26.4-36.8l23.7-3.9L130.6,428.3
	z M73.7,332.2l29.9-4.9l2.8-0.5l20.9,85.7l-46.1,7.6L73.7,332.2z M125.9,328l-1.8,3.8l-1.8-7.5l6.1-1
	C127.5,324.8,126.7,326.3,125.9,328z M40.2,321.6l-2.6-15.8l94.7-15.6l2.6,15.8L40.2,321.6z M241.9,382.1l-101.5-47.4
	c7.5-16,26.5-22.9,42.5-15.5l0,0l43.5,20.3C242.4,347,249.4,366,241.9,382.1L241.9,382.1L241.9,382.1z M232.6,324.8l-21.2-9.9
	l-21.2-9.9l43.3-76.9l30.1,14L232.6,324.8z M305.7,226.5l-6.8,14.5l-21.7-10.2l0,0l-43.5-20.3l0,0L212,200.4l6.8-14.5L305.7,226.5z
	 M302.3,90H378c13.3,0,24,10.7,24,24c0,13.3-10.7,24-24,24h-30.6c-8.2,0-16.3,2.5-23.1,7c-2.3-8.6-7.4-16.2-14.5-21.6l7-15.4
	l-14.5-6.8l-7,15.4c-3.3-0.8-6.6-1.1-10-1.1L302.3,90z M262.5,167.6c0.8-1.8,1-3.7,0.4-5.6c-1.7-5.6-1.3-11.5,1.2-16.8
	c0.7-1.5,1.5-2.9,2.5-4.2c1.3-1.2,2.6-2.5,3.7-3.9c10.1-8.6,25.2-7.4,33.8,2.6c6.1,7.1,7.5,17.2,3.5,25.7
	c-2.5,5.3-6.8,9.4-12.1,11.7c-1.8,0.8-3.2,2.2-4,3.9l-8,17.2l-29-13.5L262.5,167.6z"/>
<rect x="152.1" y="162" transform="matrix(0.4472 -0.8944 0.8944 0.4472 -58.0869 246.0173)" class="st0" width="35.8" height="16"/>
<rect x="122" y="152.1" transform="matrix(0.8944 -0.4472 0.4472 0.8944 -62.3046 76.0849)" class="st0" width="16" height="35.8"/>
<path class="st0" d="M261.6,419.3l8.9,13.3c17.2-11.5,27.6-30.8,27.6-51.5V378h-16v3.2C282,396.5,274.3,410.9,261.6,419.3z"/>
</svg>
