<?xml version="1.0" encoding="utf-8"?>
<!-- Generator: Adobe Illustrator 22.1.0, SVG Export Plug-In . SVG Version: 6.00 Build 0)  -->
<svg version="1.1" id="Capa_1" xmlns="http://www.w3.org/2000/svg" xmlns:xlink="http://www.w3.org/1999/xlink" x="0px" y="0px"
	 viewBox="0 0 500 500" style="enable-background:new 0 0 500 500;" xml:space="preserve">
<g>
	<path d="M389.6,184l-14.3-14.3c-1.9-1.9-4.1-2.9-6.6-2.9c-2.5,0-4.7,0.9-6.6,2.9L250,282L137.8,169.8c-1.9-1.9-4.1-2.9-6.6-2.9
		c-2.5,0-4.7,1-6.6,2.9l-14.3,14.3c-1.9,1.9-2.9,4.1-2.9,6.6c0,2.5,1,4.7,2.9,6.6l133,133c1.9,1.9,4.1,2.9,6.6,2.9s4.7-1,6.6-2.9
		l133.1-133c1.9-1.9,2.8-4.1,2.8-6.6C392.5,188.1,391.5,186,389.6,184z"/>
</g>
</svg>
