<?xml version="1.0" encoding="utf-8"?>
<!-- Generator: Adobe Illustrator 22.1.0, SVG Export Plug-In . SVG Version: 6.00 Build 0)  -->
<svg version="1.1" id="Capa_1" xmlns="http://www.w3.org/2000/svg" xmlns:xlink="http://www.w3.org/1999/xlink" x="0px" y="0px"
	 viewBox="0 0 500 500" style="enable-background:new 0 0 500 500;" xml:space="preserve">
<style type="text/css">
	.st0{fill:#FFFFFF;}
</style>
<path class="st0" d="M286.4,178.7c2.5-5.2,3.7-10.9,3.7-16.7c0-22.1-17.9-40-40-40s-40,17.9-40,40c0,5.8,1.3,11.5,3.7,16.7
	c-25.2,4.2-43.7,26-43.7,51.6V306c0,4.4,3.6,8,8,8h24v104c0,4.4,3.6,8,8,8h80c4.4,0,8-3.6,8-8V314h24c4.4,0,8-3.6,8-8v-75.7
	C330,204.7,311.5,182.9,286.4,178.7z M314,298h-16v-80h-16v192h-24V298h-16v112h-24V218h-16v80h-16v-67.7c0-20,16.2-36.2,36.3-36.3
	h6.8c4.4,0,8-3.6,8-8c0-2.3-1-4.5-2.7-6c-5.3-4.5-8.3-11.1-8.3-18c0-13.3,10.7-24,24-24c13.3,0,24,10.7,24,24c0,6.9-3,13.5-8.3,18
	c-3.3,2.9-3.7,8-0.8,11.3c1.5,1.7,3.7,2.7,6,2.7h6.8c20,0,36.2,16.2,36.3,36.3V298H314z"/>
<path class="st0" d="M250,10c-50.5-0.1-99.8,15.8-140.7,45.5l9.4,13C219-4,359.1,18.6,431.6,118.9c45.3,62.7,55.1,144.4,25.8,216.1
	l14.8,6.1c50.2-122.8-8.6-263-131.4-313.2C312,16.1,281.1,10,250,10z"/>
<path class="st0" d="M250,490c40.5,0,80.4-10.2,115.9-29.8l-7.7-14c-108.5,59.6-244.8,20-304.4-88.4c-27.9-50.8-35.1-110.4-20-166.3
	l-15.4-4.2c-34.5,128.1,41.3,259.9,169.4,294.4C208,487.2,229,490,250,490z"/>
<path class="st0" d="M250,90c-88.4,0-160,71.7-160,160c0,62.3,36.1,118.9,92.6,145.1l6.7-14.5c-72.1-33.5-103.5-119.1-70-191.2
	s119.1-103.5,191.2-70s103.5,119.1,70,191.2c-14.3,30.9-39.1,55.7-70,70l6.7,14.5c80.2-37.2,115-132.4,77.7-212.5
	C368.9,126.1,312.3,90,250,90z"/>
<path class="st0" d="M448.9,347.7c-2.8-9.2-10.2-16.4-19.5-18.8c-8.6-2.3-17.7-0.4-24.7,5c-9.1,7-12.9,19.1-9.2,30
	c-10.2,2.8-17.3,12.1-17.4,22.6v46.7c0,4.4,3.6,8,8,8h8V482c0,4.4,3.6,8,8,8h40c4.4,0,8-3.6,8-8v-40.7h8c4.4,0,8-3.6,8-8v-46.7
	c-0.1-10.6-7.2-19.8-17.4-22.7C450.3,358.7,450.4,353,448.9,347.7z M450,386.6v38.7h-8c-4.4,0-8,3.6-8,8V474h-24v-40.7
	c0-4.4-3.6-8-8-8h-8v-38.7c0.1-4.3,3.7-7.7,8-7.6h8.1c4.4,0,8-3.6,8-8c0-2.6-1.2-5-3.3-6.5c-5-3.5-6.3-10.3-2.9-15.4
	c0.7-1,1.5-1.9,2.5-2.6c3.1-2.4,7.2-3.2,11-2.1c3.8,1,6.9,3.9,8.1,7.7c1.4,4.6-0.3,9.7-4.3,12.4c-3.6,2.6-4.4,7.6-1.8,11.2
	c1.5,2.1,3.9,3.3,6.5,3.3h8.1C446.3,378.9,449.9,382.3,450,386.6z"/>
<path class="st0" d="M18,122h8v48c0,4.4,3.6,8,8,8h40c4.4,0,8-3.6,8-8v-48h8c4.4,0,8-3.6,8-8V68.6C97.9,58,90.8,48.8,80.6,45.9
	c1.7-5.3,1.8-10.9,0.3-16.2c-2.8-9.2-10.2-16.4-19.5-18.8c-8.6-2.3-17.7-0.4-24.7,5c-9.1,7-12.9,19.1-9.2,30
	C17.3,48.7,10.2,58,10.1,68.5V114C10,118.4,13.6,122,18,122z M26,68.6c0.1-4.3,3.7-7.7,8-7.6h8.1c4.4,0,8-3.6,8-8
	c0-2.6-1.2-5-3.3-6.5c-5-3.5-6.3-10.3-2.9-15.4c0.7-1,1.5-1.9,2.5-2.6c3.1-2.4,7.2-3.2,11-2.1c3.8,1,6.9,3.9,8.1,7.7
	c1.4,4.6-0.3,9.7-4.3,12.4c-3.6,2.6-4.4,7.6-1.8,11.2c1.5,2.1,3.9,3.3,6.5,3.3H74c4.3-0.1,7.9,3.3,8,7.6V106h-8c-4.4,0-8,3.6-8,8v48
	H42v-48c0-4.4-3.6-8-8-8h-8V68.6z"/>
</svg>
