<?xml version="1.0" encoding="iso-8859-1"?>
<!-- Generator: Adobe Illustrator 19.0.0, SVG Export Plug-In . SVG Version: 6.00 Build 0)  -->
<svg version="1.1" id="Capa_1" xmlns="http://www.w3.org/2000/svg" xmlns:xlink="http://www.w3.org/1999/xlink" x="0px" y="0px"
	 viewBox="0 0 496 496" style="enable-background:new 0 0 496 496;" xml:space="preserve">
<g>
	<g>
		<g>
			<path d="M472,256v-58.52c0-25.744-17.44-48.08-42.416-54.328l-11.952-2.992C431.544,126.904,440,108.256,440,88V72
				c0-39.696-32.304-72-72-72s-72,32.304-72,72v16c0,20.256,8.456,38.904,22.376,52.16l-11.952,2.992
				C281.44,149.392,264,171.736,264,197.48V256h-32v-58.52c0-25.744-17.44-48.08-42.416-54.328l-11.952-2.992
				C191.544,126.904,200,108.256,200,88V72c0-39.696-32.304-72-72-72S56,32.304,56,72v16c0,20.256,8.456,38.904,22.376,52.16
				l-11.952,2.992C41.44,149.392,24,171.736,24,197.48V256c-13.232,0-24,10.768-24,24v16c0,13.232,10.768,24,24,24v176h448V320
				c13.232,0,24-10.768,24-24v-16C496,266.768,485.232,256,472,256z M425.696,158.672C443.536,163.136,456,179.088,456,197.48V256
				h-17.064l-7.016-49.136l-15.832,2.264L422.776,256H408v-8c0-13.232-10.768-24-24-24h-8v-41.472c9.288-3.312,16-12.112,16-22.528
				v-4.104c2.864-1.008,5.616-2.24,8.288-3.576L425.696,158.672z M384,240c4.408,0,8,3.592,8,8v8h-48v-8c0-4.408,3.592-8,8-8H384z
				 M360,160v-16c0-4.408,3.592-8,8-8c4.408,0,8,3.592,8,8v16c0,4.408-3.592,8-8,8C363.592,168,360,164.408,360,160z M312,88V72
				c0-30.88,25.12-56,56-56s56,25.12,56,56v16c0,22.176-13.016,41.856-32.584,50.848C389.048,128.088,379.464,120,368,120
				s-21.048,8.088-23.416,18.848C325.016,129.856,312,110.168,312,88z M280,197.48c0-18.384,12.464-34.344,30.304-38.808
				l25.416-6.352c2.672,1.344,5.416,2.568,8.288,3.584V160c0,10.416,6.712,19.216,16,22.528V224h-8c-13.232,0-24,10.768-24,24v8
				h-14.776l6.696-46.864l-15.832-2.264L297.064,256H280V197.48z M185.696,158.672C203.536,163.136,216,179.088,216,197.48V256
				h-17.064l-7.016-49.136l-15.832,2.264L182.776,256H168v-8c0-13.232-10.768-24-24-24h-8v-41.472c9.288-3.312,16-12.112,16-22.528
				v-4.104c2.864-1.008,5.616-2.24,8.288-3.576L185.696,158.672z M144,240c4.408,0,8,3.592,8,8v8h-48v-8c0-4.408,3.592-8,8-8H144z
				 M120,160v-16c0-4.408,3.592-8,8-8s8,3.592,8,8v16c0,4.408-3.592,8-8,8S120,164.408,120,160z M72,88V72c0-30.88,25.12-56,56-56
				s56,25.12,56,56v16c0,22.176-13.016,41.856-32.584,50.848C149.048,128.088,139.464,120,128,120s-21.048,8.088-23.416,18.848
				C85.016,129.856,72,110.168,72,88z M40,197.48c0-18.384,12.464-34.344,30.304-38.808l25.416-6.352
				c2.672,1.344,5.416,2.568,8.288,3.584V160c0,10.416,6.712,19.216,16,22.528V224h-8c-13.232,0-24,10.768-24,24v8H73.232
				l6.696-46.864l-15.848-2.272L57.064,256H40V197.48z M480,296c0,4.416-3.592,8-8,8h-32v16h16v160H40V320h384v-16H24
				c-4.408,0-8-3.584-8-8v-16c0-4.416,3.592-8,8-8h448c4.408,0,8,3.584,8,8V296z"/>
			<path d="M72,448h352v-96H72V448z M88,368h320v64H88V368z"/>
		</g>
	</g>
</g>
<g>
</g>
<g>
</g>
<g>
</g>
<g>
</g>
<g>
</g>
<g>
</g>
<g>
</g>
<g>
</g>
<g>
</g>
<g>
</g>
<g>
</g>
<g>
</g>
<g>
</g>
<g>
</g>
<g>
</g>
</svg>
