<?xml version="1.0" encoding="utf-8"?>
<!-- Generator: Adobe Illustrator 22.1.0, SVG Export Plug-In . SVG Version: 6.00 Build 0)  -->
<svg version="1.1" id="Слой_1" xmlns="http://www.w3.org/2000/svg" xmlns:xlink="http://www.w3.org/1999/xlink" x="0px" y="0px"
	 viewBox="0 0 500 500" style="enable-background:new 0 0 500 500;" xml:space="preserve">
<path d="M275.7,439h-60.9c-10.2,0-18.4-8.3-18.4-18.4V283.3h-35.5c-10.2,0-18.4-8.3-18.4-18.4v-58.8c0-10.2,8.3-18.4,18.4-18.4h35.5
	v-29.5c0-29.2,9.2-54,26.5-71.8C240.3,68.4,264.7,59,293.3,59l46.4,0.1c10.1,0,18.4,8.3,18.4,18.4v54.6c0,10.2-8.3,18.4-18.4,18.4
	l-31.2,0c-9.5,0-12,1.9-12.5,2.5c-0.9,1-1.9,3.7-1.9,11.3v23.3h43.2c3.3,0,6.4,0.8,9.1,2.3c5.8,3.3,9.5,9.4,9.5,16.1l0,58.8
	c0,10.2-8.3,18.4-18.4,18.4h-43.4v137.3C294.1,430.7,285.8,439,275.7,439z M218.7,416.7h53.2V273.3c0-6.8,5.5-12.3,12.3-12.3h49.5
	l0-51.1h-49.5c-6.8,0-12.3-5.5-12.3-12.3v-33.2c0-8.7,0.9-18.6,7.5-26c7.9-9,20.4-10,29.2-10l27.4,0V81.3l-42.6-0.1
	c-46,0-74.6,29.5-74.6,76.9v39.4c0,6.8-5.5,12.3-12.3,12.3h-41.6V261h41.6c6.8,0,12.3,5.5,12.3,12.3V416.7z M339.7,81.4L339.7,81.4
	L339.7,81.4z"/>
</svg>
