<?xml version="1.0" encoding="utf-8"?>
<!-- Generator: Adobe Illustrator 22.1.0, SVG Export Plug-In . SVG Version: 6.00 Build 0)  -->
<svg version="1.1" id="Layer_1" xmlns="http://www.w3.org/2000/svg" xmlns:xlink="http://www.w3.org/1999/xlink" x="0px" y="0px"
	 viewBox="0 0 500 500" style="enable-background:new 0 0 500 500;" xml:space="preserve">
<style type="text/css">
	.st0{fill:#FC8A5C;}
</style>
<path class="st0" d="M455.6,214.7l-199.1-131c-3.9-2.5-9-2.5-12.9,0l-199.2,131c-4.8,3.2-5.9,9.4-2.4,13.7
	c3.5,4.3,10.4,5.3,15.3,2.1L250,103.7l192.6,126.7c2,1.3,4.2,1.9,6.4,1.9c3.4,0,6.6-1.4,8.8-4C461.5,224,460.4,217.9,455.6,214.7z"
	/>
<path class="st0" d="M402.7,232.7c-6,0-10.9,4.4-10.9,9.8v156.1h-87.3v-85.2c0-27.1-24.4-49-54.6-49s-54.6,22-54.6,49v85.2h-87.3
	V242.5c0-5.4-4.9-9.8-10.9-9.8s-10.9,4.4-10.9,9.8v166c0,5.4,4.9,9.8,10.9,9.8h109.1c5.7,0,10.4-4,10.9-9.1c0-0.2,0.1-0.5,0.1-0.7
	v-95c0-16.2,14.7-29.4,32.7-29.4s32.7,13.2,32.7,29.4v95c0,0.3,0,0.5,0.1,0.7c0.4,5.1,5.2,9.1,10.9,9.1h109.1c6,0,10.9-4.4,10.9-9.8
	v-166C413.7,237.1,408.8,232.7,402.7,232.7z"/>
</svg>
