<?xml version="1.0" encoding="utf-8"?>
<!-- Generator: Adobe Illustrator 22.1.0, SVG Export Plug-In . SVG Version: 6.00 Build 0)  -->
<svg version="1.1" id="Capa_1" xmlns="http://www.w3.org/2000/svg" xmlns:xlink="http://www.w3.org/1999/xlink" x="0px" y="0px"
	 viewBox="0 0 500 500" style="enable-background:new 0 0 500 500;" xml:space="preserve">
<style type="text/css">
	.st0{fill:#FFFFFF;}
</style>
<path class="st0" d="M306.3,187.3H317V182c0-8.9-7.1-16-16-16s-16,7.1-16,16v5.3h10.7V182c0-2.9,2.4-5.3,5.3-5.3s5.3,2.4,5.3,5.3
	V187.3z"/>
<path class="st0" d="M349.7,182c0-2.9,2.4-5.3,5.3-5.3s5.3,2.4,5.3,5.3v5.3H371V182c0-8.9-7.1-16-16-16s-16.7,7.1-16.7,16l0.7,5.3
	h10.7V182z"/>
<path class="st0" d="M327.7,230c11.8,0,21.3-9.5,21.3-21.3v-5.3h-10.7v5.3c0,5.9-4.8,10.7-10.7,10.7c-5.9,0-10.7-4.8-10.7-10.7v-5.3
	h-10.7v5.3C306.3,220.5,315.9,230,327.7,230z"/>
<path class="st0" d="M385.7,261.8h-29.5v-6.5c21.4-9.7,36.4-29.4,40.3-52.5h6.9c9.8,0,17.7-7.9,17.7-17.7s-7.9-17.7-17.7-17.7l0,0
	h-5.9V73H309c-29.3,0-53.1,23.8-53.1,53.1v41.3H250c-9.8,0-17.7,7.9-17.7,17.7s7.9,17.7,17.7,17.7h6.9c3.8,23.2,19,42.8,40.3,52.5
	v6.5h-29.5c-22.8,0-41.3,18.5-41.3,41.3v5.9H191v-5.9c0-9.8-7.9-17.7-17.7-17.7h-23.6c-9.8,0-17.7,7.9-17.7,17.7v5.9H78.9
	c-3.2,0-5.9,2.7-5.9,5.9v106.2c0,3.2,2.7,5.9,5.9,5.9h342.2c3.2,0,5.9-2.7,5.9-5.9v-118C427,280.3,408.5,261.8,385.7,261.8z
	 M349.6,305.9l-1.1-1.1L335,291.3l17.7-17.7h21.2L349.6,305.9z M325.8,326.7h1.8l10.5,63.4l-11.4,15.3l-11.4-15.3L325.8,326.7z
	 M330.2,314.9h-6.9l-5.9-5.9l9.4-9.4l9.4,9.4L330.2,314.9z M326.7,283l-9.4-9.4H336L326.7,283z M403.4,179.2c3.2,0,5.9,2.7,5.9,5.9
	s-2.7,5.9-5.9,5.9h-5.9v-11.8L403.4,179.2L403.4,179.2z M267.7,126.1c0-22.8,18.5-41.3,41.3-41.3h76.7v35.4h-53.1v5.9
	c0,9.8-7.9,17.7-17.7,17.7h-47.2L267.7,126.1L267.7,126.1z M250,191c-3.2,0-5.9-2.7-5.9-5.9s2.7-5.9,5.9-5.9h5.9V191H250z
	 M267.7,191v-35.4h47.2c14,0,26.1-9.9,28.9-23.6h41.9v59c0.1,24.3-14.8,46.2-37.5,54.9c-2.3,0.9-3.8,3.1-3.8,5.5v10.4H309v-10.4
	c0-2.4-1.5-4.6-3.8-5.5C282.5,237.2,267.6,215.3,267.7,191z M300.7,273.6l17.7,17.7l-13.5,13.5l-1.1,1.1l-24.3-32.3L300.7,273.6
	L300.7,273.6z M238.2,303.1c0.1-15.2,11.7-27.8,26.8-29.2l33.4,44.5c1,1.4,2.6,2.2,4.3,2.4h0.4c1.5,0,3.1-0.6,4.2-1.7l1.7-1.7
	l5.5,5.5l-11.3,67.8c-0.3,1.6,0.1,3.2,1.1,4.5l15,20.1H250V314.9c0-3.2-2.7-5.9-5.9-5.9h-5.9L238.2,303.1L238.2,303.1z M143.8,303.1
	c0-3.2,2.7-5.9,5.9-5.9h23.6c3.2,0,5.9,2.7,5.9,5.9v5.9h-35.4L143.8,303.1L143.8,303.1z M238.2,320.8v41.3H84.8v-41.3H238.2z
	 M155.6,373.9h11.8v11.8h-11.8V373.9z M84.8,415.2v-41.3h59v17.7c0,3.2,2.7,5.9,5.9,5.9h23.6c3.2,0,5.9-2.7,5.9-5.9v-17.7h59v41.3
	H84.8z M415.2,415.2h-81.1l15-20.1c1-1.3,1.3-2.9,1.1-4.5l-11.3-67.8l5.5-5.5l1.7,1.7c1.1,1.1,2.6,1.7,4.2,1.7h0.4
	c1.7-0.1,3.2-1,4.3-2.4l33.4-44.5c15.1,1.4,26.7,14,26.8,29.2V415.2L415.2,415.2z"/>
</svg>
