<?xml version="1.0" encoding="utf-8"?>
<!-- Generator: Adobe Illustrator 22.1.0, SVG Export Plug-In . SVG Version: 6.00 Build 0)  -->
<svg version="1.1" id="Слой_1" xmlns="http://www.w3.org/2000/svg" xmlns:xlink="http://www.w3.org/1999/xlink" x="0px" y="0px"
	 viewBox="0 0 500 500" style="enable-background:new 0 0 500 500;" xml:space="preserve">
<style type="text/css">
	.st0{fill:#FFFFFF;}
</style>
<g>
	<path class="st0" d="M128.1,85.9h243.9c23.2,0,42.1,17.3,42.1,42.1v243.9c0,24.8-19,42.1-42.1,42.1H128.1
		c-23.2,0-42.1-17.3-42.1-42.1V128.1C85.9,103.2,104.9,85.9,128.1,85.9L128.1,85.9z M325.2,122.6c-8,0-14.7,6.7-14.7,14.7v35.4
		c0,8,6.7,14.7,14.7,14.7h37.1c8,0,14.7-6.7,14.7-14.7v-35.4c0-8-6.7-14.7-14.7-14.7C362.2,122.6,325.2,122.6,325.2,122.6z
		 M377,224.5h-29.1c2.5,8.8,4.2,18.5,4.2,28.2c0,54.8-45.5,99-101.9,99s-101.9-44.2-101.9-99c0-9.7,1.7-19.4,4.2-28.2h-29.9v138.6
		c0,7.2,5.9,13.1,13.1,13.1h228.3c7.2,0,13.1-5.9,13.1-13.1V224.5z M250.2,185.3c-36.2,0-65.7,28.6-65.7,64s29.5,64,65.7,64
		s65.7-28.6,65.7-64S286.9,185.3,250.2,185.3L250.2,185.3z"/>
</g>
</svg>
