<?xml version="1.0" encoding="utf-8"?>
<!-- Generator: Adobe Illustrator 22.1.0, SVG Export Plug-In . SVG Version: 6.00 Build 0)  -->
<svg version="1.1" id="Capa_1" xmlns="http://www.w3.org/2000/svg" xmlns:xlink="http://www.w3.org/1999/xlink" x="0px" y="0px"
	 viewBox="0 0 629.9 636" style="enable-background:new 0 0 629.9 636;" xml:space="preserve">
<style type="text/css">
	.st0{fill:#FFFFFF;}
</style>
<path class="st0" d="M558.4,179.9h-26.9v-16.7c0-5.5-4.5-10-10-10H408.2c-15.3-36.6-51.3-62.3-93.3-62.3s-78,25.7-93.3,62.3H108.3
	c-5.5,0-10,4.5-10,10v16.7H71.4c-5.5,0-10,4.5-10,10V544c0,5.5,4.5,10,10,10h487.1c5.5,0,10-4.5,10-10V189.9
	C568.4,184.3,564,179.9,558.4,179.9z M118.3,454.4h150.4c13.7,0,26.4,4.9,36.3,14v14.4H118.3V454.4z M324.9,468.4
	c9.9-9.1,22.6-14,36.3-14h150.4v28.4H324.9V468.4z M314.9,110.9c44.6,0,81,36.3,81,81c0,34.2-21.4,64.9-53.3,76.4
	c-4,1.4-6.6,5.2-6.6,9.4v11.8h-42.1v-11.8c0-4.2-2.6-8-6.6-9.4c-31.9-11.6-53.4-42.3-53.4-76.4C233.9,147.2,270.3,110.9,314.9,110.9
	z M293.9,333v-23.5h42V333H293.9z M118.3,173.2h97.4c-1.1,6.1-1.7,12.3-1.7,18.7c0,40.2,23.8,76.5,59.9,92.5V343c0,5.5,4.5,10,10,10
	h21v56.6c0,5.5,4.5,10,10,10s10-4.5,10-10V353h21c5.5,0,10-4.5,10-10v-58.6c36.1-16,59.9-52.4,59.9-92.5c0-6.4-0.6-12.6-1.7-18.7
	h97.4v261.3H361.2c-16.9,0-33.3,5.8-46.3,16.3c-13-10.4-29.4-16.3-46.3-16.3H118.3V173.2z M81.4,199.9h16.9v292.9
	c0,5.5,4.5,10,10,10h196.6V534H81.4V199.9z M548.4,534H324.9v-31.2h196.6c5.5,0,10-4.5,10-10V199.9h16.9V534z"/>
<path class="st0" d="M314.9,102.1c-5.5,0-10-4.5-10-10V72c0-5.5,4.5-10,10-10s10,4.5,10,10v20.1C324.9,97.6,320.4,102.1,314.9,102.1
	z"/>
<path class="st0" d="M230.1,137.2c-2.6,0-5.1-1-7.1-2.9l-14.1-14.2c-3.9-3.9-3.9-10.2,0-14.1c3.9-3.9,10.2-3.9,14.1,0l14.2,14.2
	c3.9,3.9,3.9,10.2,0,14.1C235.2,136.2,232.7,137.2,230.1,137.2z"/>
<path class="st0" d="M399.7,137.2c-2.6,0-5.1-1-7.1-2.9c-3.9-3.9-3.9-10.2,0-14.1l14.2-14.2c3.9-3.9,10.2-3.9,14.1,0
	s3.9,10.2,0,14.1l-14.2,14.2C404.8,136.2,402.2,137.2,399.7,137.2z"/>
<path class="st0" d="M266.9,414.4H139.4c-5.5,0-10-4.5-10-10s4.5-10,10-10h127.5c5.5,0,10,4.5,10,10S272.4,414.4,266.9,414.4z"/>
<path class="st0" d="M482,414.4H354.5c-5.5,0-10-4.5-10-10s4.5-10,10-10H482c5.5,0,10,4.5,10,10S487.5,414.4,482,414.4z"/>
<path class="st0" d="M314.9,277.3c-2.6,0-5.2-1.1-7.1-2.9c-1.9-1.8-2.9-4.4-2.9-7.1c0-0.7,0.1-1.3,0.2-2c0.1-0.6,0.3-1.3,0.6-1.9
	c0.3-0.6,0.6-1.2,0.9-1.7c0.4-0.6,0.8-1.1,1.2-1.5c2.3-2.3,5.8-3.4,9-2.7c0.6,0.1,1.3,0.3,1.9,0.6c0.6,0.3,1.2,0.6,1.7,0.9
	c0.5,0.4,1.1,0.8,1.5,1.3s0.9,1,1.2,1.5c0.4,0.5,0.7,1.1,0.9,1.7c0.3,0.6,0.5,1.2,0.6,1.9c0.1,0.7,0.2,1.3,0.2,2
	c0,0.6-0.1,1.3-0.2,2c-0.1,0.6-0.3,1.3-0.6,1.9c-0.3,0.6-0.6,1.2-0.9,1.7c-0.4,0.5-0.8,1.1-1.2,1.5c-0.5,0.5-1,0.9-1.5,1.2
	c-0.5,0.4-1.1,0.7-1.7,0.9c-0.6,0.3-1.2,0.4-1.9,0.6C316.2,277.3,315.5,277.3,314.9,277.3z"/>
<path class="st0" d="M314.9,243.6c-5.5,0-10-4.5-10-10v-75.3c0-5.5,4.5-10,10-10s10,4.5,10,10v75.3
	C324.9,239.1,320.4,243.6,314.9,243.6z"/>
</svg>
