<?xml version="1.0" encoding="utf-8"?>
<!-- Generator: Adobe Illustrator 22.1.0, SVG Export Plug-In . SVG Version: 6.00 Build 0)  -->
<svg version="1.1" id="Слой_1" xmlns="http://www.w3.org/2000/svg" xmlns:xlink="http://www.w3.org/1999/xlink" x="0px" y="0px"
	 viewBox="0 0 500 500" style="enable-background:new 0 0 500 500;" xml:space="preserve">
<style type="text/css">
	.st0{fill:#FC8A5C;}
</style>
<path class="st0" d="M139.5,389.2h221.2c30.6,0,55.8-24.8,55.8-55.8V166.6c-0.4-31-25.1-55.8-56.1-55.8H139.5
	c-31,0-55.8,24.8-55.8,55.8v166.9C83.7,364.4,108.5,389.2,139.5,389.2z M105.6,166.6c0-18.6,15.3-33.9,33.9-33.9h221.2
	c18.6,0,33.9,15.3,33.9,33.9v166.9c0,18.6-15.3,33.9-33.9,33.9H139.5c-18.6,0-33.9-15.3-33.9-33.9V166.6z M140.9,316.7l71.4-71.4
	L141.6,184c-4.4-4-4.7-10.9-0.7-15.3c4-4.4,10.6-4.7,14.9-1.1l94,81.6l94-81.6c4.4-4,11.3-3.6,15.3,0.7c4,4.4,3.6,11.3-0.7,15.3
	l-0.4,0.4l-70.3,61.2l71.4,71.4c4.4,4,4.7,10.9,0.4,15.3s-10.9,4.7-15.3,0.4c-0.4,0-0.4-0.4-0.4-0.4L271,259.5l-13.8,12.4
	c-4,3.6-10.6,3.6-14.6,0l-13.8-12L156.2,332c-4.4,4-11.3,4-15.3-0.4C136.9,327.3,136.9,320.7,140.9,316.7z"/>
</svg>
