<?xml version="1.0" encoding="utf-8"?>
<!-- Generator: Adobe Illustrator 22.1.0, SVG Export Plug-In . SVG Version: 6.00 Build 0)  -->
<svg version="1.1" id="Capa_1" xmlns="http://www.w3.org/2000/svg" xmlns:xlink="http://www.w3.org/1999/xlink" x="0px" y="0px"
	 viewBox="0 0 500 500" style="enable-background:new 0 0 500 500;" xml:space="preserve">
<style type="text/css">
	.st0{fill:#FFFFFF;}
</style>
<path class="st0" d="M206,257v8.5c-7.1,1.8-12,8.2-12,15.5c0,6.5,4.1,12.3,10.3,14.4l8.8,2.9c2.9,1,4.8,3.7,4.8,6.8c0,4.4-3.6,8-8,8
	s-8-3.6-8-8h-8c0.1,7.3,4.9,13.6,12,15.5v8.5h8v-8.5c7.1-1.8,11.9-8.2,12-15.5c0-6.5-4.2-12.3-10.3-14.4l-8.8-2.9
	c-2.9-1-4.8-3.7-4.8-6.8c0-4.4,3.6-8,8-8c4.4,0,8,3.6,8,8h8c-0.1-7.3-5-13.6-12-15.5V257H206z"/>
<path class="st0" d="M400.8,208.4H295.7c-11-13.5-24.8-24.5-40.5-32.2v-22.4l18.7-14c1.3-1,2.1-2.5,2.1-4.2V99.2
	c0-2.9-2.3-5.2-5.2-5.2H250c-1.4,0-2.7,0.5-3.7,1.5l-6.7,6.8l-6.7-6.7c-1-1-2.3-1.5-3.7-1.5H198c-1.4,0-2.7,0.5-3.7,1.5l-6.7,6.7
	l-6.7-6.7c-1-1-2.3-1.5-3.7-1.5h-20.8c-2.9,0-5.2,2.3-5.2,5.2v36.4c0,1.6,0.8,3.2,2.1,4.2l18.7,14v22.5c-39.4,19-78,70.2-78,135.9
	c0,59.7,43.6,93.9,119.6,93.9c12.3,0.1,24.6-1,36.8-3.3c0.8,1.9,2.7,3.3,4.8,3.3h145.6c2.9,0,5.2-2.3,5.2-5.2V213.6
	C406,210.7,403.7,208.4,400.8,208.4z M395.6,250H260.4v-31.2h135.2L395.6,250L395.6,250z M250,335.7c-24.3,20.1-60.4,16.8-80.5-7.6
	c-20.1-24.3-16.8-60.4,7.6-80.5c21.2-17.6,51.8-17.6,72.9,0V335.7z M182.4,172v-15.6h62.4V172H182.4z M161.6,104.4h13.5l8.9,8.9
	c2,2,5.3,2,7.3,0l8.9-8.9h26.9l8.9,8.9c2,2,5.3,2,7.3,0l8.9-8.9h13.3V133l-17.4,13H179l-17.4-13V104.4z M104.4,312.1
	c0-49.8,29.8-111.7,79.8-129.7h59c14.7,5.6,27.9,14.5,38.7,26h-26.6c-2.9,0-5.2,2.3-5.2,5.2v21.1c-31.4-20.1-73.3-11-93.4,20.4
	s-11.1,73.3,20.4,93.4c22.2,14.2,50.8,14.2,73,0v43.7c-12,2.3-24.2,3.4-36.4,3.4C180.8,395.6,104.4,387.5,104.4,312.1z M260.4,395.6
	V260.4h135.2v135.2L260.4,395.6L260.4,395.6z"/>
<path class="st0" d="M310,303.6h-12.8c-1.8,0-3.2,1.4-3.2,3.2v12.8c0,1.8,1.4,3.2,3.2,3.2H310c1.8,0,3.2-1.4,3.2-3.2v-12.8
	C313.2,305,311.8,303.6,310,303.6z M306.8,316.4h-6.4V310h6.4V316.4z"/>
<path class="st0" d="M335.6,303.6h-12.8c-1.8,0-3.2,1.4-3.2,3.2v12.8c0,1.8,1.4,3.2,3.2,3.2h12.8c1.8,0,3.2-1.4,3.2-3.2v-12.8
	C338.8,305,337.4,303.6,335.6,303.6z M332.4,316.4H326V310h6.4V316.4z"/>
<path class="st0" d="M361.2,303.6h-12.8c-1.8,0-3.2,1.4-3.2,3.2v12.8c0,1.8,1.4,3.2,3.2,3.2h12.8c1.8,0,3.2-1.4,3.2-3.2v-12.8
	C364.4,305,363,303.6,361.2,303.6z M358,316.4h-6.4V310h6.4V316.4z"/>
<path class="st0" d="M310,329.2h-12.8c-1.8,0-3.2,1.4-3.2,3.2v12.8c0,1.8,1.4,3.2,3.2,3.2H310c1.8,0,3.2-1.4,3.2-3.2v-12.8
	C313.2,330.6,311.8,329.2,310,329.2z M306.8,342h-6.4v-6.4h6.4V342z"/>
<path class="st0" d="M335.6,329.2h-12.8c-1.8,0-3.2,1.4-3.2,3.2v12.8c0,1.8,1.4,3.2,3.2,3.2h12.8c1.8,0,3.2-1.4,3.2-3.2v-12.8
	C338.8,330.6,337.4,329.2,335.6,329.2z M332.4,342H326v-6.4h6.4V342z"/>
<path class="st0" d="M310,354.8h-12.8c-1.8,0-3.2,1.4-3.2,3.2v12.8c0,1.8,1.4,3.2,3.2,3.2H310c1.8,0,3.2-1.4,3.2-3.2V358
	C313.2,356.2,311.8,354.8,310,354.8z M306.8,367.6h-6.4v-6.4h6.4V367.6z"/>
<path class="st0" d="M335.6,354.8h-12.8c-1.8,0-3.2,1.4-3.2,3.2v12.8c0,1.8,1.4,3.2,3.2,3.2h12.8c1.8,0,3.2-1.4,3.2-3.2V358
	C338.8,356.2,337.4,354.8,335.6,354.8z M332.4,367.6H326v-6.4h6.4V367.6z"/>
<path class="st0" d="M361.2,329.2h-12.8c-1.8,0-3.2,1.4-3.2,3.2v38.4c0,1.8,1.4,3.2,3.2,3.2h12.8c1.8,0,3.2-1.4,3.2-3.2v-38.4
	C364.4,330.6,363,329.2,361.2,329.2z M358,367.6h-6.4v-32h6.4V367.6z"/>
<rect x="358" y="278" class="st0" width="6.4" height="6.4"/>
<rect x="345.2" y="278" class="st0" width="6.4" height="6.4"/>
<rect x="332.4" y="278" class="st0" width="6.4" height="6.4"/>
</svg>
