<?xml version="1.0" encoding="utf-8"?>
<!-- Generator: Adobe Illustrator 22.1.0, SVG Export Plug-In . SVG Version: 6.00 Build 0)  -->
<svg version="1.1" id="Слой_1" xmlns="http://www.w3.org/2000/svg" xmlns:xlink="http://www.w3.org/1999/xlink" x="0px" y="0px"
	 viewBox="0 0 500 500" style="enable-background:new 0 0 500 500;" xml:space="preserve">
<style type="text/css">
	.st0{fill:#FFFFFF;}
	.st1{fill:none;}
</style>
<path class="st0" d="M175.8,266.7c9.8,0,18-8,18-18c0-9.9-8-18-18-18c-9.9,0-18,8-18,18C157.7,258.7,165.9,266.7,175.8,266.7
	L175.8,266.7z M175.8,244.1c2.5,0,4.7,2,4.7,4.7c0,2.5-2,4.7-4.7,4.7c-2.5,0-4.7-2-4.7-4.7S173,244.1,175.8,244.1L175.8,244.1z"/>
<path class="st0" d="M248.8,157.9c-9.9,0-18,8-18,18s8,18,18,18c9.8,0,18-8,18-18C266.6,165.9,258.7,157.9,248.8,157.9L248.8,157.9z
	 M248.8,180.4c-2.5,0-4.7-2-4.7-4.7c0-2.5,2-4.7,4.7-4.7c2.5,0,4.7,2,4.7,4.7C253.4,178.2,251.4,180.4,248.8,180.4L248.8,180.4z"/>
<path class="st0" d="M476.8,135.7c0-6.4-2.5-12.1-6.8-16.3c-3.7-25.7-16.2-49.4-35.3-67c-19.9-18.4-45.9-28.9-73.2-29.7
	c-24.5-0.8-48,6.2-68.1,20.3c-0.1,0-0.1,0.1-0.3,0.1c-3.2,2.2-6.8,3.6-10.5,4.2l-53.5,8.4c-14.9,2.3-25.6,14.9-25.6,29.9v43.3h-4.6
	c-2.8-8-10.3-13.8-19.4-13.8c-8.9,0-16.6,5.7-19.4,13.8h-17c-8,0-14.4,6.5-14.4,14.4v17.1c-8,2.8-13.8,10.3-13.8,19.4
	c0,8.9,5.7,16.6,13.8,19.4v4.6H85.7c-15,0-27.7,10.8-29.9,25.6l-8.4,53.5c-0.6,3.7-2,7.3-4.2,10.5c0,0.1-0.1,0.1-0.1,0.3
	c-14,20-21,43.6-20.4,68.1c0.8,27.3,11.3,53.3,29.6,73.2c17.6,19.1,41.3,31.6,67,35.3c4.2,4.2,9.9,6.8,16.3,6.8
	c6.4,0,12.1-2.5,16.3-6.8c55.3-8,96.7-55.6,96.7-111.9c0-26.5-12.7-55.3-26.3-73.7c0.9-2.4,1.1-5,0.8-7.5l-7.4-47.5
	c-2.3-14.9-14.9-25.6-30.1-25.6h-43.3v-4.7c8-2.8,13.8-10.3,13.8-19.4c0-8.9-5.7-16.6-13.8-19.4v-17c0-0.6,0.5-1.1,1.1-1.1h17.1
	c2.8,8,10.3,13.8,19.4,13.8c8.9,0,16.6-5.7,19.4-13.8h4.6v43.3c0,15,10.8,27.7,25.6,29.9L277,223c0.8,0.1,1.7,0.1,2.4,0.1
	c1.8,0,3.6-0.4,5.2-0.9c18.4,13.5,47,26.3,73.7,26.3c56.2,0,103.9-41.4,111.9-96.7C474.3,147.7,476.8,141.9,476.8,135.7L476.8,135.7
	z M208.1,358.2c0,39.9-32.5,72.4-72.4,72.4s-72.4-32.5-72.4-72.4s32.5-72.4,72.4-72.4S208.1,318.3,208.1,358.2L208.1,358.2z
	 M135.7,463.6c-5.5,0-9.8-4.5-9.8-9.8c0-5.5,4.5-9.8,9.8-9.8s9.8,4.5,9.8,9.8S141,463.6,135.7,463.6L135.7,463.6z M158.7,455.3
	c0-0.5,0-1,0-1.5c0-4.5-1.3-8.7-3.4-12.1c37.9-8.9,66-42.9,66-83.3c0-27.3-12.9-51.6-32.8-67.3c5.2,0.9,10.3,1.9,15.2,3.2
	c1.4,0.4,2.8,0.6,4.3,0.6c1.7,0,3.2-0.3,4.7-0.8c11.5,16.2,22.7,41.5,22.7,64.2C235.5,404.8,203.1,444.9,158.7,455.3L158.7,455.3z
	 M202.6,231.6l7.4,47.5c0.1,0.6,0,1.1-0.5,1.7c-0.5,0.6-1.3,0.9-2.2,0.6c-0.1,0-0.3,0-0.3-0.1c-23.8-6-69.3-8.7-71.5-8.7
	c-47.3,0-85.6,38.5-85.6,85.6c0,40.5,28.3,74.4,66,83.3c-2.2,3.6-3.4,7.6-3.4,12.1c0,0.5,0,1,0.1,1.7C93.2,450.9,75.5,440.7,62,426
	c-16.2-17.6-25.4-40.5-26.1-64.6c-0.6-21.5,5.5-42.3,17.7-59.9l0.1-0.1l0,0c3.3-4.8,5.6-10.3,6.5-16.1l8.4-53.5
	c1.3-8.4,8.4-14.5,17-14.5h100C194.2,217.1,201.3,223.2,202.6,231.6L202.6,231.6z M135.7,187c-4,0-7.1-3.2-7.1-7.1
	c0-4,3.2-7.1,7.1-7.1s7.1,3.2,7.1,7.1C142.8,183.9,139.6,187,135.7,187L135.7,187z M179.9,142.8c-4,0-7.1-3.2-7.1-7.1
	c0-4,3.2-7.1,7.1-7.1s7.1,3.2,7.1,7.1C187.2,139.6,183.8,142.8,179.9,142.8L179.9,142.8z M463.5,135.7c0,5.5-4.5,9.8-9.8,9.8
	c-5.5,0-9.8-4.5-9.8-9.8c0-5.5,4.5-9.8,9.8-9.8C459.3,125.7,463.5,130.2,463.5,135.7L463.5,135.7z M279.2,210l-47.5-7.4
	c-8.4-1.3-14.5-8.4-14.5-17v-100c0-8.5,6.1-15.5,14.5-17l53.5-8.4c5.7-0.9,11.3-3.2,16.1-6.5l0.1-0.1c17.6-12.2,38.4-18.4,59.9-17.8
	c24.1,0.8,47,9.9,64.6,26.1c14.8,13.6,25,31.4,29.6,50.7c-0.5,0-1-0.1-1.7-0.1c-4.5,0-8.5,1.3-12.1,3.4c-8.9-37.9-42.9-66-83.3-66
	c-47.3,0-85.6,38.5-85.6,85.6c0,2.2,2.7,47.7,8.7,71.5c0,0.1,0,0.3,0.1,0.3c0.1,0.3,0.1,0.4,0.1,0.6c0,0.5-0.3,1.1-0.8,1.5
	C280.3,210,279.8,210.1,279.2,210L279.2,210z M285.7,135.7c0-39.9,32.5-72.4,72.4-72.4s72.4,32.5,72.4,72.4s-32.5,72.4-72.4,72.4
	S285.7,175.6,285.7,135.7L285.7,135.7z M358.3,235.5c-22.7,0-48-11.2-64.2-22.7c0.5-1.5,0.8-3.1,0.8-4.7c0-1.4-0.3-2.9-0.6-4.3
	c-1.3-4.8-2.3-9.9-3.2-15.2c15.7,19.9,40,32.8,67.3,32.8c40.5,0,74.4-28.3,83.3-66c3.6,2.2,7.6,3.4,12.1,3.4c0.5,0,1,0,1.5,0
	C444.7,203.1,404.8,235.5,358.3,235.5L358.3,235.5z"/>
<rect x="22.6" y="22" class="st1" width="454.9" height="456"/>
</svg>
