<?xml version="1.0" encoding="utf-8"?>
<!-- Generator: Adobe Illustrator 22.1.0, SVG Export Plug-In . SVG Version: 6.00 Build 0)  -->
<svg version="1.1" id="Слой_1" xmlns="http://www.w3.org/2000/svg" xmlns:xlink="http://www.w3.org/1999/xlink" x="0px" y="0px"
	 viewBox="0 0 45.5 45.5" style="enable-background:new 0 0 45.5 45.5;" xml:space="preserve">
<style type="text/css">
	.st0{fill:#FC8A5C;}
</style>
<path class="st0" d="M32.6,45.5c-3.9,0-7.5-1.5-10.3-4.3l-18-18C1.5,20.4,0,16.8,0,12.9S1.5,5.3,4.3,2.6C6,0.8,7.7,0,9.5,0
	c3.1,0,5.5,2.6,8.4,5.5c0.6,0.7,1.3,1.3,2,2c0.1,0.1,1.1,1.2,1.1,3.2c0,2-1.7,3.7-1.9,3.9c-1.7,1.7-2.1,4.4-0.9,6.5
	c0.7,0.8,5.6,5.7,6.5,6.3c0.7,0.3,1.5,0.5,2.3,0.5c1.5,0,2.9-0.6,3.9-1.6c0.2-0.2,1.9-1.9,3.9-1.9s3.1,1,3.2,1.1
	c0.7,0.7,1.4,1.3,2,2c3,2.8,5.5,5.2,5.5,8.3c0,1.8-0.8,3.5-2.6,5.3C40.1,44,36.5,45.5,32.6,45.5z M9.5,3C8.5,3,7.5,3.6,6.4,4.7
	C4.2,6.9,3,9.8,3,12.9s1.2,6,3.4,8.2l18,18c2.2,2.2,5.1,3.4,8.2,3.4s6-1.2,8.2-3.4c1.2-1.2,1.7-2.2,1.7-3.1c0-1.8-2.1-3.8-4.6-6.2
	c-0.7-0.6-1.4-1.3-2.1-2c0,0,0,0,0,0c0,0-0.4-0.3-1.1-0.3c-0.5,0-1.4,0.6-1.8,1c-1.6,1.6-3.7,2.5-6,2.5c-1.2,0-2.5-0.3-3.6-0.8
	c-1.1-0.5-7.4-6.8-7.8-7.5c-1.9-3.3-1.3-7.5,1.4-10.2c0.4-0.4,1-1.2,1-1.8c0-0.7-0.3-1.1-0.3-1.1c-0.7-0.7-1.3-1.4-2-2
	C13.3,5.1,11.3,3,9.5,3z"/>
</svg>
