<?xml version="1.0" encoding="utf-8"?>
<!-- Generator: Adobe Illustrator 22.1.0, SVG Export Plug-In . SVG Version: 6.00 Build 0)  -->
<svg version="1.1" id="Layer_1" xmlns="http://www.w3.org/2000/svg" xmlns:xlink="http://www.w3.org/1999/xlink" x="0px" y="0px"
	 viewBox="0 0 500 500" style="enable-background:new 0 0 500 500;" xml:space="preserve">
<style type="text/css">
	.st0{fill:#FC8A5C;}
</style>
<path class="st0" d="M405.7,444.3l-55.1-116.6c-1.1-2.3-3-4.1-5.3-5.1l-27.3-12.2l47.5-79.6c0.1-0.2,0.2-0.4,0.3-0.6
	c9.5-18.4,14.2-38.4,14.2-59.2c0-35.1-13.7-67.9-38.7-92.6s-58-38-93.1-37.4c-34,0.5-66.2,14.1-90.4,38.5s-37.6,56.6-37.8,90.7
	c-0.2,20.8,4.8,41.5,14.2,60c0.1,0.2,0.2,0.4,0.3,0.6l47.5,79.6l-27.6,12.2c-2.3,1-4.1,2.8-5.1,5L94.2,444.3
	c-1.9,3.9-1.1,8.6,2,11.6c3,3.1,7.6,4,11.6,2.2l69.1-30.7l69.1,30.7c2.7,1.2,5.7,1.2,8.4,0l69.1-30.7l69.1,30.7
	c1.4,0.6,2.8,0.9,4.2,0.9c2.7,0,5.4-1.1,7.3-3.1C406.8,452.8,407.6,448.1,405.7,444.3z M140.6,170.4
	c0.3-59.1,48.7-107.9,107.8-108.7c29.5-0.4,57.4,10.8,78.4,31.5c21,20.7,32.6,48.4,32.6,77.9c0,17.5-4,34.1-11.8,49.5l-88.6,148.7
	c-2.7,4.6-7.1,5.1-8.8,5.1c-1.8,0-6.1-0.5-8.8-5.1l-88.8-148.7C144.4,205,140.5,188.1,140.6,170.4z M327.3,406.7
	c-2.7-1.2-5.7-1.2-8.4,0l-69,30.7l-69.1-30.7c-2.7-1.2-5.7-1.2-8.4,0L124.7,428l41.5-87.9l26.4-11.8l30.8,51.5
	c5.6,9.5,15.6,15.1,26.5,15.1s20.9-5.6,26.5-15.1l30.8-51.5l26.4,11.8l41.5,87.9L327.3,406.7z"/>
<path class="st0" d="M307.7,153.3c0-31.8-25.9-57.7-57.7-57.7s-57.7,25.9-57.7,57.7s25.9,57.7,57.7,57.7
	C281.8,210.9,307.7,185.1,307.7,153.3z M217.6,153.3c0-17.9,14.5-32.4,32.4-32.4s32.4,14.5,32.4,32.4s-14.5,32.4-32.4,32.4
	C232.1,185.7,217.6,171.1,217.6,153.3z"/>
</svg>
