<?xml version="1.0" encoding="utf-8"?>
<!-- Generator: Adobe Illustrator 22.1.0, SVG Export Plug-In . SVG Version: 6.00 Build 0)  -->
<svg version="1.1" id="Layer_1" xmlns="http://www.w3.org/2000/svg" xmlns:xlink="http://www.w3.org/1999/xlink" x="0px" y="0px"
	 viewBox="0 0 500 500" style="enable-background:new 0 0 500 500;" xml:space="preserve">
<style type="text/css">
	.st0{fill:#FFFFFF;}
</style>
<path class="st0" d="M437.5,187.3l-73.4-73.4c-2.4-2.4-6.2-2.4-8.6,0l-36.8,36.8c-1.1,1.1-1.8,2.7-1.8,4.3c0,1.6,0.7,3.1,1.8,4.3
	l3.7,3.7l-8.4,8.4c-5.5,5.5-14,7-21.1,3.7c-6.7-3-14.2-4.7-21.6-4.7c-8.8,0-17.4,2.2-25,6.4c-3.2-0.8-6.4-1.2-9.8-1.2
	c-4.8,0-9.5,0.8-13.9,2.4c-7.2,2.6-14.8,1-20-4.2l-15.1-15.1l1.8-1.8c1.1-1.1,1.8-2.7,1.8-4.3c0-1.6-0.7-3.1-1.8-4.3l-36.8-36.8
	c-2.4-2.4-6.2-2.4-8.6,0l-81.7,81.7c-2.4,2.4-2.4,6.2,0,8.6l36.7,36.7c1.1,1.1,2.7,1.8,4.3,1.8s3.1-0.7,4.3-1.8l2.2-2.2l10.7,10.7
	c2.7,2.7,4.4,6.1,5.2,9.7c3.6,19,12.6,36.2,26.3,49.9l2,2c-3.8,4.1-6,9.3-6,14.9c0,5.8,2.3,11.3,6.4,15.4c4.2,4.2,9.8,6.4,15.4,6.4
	c0.4,0,0.7,0,1.1,0c-0.3,5.9,1.8,12,6.4,16.5c4.1,4.1,9.5,6.4,15.4,6.4c0.1,0,0.3,0,0.5,0c-0.1,5.7,2,11.5,6.4,15.9
	c4.1,4.1,9.5,6.4,15.4,6.4s11.3-2.3,15.4-6.4c0.4-0.4,0.7-0.7,1-1c2.1,0.7,4.4,1.1,6.7,1.1c5.5,0,10.6-2.1,14.3-6
	c2.1-2.1,3.6-4.4,4.6-7l0.6,0.6c4,4,9.2,5.9,14.3,5.9s10.4-2,14.3-5.9c2.1-2.1,3.7-4.6,4.7-7.3c3.6,2.6,7.8,3.8,12,3.8
	c5.2,0,10.4-2,14.3-5.9c3.8-3.8,5.9-8.9,5.9-14.3c0-1.6-0.2-3.3-0.6-4.8c3.8-0.8,7.4-2.7,10.3-5.5c3.8-3.8,5.9-8.9,5.9-14.3
	c0-4.3-1.3-8.4-3.8-11.8l4.9-4.9c13.8-13.8,23-31.3,26.4-50.6c0.6-3.3,2.1-6.2,4.6-8.7l18-18l3.2,3.2c1.2,1.2,2.7,1.8,4.3,1.8
	s3.1-0.6,4.3-1.8l36.8-36.8c1.1-1.1,1.8-2.7,1.8-4.3C439.3,189.9,438.6,188.4,437.5,187.3z M75.2,197.5l73.2-73.2l28.2,28.2
	l-73.2,73.2L75.2,197.5z M162.9,330.4c-1.8-1.8-2.8-4.3-2.8-6.8c0-2.6,1-5,2.8-6.8c1.8-1.8,4.4-2.8,6.8-2.8c2.4,0,5,1,6.8,2.8
	c3.8,3.8,3.8,9.9,0,13.7C172.8,334.2,166.7,334.2,162.9,330.4z M192.6,356.1c-2.6,0-5-1-6.8-2.8c-3.8-3.8-3.8-9.9,0-13.7
	c1.8-1.8,4.4-2.8,6.8-2.8s5,1,6.8,2.8c3.8,3.8,3.8,9.9,0,13.7C197.6,355.1,195.2,356.1,192.6,356.1z M221.7,375.5
	c-1.8,1.8-4.3,2.8-6.8,2.8c-2.6,0-5-1-6.8-2.8c-3.8-3.8-3.8-9.9,0-13.7c1.8-1.8,4.4-2.8,6.8-2.8s5,1,6.8,2.8
	C225.4,365.6,225.4,371.7,221.7,375.5z M324.4,329c-1.6,1.6-3.6,2.4-5.8,2.4c-2.2,0-4.3-0.9-5.8-2.4L254,270.4
	c-2.4-2.4-6.2-2.4-8.6,0s-2.4,6.2,0,8.6l63.2,63.2c1.6,1.6,2.4,3.6,2.4,5.8c0,2.2-0.9,4.3-2.4,5.8c-3.2,3.2-8.4,3.2-11.7,0
	l-10.7-10.7c-0.1-0.1-0.1-0.1-0.1-0.1s-0.1,0-0.1-0.1l-49-49c-2.4-2.4-6.2-2.4-8.6,0c-2.4,2.4-2.4,6.2,0,8.6l49.2,49.2
	c1.5,1.6,2.4,3.6,2.4,5.8c0,2.2-0.9,4.3-2.4,5.8c-3.2,3.2-8.4,3.2-11.6,0L212.7,310c-2.4-2.4-6.2-2.4-8.6,0c-2.4,2.4-2.4,6.2,0,8.6
	l39.5,39.5l0,0c1.6,1.6,2.4,3.6,2.4,5.8c0,2.2-0.9,4.3-2.4,5.8c-1.6,1.6-3.6,2.4-5.8,2.4c-0.5,0-1-0.1-1.6-0.1
	c1-6.6-1-13.5-6.1-18.6c-4.1-4.1-9.5-6.4-15.4-6.4c-0.1,0-0.3,0-0.5,0c0.1-5.7-2-11.5-6.4-15.9c-4.1-4.1-9.5-6.4-15.4-6.4
	c-0.4,0-0.7,0-1.1,0c0.3-5.9-1.8-12-6.4-16.5c-5.5-5.5-13.2-7.4-20.3-5.8l-4.4-4.4c-11.7-12-19.7-27.1-22.8-43.6
	c-1.1-6.1-4.1-11.6-8.5-16l-10.7-10.7l60.6-60.6l15.1,15.1c5.8,5.8,13.8,8.9,21.8,8.9c3.6,0,7.3-0.6,10.8-1.9c1.7-0.6,3.5-1,5.3-1.3
	l-37.4,37.4c-4.6,4.6-7.1,10.7-7.1,17.2c0,6.5,2.5,12.6,7.1,17.2c4.7,4.7,10.9,7.1,17.2,7.1s12.4-2.4,17.2-7.1l18.8-18.8l5.1,5.1
	l0,0l0.2,0.2l0.2,0.2l0,0l0,0c0.1,0.1,0.1,0.1,0.1,0.1l70.9,70.9c1.6,1.6,2.4,3.6,2.4,5.8C326.8,325.4,325.9,327.5,324.4,329z
	 M362.5,238.8c-4.2,4.2-7,9.4-8,15.1c-3,16.8-11,32.1-23.1,44.2l-4.7,4.7l-38.2-38.2c0.8,0.1,1.7,0.1,2.5,0.1
	c3.8,0,7.8-0.7,11.8-2.3c3.1-1.3,4.6-4.8,3.3-7.9c-1.3-3.1-4.8-4.6-7.9-3.3c-15.5,6.4-34.2-11.2-36.3-13.2l-0.1-0.1l-0.2-0.2l0,0
	l-0.2-0.2l0,0l-5.1-5.1l5.8-5.8c2.4-2.4,2.4-6.2,0-8.6c-2.4-2.4-6.2-2.4-8.6,0l-10.1,10.1l0,0l0,0l-23.1,23.1
	c-4.7,4.7-12.4,4.7-17.2,0c-2.3-2.3-3.6-5.3-3.6-8.6s1.3-6.3,3.6-8.6l39.9-39.9c2.2-2.2,4.7-4.1,7.3-5.8c6.3-3.9,13.5-5.9,21-5.9
	c5.7,0,11.4,1.3,16.6,3.6c11.7,5.3,25.7,2.8,34.7-6.1l8.4-8.4l49.5,49.5L362.5,238.8z M396.6,219.7l-64.9-64.9l28.2-28.2l64.9,64.9
	L396.6,219.7z"/>
<circle class="st0" cx="456.4" cy="177.2" r="8.2"/>
<ellipse transform="matrix(4.672748e-03 -1 1 4.672748e-03 -137.8704 231.9839)" class="st0" cx="47.6" cy="185.3" rx="8.2" ry="8.2"/>
</svg>
