<?xml version="1.0" encoding="utf-8"?>
<!-- Generator: Adobe Illustrator 22.1.0, SVG Export Plug-In . SVG Version: 6.00 Build 0)  -->
<svg version="1.1" id="Слой_1" xmlns="http://www.w3.org/2000/svg" xmlns:xlink="http://www.w3.org/1999/xlink" x="0px" y="0px"
	 viewBox="0 0 87.4 98.9" style="enable-background:new 0 0 87.4 98.9;" xml:space="preserve">
<style type="text/css">
	.st0{fill:#FFFFFF;}
</style>
<g>
	<path class="st0" d="M0.9,31.5c0.9,1.6,2.4,2.7,4.1,3.1l0,0l0.1,29.9c-0.6,0.2-1.1,0.4-1.7,0.7c-3.2,1.9-4.3,6-2.4,9.2
		c0.9,1.6,2.4,2.7,4.1,3.1c0.6,0.2,1.2,0.2,1.7,0.2c1.2,0,2.3-0.3,3.4-0.9c0.5-0.3,1-0.7,1.4-1.1l25.9,14.8c-0.4,1.6-0.2,3.4,0.7,5
		c1.3,2.2,3.5,3.4,5.8,3.4c1.2,0,2.3-0.3,3.4-0.9c2.7-1.6,3.9-4.8,3.1-7.6l25.4-14.8c0.8,0.8,1.9,1.5,3.1,1.8
		c0.6,0.2,1.2,0.2,1.7,0.2c1.2,0,2.3-0.3,3.4-0.9c1.6-0.9,2.7-2.4,3.1-4.1s0.2-3.6-0.7-5.1c-0.9-1.6-2.4-2.7-4.1-3.1l-0.1-29.6
		c0.5-0.2,1-0.4,1.5-0.6c3.2-1.9,4.3-6,2.4-9.2s-6-4.3-9.2-2.4c-0.5,0.3-0.9,0.6-1.3,1l-25.8-15c0.5-1.7,0.3-3.6-0.6-5.3
		c-1.9-3.2-6-4.3-9.2-2.4c-2.8,1.6-4,4.9-3,7.9L11.7,23.5c-0.9-0.9-2-1.6-3.2-2c-1.7-0.5-3.6-0.2-5.1,0.7C0.1,24.1-1,28.3,0.9,31.5z
		 M9.9,73.2L9.9,73.2c-0.3,0.5-0.7,0.8-1.2,1.1c-0.9,0.5-1.9,0.6-2.8,0.4c-1-0.3-1.8-0.9-2.3-1.7c-0.5-0.9-0.6-1.9-0.4-2.8
		c0.3-1,0.9-1.8,1.7-2.3c0.6-0.3,1.2-0.5,1.9-0.5c0.3,0,0.6,0,1,0.1c1,0.3,1.8,0.9,2.3,1.7C10.8,70.5,10.7,72,9.9,73.2z M38.8,88
		L13.2,73.3c0.5-1.4,0.5-2.9,0-4.4l7.8-6.2c4.3,7.4,12.2,12.5,21.3,13l0.1,10c-0.6,0.1-1.2,0.4-1.8,0.7C39.9,86.8,39.3,87.4,38.8,88
		z M20.4,49.5c0-12.8,10.4-23.2,23.2-23.2s23.3,10.4,23.3,23.2S56.5,72.7,43.7,72.7S20.4,62.3,20.4,49.5z M45.9,95.5
		c-1.8,1-4.1,0.4-5.1-1.4S40.4,90,42.2,89c0.6-0.3,1.2-0.5,1.9-0.5c1.3,0,2.6,0.7,3.2,1.9C48.3,92.2,47.7,94.5,45.9,95.5z
		 M74.3,73.1L49,87.8c-1-1.1-2.3-1.8-3.7-2.1l-0.1-10c8.9-0.5,16.7-5.6,21-12.8l8.1,5.7c-0.1,0.2-0.2,0.4-0.2,0.7
		C73.8,70.5,73.9,71.9,74.3,73.1z M84,69c1,1.8,0.4,4.1-1.4,5.1c-0.9,0.5-1.9,0.6-2.8,0.4c-1-0.3-1.8-0.9-2.3-1.7
		c-0.5-0.9-0.6-1.9-0.4-2.8c0.3-1,0.9-1.8,1.7-2.3c0.6-0.3,1.2-0.5,1.9-0.5C82,67.2,83.3,67.8,84,69z M76.9,27.3
		c0.3-1,0.9-1.8,1.7-2.3c1.8-1,4.1-0.4,5.1,1.4c1,1.8,0.4,4.1-1.4,5.1c-1.8,1-4.1,0.4-5.1-1.4C76.7,29.3,76.6,28.3,76.9,27.3z
		 M79.4,34.9l0.1,29.4c-0.7,0.1-1.4,0.4-2.1,0.8c-0.5,0.3-0.9,0.6-1.3,1l-8.4-5.9c1.5-3.3,2.3-6.9,2.3-10.7c0-4.4-1.1-8.5-3-12.1
		l8.6-4.6C76.5,33.9,77.9,34.6,79.4,34.9z M48.4,11.2l25.7,14.7c-0.1,0.2-0.1,0.4-0.2,0.6c-0.3,1.2-0.3,2.5,0.1,3.7l-8.6,4.6
		c-4.5-6.6-12-11.1-20.5-11.5v-10c0.6-0.1,1.3-0.4,1.9-0.7C47.4,12.2,48,11.8,48.4,11.2z M41.5,3.5C42.1,3.2,42.7,3,43.4,3
		c1.3,0,2.6,0.7,3.2,1.9c1,1.8,0.4,4.1-1.4,5.1c-1.8,1-4.1,0.4-5.1-1.4S39.7,4.5,41.5,3.5z M38.5,11.4c0.9,1,2.1,1.6,3.4,1.9v10
		C34,23.8,27,27.9,22.5,34l-9.4-4.1v-0.1c0.3-1.2,0.3-2.5-0.1-3.7L38.5,11.4z M11.7,32.6l9.2,4c-2.2,3.8-3.4,8.2-3.4,13
		c0,3.7,0.8,7.2,2.2,10.4l-8,6.4c-1-1-2.2-1.6-3.5-1.9L8.1,34.7c0.7-0.1,1.4-0.4,2.1-0.8C10.7,33.6,11.3,33.1,11.7,32.6z M4.8,24.9
		c0.9-0.5,1.9-0.6,2.8-0.4c1,0.3,1.8,0.9,2.3,1.7c0.5,0.9,0.6,1.9,0.4,2.8s-0.9,1.8-1.7,2.3c-0.9,0.5-1.9,0.7-2.9,0.4
		c-1-0.3-1.8-0.9-2.3-1.7C2.4,28.2,3,25.9,4.8,24.9z"/>
	<path class="st0" d="M35.4,65.4H52c1,0,1.9-0.4,2.5-1.1s1-1.6,1-2.5V48.4c0-1-0.4-2-1.1-2.7c-0.6-0.6-1.5-1-2.3-1.1v-2.2
		c0.1-2.3-0.7-4.5-2.3-6.1c-1.5-1.7-3.6-2.6-5.9-2.7c-2.3-0.1-4.5,0.9-6.2,2.5c-1.7,1.7-2.6,4-2.5,6.3v2.2c-0.9,0.1-1.7,0.4-2.3,1
		l-0.1,0.1c-0.7,0.7-1,1.6-1,2.5v13.6c0,1,0.4,1.9,1,2.5C33.5,65,34.4,65.4,35.4,65.4z M39.9,38.2c1.1-1.1,2.5-1.7,3.9-1.6
		c1.4,0,2.8,0.6,3.8,1.7c1,1.1,1.6,2.5,1.5,4v2.2H38.2v-2.2C38.2,40.8,38.8,39.3,39.9,38.2z M34.8,48.2c0-0.2,0.1-0.3,0.2-0.4
		l0.1-0.1c0.1-0.1,0.3-0.2,0.4-0.2h16.2c0.2,0,0.4,0.1,0.6,0.2c0.2,0.2,0.2,0.4,0.2,0.6v13.4c0,0.2-0.1,0.3-0.2,0.4
		s-0.2,0.2-0.4,0.2H35.4c-0.1,0-0.3-0.1-0.4-0.2c-0.1-0.1-0.2-0.2-0.2-0.4V48.2z"/>
	<path class="st0" d="M41.4,58h4.5v-2.8c0.3-0.4,0.4-0.9,0.4-1.4c0-1.5-1.2-2.7-2.7-2.7c-1.5,0-2.6,1.2-2.7,2.7c0,0.5,0.1,1,0.4,1.4
		V58H41.4z"/>
</g>
</svg>
