<?xml version="1.0" encoding="utf-8"?>
<!-- Generator: Adobe Illustrator 22.1.0, SVG Export Plug-In . SVG Version: 6.00 Build 0)  -->
<svg version="1.1" id="Слой_1" xmlns="http://www.w3.org/2000/svg" xmlns:xlink="http://www.w3.org/1999/xlink" x="0px" y="0px"
	 viewBox="0 0 60 60" style="enable-background:new 0 0 60 60;" xml:space="preserve">
<style type="text/css">
	.st0{fill:#FFFFFF;}
</style>
<path class="st0" d="M56,59V47h3c0.6,0,1-0.4,1-1c0,0,0,0,0,0v-9.3c0-3-2.4-5.5-5.4-5.7c0.3-0.6,0.4-1.3,0.4-2c0-2.8-2.2-5-5-5
	s-5,2.2-5,5c0,0.7,0.1,1.4,0.4,2c-3,0.1-5.4,2.6-5.4,5.7V46c0,0.6,0.4,1,1,1c0,0,0,0,0,0h3v12c0,0.6,0.4,1,1,1c0,0,0,0,0,0h10
	C55.6,60,56,59.6,56,59C56,59,56,59,56,59z M54,58h-3V45h-2v13h-3V37h-2v8h-2v-8.3c0-2,1.7-3.7,3.7-3.7h1.7c0.6,0,1-0.4,1-1
	c0-0.3-0.1-0.6-0.3-0.8c-0.7-0.6-1-1.4-1-2.2c0-1.7,1.3-3,3-3s3,1.3,3,3c0,0.9-0.4,1.7-1,2.2c-0.4,0.4-0.5,1-0.1,1.4
	c0.2,0.2,0.5,0.3,0.8,0.3h1.7c2,0,3.7,1.7,3.7,3.7V45h-2v-8h-2V58z"/>
<path class="st0" d="M1,47h3v12c0,0.6,0.4,1,1,1c0,0,0,0,0,0h10c0.6,0,1-0.4,1-1c0,0,0,0,0,0V47h3c0.6,0,1-0.4,1-1c0,0,0,0,0,0v-9.3
	c0-3-2.4-5.5-5.4-5.7c0.3-0.6,0.4-1.3,0.4-2c0-2.8-2.2-5-5-5s-5,2.2-5,5c0,0.7,0.1,1.4,0.4,2c-3,0.1-5.4,2.6-5.4,5.7V46
	C0,46.6,0.4,47,1,47C1,47,1,47,1,47z M2,36.7c0-2,1.7-3.7,3.7-3.7h1.7c0.6,0,1-0.4,1-1c0-0.3-0.1-0.6-0.3-0.8c-0.7-0.6-1-1.4-1-2.2
	c0-1.7,1.3-3,3-3s3,1.3,3,3c0,0.9-0.4,1.7-1,2.2c-0.4,0.4-0.5,1-0.1,1.4c0.2,0.2,0.5,0.3,0.8,0.3h1.7c2,0,3.7,1.7,3.7,3.7V45h-2v-8
	h-2v21h-3V45H9v13H6V37H4v8H2V36.7z"/>
<path class="st0" d="M30,19.6c0.7,0.9,1.8,1.4,3,1.4h6c0.6,0,1-0.4,1-1c0,0,0,0,0,0v-5c0-0.6-0.4-1-1-1c0,0,0,0,0,0h-2.5l-2.7-8.3
	c-0.3-1-1.3-1.7-2.3-1.7c-0.5,0-1,0.2-1.4,0.5C29.6,4.2,29.1,4,28.6,4c-1.1,0-2,0.7-2.3,1.7L23.5,14H21c-0.6,0-1,0.4-1,1
	c0,0,0,0,0,0v5c0,0.6,0.4,1,1,1c0,0,0,0,0,0h6C28.2,21,29.3,20.5,30,19.6z M31.4,6c0.2,0,0.3,0.1,0.4,0.3l0,0l2.9,9
	c0.1,0.4,0.5,0.7,1,0.7H38v3h-5c-1.1,0-2-0.9-2-2.1V6.5C31,6.2,31.2,6,31.4,6z M27,19h-5v-3h2.3c0.4,0,0.8-0.3,1-0.7l2.9-9l0,0
	C28.2,6.1,28.4,6,28.6,6C28.8,6,29,6.2,29,6.5v10.5C29,18.1,28.1,19,27,19z"/>
<path class="st0" d="M22,31c0.2,0,0.3,0,0.5-0.1L33.3,25h4.6c4,0,7.2-3.2,7.2-7.2V7.2c0-4-3.2-7.2-7.2-7.2H22.2
	c-4,0-7.2,3.2-7.2,7.2v10.6c0,4,3.2,7.2,7.2,7.2h2.7l-3.6,4.4c-0.4,0.4-0.3,1.1,0.1,1.4C21.5,30.9,21.8,31,22,31z M22.2,23
	c-2.9,0-5.2-2.3-5.2-5.2V7.2C17,4.3,19.3,2,22.2,2h15.6C40.7,2,43,4.3,43,7.2v10.6c0,2.9-2.3,5.2-5.2,5.2H33c-0.2,0-0.3,0-0.5,0.1
	l-6.4,3.5l1.6-2c0.4-0.4,0.3-1.1-0.1-1.4C27.5,23.1,27.2,23,27,23H22.2z"/>
</svg>
