<?xml version="1.0" encoding="utf-8"?>
<!-- Generator: Adobe Illustrator 22.1.0, SVG Export Plug-In . SVG Version: 6.00 Build 0)  -->
<svg version="1.1" id="Слой_1" xmlns="http://www.w3.org/2000/svg" xmlns:xlink="http://www.w3.org/1999/xlink" x="0px" y="0px"
	 viewBox="0 0 88.9 88.9" style="enable-background:new 0 0 88.9 88.9;" xml:space="preserve">
<style type="text/css">
	.st0{fill:#FFFFFF;}
</style>
<path class="st0" d="M18.6,88.9C8.4,88.9,0,80.5,0,70.2V18.6C0,8.4,8.4,0,18.6,0h51.6c10.3,0,18.6,8.4,18.6,18.6v51.6
	c0,10.3-8.4,18.6-18.6,18.6H18.6z M70.2,85C78.4,85,85,78.4,85,70.2V47.2H72.3l-0.1,0.5c-1.4,13.2-12.1,23.7-25.4,24.9l-0.5,0V85
	H70.2z M3.9,70.2c0,8.1,6.6,14.8,14.8,14.8h23.9V72.6l-0.5,0c-13.3-1.2-24-11.6-25.4-24.9l-0.1-0.5H3.9V70.2z M33.5,66.1
	c3.3,1.8,7,2.7,11,2.7c3.9,0,7.7-0.9,11-2.7l0.6-0.3l-0.5-0.5c-2.9-3.3-6.9-5.2-11.1-5.2c-4.3,0-8.4,1.9-11.1,5.2l-0.5,0.5
	L33.5,66.1z M44.4,20.5c-13.3,0-24.2,10.8-24.2,24.2c0,7.3,3.2,14.1,8.9,18.7l0.5,0.4l0.4-0.5c1.7-2.3,3.9-4.1,6.4-5.2l0.9-0.4
	l-0.9-0.6c-4.1-2.7-6.5-7.2-6.5-12.1c0-8,6.5-14.5,14.5-14.5S59,36.9,59,44.9c0,4.8-2.5,9.4-6.6,12.1l-0.8,0.5l0.9,0.4
	c2.6,1.3,4.8,3.1,6.5,5.2l0.4,0.5l0.4-0.4c5.7-4.6,8.9-11.4,8.9-18.7C68.6,31.3,57.8,20.5,44.4,20.5z M44.4,34.3
	c-5.9,0-10.7,4.8-10.7,10.7s4.8,10.7,10.7,10.7s10.7-4.8,10.7-10.7S50.3,34.3,44.4,34.3z M85,43.3V18.6c0-8.1-6.6-14.8-14.8-14.8
	H46.4v12.8l0.5,0c13.7,1.2,24.6,12.4,25.5,26.1l0,0.5H85z M16.5,43.3l0-0.5C17.4,29.1,28.3,17.9,42,16.7l0.5,0V3.9H18.6
	c-8.1,0-14.8,6.6-14.8,14.8v24.7H16.5z"/>
<path class="st0" d="M18.6,88C8.8,88,0.9,80,0.9,70.2V18.6c0-9.8,8-17.8,17.8-17.8h51.6C80,0.9,88,8.8,88,18.6v51.6
	C88,80,80,88,70.2,88H18.6z M71.4,47.6c-1.3,12.8-11.7,23-24.6,24.1l-1.3,0.1v14h24.7c8.6,0,15.6-7,15.6-15.6V46.3H71.6L71.4,47.6z
	 M3,70.2c0,8.6,7,15.6,15.6,15.6h24.7v-14l-1.3-0.1c-12.9-1.1-23.3-11.3-24.6-24.1l-0.1-1.3H3V70.2z M44.4,59.2
	c-4.6,0-8.9,2-11.8,5.5l-1.1,1.3l1.5,0.8c3.5,1.8,7.3,2.8,11.4,2.8c4,0,8-1,11.4-2.8l1.6-0.8l-1.2-1.3
	C53.2,61.2,48.9,59.2,44.4,59.2z M44.4,19.6c-13.8,0-25,11.2-25,25c0,7.6,3.4,14.6,9.2,19.4l1.2,0.9l0.9-1.2c1.6-2.1,3.7-3.9,6.1-5
	l2.3-1.1l-2.1-1.4c-3.9-2.5-6.2-6.8-6.2-11.4c0-7.5,6.1-13.7,13.7-13.7s13.7,6.1,13.7,13.7c0,4.5-2.4,8.9-6.3,11.4l-2.1,1.4l2.2,1.1
	c2.5,1.3,4.6,2.9,6.2,5l0.9,1.1l1.1-0.9c5.9-4.8,9.2-11.8,9.2-19.4C69.4,30.8,58.2,19.6,44.4,19.6z M44.4,33.4
	c-6.4,0-11.5,5.2-11.5,11.5s5.2,11.5,11.5,11.5s11.5-5.2,11.5-11.5S50.8,33.4,44.4,33.4z M45.5,17.4l1.3,0.1
	c13.2,1.1,23.9,12,24.7,25.3l0.1,1.3h14.2V18.6C85.9,10,78.8,3,70.2,3H45.5V17.4z M18.6,3C10,3,3,10,3,18.6v25.5h14.2l0.1-1.3
	c0.8-13.3,11.5-24.1,24.7-25.3l1.3-0.1V3H18.6z"/>
</svg>
