<?xml version="1.0" encoding="utf-8"?>
<!-- Generator: Adobe Illustrator 22.1.0, SVG Export Plug-In . SVG Version: 6.00 Build 0)  -->
<svg version="1.1" id="Слой_1" xmlns="http://www.w3.org/2000/svg" xmlns:xlink="http://www.w3.org/1999/xlink" x="0px" y="0px"
	 viewBox="0 0 496.7 496.6" style="enable-background:new 0 0 496.7 496.6;" xml:space="preserve">
<style type="text/css">
	.st0{fill:#FFFFFF;}
</style>
<path class="st0" d="M71.4,75.1c-4.6,0-8.4-3.8-8.4-8.4c0-4.6,3.8-8.4,8.4-8.4h353.8c4.6,0,8.4,3.8,8.4,8.4c0,4.6-3.8,8.4-8.4,8.4
	H71.4z"/>
<path class="st0" d="M71.4,145.6c-4.6,0-8.4-3.8-8.4-8.4c0-4.6,3.8-8.4,8.4-8.4h353.8c4.6,0,8.4,3.8,8.4,8.4c0,4.6-3.8,8.4-8.4,8.4
	H71.4z"/>
<path class="st0" d="M71.4,216c-4.6,0-8.4-3.8-8.4-8.4s3.8-8.4,8.4-8.4h88.5c4.6,0,8.3,3.8,8.3,8.4s-3.8,8.4-8.4,8.4H71.4z"/>
<path class="st0" d="M286.7,326.5c-25.6,0-46.4-20.8-46.4-46.4s20.8-46.4,46.4-46.4c12.5,0,24.2,4.9,33,13.7
	c8.7,8.8,13.5,20.4,13.5,32.7C333.2,305.6,312.3,326.5,286.7,326.5z M286.7,250.5c-16.3,0-29.6,13.3-29.6,29.6s13.3,29.6,29.6,29.6
	s29.6-13.3,29.6-29.6S303,250.5,286.7,250.5z"/>
<path class="st0" d="M334,496.6c-1.9,0-3.6-0.6-5.2-1.9l-42.1-33.4l-42,33.4c-1.6,1.2-3.4,1.9-5.2,1.9c-4.2,0-8.5-3.2-8.5-8.5V366.5
	l-2.4-1.7c-7.2-5-14-11.1-20-18.1l-1.7-2H102.2c-9.4,0-18.2-3.6-24.8-10.2l-67.2-67.2C3.6,260.6,0,251.8,0,242.4V35.1
	C0,15.8,15.8,0,35.1,0h426.4c19.4,0,35.1,15.8,35.1,35.1v274.4c0,19.4-15.8,35.1-35.1,35.1h-94.9l-1.7,2c-5.9,7-12.6,13.1-20,18.1
	l-2.5,1.7v121.7C342.5,493.4,338,496.6,334,496.6z M286.8,442.1c1.9,0,3.7,0.6,5.2,1.8l33.6,26.7v-95.1l-7.4,2.3
	c-10.4,3.3-21,4.9-31.5,4.9c-10.8,0-21.4-1.7-31.5-4.9l-7.4-2.4v95.1l33.6-26.7C283,442.8,284.9,442.1,286.8,442.1z M286.7,194.1
	c-47.4,0-86,38.6-86,86c0,47.4,38.6,86,86,86c47.4,0,86-38.6,86-86C372.7,232.6,334.1,194.1,286.7,194.1z M286.8,177.2
	c56.8,0,102.9,46.1,102.9,102.8c0,13.8-2.7,27.3-8.1,39.9l-3.3,7.9h83.3c10,0,18.2-8.2,18.2-18.2V304h-0.1V35.1
	c0-10-8.2-18.2-18.2-18.2H35c-10,0-18.2,8.2-18.2,18.2V245h74.4c4.6,0,8.4,3.8,8.4,8.4v74.4h95.6l-3.4-7.9c-5.3-12.5-8-25.9-8-39.9
	C183.9,223.3,230.1,177.2,286.8,177.2z M82.8,315.9v-54h-54L82.8,315.9z"/>
</svg>
