<?xml version="1.0" encoding="utf-8"?>
<!-- Generator: Adobe Illustrator 22.1.0, SVG Export Plug-In . SVG Version: 6.00 Build 0)  -->
<svg version="1.1" id="Слой_1" xmlns="http://www.w3.org/2000/svg" xmlns:xlink="http://www.w3.org/1999/xlink" x="0px" y="0px"
	 viewBox="0 0 1417.3 1417.3" style="enable-background:new 0 0 1417.3 1417.3;" xml:space="preserve">
<style type="text/css">
	.st0{clip-path:url(#SVGID_2_);}
</style>
<g>
	<g>
		<g>
			<defs>
				<rect id="SVGID_1_" x="18.8" y="216.2" width="1382.2" height="946.7"/>
			</defs>
			<clipPath id="SVGID_2_">
				<use xlink:href="#SVGID_1_"  style="overflow:visible;"/>
			</clipPath>
			<path class="st0" d="M1377.9,644L968,234.1c-25-25-65.3-25-90.3,0c-25,25-25,65.3,0,90.3l300.4,300.4H82.9
				c-35.2,0-64.1,28.8-64.1,64.1s28.8,64.1,64.1,64.1h1094.6l-300.4,301c-25,25-25,65.3,0,90.3c12.8,12.8,28.8,18.6,45.5,18.6
				c16.7,0,32.7-6.4,45.5-18.6l409.9-409.9C1402.9,709.4,1402.9,669,1377.9,644L1377.9,644z"/>
		</g>
	</g>
</g>
</svg>
