<?xml version="1.0" encoding="utf-8"?>
<!-- Generator: Adobe Illustrator 22.1.0, SVG Export Plug-In . SVG Version: 6.00 Build 0)  -->
<svg version="1.1" id="Capa_1" xmlns="http://www.w3.org/2000/svg" xmlns:xlink="http://www.w3.org/1999/xlink" x="0px" y="0px"
	 viewBox="-501.7 -311.7 1417.3 1417.3" style="enable-background:new -501.7 -311.7 1417.3 1417.3;" xml:space="preserve">
<path d="M62,268.9c-5.8,0-10.6,4.7-10.6,10.6c0,5.8,4.7,10.6,10.6,10.6c5.8,0,10.6-4.7,10.6-10.6S67.8,268.9,62,268.9z"/>
<path d="M19.1,221.5c-4.1-4.1-10.8-4.2-14.9,0c-4.1,4.1-4.2,10.8,0,14.9l27,27.1c2.1,2.1,4.8,3.1,7.5,3.1c2.7,0,5.4-1,7.5-3.1
	c4.1-4.1,4.2-10.8,0-14.9L19.1,221.5z"/>
<path d="M459.7,561.3l-78.4-78.8c7.7-37.4-3.9-76.7-31.1-103.8L326,354.4c-12-12-31.7-12.5-43.9-0.9c-2.8,2.6-5,5.7-6.6,9
	l-35.8-35.8c3.3-1.6,6.4-3.8,9-6.6c11.5-12.2,11.1-31.9-0.9-43.9l-24.3-24.3c-27.1-27.1-66.4-38.7-103.8-31.1L43,144.1
	c-4.1-4.1-10.8-4.1-14.9,0l-73.7,73.7c-4.1,4.1-4.1,10.8,0,14.9l76.6,77C23.3,347,35,386.2,62,413.2l62.3,62.3
	c0.5,0.5,1,0.9,1.5,1.4c0.3,0.3,0.5,0.6,0.8,1l43.9,43.9l18.3,18.3c14.2,14.2,31.8,24.4,51,29.5c9.7,2.6,19.7,3.9,29.7,3.9
	c7.2,0,14.5-0.7,21.6-2.1l79.9,78.5c2.1,2,4.7,3,7.4,3c2.7,0,5.4-1,7.5-3.1l73.7-73.7C463.8,572.1,463.8,565.4,459.7,561.3z
	 M52.7,309.1c0-0.1,0-0.2,0.1-0.3c0-0.2,0.1-0.4,0.1-0.6c0-0.2,0.1-0.3,0.1-0.5c0-0.2,0-0.3,0.1-0.5c0-0.2,0-0.4,0-0.6
	c0-0.1,0-0.3,0-0.4c0-0.2,0-0.4,0-0.6c0-0.1,0-0.3,0-0.4c0-0.2,0-0.4-0.1-0.6c0-0.2-0.1-0.3-0.1-0.5c0-0.2-0.1-0.3-0.1-0.5
	c0-0.2-0.1-0.3-0.2-0.5c0-0.1-0.1-0.3-0.2-0.4c-0.1-0.2-0.1-0.4-0.2-0.5c-0.1-0.1-0.1-0.3-0.2-0.4c-0.1-0.2-0.2-0.4-0.3-0.5
	c-0.1-0.1-0.1-0.3-0.2-0.4c-0.1-0.2-0.2-0.3-0.3-0.5c-0.1-0.1-0.2-0.3-0.3-0.4c-0.1-0.1-0.2-0.3-0.3-0.4c-0.1-0.2-0.3-0.3-0.4-0.5
	c-0.1-0.1-0.1-0.1-0.2-0.2l-73.3-73.6l58.8-58.8l73.3,73.3c0.1,0.1,0.1,0.1,0.2,0.2c0.1,0.1,0.3,0.3,0.5,0.4
	c0.1,0.1,0.3,0.2,0.4,0.3c0.1,0.1,0.3,0.2,0.4,0.3c0.2,0.1,0.3,0.2,0.5,0.3c0.1,0.1,0.3,0.2,0.4,0.2c0.2,0.1,0.4,0.2,0.5,0.3
	c0.1,0.1,0.3,0.1,0.4,0.2c0.2,0.1,0.4,0.2,0.5,0.2c0.1,0.1,0.3,0.1,0.4,0.2c0.2,0.1,0.3,0.1,0.5,0.1c0.2,0,0.3,0.1,0.5,0.1
	c0.1,0,0.3,0.1,0.4,0.1c0.2,0,0.4,0.1,0.6,0.1c0.1,0,0.3,0,0.4,0c0.2,0,0.4,0,0.6,0c0.1,0,0.3,0,0.4,0c0.2,0,0.4,0,0.6,0
	c0.2,0,0.3,0,0.5-0.1c0.2,0,0.3,0,0.5-0.1c0.2,0,0.4-0.1,0.6-0.1c0.1,0,0.2,0,0.3-0.1c31.9-8.4,66.2,0.9,89.5,24.2l24.3,24.3
	c4,4,4.2,10.5,0.5,14.4c-1.9,2-4.4,3.1-7.2,3.2c-2.8,0-5.3-1-7.3-2.9c-0.1,0-0.1-0.1-0.2-0.1l-1.8-1.8c0,0,0,0,0,0c0,0,0,0,0,0
	l-4.4-4.4c0,0,0,0,0,0l-19-19c-4.1-4.1-10.8-4.1-14.9,0c-4.1,4.1-4.1,10.8,0,14.9l19,19c0,0,0,0,0,0l0,0l4.4,4.4c0,0,0,0,0,0
	l1.9,1.9c0,0,0.1,0.1,0.1,0.1c0.1,0.1,0.1,0.1,0.2,0.2l14.4,14.4c0,0,0.1,0.1,0.1,0.1l48.1,48.1c0,0,0.1,0.1,0.1,0.1l14.6,14.6
	c0,0,0,0,0,0c0,0,0,0,0,0l1.8,1.7c0.1,0.1,0.1,0.1,0.2,0.2c1.9,1.9,2.9,4.4,2.9,7.1c0,2.7-1.1,5.3-3,7.2c-4,4-10.4,4-14.4,0
	l-70.1-70.1c0,0,0,0,0,0l-11.3-11.3c-4.1-4.1-10.8-4.1-14.9,0c-4.1,4.1-4.1,10.8,0,14.9l11.3,11.3c0,0,0,0,0,0l70.1,70.1
	c0,0,0,0,0,0c1.9,1.9,3,4.5,3,7.2c0,2.7-1.1,5.3-3,7.2c-4,4-10.4,4-14.3,0L174,378.1l-4.4-4.4c0,0,0,0,0,0c0,0,0,0,0,0l-11.3-11.3
	c-4.1-4.1-10.8-4.1-14.9,0c-4.1,4.1-4.1,10.8,0,14.9l11.3,11.3L209,443c0,0,0,0,0,0c1.9,1.9,3,4.5,3,7.2s-1.1,5.3-3,7.2
	c-3.9,3.9-10.3,3.9-14.2,0.1c-0.1-0.1-0.1-0.1-0.2-0.2l-47-47c0,0,0,0,0,0s0,0,0,0l-7.3-7.3c-4.1-4.1-10.8-4.1-14.9,0
	s-4.1,10.8,0,14.9l7.3,7.3l0,0l20.8,20.8c0,0,0.1,0.1,0.1,0.1c1.9,1.9,3,4.4,3,7.2c0,2.7-1.1,5.3-3,7.2c-3.5,3.5-9.1,3.9-13.1,1
	c-0.4-0.3-0.8-0.7-1.2-1l-62.3-62.3C53.7,375.1,44.5,340.9,52.7,309.1z M378.4,627.6l-76.5-75.2c0,0-0.1-0.1-0.1-0.1
	c-0.1-0.1-0.3-0.3-0.4-0.4c-0.1-0.1-0.3-0.2-0.4-0.3c-0.1-0.1-0.3-0.2-0.4-0.3c-0.2-0.1-0.3-0.2-0.5-0.3c-0.1-0.1-0.2-0.1-0.4-0.2
	c-0.2-0.1-0.4-0.2-0.5-0.3c-0.1-0.1-0.2-0.1-0.4-0.2c-0.2-0.1-0.4-0.2-0.6-0.2c-0.1-0.1-0.3-0.1-0.4-0.1c-0.2-0.1-0.3-0.1-0.5-0.2
	c-0.2,0-0.4-0.1-0.5-0.1c-0.1,0-0.3-0.1-0.4-0.1c-0.2,0-0.4-0.1-0.6-0.1c-0.1,0-0.3,0-0.4,0c-0.2,0-0.4,0-0.6,0c-0.1,0-0.3,0-0.4,0
	c-0.2,0-0.4,0-0.6,0c-0.2,0-0.3,0-0.5,0c-0.2,0-0.3,0-0.5,0.1c-0.2,0-0.4,0.1-0.6,0.1c-0.1,0-0.1,0-0.2,0
	c-32,7.9-64.9-1.3-88.2-24.5l-18.3-18.3l-25.3-25.3c3-1.5,5.8-3.5,8.3-6c2.5-2.5,4.5-5.3,6-8.4l2.3,2.3l2.9,2.9
	c0.1,0.1,0.2,0.2,0.3,0.3l4.1,4.1c2.1,2.1,4.8,3.1,7.5,3.1c0.1,0,0.2,0,0.3,0c3.2,1.1,6.6,1.6,10,1.6c8,0,16.1-3,22.1-9.1
	c2.7-2.7,4.8-5.8,6.4-9.2c5,3.1,10.8,4.7,16.5,4.7c8,0,16-3.1,22.1-9.2c5.5-5.5,8.6-12.6,9.1-20.2c3.4-0.2,6.9-1,10.1-2.3
	c-2.8,7.5-4.2,15.6-4.2,23.8c0,18.5,7.2,35.9,20.3,49c2.1,2.1,4.8,3.1,7.5,3.1c2.7,0,5.4-1,7.5-3.1c4.1-4.1,4.1-10.8,0-14.9
	c-9.1-9.1-14.1-21.2-14.1-34c0-12.8,5-24.9,14.1-34l2.5-2.5c4.1-4.1,4.1-10.8,0-14.9l-19-19c-0.6-0.6-1.2-1-1.8-1.4
	c-0.7-0.9-1.4-1.7-2.2-2.5c-0.2-0.2-0.3-0.4-0.5-0.5l-1.8-1.7l-0.1-0.1c0,0-0.1-0.1-0.1-0.1c0,0,0,0,0,0c-1.9-2-2.9-4.5-2.9-7.3
	c0.1-2.7,1.2-5.3,3.2-7.2c3.9-3.7,10.4-3.5,14.4,0.5l24.3,24.3c23.3,23.3,32.6,57.6,24.2,89.5c-4.2,15.8-12.5,30.4-24.2,42
	c-4.1,4.1-4.1,10.8,0,14.9c2.1,2.1,4.8,3.1,7.5,3.1c2.7,0,5.4-1,7.5-3.1c10.1-10.1,18.2-22,23.8-34.9l63.2,63.5L378.4,627.6z"/>
</svg>
