<?xml version="1.0" encoding="utf-8"?>
<!-- Generator: Adobe Illustrator 22.1.0, SVG Export Plug-In . SVG Version: 6.00 Build 0)  -->
<svg version="1.1" id="Слой_1" xmlns="http://www.w3.org/2000/svg" xmlns:xlink="http://www.w3.org/1999/xlink" x="0px" y="0px"
	 viewBox="0 0 1417.3 1417.3" style="enable-background:new 0 0 1417.3 1417.3;" xml:space="preserve">
<style type="text/css">
	.st0{clip-path:url(#SVGID_2_);}
</style>
<g>
	<g>
		<defs>
			<rect id="SVGID_1_" x="455.3" y="246.4" width="505.4" height="925.4"/>
		</defs>
		<clipPath id="SVGID_2_">
			<use xlink:href="#SVGID_1_"  style="overflow:visible;"/>
		</clipPath>
		<path class="st0" d="M936.8,245.4l-120-0.2c-134.8,0-221.9,89.4-221.9,227.7v105H474.2c-10.4,0-18.8,8.4-18.8,18.8v152.2
			c0,10.4,8.5,18.8,18.8,18.8h120.7v383.9c0,10.4,8.5,18.8,18.9,18.8h157.4c10.4,0,18.9-8.5,18.9-18.8V767.8h141.1
			c10.4,0,18.9-8.5,18.9-18.8l0.1-152.2c0-5-2-9.8-5.5-13.3c-3.5-3.5-8.3-5.5-13.3-5.5H790v-89c0-42.8,10.2-64.5,65.9-64.5l80.8,0
			c10.4,0,18.8-8.5,18.8-18.8V264.3C955.6,253.8,947.2,245.4,936.8,245.4L936.8,245.4z M936.8,245.4"/>
	</g>
</g>
</svg>
