<?xml version="1.0" encoding="utf-8"?>
<!-- Generator: Adobe Illustrator 22.1.0, SVG Export Plug-In . SVG Version: 6.00 Build 0)  -->
<svg version="1.1" id="Capa_1" xmlns="http://www.w3.org/2000/svg" xmlns:xlink="http://www.w3.org/1999/xlink" x="0px" y="0px"
	 viewBox="0 0 1417.3 1417.3" style="enable-background:new 0 0 1417.3 1417.3;" xml:space="preserve">
<path d="M708.7,29c-263.6,0-477.9,214.2-477.9,477.9c0,88.9,24.7,176,71.4,251.4l379.4,611.4c7.2,11.7,20.2,18.8,33.7,18.8h0.3
	c13.8,0,26.8-7.4,34-19.4l369.5-617.2c44.1-73.8,67.4-158.5,67.4-244.8C1186.6,243.2,972.3,29,708.7,29z M1050.9,710.7L714.8,1272
	L370,716.1c-39-62.7-60-134.9-60-209.2c0-219.5,179.2-398.7,398.7-398.7s398.5,179.2,398.5,398.7
	C1107.2,578.8,1087.5,649.4,1050.9,710.7z"/>
<path d="M708.7,267.9c-131.7,0-238.9,107.3-238.9,238.9c0,130.9,105.4,238.9,238.9,238.9c135.1,0,238.9-109.4,238.9-238.9
	C947.6,375.2,840.4,267.9,708.7,267.9z M708.7,666.7c-88.4,0-159.8-71.7-159.8-159.8c0-87.9,71.9-159.8,159.8-159.8
	S868.3,419,868.3,506.9C868.3,593.7,798.4,666.7,708.7,666.7z"/>
</svg>
