<?xml version="1.0" encoding="utf-8"?>
<!-- Generator: Adobe Illustrator 22.1.0, SVG Export Plug-In . SVG Version: 6.00 Build 0)  -->
<svg version="1.1" id="Слой_1" xmlns="http://www.w3.org/2000/svg" xmlns:xlink="http://www.w3.org/1999/xlink" x="0px" y="0px"
	 viewBox="0 0 1417.3 1417.3" style="enable-background:new 0 0 1417.3 1417.3;" xml:space="preserve">
<g>
	<path d="M266.5,114.6h882.9c83.9,0,152.4,62,152.4,152.4V1150c0,90.4-68.5,152.4-152.4,152.4H266.5c-83.9,0-152.4-62-152.4-152.4
		V267C113.9,176.6,182.6,114.6,266.5,114.6L266.5,114.6z M979.4,246.6c-29.4,0-53.5,24.1-53.5,53.5v128.1
		c0,29.4,24.1,53.5,53.5,53.5h134.4c29.4,0,53.5-24.1,53.5-53.5V300.1c0-29.4-24.1-53.5-53.5-53.5H979.4z M1167.7,617.1h-104.6
		c9.9,32.2,15.2,66.5,15.2,102c0,197.6-165.4,357.7-369.3,357.7S339.7,916.7,339.7,719c0-35.5,5.3-69.7,15.2-102h-109v501.9
		c0,25.9,21.3,47.2,47.2,47.2h827.2c25.9,0,47.2-21.3,47.2-47.2V617.1H1167.7z M709,474.8c-131.7,0-238.6,103.6-238.6,231.3
		S577.3,937.3,709,937.3s238.6-103.6,238.6-231.3S841,474.8,709,474.8L709,474.8z"/>
</g>
</svg>
