<?xml version="1.0" encoding="iso-8859-1"?>
<!-- Generator: Adobe Illustrator 21.0.0, SVG Export Plug-In . SVG Version: 6.00 Build 0)  -->
<svg version="1.1" id="Capa_1" xmlns="http://www.w3.org/2000/svg" xmlns:xlink="http://www.w3.org/1999/xlink" x="0px" y="0px"
	 viewBox="0 0 511.999 511.999" style="enable-background:new 0 0 511.999 511.999;" xml:space="preserve">
<g>
	<g>
		<path d="M200.61,309.633l-24.964-9.986c-0.197-0.079-0.324-0.267-0.324-0.479v-15.32c5.028-6.633,8.017-14.893,8.017-23.841
			v-24.049c0-17.396-17.749-31.548-39.564-31.548c-21.816,0-39.565,14.152-39.565,31.548v24.049c0,8.947,2.989,17.207,8.016,23.842
			v15.32c0,0.212-0.127,0.4-0.324,0.479l-24.964,9.985c-8.986,3.595-14.792,12.171-14.792,21.849V356.2
			c0,8.556,6.96,15.516,15.516,15.516h64.128c4.142,0,7.5-3.358,7.5-7.5c0-4.142-3.358-7.5-7.5-7.5H87.661
			c-0.285,0-0.516-0.231-0.516-0.516v-24.717c0-3.509,2.105-6.619,5.363-7.922l24.964-9.985c5.925-2.37,9.753-8.025,9.753-14.406
			v-3.238c5.039,2.331,10.642,3.641,16.549,3.641c5.906,0,11.51-1.31,16.548-3.641v3.238c0,6.382,3.829,12.037,9.753,14.406
			l24.963,9.985c3.258,1.304,5.364,4.413,5.364,7.922V356.2c0,0.285-0.231,0.516-0.516,0.516h-16.035c-4.142,0-7.5,3.358-7.5,7.5
			c0,4.142,3.358,7.5,7.5,7.5h16.035c8.556,0,15.516-6.96,15.516-15.516v-24.717C215.402,321.805,209.596,313.229,200.61,309.633z
			 M168.339,260.008c0,13.544-11.02,24.564-24.565,24.564c-13.545,0-24.564-11.02-24.564-24.564V235.96
			c0-8.97,11.25-16.548,24.565-16.548s24.564,7.578,24.564,16.548V260.008z"/>
	</g>
</g>
<g>
	<g>
		<path d="M480.452,124.25H335.645v-0.516c0-8.556-6.96-15.516-15.516-15.516h-24.564v-0.516c0-21.816-17.749-39.564-39.564-39.564
			s-39.564,17.749-39.564,39.564v0.516h-24.564c-8.556,0-15.516,6.96-15.516,15.516v24.048c0,8.556,6.96,15.516,15.516,15.516
			h128.258c8.556,0,15.516-6.96,15.516-15.516v-8.532h144.807c9.125,0,16.548,7.423,16.548,16.548v256.516
			c0,9.125-7.423,16.548-16.548,16.548H31.548c-9.125,0-16.548-7.423-16.548-16.548V155.797c0-9.125,7.423-16.548,16.548-16.548
			H151.79c4.142,0,7.5-3.358,7.5-7.5c0-4.142-3.358-7.5-7.5-7.5H31.548C14.152,124.25,0,138.401,0,155.797v256.516
			c0,17.396,14.152,31.548,31.548,31.548h448.903c17.396,0,31.548-14.152,31.548-31.548V155.797
			C512,138.401,497.848,124.25,480.452,124.25z M320.129,148.297H191.871c-0.285,0-0.516-0.231-0.516-0.516v-24.048
			c0-0.285,0.231-0.516,0.516-0.516h32.064c4.142,0,7.5-3.358,7.5-7.5v-8.016c0-13.545,11.02-24.564,24.564-24.564
			c13.544,0,24.564,11.02,24.564,24.564v8.016c0,4.142,3.358,7.5,7.5,7.5h32.064c0.285,0,0.516,0.231,0.516,0.516v24.048h0.002
			C320.645,148.067,320.414,148.297,320.129,148.297z"/>
	</g>
</g>
<g>
	<g>
		<path d="M256.155,100.202c-4.141-0.075-7.533,3.283-7.574,7.425l-0.08,8.016c-0.042,4.142,3.283,7.533,7.425,7.574
			c0.025,0,0.051,0,0.076,0c4.107,0,7.457-3.309,7.498-7.425l0.08-8.016C263.621,103.635,260.297,100.242,256.155,100.202z"/>
	</g>
</g>
<g>
	<g>
		<path d="M440.371,212.427H264.016c-8.556,0-15.516,6.96-15.516,15.516v16.032c0,8.556,6.96,15.516,15.516,15.516h176.355
			c8.556,0,15.516-6.961,15.516-15.516v-16.032C455.887,219.388,448.927,212.427,440.371,212.427z M440.887,243.976
			c0,0.285-0.231,0.516-0.516,0.516H264.016c-0.285,0-0.516-0.232-0.516-0.516v-16.032c0-0.285,0.231-0.516,0.516-0.516h176.355
			c0.285,0,0.516,0.231,0.516,0.516V243.976z"/>
	</g>
</g>
<g>
	<g>
		<path d="M408.307,276.557H264.016c-4.142,0-7.5,3.358-7.5,7.5c0,4.142,3.358,7.5,7.5,7.5h144.291c4.142,0,7.5-3.358,7.5-7.5
			C415.807,279.914,412.449,276.557,408.307,276.557z"/>
	</g>
</g>
<g>
	<g>
		<path d="M280.048,316.636h-16.032c-4.142,0-7.5,3.358-7.5,7.5c0,4.142,3.358,7.5,7.5,7.5h16.032c4.142,0,7.5-3.358,7.5-7.5
			C287.548,319.995,284.19,316.636,280.048,316.636z"/>
	</g>
</g>
<g>
	<g>
		<path d="M384.258,316.636h-72.146c-4.142,0-7.5,3.358-7.5,7.5c0,4.142,3.358,7.5,7.5,7.5h72.146c4.142,0,7.5-3.358,7.5-7.5
			C391.758,319.995,388.4,316.636,384.258,316.636z"/>
	</g>
</g>
<g>
	<g>
		<path d="M384.258,348.701h-72.146c-4.142,0-7.5,3.358-7.5,7.5c0,4.142,3.358,7.5,7.5,7.5h72.146c4.142,0,7.5-3.358,7.5-7.5
			C391.758,352.06,388.4,348.701,384.258,348.701z"/>
	</g>
</g>
<g>
	<g>
		<path d="M280.048,348.701h-16.032c-4.142,0-7.5,3.358-7.5,7.5c0,4.142,3.358,7.5,7.5,7.5h16.032c4.142,0,7.5-3.358,7.5-7.5
			C287.548,352.06,284.19,348.701,280.048,348.701z"/>
	</g>
</g>
<g>
</g>
<g>
</g>
<g>
</g>
<g>
</g>
<g>
</g>
<g>
</g>
<g>
</g>
<g>
</g>
<g>
</g>
<g>
</g>
<g>
</g>
<g>
</g>
<g>
</g>
<g>
</g>
<g>
</g>
</svg>
