<?xml version="1.0" encoding="utf-8"?>
<!-- Generator: Adobe Illustrator 22.1.0, SVG Export Plug-In . SVG Version: 6.00 Build 0)  -->
<svg version="1.1" id="Capa_1" xmlns="http://www.w3.org/2000/svg" xmlns:xlink="http://www.w3.org/1999/xlink" x="0px" y="0px"
	 viewBox="0 0 1417.3 1417.3" style="enable-background:new 0 0 1417.3 1417.3;" xml:space="preserve">
<path d="M1371.6,320.3c0-64-52-116.5-116.5-116.5H162.3c-64.2,0-116.5,52.3-116.5,116.5v776.8c0,64,52,116.5,116.5,116.5h1092.7
	c64,0,116.5-52,116.5-116.5V320.3z M123.5,336.1l374.2,370.8l-374.2,374.2V336.1z M711.3,809.2L178.9,281.5H1239L711.3,809.2z
	 M552.8,761.5l131.3,130c15.3,15,39.6,15,54.9,0l127.9-127.9l372.1,372.4H178.4L552.8,761.5z M921.5,708.7l372.4-372.4v744.7
	L921.5,708.7z"/>
</svg>
