<?xml version="1.0" encoding="utf-8"?>
<!-- Generator: Adobe Illustrator 22.1.0, SVG Export Plug-In . SVG Version: 6.00 Build 0)  -->
<svg version="1.1" id="Capa_1" xmlns="http://www.w3.org/2000/svg" xmlns:xlink="http://www.w3.org/1999/xlink" x="0px" y="0px"
	 viewBox="-501.7 -311.7 1417.3 1417.3" style="enable-background:new -501.7 -311.7 1417.3 1417.3;" xml:space="preserve">
<path d="M337.5,444.6l0.3,0.2c1.6,1,3.4,1.5,5.2,1.5c3.4,0,6.7-1.7,8.5-4.8c2.9-4.7,1.4-10.9-3.3-13.7l-0.4-0.2
	c-4.7-2.9-10.9-1.4-13.7,3.3C331.3,435.6,332.8,441.8,337.5,444.6z"/>
<path d="M369.3,501c0,5.5,4.5,10,10,10c5.5,0,10-4.5,10-10c0-16.6-4.7-32.7-13.7-46.6c-3-4.6-9.2-6-13.8-3c-4.6,3-6,9.2-3,13.8
	C365.6,476,369.3,488.3,369.3,501z"/>
<path d="M134,400h-10.2c-5.5,0-10,4.5-10,10c0,5.5,4.5,10,10,10H134c5.5,0,10-4.5,10-10C144,404.5,139.5,400,134,400z"/>
<path d="M57.9,420h10.2c5.5,0,10-4.5,10-10c0-5.5-4.5-10-10-10H57.9c-5.5,0-10,4.5-10,10C47.9,415.5,52.4,420,57.9,420z"/>
<path d="M453,633h-28V501c0-50.1-30.5-93.2-73.8-111.8c15.9-10.7,26.3-28.9,26.3-49.5v-16.2c0-23.3-19-42.2-42.2-42.2
	c-12.9,0-24.5,5.8-32.2,15c-7.8-9.2-19.3-15-32.2-15c-23.3,0-42.2,19-42.2,42.2v16.2c0,20.6,10.5,38.7,26.3,49.5
	c-22.1,9.4-40.8,25.2-53.8,45.1V272.3c0-3.8-2.1-7.2-5.5-8.9l-58.4-29.7c0,0,0,0,0,0c-1.4-0.7-2.9-1.1-4.5-1.1h-33
	c22.2-3.3,39.2-22.4,39.2-45.5c0-25.4-20.6-46-46-46s-46,20.6-46,46c0,23.1,17.1,42.2,39.2,45.5H57.4c-1.6,0-3.1,0.4-4.5,1.1
	c0,0,0,0,0,0l-58.4,29.7c-3.4,1.7-5.5,5.1-5.5,8.9V443c0,5.5,4.5,10,10,10h26.5l10,180H-39c-5.5,0-10,4.5-10,10s4.5,10,10,10h492
	c5.5,0,10-4.5,10-10S458.5,633,453,633z M66.9,187c0-14.3,11.7-26,26-26s26,11.7,26,26s-11.7,26-26,26S66.9,201.4,66.9,187z
	 M201,633v-34c0.9,0,1.7,0.1,2.6,0.1h0.4c20.6,0,38.7-10.5,49.4-26.5c10.7,15.9,28.8,26.5,49.4,26.5h0.4c20.6,0,38.7-10.5,49.4-26.5
	c10.7,15.9,28.8,26.5,49.4,26.5h0.4c0.9,0,1.7,0,2.6-0.1v34L201,633L201,633z M248.5,323.6c0-12.3,10-22.2,22.2-22.2
	c12.3,0,22.2,10,22.2,22.2c0,5.5,4.5,10,10,10c5.5,0,10-4.5,10-10c0-12.3,10-22.2,22.2-22.2c12.3,0,22.2,10,22.2,22.2v16.2
	c0,21.9-17.8,39.6-39.6,39.6h-29.7c-21.9,0-39.6-17.8-39.6-39.6L248.5,323.6L248.5,323.6z M302.6,399.5h0.9
	c56,0,101.5,45.6,101.5,101.5v38.7V579c-0.9,0.1-1.7,0.1-2.6,0.1H402c-21.7,0-39.4-17.7-39.4-39.4c0-5.5-4.5-10-10-10
	c-5.5,0-10,4.5-10,10c0,21.7-17.7,39.4-39.4,39.4h-0.4c-21.7,0-39.4-17.7-39.4-39.4c0-5.5-4.5-10-10-10c-5.5,0-10,4.5-10,10
	c0,21.7-17.7,39.4-39.4,39.4h-0.4c-0.9,0-1.7,0-2.6-0.1v-39.3V501C201,445.1,246.6,399.5,302.6,399.5z M181,501v132h-26.5l10-180
	h26.4C184.6,467.8,181,484,181,501z M181,433h-12v-89.9c0-5.5-4.5-10-10-10c-5.5,0-10,4.5-10,10V433h-44v-79.4l55.1-55.1
	c1.9-1.9,2.9-4.4,2.9-7.1v-22.3l18,9.2V433z M46.2,259.4l6.4-3.3l30.9,68.4l-37.3-37.3L46.2,259.4L46.2,259.4z M137.5,256.2l5.6,2.8
	v28.4l-35.7,35.7L137.5,256.2z M117.2,252.5L95,301.7l-22.2-49.2H117.2z M9,278.4l17.2-8.8v21.9c0,2.7,1.1,5.2,2.9,7.1L85,354.5V433
	H41v-90c0-5.5-4.5-10-10-10s-10,4.5-10,10v90H9V278.4z M45.5,453h99l-10,180H105V498.3c0-5.5-4.5-10-10-10s-10,4.5-10,10V633H55.6
	L45.5,453z"/>
<path d="M257,222.1c0,25.4,20.6,46,46,46s46-20.6,46-46s-20.6-46-46-46S257,196.7,257,222.1z M329,222.1c0,14.3-11.7,26-26,26
	c-14.3,0-26-11.7-26-26s11.7-26,26-26C317.3,196.1,329,207.7,329,222.1z"/>
<path d="M219,292.5c5.5,0,10-4.5,10-10V235c0-40.8,33.2-74,74-74s74,33.2,74,74v47c0,5.5,4.5,10,10,10c5.5,0,10-4.5,10-10v-47
	c0-51.8-42.2-94-94-94s-94,42.2-94,94v47.5C209,288,213.5,292.5,219,292.5z"/>
</svg>
