<?xml version="1.0" encoding="utf-8"?>
<!-- Generator: Adobe Illustrator 22.1.0, SVG Export Plug-In . SVG Version: 6.00 Build 0)  -->
<svg version="1.1" id="Layer_1" xmlns="http://www.w3.org/2000/svg" xmlns:xlink="http://www.w3.org/1999/xlink" x="0px" y="0px"
	 viewBox="-501.7 -311.7 1417.3 1417.3" style="enable-background:new -501.7 -311.7 1417.3 1417.3;" xml:space="preserve">
<circle cx="207" cy="267.4" r="7.8"/>
<path d="M16,653H398c4.3,0,7.8-3.5,7.8-7.8v-27.7c0-4.3-3.5-7.8-7.8-7.8h-24.3V464.4H398c3.3,0,6.3-2.1,7.4-5.2
	c1.1-3.1,0.1-6.6-2.5-8.7l-75.7-61.3c-3.4-2.7-8.3-2.2-11,1.2c-2.7,3.4-2.2,8.3,1.2,11l58.5,47.4h-10H48.2h-6.4L207.1,312l83.3,67.5
	c3.4,2.7,8.3,2.2,11-1.2c2.7-3.4,2.2-8.3-1.2-11l-21.7-17.5v-76.6c0-2.3-1-4.4-2.7-5.9l-45.8-39.5c-1.4-1.2-3.2-1.9-5.1-1.9h-10.1
	v-40.9H240c4.3,0,7.8-3.5,7.8-7.8c0-4.3-3.5-7.8-7.8-7.8h-25.1v-20.4c0-4.3-3.5-7.8-7.8-7.8c-4.3,0-7.8,3.5-7.8,7.8v20.4H174
	c-4.3,0-7.8,3.5-7.8,7.8c0,4.3,3.5,7.8,7.8,7.8h25.1v40.9h-10.1c-1.9,0-3.7,0.7-5.1,1.9l-45.8,39.5c-1.7,1.5-2.7,3.7-2.7,5.9v77.7
	L15,450.5c-2.5,2.1-3.5,5.6-2.4,8.7c1.1,3.1,4.1,5.2,7.4,5.2h20.4v34.5c0,4.3,3.5,7.8,7.8,7.8s7.8-3.5,7.8-7.8v-34.5h302v145.2
	H253.5v-81.1c0-25.6-20.8-46.4-46.4-46.4h-0.2c-25.6,0-46.4,20.8-46.4,46.4v81.1H56v-73.5c0-4.3-3.5-7.8-7.8-7.8s-7.8,3.5-7.8,7.8
	v73.5H16c-4.3,0-7.8,3.5-7.8,7.8v27.7C8.2,649.5,11.7,653,16,653z M151.1,276.8l40.9-35.3H222l40.9,35.3v60.3l-51-41.3
	c-2.9-2.3-7.1-2.3-9.9,0.1L151.1,338V276.8z M176.2,528.6c0-17,13.8-30.7,30.7-30.7h0.2c17,0,30.7,13.8,30.7,30.7v81.1h-61.6V528.6z
	 M23.9,625.3h24.3h120.2h77.3h120.2h24.3v12H23.9V625.3z"/>
<path d="M334.5,576.7c4.3,0,7.8-3.5,7.8-7.8v-63.7c0-4.3-3.5-7.8-7.8-7.8H277c-4.3,0-7.8,3.5-7.8,7.8v63.7c0,4.3,3.5,7.8,7.8,7.8
	H334.5z M284.8,513h41.8V561h-41.8V513z"/>
<path d="M137,576.7c4.3,0,7.8-3.5,7.8-7.8v-63.7c0-4.3-3.5-7.8-7.8-7.8H79.5c-4.3,0-7.8,3.5-7.8,7.8v63.7c0,4.3,3.5,7.8,7.8,7.8H137
	z M87.4,513h41.8V561H87.4V513z"/>
<path d="M167.3,391.3c0,23,18.7,41.8,41.8,41.8s41.8-18.7,41.8-41.8s-18.7-41.8-41.8-41.8S167.3,368.2,167.3,391.3z M201.3,366.3
	v17.1h-17.1C186.7,375.3,193.1,368.9,201.3,366.3z M184.2,399.1h17.1v17.1C193.1,413.6,186.7,407.2,184.2,399.1z M216.9,416.2v-17.1
	H234C231.5,407.2,225,413.6,216.9,416.2z M234,383.4h-17.1v-17.1C225,368.9,231.5,375.3,234,383.4z"/>
</svg>
