<?xml version="1.0" encoding="utf-8"?>
<!-- Generator: Adobe Illustrator 22.1.0, SVG Export Plug-In . SVG Version: 6.00 Build 0)  -->
<svg version="1.1" id="Capa_1" xmlns="http://www.w3.org/2000/svg" xmlns:xlink="http://www.w3.org/1999/xlink" x="0px" y="0px"
	 viewBox="0 0 1417.3 1417.3" style="enable-background:new 0 0 1417.3 1417.3;" xml:space="preserve">
<path d="M933.7,483.7c-18.5-18.5-48.4-18.5-66.6,0L678.5,672.2c-18.5,18.5-18.5,48.4,0,66.6l188.6,188.6c18.5,18.5,48.4,18.5,66.6,0
	c18.2-18.5,18.5-48.4,0-66.6L778.5,705.6l155.2-155.2C952.2,531.8,952.2,502.2,933.7,483.7z"/>
<path d="M705.6,92.8C368,92.8,92.8,367.4,92.8,705.6c0,339.4,276.2,619.1,612.8,619.1c337.8,0,619.1-280,619.1-619.1
	C1324.6,369,1045,92.8,705.6,92.8z M1183.2,752.7h44.9c-10.1,107.8-54.4,207.1-121.6,287.2l-28-28c-18.5-18.5-48.4-18.5-66.6,0
	c-18.2,18.5-18.5,48.4,0,66.6l28,28c-80.1,67.3-179.4,111.6-287.2,121.6v-44.9c0-26.1-21.1-47.1-47.1-47.1
	c-26.1,0-47.1,21.1-47.1,47.1v44.9c-107.2-9.7-205.2-52.8-283.8-118.8l30.8-30.8c18.5-18.5,18.5-48.4,0-66.6
	c-18.5-18.5-48.4-18.5-66.6,0l-30.5,30.5C242,962.6,199,862.4,189.2,752.7h44.9c26.1,0,47.1-21.1,47.1-47.1s-21.1-47.1-47.1-47.1
	h-44.9C199,550.6,241.7,452.6,307.4,374l31.7,31.7c18.5,18.5,48.4,18.5,66.6,0c18.2-18.5,18.5-48.4,0-66.6L374,307.4
	c78.6-65.7,176.9-108.4,284.4-118.2v44.9c0,26.1,21.1,47.1,47.1,47.1c26.1,0,47.1-21.1,47.1-47.1v-44.9
	c109.7,9.7,209.9,52.8,289.7,119.1l-30.5,30.5c-29.9,29.9-8.2,80.4,33.3,80.4c11.9,0,24.2-4.7,33.3-13.8l30.8-30.8
	c66,78.6,109,176.3,118.8,283.8h-44.9c-26.1,0-47.1,21.1-47.1,47.1C1136.1,731.6,1157.1,752.7,1183.2,752.7z"/>
</svg>
