<?xml version="1.0" encoding="utf-8"?>
<!-- Generator: Adobe Illustrator 22.1.0, SVG Export Plug-In . SVG Version: 6.00 Build 0)  -->
<svg version="1.1" id="Слой_1" xmlns="http://www.w3.org/2000/svg" xmlns:xlink="http://www.w3.org/1999/xlink" x="0px" y="0px"
	 viewBox="0 0 1417.3 1417.3" style="enable-background:new 0 0 1417.3 1417.3;" xml:space="preserve">
<style type="text/css">
	.st0{clip-path:url(#SVGID_2_);}
</style>
<g>
	<defs>
		<rect id="SVGID_1_" x="253" y="242.6" width="910" height="934"/>
	</defs>
	<clipPath id="SVGID_2_">
		<use xlink:href="#SVGID_1_"  style="overflow:visible;"/>
	</clipPath>
	<path class="st0" d="M1148.7,380.9l-71.4-71.4c-2.9-2.9-6.9-4.6-11.1-4.6H770.4v-15.6c0-25.8-20.9-46.7-46.7-46.7h-31.1
		c-25.8,0-46.7,20.9-46.7,46.7v15.6H443.5c-25.8,0-46.7,20.9-46.7,46.7v124.5c0,25.8,20.9,46.7,46.7,46.7h202.4v31.1h-62.3
		c-25.8,0-46.7,20.9-46.7,46.7v62.3c0,25.8,20.9,46.7,46.7,46.7h62.3v31.1H350.1c-4.1,0-8.1,1.6-11,4.6l-71.5,71.4
		c-18.2,18.2-18.2,47.7,0,65.9l71.5,71.4c2.9,2.9,6.9,4.6,11,4.6h295.8v109h-52.3c-22.2,0.1-41.4,15.8-45.8,37.6l-10.6,52.7
		c-0.9,4.6,0.2,9.3,3.2,13c3,3.6,7.4,5.7,12.1,5.7h311.3c4.7,0,9.1-2.1,12.1-5.7c3-3.6,4.1-8.4,3.2-13l-10.6-52.7
		c-4.4-21.8-23.5-37.5-45.8-37.6h-52.3v-109h202.4c25.8,0,46.7-20.9,46.7-46.7V787.4c0-25.8-20.9-46.7-46.7-46.7H770.4v-31.1h62.3
		c25.8,0,46.7-20.9,46.7-46.7v-62.3c0-25.8-20.9-46.7-46.7-46.7h-62.3v-31.1h295.8c4.1,0,8.1-1.6,11-4.6l71.4-71.5
		C1166.8,428.6,1166.8,399.1,1148.7,380.9L1148.7,380.9z M677,289.3c0-8.6,7-15.6,15.6-15.6h31.1c8.6,0,15.6,7,15.6,15.6v15.6H677
		V289.3z M838,1111.2l6.8,34.2H571.5l6.8-34.2c1.5-7.3,7.9-12.5,15.3-12.5h229.1C830.1,1098.8,836.5,1104,838,1111.2L838,1111.2z
		 M739.3,1067.6H677v-109h62.3V1067.6z M988.4,787.4V912c0,8.6-7,15.6-15.6,15.6H356.6l-66.9-66.9c-6-6.1-6-15.8,0-21.9l66.9-66.9
		h616.2c4.1,0,8.1,1.7,11,4.6C986.8,779.3,988.4,783.3,988.4,787.4L988.4,787.4z M739.3,740.7H677v-31.1h62.3V740.7z M848.3,600.6
		v62.3c0,8.6-7,15.6-15.6,15.6H583.6c-8.6,0-15.6-7-15.6-15.6v-62.3c0-8.6,7-15.6,15.6-15.6h249.1
		C841.3,585.1,848.3,592,848.3,600.6L848.3,600.6z M739.3,553.9H677v-31.1h62.3V553.9z M1126.6,424.7l-66.9,66.9H443.5
		c-8.6,0-15.6-7-15.6-15.6V351.6c0-8.6,7-15.6,15.6-15.6h616.2l66.9,66.9C1132.6,409,1132.6,418.7,1126.6,424.7L1126.6,424.7z
		 M1126.6,424.7"/>
</g>
<path d="M459.1,351.6L459.1,351.6c8.6,0,15.6,7,15.6,15.6v0c0,8.6-7,15.6-15.6,15.6h0c-8.6,0-15.6-7-15.6-15.6v0
	C443.5,358.5,450.5,351.6,459.1,351.6z"/>
<path d="M505.8,351.6L505.8,351.6c8.6,0,15.6,7,15.6,15.6v0c0,8.6-7,15.6-15.6,15.6h0c-8.6,0-15.6-7-15.6-15.6v0
	C490.2,358.5,497.2,351.6,505.8,351.6z"/>
<path d="M957.2,787.4L957.2,787.4c8.6,0,15.6,7,15.6,15.6v0c0,8.6-7,15.6-15.6,15.6h0c-8.6,0-15.6-7-15.6-15.6v0
	C941.7,794.4,948.6,787.4,957.2,787.4z"/>
<path d="M910.5,787.4L910.5,787.4c8.6,0,15.6,7,15.6,15.6v0c0,8.6-7,15.6-15.6,15.6h0c-8.6,0-15.6-7-15.6-15.6v0
	C895,794.4,901.9,787.4,910.5,787.4z"/>
<path d="M770.4,616.2L770.4,616.2c8.6,0,15.6,7,15.6,15.6v0c0,8.6-7,15.6-15.6,15.6l0,0c-8.6,0-15.6-7-15.6-15.6v0
	C754.9,623.2,761.8,616.2,770.4,616.2z"/>
<path d="M692.6,616.2h31.1c8.6,0,15.6,7,15.6,15.6v0c0,8.6-7,15.6-15.6,15.6h-31.1c-8.6,0-15.6-7-15.6-15.6v0
	C677,623.2,684,616.2,692.6,616.2z"/>
<path d="M645.9,616.2L645.9,616.2c8.6,0,15.6,7,15.6,15.6v0c0,8.6-7,15.6-15.6,15.6h0c-8.6,0-15.6-7-15.6-15.6v0
	C630.3,623.2,637.3,616.2,645.9,616.2z"/>
</svg>
