<?xml version="1.0" encoding="utf-8"?>
<!-- Generator: Adobe Illustrator 22.1.0, SVG Export Plug-In . SVG Version: 6.00 Build 0)  -->
<svg version="1.1" id="Слой_1" xmlns="http://www.w3.org/2000/svg" xmlns:xlink="http://www.w3.org/1999/xlink" x="0px" y="0px"
	 viewBox="0 0 1417.3 1417.3" style="enable-background:new 0 0 1417.3 1417.3;" xml:space="preserve">
<style type="text/css">
	.st0{clip-path:url(#SVGID_2_);}
</style>
<g>
	<g>
		<defs>
			<rect id="SVGID_1_" x="503" y="504.6" width="409.9" height="409.9"/>
		</defs>
		<clipPath id="SVGID_2_">
			<use xlink:href="#SVGID_1_"  style="overflow:visible;"/>
		</clipPath>
		<path class="st0" d="M696,710.5c-3.1,3.1-3.1,8.2,0,11.3c3.1,3.1,8.2,3.1,11.3,0c3.1-3.1,3.1-8.2,0-11.3
			C704.2,707.4,699.1,707.4,696,710.5L696,710.5z M696,710.5"/>
		<path class="st0" d="M823.2,528.6c-13.7,10.6-17.5,16.1-66.2,64.3l-29.2-4.8l13.4-13.4c9.4-9.4,9.4-24.6,0-33.9
			c-9.4-9.4-24.6-9.4-33.9,0l-37.8,37.8l-132.3-21.5c-8.5-1.4-17.3,1.4-23.4,7.6c-11.8,11.8-10.2,31.2,3.3,40.9L648.9,701
			l-24.7,24.7c-8.5,8.5-17.4,20.1-26.5,34.6l-61.5-18.1c-9.1-2.7-18.9-0.2-25.6,6.5c-11.4,11.4-9.7,30.4,3.6,39.5l50.4,34.9
			c-8.8,19.4-14.1,33.4-14.4,34c-1.1,2.9-0.4,6.3,1.8,8.5c2.2,2.2,5.6,2.9,8.5,1.8c0.6-0.2,14.7-5.6,34-14.4l34.9,50.4
			c9.2,13.3,28.1,15,39.6,3.6c6.7-6.7,9.2-16.5,6.5-25.6l-18.1-61.5c14.5-9.2,26.2-18.1,34.6-26.5l24.7-24.7l95.5,131.8
			c9.7,13.4,29.2,15,40.9,3.3c6.1-6.1,8.9-14.9,7.6-23.4l-21.5-132.3l37.8-37.8c9.4-9.4,9.4-24.6,0-33.9c-9.4-9.4-24.6-9.4-33.9,0
			l-13.4,13.4l-4.8-29.2c48.2-48.7,53.6-52.4,64.3-66.1c0,0,0,0,0,0c24.7-32,30.4-64.3,14.4-80.4
			C887.5,498.1,855.2,503.9,823.2,528.6L823.2,528.6z M718.6,552.1c3.1-3.1,8.2-3.1,11.3,0c3.1,3.1,3.1,8.2,0,11.3l-21.5,21.5
			l-19.5-3.2L718.6,552.1z M526.4,592.6c-5.5-4-6.1-11.9-1.3-16.7c2.5-2.5,6.1-3.6,9.5-3.1l208.5,33.9l-82.8,82.8L526.4,592.6z
			 M521.9,760.1c2.6-2.6,6.3-3.5,9.8-2.5l57.5,16.9c-5.9,10.3-11.8,21.7-17.7,34l-48.2-33.3C518.2,771.7,517.6,764.5,521.9,760.1
			L521.9,760.1z M657.7,895.9c-4.3,4.3-11.5,3.7-15.1-1.4l-33.3-48.2c12.3-5.9,23.7-11.9,34-17.7l16.9,57.5
			C661.2,889.6,660.2,893.3,657.7,895.9L657.7,895.9z M854.4,687.8c3.1-3.1,8.2-3.1,11.3,0c3.1,3.1,3.1,8.2,0,11.3L836,728.8
			l-3.2-19.5L854.4,687.8z M844.9,883.2c0.6,3.5-0.6,7.1-3.1,9.5c-4.8,4.8-12.7,4.2-16.7-1.3l-97-133.9l82.8-82.8L844.9,883.2z
			 M680.7,782.3c-8.8,8.8-21.7,18.3-38.3,28.3c-21.6,12.9-47.1,25.2-70.2,35c10.1-23.7,22.5-49.6,35.7-71.5
			c9.7-16,18.9-28.4,27.5-37c195.4-194.9,183.8-184.9,195.7-194.4c13.2-0.8,24.7,3.1,32.8,11.1c8.1,8.1,12,19.6,11.1,32.8
			C865.6,598.5,875.6,587,680.7,782.3L680.7,782.3z M888.8,565.6c-2.6-8.8-7.1-16.7-13.5-23.1c-6.4-6.4-14.3-10.9-23.1-13.5
			c11.6-5.9,31.1-12.4,40.1-3.5C899.4,532.6,897.6,548.2,888.8,565.6L888.8,565.6z M888.8,565.6"/>
	</g>
	<path d="M741.3,665.2l-22.6,22.6c-3.1,3.1-3.1,8.2,0,11.3s8.2,3.1,11.3,0l22.6-22.6c3.1-3.1,3.1-8.2,0-11.3
		C749.4,662.1,744.4,662.1,741.3,665.2L741.3,665.2z M741.3,665.2"/>
	<path d="M786.5,620l-22.6,22.6c-3.1,3.1-3.1,8.2,0,11.3c3.1,3.1,8.2,3.1,11.3,0l22.6-22.6c3.1-3.1,3.1-8.2,0-11.3
		C794.7,616.8,789.6,616.8,786.5,620L786.5,620z M786.5,620"/>
</g>
</svg>
