<?xml version="1.0" encoding="utf-8"?>
<!-- Generator: Adobe Illustrator 22.1.0, SVG Export Plug-In . SVG Version: 6.00 Build 0)  -->
<svg version="1.1" id="Capa_1" xmlns="http://www.w3.org/2000/svg" xmlns:xlink="http://www.w3.org/1999/xlink" x="0px" y="0px"
	 viewBox="-501.7 -311.7 1417.3 1417.3" style="enable-background:new -501.7 -311.7 1417.3 1417.3;" xml:space="preserve">
<path d="M229.3,600h-44.2c-5.5,0-10,4.5-10,10c0,5.5,4.5,10,10,10h44.2c5.5,0,10-4.5,10-10C239.3,604.5,234.9,600,229.3,600z"/>
<path d="M310.1,230.5c1.9-1.9,2.9-4.4,2.9-7.1c0-2.6-1.1-5.2-2.9-7.1c-1.9-1.9-4.4-2.9-7.1-2.9s-5.2,1.1-7.1,2.9
	c-1.9,1.9-2.9,4.4-2.9,7.1c0,2.6,1.1,5.2,2.9,7.1c1.9,1.9,4.4,2.9,7.1,2.9S308.2,232.3,310.1,230.5z"/>
<path d="M457.5,214.5c0,0-0.1-0.1-0.1-0.1l-150-72.4c-2.7-1.3-5.9-1.3-8.7,0l-150,72.4c-3.5,1.7-5.7,5.2-5.7,9s2.2,7.3,5.7,9
	l58.5,28.2v61.9c0,0.5,0,0.9,0.1,1.4h-2.8c-18.4,0-33.3,14.9-33.3,33.3c0,18.4,14.9,33.3,33.3,33.3h3.2c3,28.3,18.5,53,40.8,68.5
	h-93.2c-5.9,0-11.4,1.4-16.3,3.9V315.3c0-9,7.3-16.3,16.3-16.3h25.8c5.5,0,10-4.5,10-10s-4.5-10-10-10h-25.8
	c-10.3,0-19.7,4.4-26.3,11.3c-6.6-7-15.9-11.3-26.3-11.3H-39c-5.5,0-10,4.5-10,10v180v39c0,5.5,4.5,10,10,10h12v49h-12
	c-5.5,0-10,4.5-10,10v18c0,32,26,58,58,58h396c32,0,58-26,58-58v-18c0-5.5-4.5-10-10-10h-12V420c0-5.5-4.5-10-10-10s-10,4.5-10,10
	v147H-7v-49h304c5.5,0,10-4.5,10-10v-32c47.6-2,86.3-38.8,91.3-85.5h3.2c18.4,0,33.3-14.9,33.3-33.3c0-18.4-14.9-33.3-33.3-33.3
	h-2.8c0.1-0.5,0.1-0.9,0.1-1.4v-61.9l44.1-21.3V285c0,5.5,4.5,10,10,10s10-4.5,10-10v-61.6C463,219.5,460.8,216.1,457.5,214.5z
	 M443,595c0,21-17,38-38,38H9c-21,0-38-17-38-38v-8h472V595z M303,162.1l106.3,51.3h-78.1c-5.5,0-10,4.5-10,10s4.5,10,10,10h78.1
	L303,284.7l-127-61.3L303,162.1z M191.1,357.2c0-7.3,6-13.3,13.3-13.3h2.7v26.6h-2.7C197.1,370.5,191.1,364.5,191.1,357.2z M-29,299
	h131.7c9,0,16.3,7.3,16.3,16.3v147.6c-4.9-2.5-10.4-3.9-16.3-3.9H-29V299z M-29,479h131.7c9,0,16.3,7.3,16.3,16.3
	c0,0.9,0.1,1.9,0.4,2.7H-29V479z M138.6,498c0.2-0.9,0.4-1.8,0.4-2.7c0-9,7.3-16.3,16.3-16.3H287v19L138.6,498L138.6,498z
	 M303,456.1c-41.8,0-75.9-34-75.9-75.9v-42.4l71.9,31.6c1.3,0.6,2.7,0.8,4,0.8s2.7-0.3,4-0.8l71.9-31.6v42.4
	C378.9,422.1,344.8,456.1,303,456.1z M414.9,357.2c0,7.3-6,13.3-13.3,13.3h-2.7v-26.6h2.7C408.9,343.9,414.9,349.8,414.9,357.2z
	 M378.9,315.9L303,349.3l-75.9-33.4v-45.7l71.5,34.5c1.4,0.7,2.9,1,4.3,1s3-0.3,4.3-1l71.5-34.5L378.9,315.9L378.9,315.9z"/>
<path d="M453,319.6c-2.6,0-5.2,1.1-7.1,2.9c-1.9,1.9-2.9,4.4-2.9,7.1s1.1,5.2,2.9,7.1c1.9,1.9,4.4,2.9,7.1,2.9s5.2-1.1,7.1-2.9
	c1.9-1.9,2.9-4.4,2.9-7.1s-1.1-5.2-2.9-7.1C458.2,320.7,455.6,319.6,453,319.6z"/>
<path d="M77.8,393c-2.6,0-5.2,1.1-7.1,2.9c-1.9,1.9-2.9,4.4-2.9,7.1s1.1,5.2,2.9,7.1c1.9,1.9,4.4,2.9,7.1,2.9c2.6,0,5.2-1.1,7.1-2.9
	c1.9-1.9,2.9-4.4,2.9-7.1c0-2.6-1.1-5.2-2.9-7.1C83,394.1,80.4,393,77.8,393z"/>
<path d="M40,393H8c-5.5,0-10,4.5-10,10s4.5,10,10,10h32c5.5,0,10-4.5,10-10S45.5,393,40,393z"/>
<path d="M8,365h69.8c5.5,0,10-4.5,10-10s-4.5-10-10-10H8c-5.5,0-10,4.5-10,10S2.5,365,8,365z"/>
</svg>
