<?xml version="1.0" encoding="utf-8"?>
<!-- Generator: Adobe Illustrator 22.1.0, SVG Export Plug-In . SVG Version: 6.00 Build 0)  -->
<svg version="1.1" id="Capa_1" xmlns="http://www.w3.org/2000/svg" xmlns:xlink="http://www.w3.org/1999/xlink" x="0px" y="0px"
	 viewBox="-501.7 -311.7 1417.3 1417.3" style="enable-background:new -501.7 -311.7 1417.3 1417.3;" xml:space="preserve">
<path d="M29,593c-2.6,0-5.2,1.1-7.1,2.9S19,600.4,19,603s1.1,5.2,2.9,7.1c1.9,1.9,4.4,2.9,7.1,2.9s5.2-1.1,7.1-2.9
	c1.9-1.9,2.9-4.4,2.9-7.1s-1.1-5.2-2.9-7.1C34.2,594.1,31.6,593,29,593z"/>
<path d="M413.5,321c-2.6,0-5.2,1.1-7.1,2.9c-1.9,1.9-2.9,4.4-2.9,7.1s1.1,5.2,2.9,7.1c1.9,1.9,4.4,2.9,7.1,2.9
	c2.6,0,5.2-1.1,7.1-2.9c1.9-1.9,2.9-4.4,2.9-7.1s-1.1-5.2-2.9-7.1C418.7,322.1,416.1,321,413.5,321z"/>
<path d="M460.1,143.9c-1.9-1.9-4.4-2.9-7.1-2.9l-246,0c-5.5,0-10,4.5-10,10v28.6L102.2,205c-5.3,1.4-8.5,6.9-7.1,12.2l49.1,183.3
	l-42.5,42.5C96.4,435.2,87.3,430,77,430h-96c-16.5,0-30,13.5-30,30v163c0,16.5,13.5,30,30,30h96c14.1,0,25.9-9.7,29.1-22.8
	l11.9,10.4c9.2,8,20.9,12.4,33.1,12.4H453c5.5,0,10-4.5,10-10V151C463,148.3,461.9,145.8,460.1,143.9z M197,367.6l-18.2-67.5
	c7.6-3.9,13.9-9.8,18.2-16.8V367.6z M197,200.3v37.1l-6.7,1.8c-2.6,0.7-4.7,2.4-6.1,4.7c-1.3,2.3-1.7,5-1,7.6
	c3.8,14.3-4.7,29.1-19,33c-2.6,0.7-4.8,2.4-6.1,4.7c-1.3,2.3-1.7,5-1,7.6l39,144.3H176l-10.3-40.5c-0.3-1.3-0.9-2.5-1.7-3.5
	l-47-175.3L197,200.3z M77,633h-96c-5.5,0-10-4.5-10-10V460c0-5.5,4.5-10,10-10h38v115.2c0,5.5,4.5,10,10,10s10-4.5,10-10V450h38
	c5.5,0,10,4.5,10,10v163C87,628.5,82.5,633,77,633z M151.1,633c-7.3,0-14.4-2.7-20-7.5L107,604.5V466.1l43.7-43.7l7.9,31
	c1.1,4.4,5.1,7.5,9.7,7.5l196.6,0c7.7,0,14,6.3,14,14c0,7.7-6.3,14-14,14H264.1c-5.5,0-10,4.5-10,10c0,5.5,4.5,10,10,10h132
	c7.7,0,14,6.3,14,14c0,7.7-6.3,14-14,14h-132c-5.5,0-10,4.5-10,10s4.5,10,10,10h110.6c7.7,0,14,6.3,14,14c0,7.7-6.3,14-14,14H264.1
	c-5.5,0-10,4.5-10,10s4.5,10,10,10h76.5c7.7,0,14,6.3,14,14s-6.3,14-14,14L151.1,633L151.1,633z M443,633h-71.4c1.9-4.3,3-9,3-14
	s-1.1-9.7-3-14h3.1c18.7,0,34-15.3,34-34c0-5.5-1.3-10.6-3.6-15.2c14.4-4,25-17.1,25-32.8c0-7.6-2.5-14.6-6.7-20.3V376
	c0-5.5-4.5-10-10-10c-5.5,0-10,4.5-10,10v113.8c-2.3-0.5-4.8-0.8-7.3-0.8h-0.3c1.9-4.3,3-9,3-14c0-18.7-15.3-34-34-34h-16.1
	c17.1-7.3,29.1-24.3,29.1-44c0-26.4-21.5-47.9-47.9-47.9s-47.9,21.5-47.9,47.9c0,19.7,12,36.7,29.1,44h-54.7V250.9
	c17.9-3.9,32-18,35.9-35.9h75.2c3.9,17.9,18,32,35.9,35.9V282c0,5.5,4.5,10,10,10c5.5,0,10-4.5,10-10v-40c0-5.5-4.5-10-10-10
	c-14.8,0-26.9-12.1-26.9-26.9c0-5.5-4.5-10-10-10h-93.1c-5.5,0-10,4.5-10,10c0,14.8-12.1,26.9-26.9,26.9c-5.5,0-10,4.5-10,10V441
	H217V161l226,0L443,633L443,633z M330,424.9c-15.4,0-27.9-12.5-27.9-27.9c0-15.4,12.5-27.9,27.9-27.9s27.9,12.5,27.9,27.9
	C357.9,412.4,345.4,424.9,330,424.9z"/>
</svg>
