<?xml version="1.0" encoding="utf-8"?>
<!-- Generator: Adobe Illustrator 22.1.0, SVG Export Plug-In . SVG Version: 6.00 Build 0)  -->
<svg version="1.1" id="Capa_1" xmlns="http://www.w3.org/2000/svg" xmlns:xlink="http://www.w3.org/1999/xlink" x="0px" y="0px"
	 viewBox="-501.7 -311.7 1417.3 1417.3" style="enable-background:new -501.7 -311.7 1417.3 1417.3;" xml:space="preserve">
<path d="M337,181c-40.8,0-74,33.2-74,74c0,21,8.8,40.1,23,53.5c0.4,0.4,0.8,0.8,1.2,1.1c13.2,12,30.6,19.3,49.8,19.3
	s36.7-7.3,49.8-19.3c0.4-0.3,0.8-0.7,1.2-1.1c14.2-13.5,23-32.5,23-53.5C411,214.2,377.8,181,337,181z M306,299.2
	c6.7-10.5,18.2-17,31-17s24.3,6.5,31,17c-8.8,6.2-19.5,9.8-31,9.8S314.8,305.4,306,299.2z M326.7,251.9v-5.1
	c0-5.7,4.6-10.3,10.3-10.3s10.3,4.6,10.3,10.3v5.1c0,5.7-4.6,10.3-10.3,10.3S326.7,257.6,326.7,251.9z M382.2,284.5
	c-5.3-6.9-12-12.5-19.7-16.3c3-4.7,4.8-10.3,4.8-16.3v-5.1c0-16.7-13.6-30.3-30.3-30.3s-30.3,13.6-30.3,30.3v5.1
	c0,6,1.8,11.6,4.8,16.3c-7.7,3.8-14.4,9.4-19.7,16.3c-5.6-8.5-8.8-18.6-8.8-29.5c0-29.8,24.2-54,54-54s54,24.2,54,54
	C391,265.9,387.8,276,382.2,284.5z"/>
<path d="M443,475c11,0,20-9,20-20V161c0-11-9-20-20-20H231c-11,0-20,9-20,20v294c0,11,9,20,20,20h70.9l-63.4,36.6c0,0,0,0,0,0
	l-47.7-47.9c-11.3-11.3-26.4-17.6-42.4-17.6H71.3v-17.6c0-11-9-20-20-20H-39c-5.5,0-10,4.5-10,10V643c0,5.5,4.5,10,10,10h90.3
	c11,0,20-9,20-20v-16.9l29.9,18.1c20.3,12.3,43.6,18.8,67.3,18.8h148c29.7,0,58.8-10.3,81.8-29l51.2-41.4c8-6.5,12.9-16.1,13.5-26.4
	c0.5-10.3-3.3-20.4-10.6-27.7c-13.2-13.2-33.9-15.1-49.3-4.5c-0.1,0.1-0.2,0.2-0.3,0.2l-56.1,42.2c-4.4,3.3-5.3,9.6-2,14
	c3.3,4.4,9.6,5.3,14,2l55.9-42c7.4-5,17.3-4.1,23.6,2.3c3.3,3.3,5,7.8,4.8,12.5s-2.4,8.9-6.1,11.9l-51.2,41.4
	c-19.5,15.8-44.1,24.5-69.2,24.5h-148c-20.1,0-39.8-5.5-57-15.9l-40.3-24.4V466.1h77.1c10.7,0,20.7,4.2,28.3,11.7l53.2,53.4
	c7.6,7.6,17.6,11.7,28.3,11.7h39.2c8.3,0,15,6.7,15,15c0,8.3-6.7,15-15,15H222c-6.9,0-13.6-2-19.4-5.8l-32.1-20.9l-0.1-0.1
	c-4.6-3-10.8-1.7-13.8,2.9s-1.7,10.8,2.9,13.8l32.2,21c9,5.9,19.5,9,30.3,9h75.4c19.3,0,35-15.7,35-35c0-19.3-15.7-35-35-35h-38.6
	l83.1-48L443,475L443,475z M51.3,633H-29V428.5h80.3l0,27.6c0,0,0,0,0,0s0,0,0,0l0,141.7c0,0.3,0,0.5,0,0.8L51.3,633
	C51.3,633,51.3,633,51.3,633z M231,161h212l0,294c0,0,0,0,0,0H231V161z"/>
<path d="M161.5,418.3c1.9,3.2,5.2,5,8.7,5c1.7,0,3.4-0.4,5-1.3c4.8-2.8,6.4-8.9,3.7-13.7L91.5,257l90-52c4.8-2.8,6.4-8.9,3.7-13.7
	c-2.8-4.8-8.9-6.4-13.7-3.7l-90,52c-9.6,5.5-12.8,17.8-7.3,27.3L161.5,418.3z"/>
<path d="M399,353H283c-5.5,0-10,4.5-10,10c0,5.5,4.5,10,10,10h116c5.5,0,10-4.5,10-10C409,357.5,404.5,353,399,353z"/>
<path d="M399,397c-2.6,0-5.2,1.1-7.1,2.9c-1.9,1.9-2.9,4.4-2.9,7.1s1.1,5.2,2.9,7.1c1.9,1.9,4.4,2.9,7.1,2.9s5.2-1.1,7.1-2.9
	c1.9-1.9,2.9-4.4,2.9-7.1s-1.1-5.2-2.9-7.1S401.6,397,399,397z"/>
<path d="M357.3,397H283c-5.5,0-10,4.5-10,10s4.5,10,10,10h74.3c5.5,0,10-4.5,10-10S362.8,397,357.3,397z"/>
<path d="M11.1,509.5c-5.5,0-10,4.5-10,10v39.1c0,5.5,4.5,10,10,10s10-4.5,10-10v-39.1C21.1,514,16.6,509.5,11.1,509.5z"/>
<path d="M11.1,583.1c-2.6,0-5.2,1.1-7.1,2.9c-1.9,1.9-2.9,4.4-2.9,7.1c0,2.6,1.1,5.2,2.9,7.1c1.9,1.9,4.4,2.9,7.1,2.9
	c2.6,0,5.2-1.1,7.1-2.9c1.9-1.9,2.9-4.4,2.9-7.1c0-2.6-1.1-5.2-2.9-7.1C16.3,584.2,13.8,583.1,11.1,583.1z"/>
</svg>
