<?xml version="1.0" encoding="utf-8"?>
<!-- Generator: Adobe Illustrator 22.0.1, SVG Export Plug-In . SVG Version: 6.00 Build 0)  -->
<svg version="1.1" xmlns="http://www.w3.org/2000/svg" xmlns:xlink="http://www.w3.org/1999/xlink" x="0px" y="0px"
	 viewBox="0 0 1095.3 368.3" style="enable-background:new 0 0 1095.3 368.3;" xml:space="preserve">
<style type="text/css">
	.st0{fill:#FFFFFF;}
</style>
<g id="Слой_1">
</g>
<g id="Слой_2">
</g>
<g id="Слой_3">
	<path class="st0" d="M1064.1,0.2c0,0-34.5-5.5-45.5,47.5c-11,53-13,80-38,83s-67.6-19.7-73-22c-40-17-96.5-29.2-148-16
		c-56.5,14.5-92,35-129,92s-46,100-133,87s-175-74-203-90c-65.2-37.3-134-49-226-1s-68,57-59,72s90,61,197,78s248,42,366,37
		s234-14,304-23s212-43,218-47S1064.1,0.2,1064.1,0.2z"/>
</g>
</svg>
