<?xml version="1.0" encoding="utf-8"?>
<!-- Generator: Adobe Illustrator 22.0.1, SVG Export Plug-In . SVG Version: 6.00 Build 0)  -->
<svg version="1.1" xmlns="http://www.w3.org/2000/svg" xmlns:xlink="http://www.w3.org/1999/xlink" x="0px" y="0px"
	 viewBox="0 0 1188.1 455.5" style="enable-background:new 0 0 1188.1 455.5;" xml:space="preserve">
<style type="text/css">
	.st0{fill:#FFFFFF;}
</style>
<g id="Слой_1">
</g>
<g id="Слой_2">
</g>
<g id="Слой_3">
	<path class="st0" d="M100.6,0c0,0,109,2,140,34s45.5,55.5,41.5,110.5s-8,88,44,88s68-8,95-24s95-29,157,31s85.5,59.5,114,61
		c46.4,2.4,91-27,118-56s50-75,128-49s116,25,158,5s48-40,71-14s21,110,21,110s-283,161-479,159s-274-40-383-69s-294-131-322-203
		S100.6,0,100.6,0z"/>
</g>
</svg>
