<svg width="48" height="48" viewBox="0 0 48 48" fill="none" xmlns="http://www.w3.org/2000/svg">
<path d="M23.9995 35.8585C20.7927 35.8585 17.7781 34.6497 15.5106 32.4548C10.8298 27.924 10.8298 20.552 15.5106 16.0212C17.1237 14.4597 19.1481 13.3804 21.3644 12.8996C23.5205 12.4324 25.7645 12.5466 27.8538 13.2306C28.3369 13.3888 28.5962 13.8962 28.4328 14.3637C28.2694 14.8312 27.7453 15.0823 27.2623 14.9241C23.5717 13.716 19.5691 14.621 16.8164 17.2855C12.856 21.1194 12.856 27.3573 16.8164 31.1908C18.7351 33.0481 21.2861 34.0708 23.9995 34.0708C26.7125 34.0708 29.2636 33.0481 31.1823 31.1908C33.9642 28.498 34.8912 24.4452 33.5439 20.8652C33.3693 20.4015 33.6164 19.8882 34.0955 19.7196C34.5749 19.5506 35.1048 19.7894 35.2794 20.2535C36.8712 24.4833 35.7757 29.2729 32.4881 32.4548C30.2206 34.6497 27.206 35.8585 23.9995 35.8585Z" fill="url(#paint0_linear)"/>
<path d="M28.125 47.4781H19.875C19.3572 47.4781 18.9375 47.0717 18.9375 46.5703V42.691C17.2427 42.2573 15.6226 41.6076 14.1042 40.753L11.272 43.4957C11.0962 43.6659 10.8578 43.7616 10.6091 43.7616C10.3605 43.7616 10.1221 43.6659 9.94629 43.4957L4.11255 37.8464C3.93677 37.6762 3.83789 37.4453 3.83789 37.2045C3.83789 36.9638 3.93677 36.7329 4.11255 36.5627L6.94482 33.82C6.06226 32.3497 5.39136 30.7808 4.94348 29.1396H0.9375C0.419678 29.1396 0 28.7332 0 28.2317V20.2426C0 19.7412 0.419678 19.3348 0.9375 19.3348H4.94971C5.39905 17.6964 6.07104 16.1304 6.95361 14.6629L4.11255 11.9117C3.93677 11.7415 3.83789 11.5106 3.83789 11.2698C3.83789 11.029 3.93677 10.7982 4.11255 10.6279L9.94629 4.9787C10.1221 4.80848 10.3605 4.71273 10.6091 4.71273C10.8578 4.71273 11.0962 4.80848 11.272 4.9787L14.1196 7.73629C15.6335 6.88554 17.2485 6.2387 18.9375 5.8064V1.90407C18.9375 1.40262 19.3572 0.996216 19.875 0.996216H28.125C28.6428 0.996216 29.0625 1.40262 29.0625 1.90407V5.81243C30.7482 6.24614 32.3606 6.89405 33.8716 7.74481L36.7277 4.9787C36.9034 4.80848 37.1422 4.71273 37.3909 4.71273C37.6392 4.71273 37.8779 4.80848 38.0537 4.9787L43.8875 10.6279C44.0632 10.7982 44.1617 11.029 44.1617 11.2698C44.1617 11.5106 44.0632 11.7415 43.8875 11.9117L41.031 14.6774C41.9095 16.141 42.5786 17.7021 43.0265 19.3348H47.0625C47.5803 19.3348 48 19.7412 48 20.2426V28.2317C48 28.7332 47.5803 29.1396 47.0625 29.1396H43.0327C42.5863 30.7751 41.9183 32.339 41.0398 33.8051L43.8875 36.5627C44.0632 36.7329 44.1621 36.9638 44.1621 37.2045C44.1621 37.4453 44.0632 37.6762 43.8875 37.8464L38.0537 43.4957C37.6879 43.8499 37.0942 43.8499 36.728 43.4957L33.887 40.7445C32.3716 41.5991 30.754 42.2499 29.0625 42.685V46.5703C29.0625 47.0717 28.6428 47.4781 28.125 47.4781ZM20.8125 45.6624H27.1875V41.9732C27.1875 41.5484 27.4915 41.1806 27.9192 41.0874C29.9114 40.6533 31.7981 39.8944 33.5266 38.8319C33.8972 38.6039 34.3817 38.6557 34.6923 38.9564L37.3909 41.5697L41.8989 37.2045L39.1945 34.5856C38.8843 34.2856 38.8304 33.8175 39.0648 33.4586C40.1572 31.7855 40.9365 29.9602 41.3818 28.0335C41.4774 27.6189 41.8575 27.3239 42.2966 27.3239H46.125V21.1505H42.2915C41.8528 21.1505 41.473 20.8561 41.3767 20.4419C40.9296 18.5184 40.1488 16.696 39.056 15.0253C38.8213 14.6665 38.8748 14.198 39.1849 13.8976L41.8986 11.2698L37.3909 6.90469L34.6772 9.53249C34.3671 9.83286 33.8833 9.88464 33.5127 9.65732C31.7878 8.59911 29.9059 7.84304 27.9192 7.41004C27.4915 7.31677 27.1875 6.94902 27.1875 6.52453V2.81192H20.8125V6.51921C20.8125 6.94441 20.5082 7.31251 20.0797 7.40507C18.0901 7.8363 16.2052 8.59095 14.4774 9.64881C14.1068 9.87577 13.6234 9.82364 13.3136 9.52327L10.6091 6.90434L6.10144 11.2698L8.80042 13.8831C9.11096 14.1838 9.16406 14.653 8.92896 15.0119C7.83142 16.6857 7.0481 18.5128 6.59949 20.4419C6.50317 20.8561 6.12341 21.1505 5.68506 21.1505H1.875V27.3239H5.67957C6.11865 27.3239 6.49878 27.6186 6.59473 28.0335C7.04077 29.9659 7.82336 31.7954 8.92017 33.4721C9.15491 33.831 9.10144 34.2994 8.79126 34.5998L6.10144 37.2045L10.6091 41.5697L13.299 38.9653C13.6091 38.6646 14.0929 38.6128 14.4635 38.8401C16.1949 39.9022 18.0846 40.6601 20.0797 41.0923C20.5082 41.1849 20.8129 41.553 20.8129 41.9782V45.6624H20.8125Z" fill="url(#paint1_linear)"/>
<path d="M24 30.0486C20.6916 30.0486 18 27.4421 18 24.2385C18 21.0345 20.6916 18.4283 24 18.4283C27.3087 18.4283 30 21.0345 30 24.2385C30 27.4421 27.3087 30.0486 24 30.0486ZM24 20.0884C21.6372 20.0884 19.7143 21.9501 19.7143 24.2385C19.7143 26.5265 21.6372 28.3885 24 28.3885C26.3632 28.3885 28.2857 26.5265 28.2857 24.2385C28.2857 21.9501 26.3632 20.0884 24 20.0884Z" fill="url(#paint2_linear)"/>
<path d="M31.786 17.2659C31.6363 17.2659 31.4864 17.2105 31.372 17.0999C31.1431 16.8784 31.1429 16.5191 31.3715 16.2975L31.3999 16.27C31.6286 16.0483 31.9995 16.0481 32.2284 16.2698C32.4573 16.4912 32.4575 16.8505 32.2289 17.0721L32.2007 17.0994C32.0863 17.2105 31.9361 17.2659 31.786 17.2659Z" fill="url(#paint3_linear)"/>
<defs>
<linearGradient id="paint0_linear" x1="-29.6529" y1="-70.7479" x2="-70.24" y2="-27.5419" gradientUnits="userSpaceOnUse">
<stop stop-color="#009CBD"/>
<stop offset="1" stop-color="#00D788"/>
</linearGradient>
<linearGradient id="paint1_linear" x1="-83.3058" y1="-165.732" x2="-164.479" y2="-79.3206" gradientUnits="userSpaceOnUse">
<stop stop-color="#009CBD"/>
<stop offset="1" stop-color="#00D788"/>
</linearGradient>
<linearGradient id="paint2_linear" x1="-2.82645" y1="-23.2529" x2="-23.1193" y2="-1.65" gradientUnits="userSpaceOnUse">
<stop stop-color="#009CBD"/>
<stop offset="1" stop-color="#00D788"/>
</linearGradient>
<linearGradient id="paint3_linear" x1="29.1175" y1="11.9348" x2="27.0879" y2="14.0951" gradientUnits="userSpaceOnUse">
<stop stop-color="#009CBD"/>
<stop offset="1" stop-color="#00D788"/>
</linearGradient>
</defs>
</svg>
