<svg width="48" height="49" viewBox="0 0 48 49" fill="none" xmlns="http://www.w3.org/2000/svg">
<mask id="mask0" mask-type="alpha" maskUnits="userSpaceOnUse" x="0" y="0" width="48" height="49">
<rect y="0.998047" width="48" height="48" fill="url(#paint0_linear)"/>
</mask>
<g mask="url(#mask0)">
<mask id="mask1" mask-type="alpha" maskUnits="userSpaceOnUse" x="0" y="0" width="48" height="49">
<rect y="0.998047" width="48" height="48" fill="url(#paint1_linear)"/>
</mask>
<g mask="url(#mask1)">
<path d="M27.7423 15.244C27.2249 15.244 26.8052 15.6641 26.8052 16.1816C26.8052 16.6986 27.2249 17.1187 27.7423 17.1187C28.2598 17.1187 28.6794 16.6986 28.6794 16.1816C28.6794 15.6641 28.2598 15.244 27.7423 15.244Z" fill="url(#paint2_linear)"/>
<path d="M22.0572 33.5546C22.423 33.1881 22.423 32.5948 22.0572 32.2282C21.691 31.8627 21.0977 31.8627 20.7311 32.2282C20.3657 32.5948 20.3657 33.1881 20.7311 33.5546C21.0977 33.9201 21.691 33.9201 22.0572 33.5546Z" fill="url(#paint3_linear)"/>
<path d="M10.7955 48.7209C11.1587 49.0871 11.7502 49.0911 12.1182 48.7286L16.6622 44.252C17.4341 43.48 17.6689 42.3371 17.3294 41.3436L18.3068 40.4009C18.8331 39.8926 19.5259 39.6125 20.2584 39.6125H32.718C34.9284 39.6125 37.0177 38.7636 38.6015 37.2222C38.6667 37.1589 38.1068 37.8184 47.1017 27.0679C48.4358 25.4895 48.2362 23.1194 46.6563 21.7839C45.0864 20.4607 42.7346 20.6508 41.3968 22.2021L35.8663 27.8864C35.1679 27.0269 34.103 26.4911 32.9523 26.4911H22.501C21.0139 25.8689 19.4359 25.554 17.8077 25.554C13.2959 25.554 9.35441 27.637 7.23881 31.5467C6.34782 31.3779 5.40812 31.6474 4.73209 32.3234L0.273469 36.7952C-0.0905452 37.1603 -0.0912776 37.751 0.272004 38.1169L10.7955 48.7209ZM17.8073 27.4283C19.2429 27.4283 20.6308 27.7172 21.9334 28.287C22.0521 28.339 22.1799 28.3658 22.3091 28.3658H32.9523C33.9686 28.3658 34.827 29.1945 34.827 30.24C34.827 31.2739 33.9862 32.1147 32.9523 32.1147H25.3055C24.788 32.1147 24.3684 32.5344 24.3684 33.0518C24.3684 33.5696 24.788 33.9889 25.3055 33.9889H32.9523C35.0196 33.9889 36.7013 32.3073 36.7013 30.24C36.7013 30.0752 36.6895 29.9119 36.6683 29.75C42.0183 24.2507 42.7727 23.4779 42.8049 23.4395C43.4729 22.651 44.6587 22.5511 45.4475 23.2161C46.237 23.8837 46.337 25.0688 45.6672 25.8616L37.2608 35.9112C36.0333 37.0897 34.4216 37.7382 32.718 37.7382H20.2584C19.0374 37.7382 17.8816 38.2051 17.0049 39.0522L16.2084 39.8209L8.86589 32.4787C10.582 29.2593 13.8021 27.4283 17.8073 27.4283ZM6.05851 33.648C6.36759 33.3389 6.8422 33.2833 7.21904 33.5162C7.36222 33.6033 15.3786 41.6395 15.428 41.7058C15.7023 42.0753 15.6631 42.6 15.342 42.9216L11.4682 46.7379L2.25907 37.4584L6.05851 33.648Z" fill="url(#paint4_linear)"/>
<path d="M14.6209 20.8676H37.1147C38.6652 20.8676 39.9264 19.6063 39.9264 18.0558C39.9264 15.6934 39.9264 5.50867 39.9264 3.80982C39.9264 2.25928 38.6652 0.998047 37.1147 0.998047H14.6209C13.0703 0.998047 11.8091 2.25928 11.8091 3.80982V18.0558C11.8091 19.6063 13.0703 20.8676 14.6209 20.8676ZM38.0518 8.49586H13.6837V6.62159H38.0518V8.49586ZM37.1147 18.9933H14.6209C14.1041 18.9933 13.6837 18.5725 13.6837 18.0558V10.3705H38.0518V18.0558C38.0518 18.5725 37.6314 18.9933 37.1147 18.9933ZM14.6209 2.87268H37.1147C37.6314 2.87268 38.0518 3.29309 38.0518 3.80982V4.74695H13.6837V3.80982C13.6837 3.29309 14.1041 2.87268 14.6209 2.87268Z" fill="url(#paint5_linear)"/>
<path d="M35.2402 15.244H31.4913C30.9739 15.244 30.5542 15.6637 30.5542 16.1816C30.5542 16.699 30.9739 17.1187 31.4913 17.1187H35.2402C35.7581 17.1187 36.1777 16.699 36.1777 16.1816C36.1777 15.6637 35.7581 15.244 35.2402 15.244Z" fill="url(#paint6_linear)"/>
</g>
</g>
<defs>
<linearGradient id="paint0_linear" x1="-83.3058" y1="-171.176" x2="-167.255" y2="-84.6349" gradientUnits="userSpaceOnUse">
<stop stop-color="#009CBD"/>
<stop offset="1" stop-color="#00D788"/>
</linearGradient>
<linearGradient id="paint1_linear" x1="-83.3058" y1="-171.176" x2="-167.255" y2="-84.6349" gradientUnits="userSpaceOnUse">
<stop stop-color="#009CBD"/>
<stop offset="1" stop-color="#00D788"/>
</linearGradient>
<linearGradient id="paint2_linear" x1="23.5523" y1="8.51981" x2="20.2736" y2="11.899" gradientUnits="userSpaceOnUse">
<stop stop-color="#009CBD"/>
<stop offset="1" stop-color="#00D788"/>
</linearGradient>
<linearGradient id="paint3_linear" x1="17.2037" y1="25.2299" x2="13.925" y2="28.6096" gradientUnits="userSpaceOnUse">
<stop stop-color="#009CBD"/>
<stop offset="1" stop-color="#00D788"/>
</linearGradient>
<linearGradient id="paint4_linear" x1="-83.2799" y1="-79.8726" x2="-125.501" y2="-5.53399" gradientUnits="userSpaceOnUse">
<stop stop-color="#009CBD"/>
<stop offset="1" stop-color="#00D788"/>
</linearGradient>
<linearGradient id="paint5_linear" x1="-36.9896" y1="-70.2731" x2="-69.4171" y2="-22.9686" gradientUnits="userSpaceOnUse">
<stop stop-color="#009CBD"/>
<stop offset="1" stop-color="#00D788"/>
</linearGradient>
<linearGradient id="paint6_linear" x1="20.7943" y1="8.51981" x2="18.8737" y2="14.4591" gradientUnits="userSpaceOnUse">
<stop stop-color="#009CBD"/>
<stop offset="1" stop-color="#00D788"/>
</linearGradient>
</defs>
</svg>
