<svg width="64" height="64" viewBox="0 0 64 64" fill="none" xmlns="http://www.w3.org/2000/svg">
<mask id="mask0" mask-type="alpha" maskUnits="userSpaceOnUse" x="0" y="0" width="64" height="64">
<rect width="64" height="64" fill="url(#paint0_linear)"/>
</mask>
<g mask="url(#mask0)">
<path d="M47.8808 19.652C45.9683 18.8838 45.4158 18.4192 45.4158 17.5802C45.4158 16.9088 45.9232 16.1244 47.3539 16.1244C48.6193 16.1244 49.5898 16.6244 49.5984 16.6288C49.7005 16.6834 49.8151 16.7125 49.9285 16.7125C50.2054 16.7125 50.4504 16.5445 50.5519 16.2846L50.8995 15.3941C51.0206 15.0696 50.8369 14.7869 50.6028 14.6854C49.8237 14.3456 48.3011 14.0826 48.2856 14.0798C48.261 14.0755 48.1757 14.0572 48.1757 13.9573L48.1708 12.6655C48.1708 12.2764 47.8467 11.9597 47.4488 11.9597H46.8252C46.4276 11.9597 46.1036 12.2763 46.1036 12.6656L46.1053 14.0238C46.1053 14.1279 45.9927 14.1731 45.9516 14.1827C44.0296 14.6415 42.8284 16.0525 42.8284 17.8322C42.8284 20.0508 44.6584 21.0534 46.6343 21.806C48.214 22.4275 48.8583 23.0577 48.8583 23.982C48.8583 24.9878 47.9457 25.6903 46.6383 25.6903C45.5219 25.6903 44.011 24.9811 43.996 24.9739C43.8993 24.928 43.7969 24.9048 43.6915 24.9048C43.404 24.9048 43.1536 25.0791 43.0535 25.349L42.7216 26.2496C42.6036 26.5858 42.7853 26.8588 43.0178 26.9803C43.9457 27.4646 45.7412 27.7484 45.8211 27.7609C45.8426 27.764 45.9519 27.8025 45.9519 27.9026V29.2548C45.9519 29.6438 46.2761 29.9606 46.6742 29.9606H47.3185C47.7168 29.9606 48.041 29.644 48.041 29.2548V27.8317C48.041 27.6987 48.1389 27.6869 48.1591 27.6821C50.2067 27.2211 51.4679 25.7198 51.4679 23.8346C51.4674 21.8984 50.3944 20.6472 47.8808 19.652Z" fill="url(#paint1_linear)"/>
<path d="M47.0757 4.00024C37.7289 4.00024 30.1523 11.5937 30.1523 20.9602C30.1523 30.3268 37.7289 37.9205 47.0757 37.9205C56.4222 37.9205 63.9989 30.3268 63.9989 20.9602C63.9989 11.5937 56.4222 4.00024 47.0757 4.00024ZM47.0757 33.9899C39.8949 33.9899 34.0743 28.1561 34.0743 20.9604C34.0743 13.7646 39.8949 7.93101 47.0757 7.93101C54.2561 7.93101 60.0766 13.7646 60.0766 20.9604C60.0766 28.1561 54.2561 33.9899 47.0757 33.9899Z" fill="url(#paint2_linear)"/>
<path d="M60.5614 46.1387C56.9627 48.1292 52.0131 49.9697 47.0771 50.7455C42.6854 51.4357 34.4234 49.7712 34.4234 47.8052C34.4234 47.0603 41.6695 49.6408 46.0527 48.4689C49.4138 47.5702 48.9366 44.4193 47.1084 44.0037C45.2909 43.5903 34.6424 39.6809 30.094 39.546C27.9514 39.4825 22.6616 40.2928 20.1019 40.7105C19.225 40.8535 18.6752 40.8378 18.6204 41.6788C18.3657 45.5871 17.8637 53.5795 17.59 57.7544C17.5843 57.8426 17.7066 59.0288 18.6833 58.194C19.7525 57.2804 21.252 56.2677 22.639 56.5829C24.815 57.0777 43.6402 60.534 46.2368 59.9291C49.9515 59.0637 60.4671 52.8185 62.4832 50.8773C65.6082 47.868 63.179 44.6909 60.5614 46.1387Z" fill="url(#paint3_linear)"/>
<path d="M13.4254 40.5586L3.56339 40.0716C2.80198 40.034 2.02434 40.609 1.83512 41.3489L0.0419063 57.6648C-0.147137 58.4049 0.321503 59.0347 1.08327 59.0641L12.0128 59.063C12.7748 59.0925 13.4454 58.4934 13.5039 57.7316L14.7042 42.0118C14.7622 41.2502 14.1868 40.5962 13.4254 40.5586ZM7.61953 56.9015C6.11349 56.9015 4.89283 55.678 4.89283 54.1689C4.89283 52.6596 6.11367 51.4363 7.61953 51.4363C9.12538 51.4363 10.3462 52.6598 10.3462 54.1689C10.3462 55.6782 9.12556 56.9015 7.61953 56.9015Z" fill="url(#paint4_linear)"/>
</g>
<defs>
<linearGradient id="paint0_linear" x1="-111.074" y1="-229.565" x2="-223.007" y2="-114.177" gradientUnits="userSpaceOnUse">
<stop stop-color="#009CBD"/>
<stop offset="1" stop-color="#00D788"/>
</linearGradient>
<linearGradient id="paint1_linear" x1="27.4407" y1="-52.6085" x2="2.15265" y2="-39.8885" gradientUnits="userSpaceOnUse">
<stop stop-color="#009CBD"/>
<stop offset="1" stop-color="#00D788"/>
</linearGradient>
<linearGradient id="paint2_linear" x1="-28.5896" y1="-117.67" x2="-87.9182" y2="-56.6431" gradientUnits="userSpaceOnUse">
<stop stop-color="#009CBD"/>
<stop offset="1" stop-color="#00D788"/>
</linearGradient>
<linearGradient id="paint3_linear" x1="-62.8796" y1="-33.8373" x2="-88.7769" y2="26.6695" gradientUnits="userSpaceOnUse">
<stop stop-color="#009CBD"/>
<stop offset="1" stop-color="#00D788"/>
</linearGradient>
<linearGradient id="paint4_linear" x1="-25.5266" y1="-28.0619" x2="-57.9358" y2="-2.19132" gradientUnits="userSpaceOnUse">
<stop stop-color="#009CBD"/>
<stop offset="1" stop-color="#00D788"/>
</linearGradient>
</defs>
</svg>
