<svg width="64" height="64" viewBox="0 0 64 64" fill="none" xmlns="http://www.w3.org/2000/svg">
<mask id="mask0" mask-type="alpha" maskUnits="userSpaceOnUse" x="0" y="0" width="64" height="64">
<rect width="64" height="64" fill="url(#paint0_linear)"/>
</mask>
<g mask="url(#mask0)">
<path d="M53.1921 25.7152C55.1016 23.2626 60.7115 16.0576 60.7115 16.0576C62.7317 13.4629 62.6805 10.0269 60.1037 7.99299C57.5268 5.95891 54.2003 6.72954 52.1804 9.32406L44.574 19.093C44.574 19.093 44.4124 19.3007 44.5824 19.4348C46.3688 20.8449 51.2095 24.6654 52.5785 25.746C52.8113 25.9298 52.9436 26.0342 53.1921 25.7152Z" fill="url(#paint1_linear)"/>
<path d="M43.7988 21.7897C43.686 21.7009 43.5989 21.7234 43.5221 21.8325C42.6939 23.0141 37.7243 30.0923 35.8503 32.4992C34.6713 34.0136 34.6152 36.8078 35.0485 38.3909C35.0629 38.4435 35.1192 38.5118 35.0358 38.6189C34.8055 38.9148 34.673 39.122 34.5398 39.2929C34.18 39.7551 34.3763 40.3044 34.7126 40.5582C35.0634 40.8229 35.6572 40.9209 36.0172 40.4589C36.1506 40.2874 36.3196 40.1075 36.5507 39.8108C36.616 39.727 36.6959 39.7415 36.7409 39.7429C38.3677 39.7949 41.0724 39.0767 42.2568 37.5555C44.1475 35.1273 49.8322 28.5341 50.6982 27.5306C50.77 27.4475 50.8407 27.3478 50.6852 27.2249C48.9636 25.8663 45.561 23.1806 43.7988 21.7897Z" fill="url(#paint2_linear)"/>
<path d="M58.5102 26.1182C58.142 26.5913 57.4622 26.6743 56.9924 26.3034C56.5223 25.9325 56.4401 25.2483 56.8085 24.7749L62.0663 18.022C62.4345 17.5489 63.1142 17.4659 63.5841 17.837C64.054 18.208 64.1364 18.8921 63.768 19.3653L58.5102 26.1182Z" fill="url(#paint3_linear)"/>
<path d="M36.0281 25.6242C36.0281 26.0816 35.6565 26.456 35.2023 26.456H7.3301C6.87551 26.456 6.50391 26.0817 6.50391 25.6242V24.7577C6.50391 24.3003 6.87551 23.9261 7.3301 23.9261H35.2024C35.6567 23.9261 36.0283 24.3003 36.0283 24.7577V25.6242H36.0281Z" fill="url(#paint4_linear)"/>
<path d="M36.0296 43.4095C36.0296 43.8667 35.6576 44.2409 35.2031 44.2409H24.3731C23.9185 44.2409 23.5469 43.8667 23.5469 43.4095V42.6988C23.5469 42.2415 23.9185 41.8673 24.3731 41.8673H35.2031C35.6576 41.8673 36.0296 42.2415 36.0296 42.6988V43.4095Z" fill="url(#paint5_linear)"/>
<path d="M36.0286 17.9443C36.0286 18.4017 35.657 18.7758 35.2027 18.7758H7.33059C6.876 18.7758 6.50439 18.4017 6.50439 17.9443V17.0775C6.50439 16.6201 6.876 16.246 7.33059 16.246H35.2029C35.6572 16.246 36.0288 16.6201 36.0288 17.0775V17.9443H36.0286Z" fill="url(#paint6_linear)"/>
<path d="M39.4948 43.3567V52.0526C39.4948 53.6415 38.2037 54.9415 36.6256 54.9415H5.90727C4.32917 54.9415 3.038 53.6415 3.038 52.0526V11.9479C3.038 10.359 4.32917 9.05905 5.90727 9.05905H36.6254C38.2035 9.05905 39.4947 10.359 39.4947 11.9479V21.1865C39.4947 22.0707 39.9282 21.6299 40.1289 21.3663C40.6411 20.6935 41.6082 19.5769 41.9978 19.1584C42.3993 18.7271 42.5327 18.359 42.5327 17.8422V8.88899C42.5327 7.30011 41.2415 6.00012 39.6634 6.00012H2.86926C1.29117 6.00012 0 7.30011 0 8.88899V55.1113C0 56.7001 1.29117 58.0001 2.86926 58.0001H39.6636C41.2417 58.0001 42.5328 56.7001 42.5328 55.1113V42.1504C42.5328 41.3957 42.0965 41.5134 41.8774 41.6212C41.2738 41.918 40.672 42.139 40.1234 42.3029C39.9043 42.3685 39.4948 42.4627 39.4948 43.3567Z" fill="url(#paint7_linear)"/>
</g>
<defs>
<linearGradient id="paint0_linear" x1="-111.074" y1="-229.565" x2="-223.007" y2="-114.177" gradientUnits="userSpaceOnUse">
<stop stop-color="#009CBD"/>
<stop offset="1" stop-color="#00D788"/>
</linearGradient>
<linearGradient id="paint1_linear" x1="13.8972" y1="-61.6238" x2="-19.4582" y2="-29.8506" gradientUnits="userSpaceOnUse">
<stop stop-color="#009CBD"/>
<stop offset="1" stop-color="#00D788"/>
</linearGradient>
<linearGradient id="paint2_linear" x1="5.8317" y1="-46.583" x2="-27.2665" y2="-17.1487" gradientUnits="userSpaceOnUse">
<stop stop-color="#009CBD"/>
<stop offset="1" stop-color="#00D788"/>
</linearGradient>
<linearGradient id="paint3_linear" x1="43.7001" y1="-14.4275" x2="28.2597" y2="-1.20202" gradientUnits="userSpaceOnUse">
<stop stop-color="#009CBD"/>
<stop offset="1" stop-color="#00D788"/>
</linearGradient>
<linearGradient id="paint4_linear" x1="-44.7368" y1="14.8516" x2="-45.4676" y2="23.6442" gradientUnits="userSpaceOnUse">
<stop stop-color="#009CBD"/>
<stop offset="1" stop-color="#00D788"/>
</linearGradient>
<linearGradient id="paint5_linear" x1="1.88272" y1="33.3534" x2="0.400999" y2="41.3864" gradientUnits="userSpaceOnUse">
<stop stop-color="#009CBD"/>
<stop offset="1" stop-color="#00D788"/>
</linearGradient>
<linearGradient id="paint6_linear" x1="-44.7363" y1="7.17143" x2="-45.4671" y2="15.964" gradientUnits="userSpaceOnUse">
<stop stop-color="#009CBD"/>
<stop offset="1" stop-color="#00D788"/>
</linearGradient>
<linearGradient id="paint7_linear" x1="-73.8173" y1="-180.522" x2="-163.497" y2="-104.905" gradientUnits="userSpaceOnUse">
<stop stop-color="#009CBD"/>
<stop offset="1" stop-color="#00D788"/>
</linearGradient>
</defs>
</svg>
