<svg width="24" height="34" viewBox="0 0 24 34" fill="none" xmlns="http://www.w3.org/2000/svg">
<path d="M11.9999 0C5.38304 0 0 5.5898 0 12.4608C0 15.6171 1.91525 20.0767 5.6928 25.7158C8.4539 29.8379 11.1695 33.0278 11.2839 33.1616L11.9999 34L12.7161 33.1616C12.8302 33.0278 15.5459 29.8379 18.3072 25.7158C22.0845 20.0767 24 15.6171 24 12.4608C24 5.5898 18.6167 0 11.9999 0ZM16.7462 24.5646C14.8799 27.3526 12.9936 29.7521 11.9999 30.9762C11.0086 29.7554 9.12937 27.3651 7.26432 24.5807C3.76431 19.3559 1.91425 15.1647 1.91425 12.4608C1.91425 6.68602 6.43872 1.98778 11.9999 1.98778C17.5613 1.98778 22.0855 6.68602 22.0855 12.4608C22.0855 15.1619 20.2392 19.3473 16.7462 24.5646Z" fill="url(#paint0_linear)"/>
<path d="M11.9999 5C8.14008 5 5 8.14008 5 11.9999C5 15.8597 8.14008 19 11.9999 19C15.8599 19 19 15.8597 19 11.9999C19 8.14008 15.8599 5 11.9999 5ZM11.9999 17.108C9.18348 17.108 6.892 14.8165 6.892 11.9999C6.892 9.18348 9.18348 6.892 11.9999 6.892C14.8165 6.892 17.108 9.18348 17.108 11.9999C17.108 14.8165 14.8165 17.108 11.9999 17.108Z" fill="url(#paint1_linear)"/>
<defs>
<linearGradient id="paint0_linear" x1="0.951887" y1="-9.30523" x2="34.6583" y2="5.31327" gradientUnits="userSpaceOnUse">
<stop stop-color="#F7C502"/>
<stop offset="1" stop-color="#6FCF97"/>
</linearGradient>
<linearGradient id="paint1_linear" x1="5.55527" y1="1.16843" x2="22.5139" y2="11.588" gradientUnits="userSpaceOnUse">
<stop stop-color="#F7C502"/>
<stop offset="1" stop-color="#6FCF97"/>
</linearGradient>
</defs>
</svg>
