<svg width="48" height="49" viewBox="0 0 48 49" fill="none" xmlns="http://www.w3.org/2000/svg">
<mask id="mask0" mask-type="alpha" maskUnits="userSpaceOnUse" x="0" y="0" width="48" height="49">
<rect y="0.996704" width="48" height="48" fill="url(#paint0_linear)"/>
</mask>
<g mask="url(#mask0)">
<mask id="mask1" mask-type="alpha" maskUnits="userSpaceOnUse" x="0" y="0" width="48" height="49">
<rect y="0.996704" width="48" height="48" fill="url(#paint1_linear)"/>
</mask>
<g mask="url(#mask1)">
<path d="M43.3125 23.6217C43.83 23.6217 44.25 23.2017 44.25 22.6842C44.25 22.1667 43.83 21.7467 43.3125 21.7467C42.795 21.7467 42.375 22.1667 42.375 22.6842C42.375 23.2017 42.795 23.6217 43.3125 23.6217Z" fill="url(#paint2_linear)"/>
<path d="M24 32.9967C23.4825 32.9967 23.0625 33.4167 23.0625 33.9342C23.0625 34.4517 23.4825 34.8717 24 34.8717C24.5175 34.8717 24.9375 34.4517 24.9375 33.9342C24.9375 33.4167 24.5175 32.9967 24 32.9967Z" fill="url(#paint3_linear)"/>
<path d="M14.625 16.1217H15.7313L17.1537 23.2357C17.4159 24.5457 18.576 25.4967 19.9124 25.4967H28.0876C29.424 25.4967 30.5841 24.5457 30.8463 23.2354L32.2687 16.1217H33.375C33.8928 16.1217 34.3125 15.702 34.3125 15.1842C34.3125 14.6664 33.8928 14.2467 33.375 14.2467C32.6158 14.2467 29.6023 14.2467 28.4257 14.2467L26.7645 9.26294C26.6005 8.77148 26.0698 8.50598 25.5787 8.66968C25.0873 8.83374 24.8218 9.36438 24.9855 9.85547L26.4492 14.2467H21.5508L23.0145 9.85547C23.1782 9.36438 22.9127 8.83374 22.4213 8.66968C21.9302 8.50598 21.3992 8.77148 21.2355 9.26294L19.5743 14.2467C18.7537 14.2467 15.7028 14.2467 14.625 14.2467C14.1072 14.2467 13.6875 14.6664 13.6875 15.1842C13.6875 15.702 14.1072 16.1217 14.625 16.1217ZM30.3567 16.1217L29.0076 22.8677C28.9204 23.3046 28.5333 23.6217 28.0876 23.6217H19.9127C19.4667 23.6217 19.08 23.3046 18.9924 22.868L17.6433 16.1217H30.3567Z" fill="url(#paint4_linear)"/>
<path d="M22.125 21.7467C22.6428 21.7467 23.0625 21.327 23.0625 20.8092V18.9342C23.0625 18.4164 22.6428 17.9967 22.125 17.9967C21.6072 17.9967 21.1875 18.4164 21.1875 18.9342V20.8092C21.1875 21.327 21.6072 21.7467 22.125 21.7467Z" fill="url(#paint5_linear)"/>
<path d="M25.875 21.7467C26.3928 21.7467 26.8125 21.327 26.8125 20.8092V18.9342C26.8125 18.4164 26.3928 17.9967 25.875 17.9967C25.3572 17.9967 24.9375 18.4164 24.9375 18.9342V20.8092C24.9375 21.327 25.3572 21.7467 25.875 21.7467Z" fill="url(#paint6_linear)"/>
<path d="M2.8125 38.6217H19.3125V42.3717H16.5C15.2483 42.3717 14.0713 42.8595 13.1858 43.745C12.3003 44.6305 11.8125 45.8075 11.8125 47.0592C11.8125 47.577 12.2322 47.9967 12.75 47.9967H35.25C35.7678 47.9967 36.1875 47.577 36.1875 47.0592C36.1875 44.4745 34.0847 42.3717 31.5 42.3717H28.6875V38.6217H45.1875C45.9386 38.6217 46.6447 38.3291 47.176 37.7977C47.7074 37.2664 48 36.5603 48 35.8092V5.8092C48 5.05811 47.7074 4.35205 47.176 3.82068C46.6447 3.28931 45.9386 2.9967 45.1875 2.9967H2.8125C2.0614 2.9967 1.35535 3.28931 0.823974 3.82068C0.292603 4.35205 0 5.05811 0 5.8092V35.8092C0 36.5603 0.292603 37.2664 0.823974 37.7977C1.35535 38.3291 2.0614 38.6217 2.8125 38.6217ZM34.1517 46.1217H13.8472C13.9849 45.731 14.2097 45.3728 14.5118 45.0707C15.0432 44.5393 15.7493 44.2467 16.5 44.2467H31.5C32.7224 44.2467 33.765 45.0304 34.1517 46.1217ZM26.8125 42.3717H21.1875V38.6217H26.8125V42.3717ZM45.8503 36.472C45.6731 36.6493 45.4376 36.7467 45.1875 36.7467H2.8125C2.56238 36.7467 2.3269 36.6493 2.14966 36.472C1.97241 36.2948 1.875 36.0593 1.875 35.8092V31.1217H46.125V35.8092C46.125 36.0593 46.0276 36.2948 45.8503 36.472ZM2.14966 5.14636C2.3269 4.96912 2.56238 4.8717 2.8125 4.8717H45.1875C45.4376 4.8717 45.6731 4.96912 45.8503 5.14636C46.0276 5.32361 46.125 5.55908 46.125 5.8092V29.2467H1.875V5.8092C1.875 5.55908 1.97241 5.32361 2.14966 5.14636Z" fill="url(#paint7_linear)"/>
<path d="M43.3125 19.8717C43.8303 19.8717 44.25 19.452 44.25 18.9342V11.4342C44.25 10.9164 43.8303 10.4967 43.3125 10.4967C42.7947 10.4967 42.375 10.9164 42.375 11.4342V18.9342C42.375 19.452 42.7947 19.8717 43.3125 19.8717Z" fill="url(#paint8_linear)"/>
</g>
</g>
<defs>
<linearGradient id="paint0_linear" x1="-83.3058" y1="-171.177" x2="-167.255" y2="-84.6363" gradientUnits="userSpaceOnUse">
<stop stop-color="#009CBD"/>
<stop offset="1" stop-color="#00D788"/>
</linearGradient>
<linearGradient id="paint1_linear" x1="-83.3058" y1="-171.177" x2="-167.255" y2="-84.6363" gradientUnits="userSpaceOnUse">
<stop stop-color="#009CBD"/>
<stop offset="1" stop-color="#00D788"/>
</linearGradient>
<linearGradient id="paint2_linear" x1="39.1209" y1="15.0212" x2="35.8416" y2="18.4017" gradientUnits="userSpaceOnUse">
<stop stop-color="#009CBD"/>
<stop offset="1" stop-color="#00D788"/>
</linearGradient>
<linearGradient id="paint3_linear" x1="19.8084" y1="26.2712" x2="16.5291" y2="29.6517" gradientUnits="userSpaceOnUse">
<stop stop-color="#009CBD"/>
<stop offset="1" stop-color="#00D788"/>
</linearGradient>
<linearGradient id="paint4_linear" x1="-22.108" y1="-51.9099" x2="-50.8647" y2="-15.6785" gradientUnits="userSpaceOnUse">
<stop stop-color="#009CBD"/>
<stop offset="1" stop-color="#00D788"/>
</linearGradient>
<linearGradient id="paint5_linear" x1="17.9334" y1="4.54562" x2="12.5891" y2="7.30025" gradientUnits="userSpaceOnUse">
<stop stop-color="#009CBD"/>
<stop offset="1" stop-color="#00D788"/>
</linearGradient>
<linearGradient id="paint6_linear" x1="21.6834" y1="4.54562" x2="16.3391" y2="7.30025" gradientUnits="userSpaceOnUse">
<stop stop-color="#009CBD"/>
<stop offset="1" stop-color="#00D788"/>
</linearGradient>
<linearGradient id="paint7_linear" x1="-83.3058" y1="-158.416" x2="-161.691" y2="-72.2241" gradientUnits="userSpaceOnUse">
<stop stop-color="#009CBD"/>
<stop offset="1" stop-color="#00D788"/>
</linearGradient>
<linearGradient id="paint8_linear" x1="39.1209" y1="-23.131" x2="32.6325" y2="-21.7933" gradientUnits="userSpaceOnUse">
<stop stop-color="#009CBD"/>
<stop offset="1" stop-color="#00D788"/>
</linearGradient>
</defs>
</svg>
