<svg width="48" height="49" viewBox="0 0 48 49" fill="none" xmlns="http://www.w3.org/2000/svg">
<mask id="mask0" mask-type="alpha" maskUnits="userSpaceOnUse" x="0" y="0" width="48" height="49">
<rect y="0.996704" width="48" height="48" fill="url(#paint0_linear)"/>
</mask>
<g mask="url(#mask0)">
<mask id="mask1" mask-type="alpha" maskUnits="userSpaceOnUse" x="0" y="0" width="48" height="49">
<rect y="0.996704" width="48" height="48" fill="url(#paint1_linear)"/>
</mask>
<g mask="url(#mask1)">
<path d="M39.046 16.9906L41.0642 14.972C42.1606 13.876 42.1606 12.0918 41.0642 10.995C39.9678 9.89856 38.1836 9.89856 37.0872 10.995L34.9324 13.1498C32.6846 11.5842 30.1222 10.5006 27.4375 9.98059V7.1842H29.3125C29.8303 7.1842 30.25 6.76453 30.25 6.2467V3.8092C30.25 2.2583 28.9884 0.996704 27.4375 0.996704H19.9375C18.3866 0.996704 17.125 2.2583 17.125 3.8092V6.2467C17.125 6.76453 17.5447 7.1842 18.0625 7.1842H19.9375V9.98059C17.2532 10.5002 14.6904 11.5842 12.4426 13.1498L10.2878 10.995C9.19177 9.89856 7.40759 9.89856 6.31079 10.995C5.21436 12.0914 5.21436 13.8756 6.31079 14.972L8.32898 16.9906C5.53149 20.4751 4 24.8154 4 29.3092C4 40.1648 12.8319 48.9967 23.6875 48.9967C34.5431 48.9967 43.375 40.1648 43.375 29.3092C43.375 24.8154 41.8435 20.4751 39.046 16.9906ZM38.4128 12.3207C38.7787 11.9552 39.373 11.9556 39.7385 12.3207C40.1036 12.6862 40.1036 13.2809 39.7385 13.6464L37.8013 15.5833C37.3647 15.135 36.907 14.7076 36.4309 14.303L38.4128 12.3207ZM19 3.8092C19 3.29211 19.4204 2.8717 19.9375 2.8717H27.4375C27.9546 2.8717 28.375 3.29211 28.375 3.8092V5.3092H19V3.8092ZM25.5625 7.1842V9.71033C24.3199 9.59387 23.0554 9.59387 21.8125 9.71033V7.1842H25.5625ZM7.63647 12.3207C8.00195 11.9556 8.59668 11.9552 8.96216 12.3207L10.9441 14.303C10.468 14.7076 10.0103 15.135 9.57373 15.5833L7.63647 13.6464C7.27136 13.2809 7.27136 12.6862 7.63647 12.3207ZM23.6875 47.1217C13.8657 47.1217 5.875 39.131 5.875 29.3092C5.875 24.9766 7.44788 20.8021 10.3036 17.5542C11.0902 16.6595 11.968 15.8422 12.9125 15.1237C15.2793 13.3226 18.0808 12.1372 21.0142 11.6952C21.892 11.5637 22.7914 11.4967 23.6875 11.4967C24.5836 11.4967 25.483 11.5637 26.3605 11.6952C29.2942 12.1372 32.0957 13.3226 34.4629 15.1237C35.407 15.8422 36.2848 16.6595 37.0714 17.5542C39.9271 20.8021 41.5 24.9766 41.5 29.3092C41.5 39.131 33.5093 47.1217 23.6875 47.1217Z" fill="url(#paint2_linear)"/>
<path d="M23.6875 32.1217C25.2384 32.1217 26.5 30.8601 26.5 29.3092C26.5 28.0872 25.7163 27.0449 24.625 26.6578V19.9342C24.625 19.4164 24.2053 18.9967 23.6875 18.9967C23.1697 18.9967 22.75 19.4164 22.75 19.9342V26.6578C21.6587 27.0449 20.875 28.0872 20.875 29.3092C20.875 30.8601 22.1366 32.1217 23.6875 32.1217ZM23.6875 28.3717C24.2046 28.3717 24.625 28.7921 24.625 29.3092C24.625 29.8263 24.2046 30.2467 23.6875 30.2467C23.1704 30.2467 22.75 29.8263 22.75 29.3092C22.75 28.7921 23.1704 28.3717 23.6875 28.3717Z" fill="url(#paint3_linear)"/>
<path d="M33.6744 19.4186C33.6598 19.4014 33.6451 19.3842 33.6287 19.368C33.6111 19.3501 33.5924 19.334 33.5737 19.3179C31.9214 17.6831 29.8801 16.4735 27.6649 15.8195C27.168 15.673 26.6469 15.9564 26.5004 16.453C26.3539 16.9496 26.6373 17.4711 27.1339 17.6176C28.7753 18.1024 30.3064 18.9403 31.6116 20.0591L30.9791 20.6915C30.6133 21.0577 30.6133 21.6514 30.9791 22.0176C31.1622 22.2007 31.4021 22.2922 31.6423 22.2922C31.8822 22.2922 32.1221 22.2007 32.3052 22.0176L32.9391 21.3837C34.6354 23.3561 35.6428 25.7841 35.8391 28.3717H34.9375C34.4197 28.3717 34 28.7918 34 29.3092C34 29.827 34.4197 30.2467 34.9375 30.2467H35.8391C35.6428 32.8347 34.6354 35.2623 32.9391 37.2347L32.3052 36.6008C31.939 36.235 31.3453 36.235 30.9791 36.6008C30.6129 36.967 30.6129 37.5607 30.9791 37.9269L31.613 38.5608C29.6406 40.2571 27.2126 41.2645 24.625 41.4612V40.5592C24.625 40.0414 24.2053 39.6217 23.6875 39.6217C23.1697 39.6217 22.75 40.0414 22.75 40.5592V41.4608C20.1624 41.2645 17.7344 40.2571 15.762 38.5608L16.3959 37.9269C16.7621 37.5607 16.7621 36.967 16.3959 36.6008C16.0297 36.235 15.436 36.235 15.0698 36.6008L14.4359 37.2347C12.7396 35.2623 11.7322 32.8344 11.5359 30.2467H12.4375C12.9553 30.2467 13.375 29.827 13.375 29.3092C13.375 28.7914 12.9553 28.3717 12.4375 28.3717H11.5359C11.7322 25.7841 12.7396 23.3561 14.4359 21.3837L15.0698 22.0176C15.2529 22.2007 15.4928 22.2922 15.7327 22.2922C15.9729 22.2922 16.2128 22.2007 16.3959 22.0176C16.7617 21.6514 16.7617 21.0577 16.3959 20.6915L15.7634 20.0591C17.0686 18.9399 18.5997 18.1024 20.2411 17.6176C20.7377 17.4711 21.0211 16.9496 20.8746 16.453C20.7281 15.9564 20.2074 15.6733 19.7101 15.8195C17.4952 16.4731 15.4547 17.6824 13.8027 19.3164C13.7833 19.3329 13.7643 19.3497 13.7463 19.3677C13.7302 19.3838 13.7159 19.4006 13.7013 19.4175C11.0723 22.0711 9.625 25.5808 9.625 29.3092C9.625 33.0372 11.0723 36.5466 13.7006 39.1998C13.7152 39.217 13.7299 39.2343 13.7463 39.2504C13.7625 39.2669 13.7793 39.2811 13.7961 39.2958C16.4497 41.9244 19.9591 43.3717 23.6875 43.3717C27.4155 43.3717 30.9249 41.9248 33.5781 39.2965C33.5953 39.2815 33.6125 39.2669 33.6287 39.2504C33.6448 39.2346 33.6591 39.2174 33.6737 39.2009C36.3027 36.5474 37.75 33.0376 37.75 29.3092C37.75 25.5812 36.3027 22.0718 33.6744 19.4186Z" fill="url(#paint4_linear)"/>
<path d="M23.6875 17.1217C24.205 17.1217 24.625 16.7017 24.625 16.1842C24.625 15.6667 24.205 15.2467 23.6875 15.2467C23.17 15.2467 22.75 15.6667 22.75 16.1842C22.75 16.7017 23.17 17.1217 23.6875 17.1217Z" fill="url(#paint5_linear)"/>
</g>
</g>
<defs>
<linearGradient id="paint0_linear" x1="-83.3058" y1="-171.177" x2="-167.255" y2="-84.6363" gradientUnits="userSpaceOnUse">
<stop stop-color="#009CBD"/>
<stop offset="1" stop-color="#00D788"/>
</linearGradient>
<linearGradient id="paint1_linear" x1="-83.3058" y1="-171.177" x2="-167.255" y2="-84.6363" gradientUnits="userSpaceOnUse">
<stop stop-color="#009CBD"/>
<stop offset="1" stop-color="#00D788"/>
</linearGradient>
<linearGradient id="paint2_linear" x1="-64.3368" y1="-171.177" x2="-147.158" y2="-101.141" gradientUnits="userSpaceOnUse">
<stop stop-color="#009CBD"/>
<stop offset="1" stop-color="#00D788"/>
</linearGradient>
<linearGradient id="paint3_linear" x1="11.1126" y1="-28.0821" x2="-5.86582" y2="-20.581" gradientUnits="userSpaceOnUse">
<stop stop-color="#009CBD"/>
<stop offset="1" stop-color="#00D788"/>
</linearGradient>
<linearGradient id="paint4_linear" x1="-39.187" y1="-83.1862" x2="-87.4049" y2="-32.5175" gradientUnits="userSpaceOnUse">
<stop stop-color="#009CBD"/>
<stop offset="1" stop-color="#00D788"/>
</linearGradient>
<linearGradient id="paint5_linear" x1="19.4959" y1="8.52116" x2="16.2166" y2="11.9017" gradientUnits="userSpaceOnUse">
<stop stop-color="#009CBD"/>
<stop offset="1" stop-color="#00D788"/>
</linearGradient>
</defs>
</svg>
