<svg width="254" height="372" viewBox="0 0 254 372" fill="none" xmlns="http://www.w3.org/2000/svg">
<path d="M125 13.0036C125 13.0036 117.373 -3.21117 104.799 0.572279C92.225 4.35572 96.3546 10.6038 90.3182 14.6575C84.2819 18.7112 64.168 23.3918 71.6426 53C71.6426 53 122.058 42.1902 125 13.0036Z" fill="#291A14"/>
<path d="M232.414 158.095C232.414 158.095 261.05 118.855 244.887 71.7196C244.887 71.7196 244.887 71.6119 244.833 71.558C244.682 71.1057 244.52 70.6533 244.358 70.2009C244.132 69.5761 243.894 68.9406 243.657 68.3159C230.601 34.3432 195.459 10 154.188 10C107.263 10 68.2907 41.4845 60.6192 82.8571C52.1169 85.2807 45.5135 90.3432 42.719 97.6138C40.2697 103.947 41.0573 110.959 44.3698 117.616C44.5964 118.079 44.8446 118.543 45.0927 119.006L62.475 152.181C62.475 152.181 -3.88205 224.888 59.2381 295.44C122.358 365.992 255.072 308.904 253.993 246.969C252.914 185.034 232.414 158.095 232.414 158.095Z" fill="#8A583D"/>
<path d="M253.993 246.97C254.831 295.172 175.035 340.444 110 324.88C209.367 201.052 147.209 67.6384 116.914 17.3039C128.921 12.4533 141.748 9.97364 154.691 10.001C174.242 9.91486 193.383 15.6257 209.71 26.4165C225.096 36.5166 236.976 51.1614 243.709 68.3278C243.945 68.9525 244.181 69.588 244.407 70.2128L244.879 71.57C244.892 71.6253 244.91 71.6794 244.933 71.7315C261.036 118.867 232.523 158.107 232.523 158.107C232.523 158.107 252.92 185.035 253.993 246.97Z" fill="url(#paint0_linear)"/>
<path d="M62.6073 294.164C62.6073 294.164 37.3167 311.979 49.1549 334.111C60.993 356.244 83.0551 369.199 109.96 355.164C136.865 341.129 101.135 313.598 101.512 306.58C101.889 299.563 67.9883 284.448 62.6073 294.164Z" fill="#251713"/>
<path d="M62.6073 296.164C62.6073 296.164 37.3167 313.979 49.1549 336.111C60.993 358.244 83.0551 371.199 109.96 357.164C136.865 343.129 101.135 315.598 101.512 308.58C101.889 301.563 67.9883 286.448 62.6073 296.164Z" fill="url(#paint1_linear)"/>
<path d="M147.573 313.193C147.573 313.193 143.769 322.383 133.444 324.005C123.119 325.627 97.5791 326.708 101.383 346.711C105.187 366.714 123.663 379.645 161.158 366.962C198.653 354.279 203 307.246 203 307.246C203 307.246 151.92 292.141 147.573 313.193Z" fill="#291A14"/>
<path d="M147.573 313.193C147.573 313.193 143.769 322.383 133.444 324.005C123.119 325.627 97.5791 326.708 101.383 346.711C105.187 366.714 123.663 379.645 161.158 366.962C198.653 354.279 203 307.246 203 307.246C203 307.246 151.92 292.141 147.573 313.193Z" fill="url(#paint2_linear)"/>
<path d="M59.5 194C64.1944 194 68 188.18 68 181C68 173.82 64.1944 168 59.5 168C54.8056 168 51 173.82 51 181C51 188.18 54.8056 194 59.5 194Z" fill="#A07545"/>
<path d="M58.5 194C62.6421 194 66 188.18 66 181C66 173.82 62.6421 168 58.5 168C54.3579 168 51 173.82 51 181C51 188.18 54.3579 194 58.5 194Z" fill="#F6C050"/>
<path d="M57 192C61.4183 192 65 186.18 65 179C65 171.82 61.4183 166 57 166C52.5817 166 49 171.82 49 179C49 186.18 52.5817 192 57 192Z" fill="#A07545"/>
<path d="M56 192C60.4183 192 64 186.18 64 179C64 171.82 60.4183 166 56 166C51.5817 166 48 171.82 48 179C48 186.18 51.5817 192 56 192Z" fill="#F6C050"/>
<path d="M81.4863 184.312C83.8872 177.603 82.33 170.91 78.0081 169.363C73.6863 167.817 68.2364 172.002 65.8355 178.711C63.4346 185.42 64.9918 192.113 69.3137 193.659C73.6355 195.206 79.0854 191.021 81.4863 184.312Z" fill="#A07545"/>
<path d="M80.3222 183.887C82.7231 177.178 81.1659 170.485 76.8441 168.939C72.5222 167.392 67.0724 171.577 64.6715 178.286C62.2705 184.996 63.8278 191.688 68.1496 193.235C72.4714 194.782 77.9213 190.596 80.3222 183.887Z" fill="#F6C050"/>
<path d="M76.2792 169.257C78.6801 162.548 77.1229 155.855 72.801 154.309C68.4792 152.762 63.0294 156.947 60.6285 163.657C58.2276 170.366 59.7848 177.058 64.1066 178.605C68.4285 180.152 73.8783 175.967 76.2792 169.257Z" fill="#A07545"/>
<path d="M75.103 168.844C77.5039 162.135 75.9467 155.442 71.6249 153.895C67.303 152.349 61.8532 156.534 59.4522 163.243C57.0513 169.952 58.6085 176.645 62.9304 178.191C67.2522 179.738 72.7021 175.553 75.103 168.844Z" fill="#F6C050"/>
<path d="M101.931 184.521C104.332 177.812 102.775 171.119 98.453 169.573C94.1312 168.026 88.6813 172.211 86.2804 178.92C83.8794 185.629 85.4367 192.322 89.7585 193.869C94.0803 195.415 99.5302 191.23 101.931 184.521Z" fill="#A07545"/>
<path d="M100.768 184.102C103.169 177.392 101.612 170.7 97.2903 169.153C92.9685 167.607 87.5186 171.792 85.1177 178.501C82.7168 185.21 84.274 191.903 88.5959 193.449C92.9177 194.996 98.3676 190.811 100.768 184.102Z" fill="#F6C050"/>
<path d="M92.2675 176.247C94.6685 169.537 93.1113 162.845 88.7894 161.298C84.4676 159.752 79.0177 163.937 76.6168 170.646C74.2159 177.355 75.7731 184.048 80.0949 185.594C84.4168 187.141 89.8666 182.956 92.2675 176.247Z" fill="#A07545"/>
<path d="M91.1035 175.823C93.5044 169.114 91.9472 162.421 87.6253 160.874C83.3035 159.328 77.8536 163.513 75.4527 170.222C73.0518 176.931 74.609 183.624 78.9308 185.17C83.2527 186.717 88.7025 182.532 91.1035 175.823Z" fill="#F6C050"/>
<path d="M97.0332 184.306C99.4341 177.597 97.8769 170.904 93.555 169.358C89.2332 167.811 83.7833 171.996 81.3824 178.705C78.9815 185.415 80.5387 192.107 84.8605 193.654C89.1824 195.2 94.6323 191.015 97.0332 184.306Z" fill="#A07545"/>
<path d="M95.873 183.892C98.2739 177.183 96.7167 170.49 92.3949 168.944C88.073 167.397 82.6232 171.582 80.2223 178.292C77.8213 185.001 79.3785 191.693 83.7004 193.24C88.0222 194.787 93.4721 190.602 95.873 183.892Z" fill="#F6C050"/>
<path d="M87.9009 168.189C90.3018 161.48 88.7446 154.787 84.4227 153.24C80.1009 151.694 74.651 155.879 72.2501 162.588C69.8492 169.297 71.4064 175.99 75.7282 177.536C80.0501 179.083 85.4999 174.898 87.9009 168.189Z" fill="#A07545"/>
<path d="M86.7519 167.768C89.1529 161.059 87.5956 154.366 83.2738 152.82C78.9519 151.273 73.5021 155.458 71.1012 162.167C68.7002 168.877 70.2574 175.569 74.5793 177.116C78.9011 178.662 84.351 174.477 86.7519 167.768Z" fill="#F6C050"/>
<path d="M124.1 181.133C126.501 174.424 124.944 167.731 120.622 166.184C116.3 164.638 110.85 168.823 108.449 175.532C106.048 182.241 107.606 188.934 111.927 190.481C116.249 192.027 121.699 187.842 124.1 181.133Z" fill="#A07545"/>
<path d="M122.861 180.697C125.262 173.988 123.705 167.295 119.383 165.748C115.061 164.202 109.611 168.387 107.211 175.096C104.81 181.805 106.367 188.498 110.689 190.045C115.01 191.591 120.46 187.406 122.861 180.697Z" fill="#F6C050"/>
<path d="M116.398 191.918C120.363 189.606 120.668 182.741 117.078 176.585C113.488 170.43 107.364 167.314 103.398 169.627C99.4332 171.939 99.1288 178.804 102.719 184.959C106.308 191.115 112.433 194.23 116.398 191.918Z" fill="#A07545"/>
<path d="M114.175 192.196C118.123 189.901 118.435 183.072 114.872 176.944C111.309 170.816 105.22 167.708 101.273 170.004C97.3252 172.299 97.0133 179.127 100.576 185.255C104.139 191.384 110.228 194.491 114.175 192.196Z" fill="#F6C050"/>
<path d="M108.004 190.175C111.969 187.863 112.273 180.998 108.683 174.842C105.094 168.687 98.9691 165.571 95.0039 167.884C91.0387 170.196 90.7343 177.061 94.3242 183.216C97.914 189.372 104.039 192.487 108.004 190.175Z" fill="#A07545"/>
<path d="M105.828 190.439C109.776 188.144 110.088 181.315 106.525 175.187C102.962 169.059 96.8732 165.951 92.9256 168.246C88.978 170.542 88.6661 177.37 92.2291 183.498C95.792 189.626 101.88 192.734 105.828 190.439Z" fill="#F6C050"/>
<path d="M108.542 179.67C112.508 177.357 112.812 170.493 109.222 164.337C105.632 158.181 99.5077 155.066 95.5424 157.378C91.5772 159.691 91.2729 166.555 94.8628 172.711C98.4526 178.867 104.577 181.982 108.542 179.67Z" fill="#A07545"/>
<path d="M107.476 180.293C111.442 177.98 111.746 171.116 108.156 164.96C104.566 158.804 98.4417 155.689 94.4765 158.001C90.5113 160.314 90.207 167.179 93.7968 173.334C97.3866 179.49 103.511 182.605 107.476 180.293Z" fill="#F6C050"/>
<path d="M114.494 167.279C115.164 160.184 112.003 154.083 107.433 153.651C102.864 153.219 98.6153 158.62 97.9447 165.714C97.2741 172.809 100.435 178.91 105.005 179.342C109.575 179.774 113.823 174.373 114.494 167.279Z" fill="#A07545"/>
<path d="M113.271 167.166C113.942 160.072 110.781 153.971 106.211 153.539C101.641 153.107 97.3927 158.508 96.7221 165.602C96.0514 172.696 99.2124 178.797 103.782 179.229C108.352 179.661 112.6 174.261 113.271 167.166Z" fill="#F6C050"/>
<path d="M98.0879 161.241C98.7585 154.147 95.5975 148.046 91.0276 147.614C86.4577 147.182 82.2095 152.583 81.5389 159.677C80.8683 166.771 84.0293 172.872 88.5992 173.304C93.169 173.736 97.4173 168.336 98.0879 161.241Z" fill="#A07545"/>
<path d="M96.8765 161.128C97.5471 154.034 94.3861 147.933 89.8162 147.501C85.2464 147.069 80.9981 152.47 80.3275 159.564C79.6569 166.658 82.8179 172.759 87.3877 173.191C91.9576 173.623 96.2058 168.222 96.8765 161.128Z" fill="#F6C050"/>
<path d="M98.708 169.992C99.3786 162.897 96.2176 156.796 91.6477 156.364C87.0778 155.932 82.8296 161.333 82.159 168.427C81.4884 175.521 84.6494 181.623 89.2193 182.055C93.7892 182.487 98.0374 177.086 98.708 169.992Z" fill="#A07545"/>
<path d="M97.4741 169.878C98.1447 162.784 94.9837 156.683 90.4138 156.251C85.844 155.819 81.5957 161.22 80.9251 168.314C80.2546 175.408 83.4155 181.509 87.9854 181.941C92.5553 182.373 96.8035 176.973 97.4741 169.878Z" fill="#F6C050"/>
<path d="M87.809 179.766C88.4796 172.672 85.3187 166.571 80.7488 166.139C76.1789 165.707 71.9307 171.108 71.2601 178.202C70.5895 185.296 73.7505 191.397 78.3204 191.829C82.8902 192.261 87.1385 186.86 87.809 179.766Z" fill="#A07545"/>
<path d="M86.5756 179.653C87.2462 172.558 84.0853 166.457 79.5154 166.025C74.9455 165.593 70.6973 170.994 70.0267 178.088C69.3561 185.183 72.5171 191.284 77.087 191.716C81.6568 192.148 85.9051 186.747 86.5756 179.653Z" fill="#F6C050"/>
<path d="M57.5404 181.175C61.9333 179.844 63.8191 173.236 61.7524 166.417C59.6856 159.597 54.4491 155.148 50.0561 156.48C45.6632 157.811 43.7775 164.418 45.8442 171.238C47.9109 178.058 53.1475 182.507 57.5404 181.175Z" fill="#A07545"/>
<path d="M55.6684 181.734C60.0613 180.403 61.947 173.795 59.8803 166.976C57.8136 160.156 52.577 155.707 48.1841 157.039C43.7912 158.37 41.9054 164.978 43.9721 171.797C46.0388 178.617 51.2754 183.066 55.6684 181.734Z" fill="#F6C050"/>
<path d="M43.6354 171C43.6354 171 34.5703 175.311 39.0652 181.238C26.1611 190.936 -10.4004 238.654 48.6142 259.518C107.629 280.381 130.942 245.077 133.458 235.12C136.039 224.893 128.695 192.014 126.157 192.014C126.157 192.014 131.211 182.854 126.157 179.621C71.7448 199.353 52.3887 179.826 43.6354 171Z" fill="#66493B"/>
<path d="M133.457 234.898C130.935 244.917 107.585 280.486 48.4039 259.472C47.5846 259.179 46.7869 258.886 46 258.582C74.8469 238.817 78.5984 207.383 77.5743 187.26C89.5184 188.421 105.257 186.609 126.138 179C131.204 182.256 126.138 191.482 126.138 191.482C128.682 191.482 136.044 224.587 133.457 234.898Z" fill="url(#paint3_linear)"/>
<path d="M64.0003 78.6831C64.0003 78.6831 63.4618 35.1075 107.891 33.1433C152.32 31.1791 177.362 49.3267 184.363 92.5606C191.364 135.795 138.588 139.264 126.74 119.248C126.74 119.248 115.237 96.1795 103.852 89.0912C92.4673 82.003 78.7454 82.889 75.3096 84.5543C75.3096 84.5543 65.8852 80.0175 64.0003 80.1456V78.6831Z" fill="#51372D"/>
<path d="M126.847 119.218C126.847 119.218 119.074 103.582 110 94.0677C133.115 66.4128 129.631 45.7572 122.192 33C157.756 35.3117 178.161 53.9766 184.364 92.4623C191.352 135.807 138.673 139.285 126.847 119.218Z" fill="url(#paint4_linear)"/>
<path d="M142.004 48.9757L134.827 44.2159C133.654 43.4381 132.073 43.7584 131.295 44.9313L131.289 44.9403C130.511 46.1132 130.831 47.6945 132.004 48.4723L139.182 53.2321C140.355 54.0099 141.936 53.6896 142.714 52.5167L142.72 52.5078C143.498 51.3349 143.177 49.7535 142.004 48.9757Z" fill="#291A14"/>
<path d="M90.6056 38.9442L82.3281 41.3225C80.9754 41.7111 80.194 43.1226 80.5826 44.4753L80.5856 44.4856C80.9742 45.8382 82.3858 46.6197 83.7384 46.2311L92.0159 43.8529C93.3686 43.4643 94.15 42.0527 93.7614 40.7L93.7584 40.6897C93.3698 39.3371 91.9582 38.5556 90.6056 38.9442Z" fill="#291A14"/>
<path d="M146.807 85.7213C147.606 74.7587 142.214 65.4315 134.764 64.8883C127.313 64.3451 120.625 72.7916 119.826 83.7541C119.027 94.7166 124.419 104.044 131.869 104.587C139.32 105.13 146.007 96.6838 146.807 85.7213Z" fill="white"/>
<path d="M133.933 84.5062C134.286 79.6675 131.701 75.5357 128.159 75.2774C124.618 75.0192 121.461 78.7324 121.108 83.5711C120.755 88.4098 123.34 92.5416 126.882 92.7998C130.424 93.058 133.581 89.3449 133.933 84.5062Z" fill="#140E0D"/>
<path d="M127.735 81.0156C127.856 79.3513 126.966 77.9301 125.746 77.8412C124.526 77.7522 123.438 79.0292 123.317 80.6935C123.196 82.3577 124.086 83.7789 125.306 83.8678C126.526 83.9568 127.614 82.6798 127.735 81.0156Z" fill="white"/>
<path d="M85.876 83.8935C85.876 83.8935 78.0257 83.65 76.0947 85C75.5279 84.7012 74.9507 84.4025 74.3735 84.1369C72.9356 83.4177 71.5398 82.7759 70.5323 82.3333L69 81.6693C69 81.6693 69 80.8062 69.1259 79.4563C69.3259 76.7852 69.6941 74.131 70.2279 71.5114C71.5923 64.9718 74.4259 57.9121 80.4711 59.1403C87.3034 61.3423 85.876 83.8935 85.876 83.8935Z" fill="white"/>
<path d="M78.9744 76.914C78.7135 80.7205 76.5762 83.7097 74.0173 84C72.6426 83.3011 71.308 82.6774 70.3446 82.2473C69.7089 81.4173 69.25 80.4485 69 79.4086C69.1912 76.813 69.5432 74.2339 70.0536 71.6883C70.4761 70.8686 71.0971 70.1862 71.8512 69.7131C72.6053 69.24 73.4646 68.9937 74.3384 69.0001C77.1883 69.2259 79.2554 72.7635 78.9744 76.914Z" fill="#140E0D"/>
<path d="M74.9407 73.7924C75.0542 72.2348 74.2245 70.9049 73.0874 70.822C71.9502 70.7391 70.9364 71.9346 70.8228 73.4922C70.7092 75.0498 71.539 76.3797 72.6761 76.4626C73.8132 76.5455 74.8271 75.35 74.9407 73.7924Z" fill="white"/>
<path d="M192.676 16.836C192.676 16.836 184.185 40.1267 197.452 38.2086C210.72 36.2906 208.597 28.2457 214.435 32.1366C220.273 36.0275 204.086 50.265 214.435 63.1434C224.783 76.0218 251.318 88.2535 253.441 68.9852C255.564 49.717 251.966 21.2201 236.99 9.16377C222.013 -2.89259 202.494 0.669517 192.676 16.836Z" fill="#291A14"/>
<path d="M208.736 168.53C206.252 167.353 183.246 166.925 173.483 180.834C163.721 194.743 120.333 202.233 108.944 215.072C97.5542 227.911 99.1813 246.099 108.944 250.914C118.706 255.729 157.755 260.008 187.584 240.75C217.414 221.491 247.243 186.719 208.736 168.53Z" fill="#291A14"/>
<path d="M208.736 168.53C206.252 167.353 183.246 166.925 173.483 180.834C163.721 194.743 120.333 202.233 108.944 215.072C97.5542 227.911 99.1813 246.099 108.944 250.914C118.706 255.729 157.755 260.008 187.584 240.75C217.414 221.491 247.243 186.719 208.736 168.53Z" fill="url(#paint5_linear)"/>
<path d="M110.865 130.083C109.793 134.141 98.7533 143.566 89.1067 141.777C79.4602 139.988 94.8196 131.252 100.747 133.006C106.674 134.76 111.915 126.037 110.865 130.083Z" fill="#291A14"/>
<path d="M92.6041 104.276C94.4673 93.9624 84.3527 83.5012 70.0124 80.9106C55.6722 78.3201 42.5367 84.5812 40.6735 94.8952C38.8102 105.209 48.9249 115.67 63.2651 118.261C77.6054 120.851 90.7409 114.59 92.6041 104.276Z" fill="#100B0A"/>
<path opacity="0.42" d="M73.5644 89.953C74.0056 87.5104 70.2893 84.7943 65.2638 83.8864C60.2383 82.9785 55.8066 84.2227 55.3654 86.6654C54.9241 89.108 58.6404 91.8241 63.6659 92.732C68.6914 93.6398 73.1231 92.3957 73.5644 89.953Z" fill="white"/>
<path d="M107 341C107 341 101.771 337.607 97 339.66" stroke="#160F0D" stroke-width="3" stroke-miterlimit="10" stroke-linecap="round"/>
<path d="M115 222C115 222 108.726 218.607 103 220.66" stroke="#160F0D" stroke-width="3" stroke-miterlimit="10" stroke-linecap="round"/>
<path d="M110 233C110 233 104.254 229.599 99 231.667" stroke="#160F0D" stroke-width="3" stroke-miterlimit="10" stroke-linecap="round"/>
<path d="M101 246.368C101 246.368 106.87 248.842 111 244" stroke="#160F0D" stroke-width="3" stroke-miterlimit="10" stroke-linecap="round"/>
<path d="M58 158C58 158 -6.04826 161.779 0.465121 209.292C6.9785 256.806 27.6042 270.304 47.1444 257.345C66.6845 244.387 42.9541 234.917 39.6214 219.67C28.9937 196.334 44.4305 161.24 58 158Z" fill="#291A14"/>
<path d="M49 259C49 259 47.2288 253.07 42 251" stroke="#160F0D" stroke-width="3" stroke-miterlimit="10" stroke-linecap="round"/>
<path d="M57 253C57 253 55.3659 246.444 50 244" stroke="#160F0D" stroke-width="3" stroke-miterlimit="10" stroke-linecap="round"/>
<path d="M32 255C32 255 32.1481 262.253 37 266" stroke="#160F0D" stroke-width="3" stroke-miterlimit="10" stroke-linecap="round"/>
<path d="M58 158C58 158 -6.04826 161.779 0.465121 209.292C6.9785 256.806 27.6042 270.304 47.1444 257.345C66.6845 244.387 42.9541 234.917 39.6214 219.67C28.9937 196.334 44.4305 161.24 58 158Z" fill="url(#paint6_linear)"/>
<path d="M49 259C49 259 47.2288 253.07 42 251L49 259Z" fill="url(#paint7_linear)"/>
<path d="M49 259C49 259 47.2288 253.07 42 251" stroke="#160F0D" stroke-width="3" stroke-miterlimit="10" stroke-linecap="round"/>
<path d="M57 253C57 253 55.3659 246.444 50 244L57 253Z" fill="url(#paint8_linear)"/>
<path d="M57 253C57 253 55.3659 246.444 50 244" stroke="#160F0D" stroke-width="3" stroke-miterlimit="10" stroke-linecap="round"/>
<path d="M32 255C32 255 32.1481 262.253 37 266L32 255Z" fill="url(#paint9_linear)"/>
<path d="M32 255C32 255 32.1481 262.253 37 266" stroke="#160F0D" stroke-width="3" stroke-miterlimit="10" stroke-linecap="round"/>
<path d="M110 349C110 349 102.858 348.9 99 353" stroke="#160F0D" stroke-width="3" stroke-miterlimit="10" stroke-linecap="round"/>
<path d="M113 358C113 358 106.939 360 105 365" stroke="#160F0D" stroke-width="3" stroke-miterlimit="10" stroke-linecap="round"/>
<path d="M48 187C53.1859 190.599 58.8424 193.403 64.7957 195.326C70.6883 197.266 76.7608 198.556 82.913 199.173C85.9929 199.35 89.0835 199.616 92.1847 199.494C95.286 199.561 98.3766 199.228 101.488 198.996C103.044 198.929 104.579 198.641 106.124 198.419L110.76 197.743C113.829 197.155 116.888 196.435 120 195.869C117.037 196.978 114.043 198.009 111.005 198.918C109.471 199.306 107.925 199.65 106.391 200.027C104.854 200.432 103.295 200.74 101.723 200.947L97.0018 201.601L95.8188 201.745H94.6252L92.238 201.856L89.8615 201.967H88.6678L87.5062 202L82.7211 201.767C76.3342 201.233 70.0519 199.762 64.0604 197.399C58.0794 195.112 52.6132 191.573 48 187Z" fill="#34221A"/>
<path d="M55.8875 177.574C60.2805 176.243 62.1662 169.635 60.0995 162.816C58.0328 155.996 52.7962 151.547 48.4033 152.878C44.0104 154.21 42.1246 160.817 44.1913 167.637C46.258 174.457 51.4946 178.906 55.8875 177.574Z" fill="#A07545"/>
<path d="M54.0253 178.122C58.4182 176.791 60.304 170.183 58.2372 163.364C56.1705 156.544 50.9339 152.095 46.541 153.427C42.1481 154.758 40.2623 161.366 42.329 168.185C44.3958 175.005 49.6323 179.454 54.0253 178.122Z" fill="#F6C050"/>
<path d="M68.8077 162.876C69.4065 155.775 66.1839 149.706 61.6099 149.321C57.0359 148.935 52.8426 154.378 52.2438 161.479C51.6451 168.58 54.8676 174.649 59.4416 175.034C64.0156 175.42 68.209 169.976 68.8077 162.876Z" fill="#A07545"/>
<path d="M66.8659 162.704C67.4646 155.604 64.242 149.535 59.668 149.149C55.094 148.763 50.9007 154.207 50.3019 161.308C49.7032 168.408 52.9257 174.477 57.4997 174.863C62.0737 175.249 66.2671 169.805 66.8659 162.704Z" fill="#F6C050"/>
<path d="M236.64 9.57724C235.417 8.63923 234.136 7.77845 232.805 7C232.87 8.07385 232.902 9.21213 232.902 10.3289C232.902 29.4434 223.239 45.2183 210.727 47.5915C209.503 52.295 209.438 57.4816 213.62 62.4643C224.182 75.082 251.264 87.0662 253.43 68.1879C255.597 49.3097 251.914 21.3896 236.64 9.57724Z" fill="url(#paint10_linear)"/>
<path opacity="0.42" d="M57 262.716C57 262.716 94.1128 275.561 120.036 254.369C134.326 254.902 151.543 256.152 160 252C151.359 266.574 83.3441 296.069 57 262.716Z" fill="#0D0909"/>
<defs>
<linearGradient id="paint0_linear" x1="110" y1="168.997" x2="253.993" y2="168.997" gradientUnits="userSpaceOnUse">
<stop offset="0.370166" stop-color="#2C1B0D" stop-opacity="0"/>
<stop offset="0.73" stop-color="#1D0E07" stop-opacity="0.48"/>
<stop offset="1" stop-color="#0D0000"/>
</linearGradient>
<linearGradient id="paint1_linear" x1="46.0016" y1="327.992" x2="120.001" y2="327.992" gradientUnits="userSpaceOnUse">
<stop offset="0.29" stop-color="#2C1B0D" stop-opacity="0"/>
<stop offset="0.68" stop-color="#1D0E07" stop-opacity="0.48"/>
<stop offset="0.92" stop-color="#0D0000"/>
</linearGradient>
<linearGradient id="paint2_linear" x1="9720.62" y1="22214.8" x2="19293.3" y2="22214.8" gradientUnits="userSpaceOnUse">
<stop offset="0.29" stop-color="#2C1B0D" stop-opacity="0"/>
<stop offset="0.68" stop-color="#1D0E07" stop-opacity="0.48"/>
<stop offset="0.92" stop-color="#0D0000"/>
</linearGradient>
<linearGradient id="paint3_linear" x1="46" y1="222.492" x2="133.996" y2="222.492" gradientUnits="userSpaceOnUse">
<stop offset="0.32" stop-color="#0D0000" stop-opacity="0"/>
<stop offset="0.75" stop-color="#0D0000" stop-opacity="0.48"/>
<stop offset="1" stop-color="#0D0000"/>
</linearGradient>
<linearGradient id="paint4_linear" x1="110" y1="82.0061" x2="184.999" y2="82.0061" gradientUnits="userSpaceOnUse">
<stop offset="0.31" stop-color="#2C1B0D" stop-opacity="0"/>
<stop offset="0.51" stop-color="#2C1B0D" stop-opacity="0.14"/>
<stop offset="0.78" stop-color="#2C1B0D" stop-opacity="0.55"/>
<stop offset="1" stop-color="#2C1B0D"/>
</linearGradient>
<linearGradient id="paint5_linear" x1="11984.1" y1="17280" x2="26620.2" y2="17280" gradientUnits="userSpaceOnUse">
<stop offset="0.29" stop-color="#2C1B0D" stop-opacity="0"/>
<stop offset="0.73" stop-color="#1D0E07" stop-opacity="0.48"/>
<stop offset="1" stop-color="#0D0000"/>
</linearGradient>
<linearGradient id="paint6_linear" x1="0" y1="20477.5" x2="3098.94" y2="20477.5" gradientUnits="userSpaceOnUse">
<stop offset="0.29" stop-color="#2C1B0D" stop-opacity="0"/>
<stop offset="0.73" stop-color="#1D0E07" stop-opacity="0.48"/>
<stop offset="1" stop-color="#0D0000"/>
</linearGradient>
<linearGradient id="paint7_linear" x1="308" y1="2151.16" x2="354.2" y2="2151.16" gradientUnits="userSpaceOnUse">
<stop offset="0.29" stop-color="#2C1B0D" stop-opacity="0"/>
<stop offset="0.73" stop-color="#1D0E07" stop-opacity="0.48"/>
<stop offset="1" stop-color="#0D0000"/>
</linearGradient>
<linearGradient id="paint8_linear" x1="370.46" y1="2326.69" x2="414.84" y2="2326.69" gradientUnits="userSpaceOnUse">
<stop offset="0.29" stop-color="#2C1B0D" stop-opacity="0"/>
<stop offset="0.73" stop-color="#1D0E07" stop-opacity="0.48"/>
<stop offset="1" stop-color="#0D0000"/>
</linearGradient>
<linearGradient id="paint9_linear" x1="178.3" y1="2920.74" x2="200.25" y2="2920.74" gradientUnits="userSpaceOnUse">
<stop offset="0.29" stop-color="#2C1B0D" stop-opacity="0"/>
<stop offset="0.73" stop-color="#1D0E07" stop-opacity="0.48"/>
<stop offset="1" stop-color="#0D0000"/>
</linearGradient>
<linearGradient id="paint10_linear" x1="8798.36" y1="2813.63" x2="10585.2" y2="2813.63" gradientUnits="userSpaceOnUse">
<stop offset="0.29" stop-color="#2C1B0D" stop-opacity="0"/>
<stop offset="0.73" stop-color="#1D0E07" stop-opacity="0.48"/>
<stop offset="1" stop-color="#0D0000"/>
</linearGradient>
</defs>
</svg>
