<svg width="48" height="49" viewBox="0 0 48 49" fill="none" xmlns="http://www.w3.org/2000/svg">
<mask id="mask0" mask-type="alpha" maskUnits="userSpaceOnUse" x="0" y="0" width="48" height="49">
<rect y="0.998047" width="48" height="48" fill="url(#paint0_linear)"/>
</mask>
<g mask="url(#mask0)">
<path d="M17.1875 20.3105C16.6748 20.3105 16.2573 20.7229 16.25 21.2349V21.248C16.25 21.7655 16.67 22.1855 17.1875 22.1855C17.705 22.1855 18.125 21.7655 18.125 21.248C18.125 21.2433 18.125 21.2396 18.125 21.2349C18.1177 20.7229 17.7002 20.3105 17.1875 20.3105Z" fill="url(#paint1_linear)"/>
<path d="M17.1875 0.998047C11.1311 0.998047 5 2.60828 5 5.68555V34.9355C5 38.0128 11.1311 39.623 17.1875 39.623C17.3702 39.623 17.5515 39.6212 17.731 39.6187C19.3822 45.1572 24.4868 48.998 30.3125 48.998C37.5496 48.998 43.4375 43.1101 43.4375 35.873C43.4375 28.636 37.5496 22.748 30.3125 22.748C29.9979 22.748 29.6823 22.7605 29.3669 22.7828C29.3677 22.1672 29.3717 12.8761 29.3721 11.6683C29.3732 11.6427 29.375 11.6171 29.375 11.5918C29.375 11.5735 29.3732 11.5559 29.3724 11.538L29.375 5.68591V5.68555C29.375 2.60828 23.2439 0.998047 17.1875 0.998047ZM17.8236 31.8356C17.6083 31.8396 17.3955 31.8418 17.1875 31.8418C14.2809 31.8418 11.561 31.4686 9.5293 30.7915C7.42981 30.0917 6.875 29.3329 6.875 29.0293V25.7426C9.15173 27.1074 13.1855 27.8105 17.1875 27.8105C18.1583 27.8105 19.1237 27.7695 20.0579 27.6901C19.0728 28.926 18.3103 30.3356 17.8236 31.8356ZM22.2485 25.5195C20.702 25.7909 18.9589 25.9355 17.1875 25.9355C14.2809 25.9355 11.561 25.5624 9.5293 24.8853C7.42981 24.1854 6.875 23.4266 6.875 23.123V20.1256C7.39868 20.4376 7.95825 20.6874 8.53284 20.8976C10.0621 21.4711 12.8629 21.9728 13.4441 21.9728C13.9139 21.9728 14.3193 21.6205 14.3743 21.1429C14.434 20.6284 14.0648 20.1633 13.5507 20.104C13.2507 20.0549 9.94531 19.7239 7.93005 18.5714C7.12732 18.1155 7.02917 17.8408 6.88525 17.5804C6.86072 17.4479 6.88416 17.7104 6.875 14.2113C9.15173 15.5762 13.1855 16.2793 17.1875 16.2793C20.2516 16.2793 23.1553 15.8809 25.3635 15.1576C26.2505 14.8672 26.9576 14.5497 27.5055 14.2223C27.5033 17.6625 27.5048 17.5511 27.5033 17.5603C27.4656 17.7361 27.3169 17.9067 27.1887 18.0327C27.1792 18.0364 25.7213 19.5463 20.8357 20.1025L20.8243 20.104C20.3098 20.1633 19.941 20.6284 20.0004 21.1429C20.0557 21.6205 20.4607 21.9728 20.9305 21.9728C22.0544 21.9728 25.7319 21.1807 27.5026 20.13L27.5011 23.0527C25.5968 23.4709 23.7932 24.3143 22.2485 25.5195ZM27.5029 17.5654C27.5029 17.5647 27.5033 17.564 27.5033 17.5632C27.5026 17.5662 27.5029 17.5654 27.5029 17.5654ZM27.5066 11.624C27.4744 11.9401 26.8628 12.6937 24.7798 13.376C22.755 14.0392 20.0586 14.4043 17.1875 14.4043C14.2809 14.4043 11.561 14.0311 9.5293 13.354C7.42981 12.6542 6.875 11.8954 6.875 11.5918V8.30505C9.15173 9.66992 13.1855 10.373 17.1875 10.373C21.1887 10.373 25.2313 9.66992 27.5081 8.30579L27.5066 11.624ZM9.5293 3.92334C11.561 3.24622 14.2809 2.87305 17.1875 2.87305C20.0941 2.87305 22.814 3.24622 24.8457 3.92334C26.9452 4.62317 27.5 5.38196 27.5 5.68555C27.5 5.98914 26.9452 6.74792 24.8457 7.44775C22.814 8.12488 20.0941 8.49805 17.1875 8.49805C14.2809 8.49805 11.561 8.12488 9.5293 7.44775C7.42981 6.74792 6.875 5.98914 6.875 5.68555C6.875 5.38196 7.42981 4.62317 9.5293 3.92334ZM9.5293 36.6978C7.42981 35.9979 6.875 35.2391 6.875 34.9355V31.6488C9.15173 33.0137 13.1855 33.7168 17.1875 33.7168C17.2461 33.7168 17.3058 33.7161 17.3647 33.7161C17.2476 34.4258 17.1875 35.1476 17.1875 35.873C17.1875 36.5022 17.2322 37.1292 17.3208 37.7473C17.2761 37.7477 17.2322 37.748 17.1875 37.748C14.2809 37.748 11.561 37.3749 9.5293 36.6978ZM41.5625 35.873C41.5625 42.0763 36.5157 47.123 30.3125 47.123C25.0585 47.123 20.5541 43.5558 19.3584 38.4482C19.3577 38.4457 19.3573 38.4435 19.3569 38.4409C19.3566 38.4398 19.3562 38.4384 19.3558 38.4369C19.1614 37.603 19.0625 36.7406 19.0625 35.873C19.0625 34.9015 19.1859 33.9387 19.4294 33.0115C20.6841 28.2266 25.0504 24.623 30.3125 24.623C36.5157 24.623 41.5625 29.6698 41.5625 35.873Z" fill="url(#paint2_linear)"/>
<path d="M27.5014 33.998C27.5014 35.549 28.763 36.8105 30.3139 36.8105C30.831 36.8105 31.2514 37.231 31.2514 37.748C31.2514 38.2651 30.831 38.6855 30.3139 38.6855C29.9133 38.6855 29.4808 38.4336 29.0967 37.9766C28.7634 37.58 28.172 37.5287 27.7757 37.8619C27.3791 38.1952 27.3282 38.7866 27.6615 39.1829C28.1624 39.7791 28.752 40.1947 29.3764 40.4038V41.498C29.3764 42.0159 29.7961 42.4355 30.3139 42.4355C30.8318 42.4355 31.2514 42.0159 31.2514 41.498V40.3994C32.3427 40.0123 33.1264 38.9701 33.1264 37.748C33.1264 36.1971 31.8648 34.9355 30.3139 34.9355C29.7968 34.9355 29.3764 34.5151 29.3764 33.998C29.3764 33.481 29.7968 33.0605 30.3139 33.0605C30.6461 33.0605 30.9966 33.2301 31.328 33.5505C31.7 33.9105 32.2937 33.9006 32.6537 33.5289C33.0136 33.1565 33.0038 32.5632 32.6317 32.2032C32.156 31.7426 31.6799 31.4822 31.2514 31.3401V30.248C31.2514 29.7302 30.8318 29.3105 30.3139 29.3105C29.7961 29.3105 29.3764 29.7302 29.3764 30.248V31.3467C28.2851 31.7338 27.5014 32.776 27.5014 33.998Z" fill="url(#paint3_linear)"/>
</g>
<defs>
<linearGradient id="paint0_linear" x1="-83.3058" y1="-171.176" x2="-167.255" y2="-84.6349" gradientUnits="userSpaceOnUse">
<stop stop-color="#009CBD"/>
<stop offset="1" stop-color="#00D788"/>
</linearGradient>
<linearGradient id="paint1_linear" x1="12.9959" y1="13.585" x2="9.71659" y2="16.9655" gradientUnits="userSpaceOnUse">
<stop stop-color="#009CBD"/>
<stop offset="1" stop-color="#00D788"/>
</linearGradient>
<linearGradient id="paint2_linear" x1="-61.7097" y1="-171.176" x2="-144.177" y2="-103.099" gradientUnits="userSpaceOnUse">
<stop stop-color="#009CBD"/>
<stop offset="1" stop-color="#00D788"/>
</linearGradient>
<linearGradient id="paint3_linear" x1="17.5748" y1="-17.7683" x2="0.475129" y2="-10.133" gradientUnits="userSpaceOnUse">
<stop stop-color="#009CBD"/>
<stop offset="1" stop-color="#00D788"/>
</linearGradient>
</defs>
</svg>
